<svg xmlns="http://www.w3.org/2000/svg" viewBox="0 0 19.54 16.9"><defs><style>.cls-1{fill:#00abee;}.cls-2{fill:#fff;}.cls-3{fill:#3fa9f5;}</style></defs><title>API</title><g id="Layer_2" data-name="Layer 2"><g id="Layer_1-2" data-name="Layer 1"><path class="cls-1" d="M6.53,10.41,8,9.13a.17.17,0,0,0,0-.27l-.68-.74a.18.18,0,0,0-.27,0L4.74,10.27a.17.17,0,0,0,0,.27L7,12.69a.18.18,0,0,0,.27,0L8,12a.17.17,0,0,0,0-.27ZM11.4,6.57l-1-.27a.19.19,0,0,0-.24.13L8,13.94a.2.2,0,0,0,.14.25l1,.27a.19.19,0,0,0,.24-.13l2.18-7.52A.19.19,0,0,0,11.4,6.57Zm3.4,3.7L12.52,8.12a.18.18,0,0,0-.27,0l-.68.74a.17.17,0,0,0,0,.27L13,10.41l-1.44,1.28a.17.17,0,0,0,0,.27l.68.73a.18.18,0,0,0,.27,0l2.28-2.15A.17.17,0,0,0,14.8,10.27Zm0,0L12.52,8.12a.18.18,0,0,0-.27,0l-.68.74a.17.17,0,0,0,0,.27L13,10.41l-1.44,1.28a.17.17,0,0,0,0,.27l.68.73a.18.18,0,0,0,.27,0l2.28-2.15A.17.17,0,0,0,14.8,10.27Zm-3.4-3.7-1-.27a.19.19,0,0,0-.24.13L8,13.94a.2.2,0,0,0,.14.25l1,.27a.19.19,0,0,0,.24-.13l2.18-7.52A.19.19,0,0,0,11.4,6.57ZM6.53,10.41,8,9.13a.17.17,0,0,0,0-.27l-.68-.74a.18.18,0,0,0-.27,0L4.74,10.27a.17.17,0,0,0,0,.27L7,12.69a.18.18,0,0,0,.27,0L8,12a.17.17,0,0,0,0-.27Zm0,0L8,9.13a.17.17,0,0,0,0-.27l-.68-.74a.18.18,0,0,0-.27,0L4.74,10.27a.17.17,0,0,0,0,.27L7,12.69a.18.18,0,0,0,.27,0L8,12a.17.17,0,0,0,0-.27ZM11.4,6.57l-1-.27a.19.19,0,0,0-.24.13L8,13.94a.2.2,0,0,0,.14.25l1,.27a.19.19,0,0,0,.24-.13l2.18-7.52A.19.19,0,0,0,11.4,6.57Zm3.4,3.7L12.52,8.12a.18.18,0,0,0-.27,0l-.68.74a.17.17,0,0,0,0,.27L13,10.41l-1.44,1.28a.17.17,0,0,0,0,.27l.68.73a.18.18,0,0,0,.27,0l2.28-2.15A.17.17,0,0,0,14.8,10.27Zm0,0L12.52,8.12a.18.18,0,0,0-.27,0l-.68.74a.17.17,0,0,0,0,.27L13,10.41l-1.44,1.28a.17.17,0,0,0,0,.27l.68.73a.18.18,0,0,0,.27,0l2.28-2.15A.17.17,0,0,0,14.8,10.27Zm-3.4-3.7-1-.27a.19.19,0,0,0-.24.13L8,13.94a.2.2,0,0,0,.14.25l1,.27a.19.19,0,0,0,.24-.13l2.18-7.52A.19.19,0,0,0,11.4,6.57ZM8,11.69,6.53,10.41,8,9.13a.17.17,0,0,0,0-.27l-.68-.74a.18.18,0,0,0-.27,0L4.74,10.27a.17.17,0,0,0,0,.27L7,12.69a.18.18,0,0,0,.27,0L8,12A.17.17,0,0,0,8,11.69ZM18.66,0H.88A.89.89,0,0,0,0,.88V16a.87.87,0,0,0,.88.88H18.66a.87.87,0,0,0,.88-.88V.88A.88.88,0,0,0,18.66,0ZM4.54.87h1v1h-1ZM2.7.87h1v1h-1ZM.87.87h1v1h-1ZM18.67,16H1V4.45H18.67Zm0-12.45H.87V2.71h17.8Zm-7.1,5.55L13,10.41l-1.44,1.28a.17.17,0,0,0,0,.27l.68.73a.18.18,0,0,0,.27,0l2.28-2.15a.17.17,0,0,0,0-.27L12.52,8.12a.18.18,0,0,0-.27,0l-.68.74A.17.17,0,0,0,11.57,9.13ZM8.14,14.19l1,.27a.19.19,0,0,0,.24-.13l2.18-7.52a.19.19,0,0,0-.14-.24l-1-.27a.19.19,0,0,0-.24.13L8,13.94A.2.2,0,0,0,8.14,14.19ZM7,12.69a.18.18,0,0,0,.27,0L8,12a.17.17,0,0,0,0-.27L6.53,10.41,8,9.13a.17.17,0,0,0,0-.27l-.68-.74a.18.18,0,0,0-.27,0L4.74,10.27a.17.17,0,0,0,0,.27Zm-.49-2.28L8,9.13a.17.17,0,0,0,0-.27l-.68-.74a.18.18,0,0,0-.27,0L4.74,10.27a.17.17,0,0,0,0,.27L7,12.69a.18.18,0,0,0,.27,0L8,12a.17.17,0,0,0,0-.27ZM11.4,6.57l-1-.27a.19.19,0,0,0-.24.13L8,13.94a.2.2,0,0,0,.14.25l1,.27a.19.19,0,0,0,.24-.13l2.18-7.52A.19.19,0,0,0,11.4,6.57Zm3.4,3.7L12.52,8.12a.18.18,0,0,0-.27,0l-.68.74a.17.17,0,0,0,0,.27L13,10.41l-1.44,1.28a.17.17,0,0,0,0,.27l.68.73a.18.18,0,0,0,.27,0l2.28-2.15A.17.17,0,0,0,14.8,10.27Zm0,0L12.52,8.12a.18.18,0,0,0-.27,0l-.68.74a.17.17,0,0,0,0,.27L13,10.41l-1.44,1.28a.17.17,0,0,0,0,.27l.68.73a.18.18,0,0,0,.27,0l2.28-2.15A.17.17,0,0,0,14.8,10.27Zm-3.4-3.7-1-.27a.19.19,0,0,0-.24.13L8,13.94a.2.2,0,0,0,.14.25l1,.27a.19.19,0,0,0,.24-.13l2.18-7.52A.19.19,0,0,0,11.4,6.57ZM6.53,10.41,8,9.13a.17.17,0,0,0,0-.27l-.68-.74a.18.18,0,0,0-.27,0L4.74,10.27a.17.17,0,0,0,0,.27L7,12.69a.18.18,0,0,0,.27,0L8,12a.17.17,0,0,0,0-.27Z"/><path class="cls-2" d="M8,12l-.68.73a.18.18,0,0,1-.27,0L4.74,10.54a.17.17,0,0,1,0-.27L7,8.12a.18.18,0,0,1,.27,0L8,8.86a.17.17,0,0,1,0,.27L6.53,10.41,8,11.69A.17.17,0,0,1,8,12Z"/><path class="cls-2" d="M11.54,6.81,9.36,14.33a.19.19,0,0,1-.24.13l-1-.27A.2.2,0,0,1,8,13.94l2.18-7.51a.19.19,0,0,1,.24-.13l1,.27A.19.19,0,0,1,11.54,6.81Z"/><path class="cls-2" d="M14.8,10.54l-2.28,2.15a.18.18,0,0,1-.27,0L11.57,12a.17.17,0,0,1,0-.27L13,10.41,11.57,9.13a.17.17,0,0,1,0-.27l.68-.74a.18.18,0,0,1,.27,0l2.28,2.15A.17.17,0,0,1,14.8,10.54Z"/><path class="cls-3" d="M14.8,10.27,12.52,8.12a.18.18,0,0,0-.27,0l-.68.74a.17.17,0,0,0,0,.27L13,10.41l-1.44,1.28a.17.17,0,0,0,0,.27l.68.73a.18.18,0,0,0,.27,0l2.28-2.15A.17.17,0,0,0,14.8,10.27Zm-3.4-3.7-1-.27a.19.19,0,0,0-.24.13L8,13.94a.2.2,0,0,0,.14.25l1,.27a.19.19,0,0,0,.24-.13l2.18-7.52A.19.19,0,0,0,11.4,6.57ZM6.53,10.41,8,9.13a.17.17,0,0,0,0-.27l-.68-.74a.18.18,0,0,0-.27,0L4.74,10.27a.17.17,0,0,0,0,.27L7,12.69a.18.18,0,0,0,.27,0L8,12a.17.17,0,0,0,0-.27Z"/></g></g></svg>