<svg xmlns="http://www.w3.org/2000/svg" viewBox="0 0 14.56411 16.9942"><defs><style>.cls-1{fill:#3fa9f5;}</style></defs><title>Download</title><g id="Layer_2" data-name="Layer 2"><g id="Layer_1-2" data-name="Layer 1"><g id="Download"><path class="cls-1" d="M12.51461,9.64281,7.50455,14.65287a.27684.27684,0,0,1-.21191.10591.25944.25944,0,0,1-.2119-.10591L2.07291,9.645s-.21181-.26488.11352-.59027.58288-.16024.58288-.16024l4.036,4.0695S6.79.454,6.79.227c0-.23459.50266-.227.50266-.227s.50146-.00758.50146.227c0,.227-.0164,12.74817-.0164,12.74817l4.03944-4.07174s.2586-.17631.57637.14907C12.71885,9.37793,12.51461,9.64281,12.51461,9.64281Z"/><rect class="cls-1" y="15.9841" width="14.56411" height="1.0101" rx="0.41435"/></g></g></g></svg>