<svg xmlns="http://www.w3.org/2000/svg" viewBox="0 0 19.11181 16.9883"><defs><style>.cls-1{fill:#3fa9f5;}</style></defs><title>Errors explained</title><g id="Layer_2" data-name="Layer 2"><g id="Layer_1-2" data-name="Layer 1"><g id="Errors_explained"><path class="cls-1" d="M9.55583,1.0051a.57845.57845,0,0,1,.50967.2926l7.96059,13.80373a.58869.58869,0,0,1-.50783.88177H1.59451a.58906.58906,0,0,1-.50918-.88171L9.04727,1.29779a.57682.57682,0,0,1,.50856-.29269M9.55559,0A1.5766,1.5766,0,0,0,8.17664.79557L.2147,14.59931a1.59414,1.59414,0,0,0,1.37981,2.389H17.51826a1.59378,1.59378,0,0,0,1.37846-2.389L10.93613.79557A1.57952,1.57952,0,0,0,9.55559,0Z"/><circle class="cls-1" cx="9.55589" cy="13.2721" r="1.5263"/><path class="cls-1" d="M8.3531,10.77181a.39706.39706,0,0,0,.39679.37674h1.612a.39705.39705,0,0,0,.39678-.37674l.24609-4.51253a.39748.39748,0,0,0-.39678-.41959H8.5038a.39747.39747,0,0,0-.39678.41959Z"/></g></g></g></svg>