<svg xmlns="http://www.w3.org/2000/svg" viewBox="0 0 16.9388 16.98828"><defs><style>.cls-1{fill:#3fa9f5;}</style></defs><title>Finance</title><g id="Layer_2" data-name="Layer 2"><g id="Layer_1-2" data-name="Layer 1"><g id="Finance"><path class="cls-1" d="M8.99014,11.91777A1.72691,1.72691,0,0,1,7.377,13.02834v.73548a.24537.24537,0,0,1-.24394.24394H6.644A.24457.24457,0,0,1,6.4,13.76382v-.733a2.14948,2.14948,0,0,1-1.32019-.45845.2472.2472,0,0,1-.02819-.37387l.532-.51851a.23574.23574,0,0,1,.29664-.03065.93052.93052,0,0,0,.52219.16058H7.415a.45039.45039,0,0,0,.12626-.88257l-1.56412-.45845A1.74942,1.74942,0,0,1,4.69739,8.99424,1.67283,1.67283,0,0,1,6.362,7.16842H6.4v-.733A.24456.24456,0,0,1,6.644,6.19146h.48909a.24537.24537,0,0,1,.24394.24393v.733a2.14939,2.14939,0,0,1,1.32018.45845.24708.24708,0,0,1,.027.37387l-.53077.51912a.23763.23763,0,0,1-.29787.03065.92351.92351,0,0,0-.52219-.1612H6.362a.45075.45075,0,0,0-.12749.88319l1.6487.483A1.67518,1.67518,0,0,1,8.99014,11.91777Z"/><path class="cls-1" d="M16.43354,11.98282H13.50866a3.4028,3.4028,0,0,0,.16085-.70352h1.75893a.50255.50255,0,1,0,0-1.0051H13.77a.97428.97428,0,0,0,.01007-.17092A4.93807,4.93807,0,0,0,13.75,9.56055h2.31166a.50409.50409,0,0,0,.50255-.50255.51072.51072,0,0,0-.50255-.50255H13.59908a5.59953,5.59953,0,0,0-.201-.70359H15.73a.50255.50255,0,0,0,0-1.0051h-2.7741a5.50018,5.50018,0,0,0-.43224-.70359H16.323a.50406.50406,0,0,0,.50255-.50255.49775.49775,0,0,0-.50255-.50255H11.6593a6.35679,6.35679,0,0,0-.85443-.70359H15.73a.50757.50757,0,0,0,0-1.0151H8.54338a6.46409,6.46409,0,0,0-1.65832-.21109,6.89,6.89,0,1,0,6.25171,9.77964h3.29677a.49764.49764,0,0,0,.50256-.50255A.504.504,0,0,0,16.43354,11.98282ZM12.76489,10.2742a4.73353,4.73353,0,0,1-.11055,1.0051,4.03346,4.03346,0,0,1-.19091.70352,5.00413,5.00413,0,0,1-.44231,1.00511,5.89677,5.89677,0,1,1-4.01035-8.664c.16085.03018.32158.07036.47237.11054a5.67289,5.67289,0,0,1,1.5679.70359,5.42683,5.42683,0,0,1,1.1862,1.0051,4.60628,4.60628,0,0,1,.55273.70359,5.33686,5.33686,0,0,1,.53261,1.0051,4.13516,4.13516,0,0,1,.24122.70359,5.53271,5.53271,0,0,1,.18109,1.0051,4.9356,4.9356,0,0,1,.03006.54273A.97523.97523,0,0,1,12.76489,10.2742Z"/><rect class="cls-1" x="8.0099" y="1.71193" width="8.41895" height="1.0058" rx="0.5029"/><rect class="cls-1" x="8.51984" width="8.41895" height="1.0058" rx="0.5029"/></g></g></g></svg>