<svg xmlns="http://www.w3.org/2000/svg" viewBox="0 0 15.96118 16.98828"><defs><style>.cls-1{fill:#3fa9f5;}</style></defs><title>Flexible 3D alt</title><g id="Layer_2" data-name="Layer 2"><g id="Layer_1-2" data-name="Layer 1"><g id="_3D_secure_alt" data-name="3D_secure_alt"><path class="cls-1" d="M15.96118,8.5052a8.55169,8.55169,0,0,1-8.28205,8.48308A8.46566,8.46566,0,0,1,.965,13.12866v3.37713a.48263.48263,0,0,1-.48243.48249A.48928.48928,0,0,1,0,16.50579V11.55064a.48922.48922,0,0,1,.48255-.48243H3.99036a1.47015,1.47015,0,0,0,.42218.96492l-2.98513.01a7.45943,7.45943,0,0,0,6.25172,3.94005,7.45533,7.45533,0,0,0,7.18639-7.488Z"/><path class="cls-1" d="M14.52672,4.94808a7.66035,7.66035,0,0,0-6.36943-3.9259A7.44853,7.44853,0,0,0,.967,8.49484H.00062A8.4539,8.4539,0,0,1,8.15729,0a8.67872,8.67872,0,0,1,6.83329,3.86569V.48321A.48459.48459,0,0,1,15.47379,0,.491.491,0,0,1,15.957.48321V5.441a.491.491,0,0,1-.48322.48321H10.49657a.48337.48337,0,1,1,0-.96642"/><path class="cls-1" d="M9.78982,8.073H9.4983v-.8745a1.82932,1.82932,0,0,0-3.65859,0V8.073H5.55825a.56632.56632,0,0,0-.57285.57285v2.31179a.41189.41189,0,0,0,.01006.11055.5724.5724,0,0,0,.56279.46237H9.78982a.56635.56635,0,0,0,.57286-.57292V8.64587A.56633.56633,0,0,0,9.78982,8.073ZM8.1515,10.2842a.47743.47743,0,1,1-.9548,0V9.31934a.47743.47743,0,0,1,.9548,0ZM8.53344,8.073H6.81463v-.8745a.85942.85942,0,1,1,1.71881,0Z"/></g></g></g></svg>