<svg xmlns="http://www.w3.org/2000/svg" viewBox="0 0 16.98396 16.98827"><defs><style>.cls-1{fill:#3fa9f5;}</style></defs><title>Getting started</title><g id="Layer_2" data-name="Layer 2"><g id="Layer_1-2" data-name="Layer 1"><g id="Getting_started"><path class="cls-1" d="M13.61442,1.0051a11.85879,11.85879,0,0,1,2.219.14638,11.497,11.497,0,0,1,.1449,2.22308c0,2.58919-1.16644,4.48781-3.78227,6.1561a1.00509,1.00509,0,0,0-.46463.84742v3.46648a.76848.76848,0,0,1-.324.52243L8.43578,15.85578V12.74621a1.005,1.005,0,0,0-1.71611-.71036l-.71923.72269a.33217.33217,0,0,1-.06687.03184.23743.23743,0,0,0-.038-.01073l-.00172.00193L4.2285,11.11764a.32829.32829,0,0,1-.032-.06677c.0065-.02028.01313-.03933.00994-.03933l-.00062.00022.74524-.74583A1.00508,1.00508,0,0,0,4.24,8.55041H1.13479L2.62245,5.57663a.77654.77654,0,0,1,.524-.32465H6.604a1.00529,1.00529,0,0,0,.84879-.46676C9.11084,2.17094,11.01124,1.0051,13.61442,1.0051m0-1.0051C10.19005,0,8.13579,1.83175,6.604,4.24688H3.14647A1.74451,1.74451,0,0,0,1.724,5.12613L.08429,8.40391A.9298.9298,0,0,0,0,8.75923a.79649.79649,0,0,0,.79628.79628H4.24l-.74524.74582a1.219,1.219,0,0,0-.311.75067,1.2223,1.2223,0,0,0,.311.7507l1.688,1.68933a1.22613,1.22613,0,0,0,.75211.31106,1.22214,1.22214,0,0,0,.75064-.31106l.74512-.74582V16.192a.79649.79649,0,0,0,.79628.79628.95454.95454,0,0,0,.35532-.08294l3.275-1.63958a1.73878,1.73878,0,0,0,.87922-1.42119V10.37808c2.40822-1.53591,4.24691-3.59645,4.24691-7.00352A11.79556,11.79556,0,0,0,16.75537.63383a.57261.57261,0,0,0-.40513-.405A12.03643,12.03643,0,0,0,13.61442,0Z"/><circle class="cls-1" cx="12.73932" cy="4.24689" r="1.32716"/></g></g></g></svg>