<svg xmlns="http://www.w3.org/2000/svg" viewBox="0 0 24.14 16.9"><defs><style>.cls-1{fill:#3fa9f5;}</style></defs><title>Hosted_plugins</title><g id="Layer_2" data-name="Layer 2"><g id="Layer_1-2" data-name="Layer 1"><path class="cls-1" d="M9.65,1A5.07,5.07,0,0,1,14,3.52l.54.92.88-.59a2.72,2.72,0,0,1,1.46-.44A2.63,2.63,0,0,1,19.52,6a2.81,2.81,0,0,1-.18,1l-.4,1.09,1.14.23a3.83,3.83,0,0,1-.77,7.58H5.43A4.44,4.44,0,0,1,4,7.28L4.7,7l-.08-.78V6a5,5,0,0,1,5-5m0-1a6,6,0,0,0-6,6c0,.1,0,.21,0,.31A5.43,5.43,0,0,0,5.43,16.9H19.31a4.83,4.83,0,0,0,1-9.56A3.81,3.81,0,0,0,20.52,6a3.62,3.62,0,0,0-5.63-3A6,6,0,0,0,9.65,0Z"/><path class="cls-1" d="M14.23,9.15v.52a2.4,2.4,0,0,1-2,2.12l-.21,0-.21,0A2.39,2.39,0,0,1,9.91,9.67V9.15h4.32m1.15-.85H8.76a.29.29,0,0,0-.3.3v.17a.3.3,0,0,0,.3.3h.3v.6a3.21,3.21,0,0,0,2.63,2.95v1.87h.76V12.62a3.22,3.22,0,0,0,2.63-2.95v-.6h.3a.3.3,0,0,0,.3-.3V8.6a.29.29,0,0,0-.3-.3Z"/><path class="cls-1" d="M10.26,5.61c-.33,0-.38.27-.38.6V7.56h.76V6.21c0-.33-.05-.6-.38-.6Z"/><path class="cls-1" d="M13.88,5.61c-.34,0-.39.27-.39.6V7.56h.77V6.21c0-.33,0-.6-.38-.6Z"/></g></g></svg>