<svg xmlns="http://www.w3.org/2000/svg" viewBox="0 0 24.26311 16.98629"><defs><style>.cls-1{fill:#3fa9f5;}</style></defs><title>Hosted plugins</title><g id="Layer_2" data-name="Layer 2"><g id="Layer_1-2" data-name="Layer 1"><g id="Hosted_plugins"><path class="cls-1" d="M9.69916,1.0051a5.10011,5.10011,0,0,1,4.39733,2.53467l.53678.92538.89014-.59341a2.66642,2.66642,0,0,1,1.46275-.44436,2.63647,2.63647,0,0,1,2.6335,2.63343,2.82945,2.82945,0,0,1-.18012.97155l-.40243,1.10083,1.14927.22987a3.84869,3.84869,0,0,1-.77788,7.61812H5.45765a4.45677,4.45677,0,0,1-1.478-8.65985l.7477-.261-.0789-.788c-.00674-.06822-.005-.1433-.005-.21149A5.06145,5.06145,0,0,1,9.69916,1.0051m0-1.0051A6.0612,6.0612,0,0,0,3.63835,6.06081c0,.10048,0,.211.01006.31158a5.46187,5.46187,0,0,0,1.80924,10.6139H19.4085a4.85379,4.85379,0,0,0,.975-9.6088,3.82722,3.82722,0,0,0,.24122-1.31668A3.63771,3.63771,0,0,0,14.9659,3.03543,6.0735,6.0735,0,0,0,9.69916,0Z"/><path class="cls-1" d="M14.14861,9.354V9.8766a2.14546,2.14546,0,0,1-1.8048,2.02222l-.213.01971-.21331-.01977A2.1481,2.1481,0,0,1,10.10893,9.8766V9.354h4.19356m1.15725-1.00607h-6.658a.30169.30169,0,0,0-.30269.30266v.40076a.30363.30363,0,0,0,.30269.30265h.30268V9.8766a3.12092,3.12092,0,0,0,2.5234,2.96583v1.87635h1.00739V12.84243A3.12269,3.12269,0,0,0,15.15717,9.8766V9.354h.30257a.30354.30354,0,0,0,.30268-.30265V8.65057a.3016.3016,0,0,0-.30268-.30266Z"/><path class="cls-1" d="M10.315,5.37341c-.4399,0-.50256.26934-.50256.60524V7.34052h1.00511V5.97865c0-.3359-.06668-.60524-.50255-.60524Z"/><path class="cls-1" d="M13.94654,5.37341c-.44,0-.50247.26934-.50247.60524V7.34052h1.0051V5.97865c0-.3359-.06652-.60524-.50263-.60524Z"/></g></g></g></svg>