<svg xmlns="http://www.w3.org/2000/svg" viewBox="0 0 16.92 16.91"><defs><style>.cls-1{fill:#3fa9f5;}</style></defs><title>Integrations</title><g id="Layer_2" data-name="Layer 2"><g id="Layer_1-2" data-name="Layer 1"><path class="cls-1" d="M10.19.12A1.67,1.67,0,0,1,10.78,0a1.71,1.71,0,0,1,.59.11A1.51,1.51,0,0,0,10.19.12Z"/><path class="cls-1" d="M11.88.46a1.57,1.57,0,0,0-.51-.34A1.71,1.71,0,0,0,10.78,0a1.67,1.67,0,0,0-.59.11,1.47,1.47,0,0,0-.51.34L7.76,2.37a.5.5,0,0,0,0,.67L9.3,4.57a.45.45,0,0,0,.33.14A.48.48,0,0,0,10,4.57l1.91-1.91A1.55,1.55,0,0,0,11.88.46ZM11.25,2,9.67,3.61l0,0,0,0-.86-.86a.06.06,0,0,1,0-.08l1.58-1.58a.65.65,0,0,1,.47-.2.63.63,0,0,1,.47.2A.66.66,0,0,1,11.25,2Z"/><path class="cls-1" d="M16.47,5.05a1.55,1.55,0,0,0-1.1-.44,1.63,1.63,0,0,0-1.11.44L12.36,7a.44.44,0,0,0-.14.34.43.43,0,0,0,.14.33l1.52,1.53a.49.49,0,0,0,.35.14.43.43,0,0,0,.33-.14l1.91-1.91A1.57,1.57,0,0,0,16.47,5.05Zm-.63,1.57L14.26,8.2s0,0,0,0l0,0-.87-.86a.06.06,0,0,1,0,0s0,0,0,0L14.9,5.68a.65.65,0,0,1,.47-.19.66.66,0,0,1,.47,1.13Z"/><path class="cls-1" d="M14.2,11.12,5.79,2.71a1.07,1.07,0,0,0-.72-.29,1,1,0,0,0-.72.29l-.76.76a.94.94,0,0,0-.3.72,1,1,0,0,0,.3.72l0,0-.43.44a5.89,5.89,0,0,0-1,7.07L.13,14.57a.5.5,0,0,0,0,.67l1.54,1.53a.48.48,0,0,0,.34.14.47.47,0,0,0,.33-.14l2.11-2.11a5.92,5.92,0,0,0,2.91.77,5.86,5.86,0,0,0,4.15-1.72l.45-.44,0,.05a1,1,0,0,0,1.44,0l.76-.76a1.07,1.07,0,0,0,.3-.72A1.09,1.09,0,0,0,14.2,11.12Zm-.63.81h0l-.76.77a.12.12,0,0,1-.09,0,.16.16,0,0,1-.09,0l-.38-.39a.4.4,0,0,0-.29-.12.41.41,0,0,0-.3.12l-.76.77a5,5,0,0,1-3.54,1.46,4.94,4.94,0,0,1-2.75-.83.46.46,0,0,0-.23-.06.37.37,0,0,0-.29.12l-2,2H2l-.87-.87a0,0,0,0,1,0-.08l2-2a.41.41,0,0,0,.07-.52A5,5,0,0,1,3.82,6l.78-.76a.42.42,0,0,0,0-.59l-.39-.38a.06.06,0,0,1,0,0v-.1s0,0,0,0L5,3.33H5.1a.08.08,0,0,1,.06,0L13.6,11.8a.06.06,0,0,1,0,0A.1.1,0,0,1,13.57,11.93Z"/></g></g></svg>