<svg xmlns="http://www.w3.org/2000/svg" viewBox="0 0 16.99821 16.98716"><defs><style>.cls-1{fill:#3fa9f5;}</style></defs><title>Integrations</title><g id="Layer_2" data-name="Layer 2"><g id="Layer_1-2" data-name="Layer 1"><g id="Integrations"><path class="cls-1" d="M11.935.4794A1.53729,1.53729,0,0,0,11.4157.12983,1.45454,1.45454,0,0,0,10.80653,0a1.61627,1.61627,0,0,0-.42292.05314.54556.54556,0,0,0-.11979.03557.42576.42576,0,0,0-.06645.03112c-.07991.04-.13983.09991-.21974.14983-.03993.03-.08991.05991-.12983.0899C9.79788.39949,9.75871.41839,9.678.4794L7.77058,2.3868a.51831.51831,0,0,0,0,.729l1.528,1.528a.50012.50012,0,0,0,.3595.15976.52258.52258,0,0,0,.3695-.15976L11.935,2.73631A1.58526,1.58526,0,0,0,11.935.4794Zm-.68908,1.56789-.79891.79892-.779.77892h-.01L9.1288,3.09587l-.33957-.34956,1.57789-1.57784a.61965.61965,0,0,1,.43941-.17981.56541.56541,0,0,1,.42942.17981A.618.618,0,0,1,11.24594,2.04729Z"/><path class="cls-1" d="M16.51882,5.0632a1.544,1.544,0,0,0-1.12849-.45935,1.61966,1.61966,0,0,0-1.12849.45935l-1.9074,1.90746a.52262.52262,0,0,0-.15976.3695.50022.50022,0,0,0,.15976.3595l1.52791,1.52792a.474.474,0,0,0,.36956.15982.50545.50545,0,0,0,.3695-.15982l1.89741-1.90741a1.52284,1.52284,0,0,0,.10984-.15976,1.43551,1.43551,0,0,0,.10989-.14982.35649.35649,0,0,0,.03993-.08991.60893.60893,0,0,0,.06991-.13976,2.26237,2.26237,0,0,0,.07991-.23967c0-.02.01-.04.01-.06V6.46134a.7594.7594,0,0,0,.05991-.25966A1.57811,1.57811,0,0,0,16.51882,5.0632ZM14.26184,8.209h-.00993l-.53932-.51932L13.383,7.35016v-.02l1.5679-1.5779a.63659.63659,0,0,1,.43941-.16975.65479.65479,0,0,1,.43941.16975.627.627,0,0,1,0,.87882L15.04083,7.43Z"/><path class="cls-1" d="M14.25191,11.12505,5.85317,2.72637a1.05811,1.05811,0,0,0-.749-.30958,1.08343,1.08343,0,0,0-.749.30958l-.759.75893a.996.996,0,0,0-.31958.749,1.01158,1.01158,0,0,0,.31958.749v.01l-.39943.40949A5.9237,5.9237,0,0,0,2.228,12.48321L.15082,14.57043c-.00993.01,0,0-.02248.03108-.02093.02423-.01057.01649-.02744.04883a.501.501,0,0,0,.04.64909l1.5379,1.528a.56036.56036,0,0,0,.3695.15976.50012.50012,0,0,0,.3595-.15976L4.495,14.75018a5.90609,5.90609,0,0,0,7.08045-.97867l.20973-.20974.19975-.17975a1.06664,1.06664,0,0,0,.759.31958,1.02767,1.02767,0,0,0,.749-.31958l.759-.759a1.06821,1.06821,0,0,0,.31952-.749A1.04447,1.04447,0,0,0,14.25191,11.12505Zm-.66915.749a.08986.08986,0,0,1-.01.04992l-.00994.01-.759.769a.108.108,0,0,1-.05991.01.14162.14162,0,0,1-.05992-.02l-.37949-.3795a.4308.4308,0,0,0-.31958-.13982.43679.43679,0,0,0-.32958.13982l-.759.769a4.97479,4.97479,0,0,1-3.5053,1.43807,4.82856,4.82856,0,0,1-2.71632-.81891.48394.48394,0,0,0-.25966-.06991.43677.43677,0,0,0-.32957.13982L2.8572,14.99984l-.80891.79892h-.02l-.42941-.42942-.42942-.44941,2.0373-2.03723a.46746.46746,0,0,0,.06985-.57924,4.97254,4.97254,0,0,1,.61916-6.22161l.769-.759a.43679.43679,0,0,0,.13982-.32958.43077.43077,0,0,0-.13982-.31957l-.3795-.37944V4.17438l.759-.75893H5.1641l8.41866,8.4486Z"/></g></g></g></svg>