<svg xmlns="http://www.w3.org/2000/svg" viewBox="0 0 12 16"><defs><style>.cls-1{fill:#fff;}</style></defs><title>lock_icon</title><g id="Layer_2" data-name="Layer 2"><g id="Menu"><path class="cls-1" d="M11.67,6h-1V4.67a4.67,4.67,0,0,0-9.34,0V6h-1A.33.33,0,0,0,0,6.33v8.34A1.34,1.34,0,0,0,1.33,16h9.34A1.34,1.34,0,0,0,12,14.67V6.33A.33.33,0,0,0,11.67,6ZM7,13a.34.34,0,0,1-.08.26.36.36,0,0,1-.25.11H5.33a.36.36,0,0,1-.25-.11A.34.34,0,0,1,5,13l.21-1.89a1.33,1.33,0,1,1,1.58,0ZM8.67,6H3.33V4.67a2.67,2.67,0,0,1,5.34,0Z"/></g></g></svg>