<svg xmlns="http://www.w3.org/2000/svg" viewBox="0 0 12 16"><defs><style>.cls-1{fill:#fff;}</style></defs><title>Asset 64</title><g id="Layer_2" data-name="Layer 2"><g id="Top_menu" data-name="Top menu"><path class="cls-1" d="M11.66666,6h-1V4.66666a4.66666,4.66666,0,0,0-9.33332,0V6h-1A.33315.33315,0,0,0,0,6.33334v8.33335A1.33463,1.33463,0,0,0,1.33334,16h9.33335A1.33463,1.33463,0,0,0,12,14.66666V6.33334A.33315.33315,0,0,0,11.66666,6Zm-4.6686,6.96322a.33342.33342,0,0,1-.33137.37012H5.33334a.33342.33342,0,0,1-.33137-.37012l.21028-1.89094A1.31875,1.31875,0,0,1,4.66669,10a1.33334,1.33334,0,0,1,2.66668,0,1.31875,1.31875,0,0,1-.54556,1.07228ZM8.66666,6H3.33334V4.66666a2.66666,2.66666,0,0,1,5.33332,0Z"/></g></g></svg>