<svg xmlns="http://www.w3.org/2000/svg" viewBox="0 0 20.00829 20.00829"><defs><style>.cls-1{fill:#3fa9f5;}</style></defs><title>Asset 72</title><g id="Layer_2" data-name="Layer 2"><g id="Menu"><path class="cls-1" d="M10.00446,20.00829A10.00415,10.00415,0,1,1,20.00829,10.00383,10.00318,10.00318,0,0,1,10.00446,20.00829Zm-1.85618-6.132a1.85587,1.85587,0,1,0,1.85618-1.85555A1.85576,1.85576,0,0,0,8.14828,13.87628Zm.3933-3.03922a.48361.48361,0,0,0,.48342.45759h1.95892a.48348.48348,0,0,0,.4828-.45759l.3-5.486a.48492.48492,0,0,0-.48406-.51053H8.72562a.48494.48494,0,0,0-.48406.51053Z"/></g></g></svg>