<svg xmlns="http://www.w3.org/2000/svg" viewBox="0 0 12.56 16.91"><defs><style>.cls-1{fill:#3fa9f5;}</style></defs><title>Plugins</title><g id="Layer_2" data-name="Layer 2"><g id="Layer_1-2" data-name="Layer 1"><path class="cls-1" d="M7.56,16.78a.42.42,0,0,1-.3.13H5.31a.43.43,0,0,1-.43-.43V13.79A5.32,5.32,0,0,1,1,8.67V8.12H.91a.87.87,0,0,1-.64-.27A.91.91,0,0,1,0,7.21v-1a.94.94,0,0,1,.91-.91H11.65a.9.9,0,0,1,.91.91v1a.91.91,0,0,1-.91.91h-.06v.55a5.31,5.31,0,0,1-3.91,5.12v2.69A.41.41,0,0,1,7.56,16.78Zm-1.83-.73h1.1v-2.6A.43.43,0,0,1,7.17,13a4.48,4.48,0,0,0,3.57-4.37v-1a.42.42,0,0,1,.42-.43h.49a.06.06,0,0,0,.06-.06v-1h0a.05.05,0,0,0,0,0L.91,6.17l-.05.06h0v1l.06.06H1.4a.43.43,0,0,1,.43.43v1A4.47,4.47,0,0,0,5.39,13a.42.42,0,0,1,.34.41ZM10.5,4.14a.42.42,0,0,1-.3.13H8.25a.44.44,0,0,1-.43-.43V1.4A1.44,1.44,0,0,1,9.22,0a1.41,1.41,0,0,1,1.41,1.4V3.84A.42.42,0,0,1,10.5,4.14ZM8.67,3.41h1.1v-2A.55.55,0,0,0,9.22.85a.57.57,0,0,0-.55.55h0Zm-.42-2ZM4.65,4.14h0a.44.44,0,0,1-.31.13H2.39A.43.43,0,0,1,2,3.84V1.4a1.4,1.4,0,0,1,2.8,0V3.84A.42.42,0,0,1,4.65,4.14ZM2.82,3.41h1.1v-2a.55.55,0,0,0-1.1,0Z"/></g></g></svg>