<svg xmlns="http://www.w3.org/2000/svg" viewBox="0 0 12.66225 16.99927"><defs><style>.cls-1{fill:#3fa9f5;}</style></defs><title>Plugins</title><g id="Layer_2" data-name="Layer 2"><g id="Layer_1-2" data-name="Layer 1"><g id="Plugins"><path class="cls-1" d="M8.24539,1.41582l-.01.00991.0499.03992Z"/><path class="cls-1" d="M8.24539,1.41582l-.01.00991.0499.03992Zm0,0-.01.00991.0499.03992Zm0,0-.01.00991.0499.03992Zm0,0-.01.00991.0499.03992Zm0,0-.01.00991.0499.03992Zm0,0-.01.00991.0499.03992Zm0,0-.01.00991.0499.03992Zm0,0-.01.00991.0499.03992Zm0,0-.01.00991.0499.03992Zm0,0-.01.00991.0499.03992Zm0,0-.01.00991.0499.03992Zm0,0-.01.00991.0499.03992Zm0,0-.01.00991.0499.03992Z"/><path class="cls-1" d="M9.26237,0A1.50826,1.50826,0,0,0,7.79678,1.46565V3.89839a.49822.49822,0,0,0,.1396.34893.527.527,0,0,0,.34893.14958h1.95413a.46772.46772,0,0,0,.34905-.14958.49811.49811,0,0,0,.13948-.34893V1.46565A1.468,1.468,0,0,0,9.26237,0ZM8.79215,1.47833a.43368.43368,0,0,1,.147-.32331.4575.4575,0,0,1,.79346.32331V3.37887H8.79215Zm-.50684-.01268-.0499-.03992.01-.00991Z"/><path class="cls-1" d="M3.42982,0A1.46159,1.46159,0,0,0,2.383.42871a1.4983,1.4983,0,0,0-.42877,1.03694V3.89839a.50658.50658,0,0,0,.49851.49851H4.397a.46717.46717,0,0,0,.34881-.14958.50734.50734,0,0,0,.1497-.34893V1.46565A1.46815,1.46815,0,0,0,3.42982,0ZM2.95915,1.47777a.46577.46577,0,1,1,.93148,0v1.902H2.95915Z"/><path class="cls-1" d="M12.3732,5.59334a.94186.94186,0,0,0-.688-.28918H.97718a1.0193,1.0193,0,0,0-.688.28918A.97545.97545,0,0,0,0,6.28129v.97706a.94188.94188,0,0,0,.28918.68795.91971.91971,0,0,0,.678.28911V8.714a5.363,5.363,0,0,0,3.88841,5.15465v2.63215a.50658.50658,0,0,0,.49851.49851H7.29827a.53188.53188,0,0,0,.35891-.14957.49847.49847,0,0,0,.1396-.34894V13.86861A5.372,5.372,0,0,0,11.69517,8.714V8.23541a.98743.98743,0,0,0,.96708-.97706V6.28129A.94178.94178,0,0,0,12.3732,5.59334Zm-5.56478,7.8799v2.51545H5.854V13.47324a.48933.48933,0,0,0-.39772-.47721A4.36571,4.36571,0,0,1,1.97644,8.72076V7.75638a.49861.49861,0,0,0-.49712-.49712H1.02188L1.002,7.23935V6.32467l.0199-.0199,10.63842.0199.00995.93459h-.48716a.49225.49225,0,0,0-.49712.49712v.96438A4.3647,4.3647,0,0,1,7.19618,12.996.49885.49885,0,0,0,6.80842,13.47324Z"/></g></g></g></svg>