<svg xmlns="http://www.w3.org/2000/svg" viewBox="0 0 17.65 16.93"><defs><style>.cls-1{fill:#3fa9f5;}</style></defs><title>Popular</title><g id="Layer_2" data-name="Layer 2"><g id="Layer_1-2" data-name="Layer 1"><path class="cls-1" d="M4.26,16.93a1.37,1.37,0,0,1-.84-.28,1.43,1.43,0,0,1-.58-1.41l.75-4.33L.44,7.84a1.44,1.44,0,0,1,.79-2.46l4.36-.63L7.53.8A1.44,1.44,0,0,1,8.82,0h0a1.45,1.45,0,0,1,1.3.8l1.94,4,4.35.63a1.44,1.44,0,0,1,.8,2.46l-3.15,3.07.75,4.33a1.44,1.44,0,0,1-.57,1.41,1.42,1.42,0,0,1-1.52.11l-3.9-2.05L4.93,16.76A1.45,1.45,0,0,1,4.26,16.93ZM8.82.88h0a.53.53,0,0,0-.5.31L6.27,5.34a.43.43,0,0,1-.33.24l-4.58.67a.55.55,0,0,0-.46.38.57.57,0,0,0,.15.58l3.31,3.23a.44.44,0,0,1,.13.39L3.7,15.39a.56.56,0,0,0,.23.55.55.55,0,0,0,.59.05l4.1-2.16a.43.43,0,0,1,.41,0L13.13,16a.55.55,0,0,0,.59-.05.54.54,0,0,0,.22-.55l-.78-4.56a.44.44,0,0,1,.13-.39L16.6,7.21h0a.54.54,0,0,0,.14-.58.54.54,0,0,0-.45-.38l-4.58-.67a.43.43,0,0,1-.33-.24L9.33,1.19A.55.55,0,0,0,8.82.88Z"/></g></g></svg>