<svg xmlns="http://www.w3.org/2000/svg" viewBox="0 0 17.70507 16.98684"><defs><style>.cls-1{fill:#3fa9f5;}</style></defs><title>Popular</title><g id="Layer_2" data-name="Layer 2"><g id="Layer_1-2" data-name="Layer 1"><path id="Popular" class="cls-1" d="M17.63054,6.3788a1.483,1.483,0,0,0-1.21409-1.025l-4.299-.62693L10.1969.83593a1.50544,1.50544,0,0,0-2.69675,0L5.5795,4.72686l-4.289.62693a1.47008,1.47008,0,0,0-1.214,1.025A1.48628,1.48628,0,0,0,.45462,7.92124l3.1048,3.02517L2.823,15.22551a1.49758,1.49758,0,0,0,.607,1.47277,1.46652,1.46652,0,0,0,.87571.28856,1.58272,1.58272,0,0,0,.70657-.17911l3.84118-2.02008,3.84118,2.02008a1.49369,1.49369,0,0,0,1.58228-.11941,1.47515,1.47515,0,0,0,.597-1.46281l-.73639-4.2791,3.1048-3.02517A1.49052,1.49052,0,0,0,17.63054,6.3788Zm-3.75165,9.01586a.47339.47339,0,0,1-.199.47764.488.488,0,0,1-.51742.03985L9.08237,13.7726a.48765.48765,0,0,0-.46768,0L4.53462,15.91215a.48718.48718,0,0,1-.7065-.51749l.77617-4.53778a.49273.49273,0,0,0-.14923-.44782L1.16119,7.19482a.489.489,0,0,1-.12938-.50753.49766.49766,0,0,1,.398-.33837l4.5577-.65676a.538.538,0,0,0,.38812-.27866l2.03-4.12975a.49118.49118,0,0,1,.88567,0l2.04,4.12975a.50307.50307,0,0,0,.37816.27866l4.5577.65676a.49766.49766,0,0,1,.398.33837.489.489,0,0,1-.12938.50753L13.242,10.40906a.49273.49273,0,0,0-.14923.44782Z"/></g></g></svg>