<svg xmlns="http://www.w3.org/2000/svg" viewBox="0 0 16.74255 16.98828"><defs><style>.cls-1{fill:#3fa9f5;}</style></defs><title>PSD2</title><g id="Layer_2" data-name="Layer 2"><g id="Layer_1-2" data-name="Layer 1"><g id="PSD2"><path class="cls-1" d="M16.5079,16.36136l-.35309.3889a.78639.78639,0,0,1-1.1273,0l-3.31783-3.36589a.81707.81707,0,0,1-.23227-.57367v-.55063A7.97263,7.97263,0,0,1,6.921,14.04323,6.9705,6.9705,0,0,1,0,7.02161,6.9705,6.9705,0,0,1,6.921,0a6.9703,6.9703,0,0,1,6.92,7.02161,8.12852,8.12852,0,0,1-1.7552,4.59026h.54263a.79132.79132,0,0,1,.56566.23628L16.51091,15.213A.82355.82355,0,0,1,16.5079,16.36136ZM12.8345,7.02152A5.954,5.954,0,0,0,6.921,1.02183,5.95357,5.95357,0,0,0,1.00749,7.02152,5.95374,5.95374,0,0,0,6.921,13.0219,5.95461,5.95461,0,0,0,12.8345,7.02152Z"/><path class="cls-1" d="M10.53587,5.1861a.12052.12052,0,0,1-.12049.1205h-.36149v.18074a.18119.18119,0,0,1-.18074.18075H3.96885a.18039.18039,0,0,1-.18075-.18075V5.3066H3.42662a.12053.12053,0,0,1-.1205-.1205v-.241a.12913.12913,0,0,1,.07405-.11139L6.87456,3.50826a.1454.1454,0,0,1,.04644-.0091.13791.13791,0,0,1,.04518.0091l3.49438,1.32546a.13037.13037,0,0,1,.07531.11139Zm0,4.69934v.241a.12052.12052,0,0,1-.12049.12049H3.42662a.12052.12052,0,0,1-.1205-.12049v-.241A.36158.36158,0,0,1,3.66761,9.524h6.50678A.36157.36157,0,0,1,10.53587,9.88544ZM5.47505,5.90908V8.801h.964V5.90908h.964V8.801h.964V5.90908h.964V8.801h.54223a.18119.18119,0,0,1,.18074.18075V9.283H3.7881V8.98173A.18039.18039,0,0,1,3.96885,8.801h.54223V5.90908Z"/></g></g></g></svg>