<svg xmlns="http://www.w3.org/2000/svg" viewBox="0 0 16.74 16.91"><defs><style>.cls-1{fill:#3fa9f5;}</style></defs><title>SDKs</title><g id="Layer_2" data-name="Layer 2"><g id="Layer_1-2" data-name="Layer 1"><path class="cls-1" d="M16.53,9.21,12.8,7.08V2.75a.44.44,0,0,0-.21-.37l-.1,0L8.58.06a.4.4,0,0,0-.42,0L4.22,2.38a.31.31,0,0,0-.09.07A.45.45,0,0,0,4,2.64a.41.41,0,0,0,0,.11V7.07L.22,9.21a.49.49,0,0,0-.16.16A.39.39,0,0,0,0,9.58v4.58a.42.42,0,0,0,.22.37l4,2.32a.42.42,0,0,0,.21.06.43.43,0,0,0,.22-.06l3.73-2.19,3.79,2.19a.39.39,0,0,0,.21.06.42.42,0,0,0,.21-.06l3.94-2.32a.44.44,0,0,0,.21-.37V9.58A.44.44,0,0,0,16.53,9.21ZM4,15.74.85,13.91V10.32L4,12.15Zm.43-4.33h0L1.29,9.59,4.43,7.81l3.1,1.78ZM8,13.92,4.86,15.74V12.15L8,10.33ZM8,8.85,4.86,7.08V3.48L8,5.25Zm.42-4.34L5.28,2.74,8.37.92l3.15,1.82Zm3.58-1V7.08L8.8,8.85V5.25l.86-.49Zm0,12.27L8.8,13.91V10.32l.11.07,1.15.66L12,12.14Zm.43-4.33L9.24,9.59h0l1.18-.66,2-1.11,3.08,1.78Zm3.51,2.51L12.8,15.74V12.15l3.09-1.82Z"/></g></g></svg>