<svg xmlns="http://www.w3.org/2000/svg" viewBox="0 0 16.82556 16.98831"><defs><style>.cls-1{fill:#3fa9f5;}</style></defs><title>SDKs</title><g id="Layer_2" data-name="Layer 2"><g id="Layer_1-2" data-name="Layer 1"><path id="SDKs" class="cls-1" d="M16.58463,9.16781,12.91025,7.06959V2.813a.53972.53972,0,0,0-.261-.45178L8.67375.06226A.29639.29639,0,0,0,8.54323.01208.49373.49373,0,0,0,8.41228,0a.487.487,0,0,0-.12.01205.29142.29142,0,0,0-.12046.05018l-3.93528,2.309-.0201.01005-.01928.0146a.28228.28228,0,0,0-.06111.05568.56648.56648,0,0,0-.14044.23088.61728.61728,0,0,0-.01005.13052V7.0596L.26091,9.16781a.49773.49773,0,0,0-.19081.19075.53085.53085,0,0,0-.04956.11828A.43575.43575,0,0,0,0,9.60954V14.1673a.51057.51057,0,0,0,.26091.44173l3.98564,2.309a.47613.47613,0,0,0,.251.07028.51118.51118,0,0,0,.261-.07028l3.66421-2.15839L12.14726,16.918a.4863.4863,0,0,0,.261.07028.45247.45247,0,0,0,.251-.07028l3.92536-2.309a.53968.53968,0,0,0,.24093-.44173V9.60954A.5138.5138,0,0,0,16.58463,9.16781ZM3.98553,15.58286,1.01384,13.87619V10.493L3.98553,12.2197Zm.512-4.24661L1.546,9.61958,4.48749,7.943,7.4088,9.61958Zm3.41323,2.55L4.99949,15.58286V12.2197L7.91076,10.503Zm0-5.15011L4.99949,7.06959V3.68639L7.91076,5.35293Zm.502-4.26665L5.50145,2.80294,8.41272,1.08628l2.97156,1.71666Zm3.48356-.79314V7.06959L8.92473,8.73613V5.35293Zm0,11.90652L8.92473,13.87619V10.503l2.97155,1.70661Zm.512-4.24661L9.43673,9.60954,12.41834,7.943l2.89141,1.67658Zm3.40342,2.55-2.90146,1.69662V12.2197L15.81171,10.503Z"/></g></g></svg>