<svg xmlns="http://www.w3.org/2000/svg" viewBox="0 0 22.94481 16.98629"><defs><style>.cls-1{fill:#3fa9f5;}</style></defs><title>Second Chance</title><g id="Layer_2" data-name="Layer 2"><g id="Layer_1-2" data-name="Layer 1"><g id="Second_chance"><path class="cls-1" d="M17.95632,0H1.84687A1.861,1.861,0,0,0,0,1.86677V12.99811a1.861,1.861,0,0,0,1.84687,1.86677h13.3735l-.99758-.2963a1.6162,1.6162,0,0,1-.9185-.70129H1.84687a.85379.85379,0,0,1-.8494-.86918V5.25457c2.74583,2.10381,7.67445,5.72865,8.90907,5.72865s6.15335-3.62484,8.90908-5.72865V6.42005c.08885-.00989.168-.01977.25681-.0296a1.58879,1.58879,0,0,1,.74077-.72106V1.86677A1.86313,1.86313,0,0,0,17.95632,0Zm.8593,4.01006c-3.91138,3.01247-8.14853,5.95586-8.90908,5.97557C9.15588,9.96592,4.899,7.02253.99747,4.01006V1.86677a.85382.85382,0,0,1,.8494-.86918H17.95632a.85589.85589,0,0,1,.8593.86918Z"/><path class="cls-1" d="M22.87505,14.934a3.801,3.801,0,0,1-.19749-3.37792,3.25834,3.25834,0,0,0-1.62973-3.8125l.1284-.41488a.66331.66331,0,0,0-.4543-.81975.55976.55976,0,0,0-.17784-.02966.67575.67575,0,0,0-.642.47408l-.08886.31607-.02966.0988a2.77426,2.77426,0,0,0-.28635-.00988,3.06938,3.06938,0,0,0-.68157.06914,3.19566,3.19566,0,0,0-1.27418.55311,3.13473,3.13473,0,0,0-.38521.33579,2.61526,2.61526,0,0,0-.33579.405,3.466,3.466,0,0,0-.27646.4543,3.9383,3.9383,0,0,0-.19761.51363,3.81091,3.81091,0,0,1-1.99518,2.72606.62812.62812,0,0,0-.29624.38522.65821.65821,0,0,0,.44442.81974l.83952.24693,3.11128.91861,3.64456,1.07656a.62037.62037,0,0,0,.18772.02966.67.67,0,0,0,.63215-.47414A.64385.64385,0,0,0,22.87505,14.934Zm-6.11109.35339a1.33113,1.33113,0,0,0,.89884,1.64944,1.54668,1.54668,0,0,0,.36532.04944,1.35461,1.35461,0,0,0,.94828-.39511,1.46117,1.46117,0,0,0,.24692-.34567,1.80129,1.80129,0,0,0,.079-.20744Z"/></g></g></g></svg>