<svg xmlns="http://www.w3.org/2000/svg" viewBox="0 0 20.15421 16.97627"><defs><style>.cls-1{fill:#3fa9f5;}</style></defs><title>Server to server integration for credit cards</title><g id="Layer_2" data-name="Layer 2"><g id="Layer_1-2" data-name="Layer 1"><g id="Server_to_server_for_cc"><path class="cls-1" d="M16.98634,3.73118V2.07175A2.06883,2.06883,0,0,0,14.91453,0H2.07168A2.0688,2.0688,0,0,0,0,2.07175V4.2139a2.06466,2.06466,0,0,0,.75428,1.599A2.07006,2.07006,0,0,0,0,7.42209V9.55418a2.08528,2.08528,0,0,0,.75428,1.6091A2.06478,2.06478,0,0,0,0,12.76237v2.14216a2.0688,2.0688,0,0,0,2.07168,2.07174H14.91453a2.06883,2.06883,0,0,0,2.07181-2.07174v-1.589h-1.0057v1.589a1.0666,1.0666,0,0,1-1.06611,1.066H2.07168a1.06657,1.06657,0,0,1-1.066-1.066V12.76237a1.06015,1.06015,0,0,1,1.066-1.066H9.4335a.58735.58735,0,0,1-.02013-.19108v-.885H2.07168a1.06019,1.06019,0,0,1-1.066-1.066V7.42209A1.06873,1.06873,0,0,1,2.07168,6.346H9.41337V5.5515a1.24655,1.24655,0,0,1,.0302-.27156H2.07168a1.06654,1.06654,0,0,1-1.066-1.066V2.07175a1.06015,1.06015,0,0,1,1.066-1.06605H14.91453a1.06018,1.06018,0,0,1,1.06611,1.06605V3.73118Z"/><path class="cls-1" d="M10.409,8.52834v2.97691a.58509.58509,0,0,0,.0302.19108.69643.69643,0,0,0,.21116.37211.68078.68078,0,0,0,.26149.181.81993.81993,0,0,0,.31183.06034h8.116a.80115.80115,0,0,0,.43251-.12068.47229.47229,0,0,0,.12055-.09054.529.529,0,0,0,.12081-.14076.80311.80311,0,0,0,.14069-.45257V8.52834Zm1.08624,1.83039a.21235.21235,0,0,1,.21116-.21122h1.20679a.21941.21941,0,0,1,.21116.21122v.6638a.21935.21935,0,0,1-.21116.21116H11.7064a.2123.2123,0,0,1-.21116-.21116Zm4.66635.875h-2.293a.22564.22564,0,0,1-.14069-.06034.1759.1759,0,0,1-.07047-.14082v-.68387a.176.176,0,0,1,.07047-.14081.226.226,0,0,1,.14069-.06034h2.293a.21052.21052,0,0,1,.2011.21122v.68387a.04487.04487,0,0,1-.00478.023.14375.14375,0,0,1-.01835.04752.17878.17878,0,0,1-.06723.08039A.1516.1516,0,0,1,16.16159,11.23369Zm3.85193-6.13477a.40226.40226,0,0,0-.10067-.12068.783.783,0,0,0-.56313-.24136h-8.126a.79443.79443,0,0,0-.76434.54306.81223.81223,0,0,0-.05034.27156v.80455h9.74521V5.5515A.77948.77948,0,0,0,20.01352,5.09892Z"/><circle class="cls-1" cx="5.5706" cy="13.83262" r="0.91053"/><circle class="cls-1" cx="5.5706" cy="8.48689" r="0.91053"/><path class="cls-1" d="M6.48114,3.14115a.91054.91054,0,1,0-.91054.91152A.9108.9108,0,0,0,6.48114,3.14115Z"/><circle class="cls-1" cx="3.14219" cy="13.83262" r="0.91053"/><circle class="cls-1" cx="3.14219" cy="8.48689" r="0.91053"/><path class="cls-1" d="M4.05272,3.14115a.91053.91053,0,1,0-.91053.91152A.91079.91079,0,0,0,4.05272,3.14115Z"/></g></g></g></svg>