<svg xmlns="http://www.w3.org/2000/svg" viewBox="0 0 16.91 16.91"><defs><style>.cls-1{fill:#00abee;}</style></defs><title>Tools</title><g id="Layer_2" data-name="Layer 2"><g id="Layer_1-2" data-name="Layer 1"><path class="cls-1" d="M15.83,10.55a3.69,3.69,0,0,0-3.23-1L11.16,8.08l.44-.44h1.48a1,1,0,0,0,.75-.37l2.88-3.85a.94.94,0,0,0-.08-1.22L14.7.28A.93.93,0,0,0,13.49.19L9.64,3.08a.91.91,0,0,0-.38.74V5.3l-.44.44-.11-.1L7.38,4.31a3.64,3.64,0,0,0-1-3.21,3.71,3.71,0,0,0-3.52-1,1.18,1.18,0,0,0-.55,2l1.11,1.1,0,.19-.18,0L2.06,2.28A1.14,1.14,0,0,0,.92,2a1.15,1.15,0,0,0-.81.83A3.72,3.72,0,0,0,4.32,7.39l.86.85a4.62,4.62,0,0,0-1,.79L.62,12.55A2,2,0,0,0,0,14a2,2,0,0,0,.6,1.44l.85.85a2.09,2.09,0,0,0,2.9,0l3.52-3.52a7.49,7.49,0,0,0,.86-1l.79.78a3.71,3.71,0,0,0,3.65,4.32,3.56,3.56,0,0,0,.91-.12,1.15,1.15,0,0,0,.83-.81,1.17,1.17,0,0,0-.29-1.14l-1.11-1.1,0-.19.19,0,1.11,1.11a1.19,1.19,0,0,0,1.14.29,1.14,1.14,0,0,0,.8-.84A3.74,3.74,0,0,0,15.83,10.55Zm.2,3.34a.38.38,0,0,1-.25.26h-.1a.38.38,0,0,1-.26-.1L14,12.66l-1.15.2L12.68,14l1.4,1.39a.37.37,0,0,1,.09.36.39.39,0,0,1-.27.27,3.34,3.34,0,0,1-.7.08,2.91,2.91,0,0,1-2.84-3.6l0-.17L8.53,10.45l-.18.45a4.21,4.21,0,0,1-1,1.31L3.81,15.73a1.25,1.25,0,0,1-.89.36A1.24,1.24,0,0,1,2,15.73l-.85-.85a1.24,1.24,0,0,1,0-1.77L4.7,9.58a3,3,0,0,1,1.4-.86l.55-.13L4.57,6.51l-.17,0a2.74,2.74,0,0,1-.7.09A2.92,2.92,0,0,1,.88,3a.37.37,0,0,1,.26-.27h.1a.4.4,0,0,1,.26.1l1.39,1.4L4,4l.19-1.14L2.84,1.5a.39.39,0,0,1-.09-.37A.39.39,0,0,1,3,.87,3.36,3.36,0,0,1,3.73.79a2.86,2.86,0,0,1,2.06.86,2.88,2.88,0,0,1,.77,2.74l0,.17L8.16,6.21l.08.06,0,0,.54.55,1.24-1.24,0-1.78V3.75l.07,0L13.92.81,14,.72l.1.11,1.92,1.88.11.1-.09.12L13.22,6.77l-.05.07h-1.9L10,8.07l2.31,2.31.17,0a2.72,2.72,0,0,1,.69-.09,2.9,2.9,0,0,1,2.06.86A2.93,2.93,0,0,1,16,13.89Z"/></g></g></svg>