<svg xmlns="http://www.w3.org/2000/svg" viewBox="0 0 19.23 16.9"><defs><style>.cls-1{fill:#3fa9f5;}</style></defs><title>Wrappers</title><g id="Layer_2" data-name="Layer 2"><g id="Layer_1-2" data-name="Layer 1"><path class="cls-1" d="M12.14.06,12,0a.4.4,0,0,0-.51.28l-4.66,16a.42.42,0,0,0,.28.51l.18,0a.41.41,0,0,0,.51-.28l4.65-16A.4.4,0,0,0,12.14.06Zm7,8.07L14.57,4.27a.42.42,0,0,0-.58,0l-.39.41,4.11,3.46a.4.4,0,0,1,0,.59L13.6,12.2l.35.37a.42.42,0,0,0,.58,0l4.56-3.86A.4.4,0,0,0,19.09,8.13Zm-19,.6,4.56,3.86a.42.42,0,0,0,.58,0l.35-.37L1.52,8.75a.39.39,0,0,1,0-.59L5.62,4.7l-.38-.41a.42.42,0,0,0-.58,0L.13,8.13A.42.42,0,0,0,.13,8.73Z"/></g></g></svg>