<svg xmlns="http://www.w3.org/2000/svg" viewBox="0 0 49.09644 34.59685"><defs><style>.cls-1{fill:#79a531;}.cls-2{fill:#695243;}</style></defs><title>Asset 22</title><g id="Layer_2" data-name="Layer 2"><g id="Layer_1-2" data-name="Layer 1"><path class="cls-1" d="M5.89371.09918a5.00859,5.00859,0,0,0-1.9836,0,4.72316,4.72316,0,0,0-3.907,4.78464v7.60983a1.464,1.464,0,0,0,.13223.70927l.012.012a.86929.86929,0,0,0,.541.42077.848.848,0,0,0,.69727-.13223,1.17669,1.17669,0,0,0,.44478-1.0459V9.392H7.98549v3.08964a1.55873,1.55873,0,0,0,.1683.72131.86934.86934,0,0,0,.541.42077,1.05892,1.05892,0,0,0,.20438.024.80294.80294,0,0,0,.49289-.15629,1.13248,1.13248,0,0,0,.40873-1.04588V4.87181A4.72149,4.72149,0,0,0,5.89371.09918ZM7.97347,4.89586v2.789H1.84239v-2.789A2.87857,2.87857,0,0,1,3.18883,2.251a3.10011,3.10011,0,0,1,2.34422-.4688A2.56813,2.56813,0,0,1,6.615,2.239l.012.012A2.92876,2.92876,0,0,1,7.97355,4.8958Zm20.0282,4.6043a.85868.85868,0,0,0-.50491-.43276.91011.91011,0,0,0-.68526.07212,1.05157,1.05157,0,0,0-.52895.81749l-.07212.38472-.012.12021A2.07711,2.07711,0,0,1,23.7805,12.13L23.734,12.121c-.79344-.12022-1.85135-.541-1.85135-2.72894V9.24772H24.287c.28852,0,1.166,0,1.166-.86556a.80315.80315,0,0,0-.70927-.81749,3.72291,3.72291,0,0,0-.51693-.024h-2.3442v-3.33a1.46362,1.46362,0,0,0-.13226-.70927v-.012a.86926.86926,0,0,0-.541-.42077.848.848,0,0,0-.69728.13223,1.13254,1.13254,0,0,0-.40873,1.0459v4.965c0,2.8251,1.02184,4.24368,3.318,4.61634a4.42634,4.42634,0,0,0,.79343.07214,3.848,3.848,0,0,0,3.79888-2.89728c.03607-.14425.0601-.2765.08414-.40874v-.012A1.66878,1.66878,0,0,0,28.00167,9.50016ZM39.74688,7.13189a5.50942,5.50942,0,1,0-10.639,2.86818q.04319.1602.096.31758a5.27724,5.27724,0,0,0,5.12125,3.61853,6.05268,6.05268,0,0,0,1.29835-.14424,5.79231,5.79231,0,0,0,1.88742-.79344,4.63673,4.63673,0,0,0,.98577-.84152,1.35375,1.35375,0,0,0,.4448-.98579.83883.83883,0,0,0-.92345-.74468q-.03741.004-.07436.01136l-.03605.012a1.308,1.308,0,0,0-.553.31258l-.15629.19236-.22841.20437-.012.012a3.50761,3.50761,0,0,1-1.77922.98579A3.60588,3.60588,0,0,1,30.971,9.90894c-.04809-.14427-.08416-.2765-.12023-.39674H38.713l.16831-.024.26448-.012a.8279.8279,0,0,0,.64916-.33661c.26449-.37268.25247-.92568-.04809-2.00763ZM30.947,7.43244a3.61742,3.61742,0,0,1,4.50228-2.42918l.04193.01281a3.65881,3.65881,0,0,1,2.51257,2.63277,2.45809,2.45809,0,0,1,.06011.28852l-7.23707-.06011a3.05028,3.05028,0,0,1,.12022-.44481Zm18.06865-1.082c-.036-.15627-.08414-.28852-.12021-.40873l-.03608-.1082a3.951,3.951,0,0,0-3.84694-2.741,3.87972,3.87972,0,0,0-.85354.08416,3.941,3.941,0,0,0-3.10154,4.424v4.8808a1.47423,1.47423,0,0,0,.1683.72131.86929.86929,0,0,0,.541.42077,1.05891,1.05891,0,0,0,.20437.024.803.803,0,0,0,.4929-.15629,1.13318,1.13318,0,0,0,.37268-1.04588V7.60083c0-1.635.51693-2.42841,1.71909-2.66884a2.14257,2.14257,0,0,1,2.53659,1.47867A3.63637,3.63637,0,0,0,47.48894,7.709l.03608.04807a.94208.94208,0,0,0,1.118.19236c.553-.30055.49288-1.00982.37266-1.5989Z"/><path class="cls-1" d="M19.03345,6.35047a2.78007,2.78007,0,0,0-.12022-.40873l-.03607-.1082a3.951,3.951,0,0,0-3.84694-2.741,3.80652,3.80652,0,0,0-.85354.08416,3.941,3.941,0,0,0-3.10155,4.424v4.8808a1.4553,1.4553,0,0,0,.16831.70929v.012a.86932.86932,0,0,0,.541.42077,1.0591,1.0591,0,0,0,.20438.024.803.803,0,0,0,.4929-.15629,1.14364,1.14364,0,0,0,.40873-1.04588V11.29135l-.03607-2.03167h2.56058c.84152,0,1.04587-.43279,1.06993-.80545a.83721.83721,0,0,0-.20438-.61311,1.13864,1.13864,0,0,0-.86555-.28852H12.84226c.012-1.58687.529-2.36828,1.71912-2.62075a2.09811,2.09811,0,0,1,2.09177.67322,2.18747,2.18747,0,0,1,.44481.80545,3.63623,3.63623,0,0,0,.39672,1.29837l.03607.04807a.94207.94207,0,0,0,1.118.19235c.565-.30053.50492-1.00982.38472-1.5989Z"/><path class="cls-2" d="M8.21458,19.31656a4.63762,4.63762,0,0,0-3.66662-1.659A4.50477,4.50477,0,0,0,.00021,22.11893q-.002.21.01553.41944v7.60975a1.47467,1.47467,0,0,0,.1683.72131.86938.86938,0,0,0,.541.42077,1.05892,1.05892,0,0,0,.20438.024.80286.80286,0,0,0,.49287-.15629,1.15742,1.15742,0,0,0,.42077-1.04588V26.66182H4.47582A4.34815,4.34815,0,0,0,9.12813,23.1034,4.50539,4.50539,0,0,0,8.21458,19.31656ZM7.373,22.20177a2.73762,2.73762,0,0,1-2.7289,2.74632q-.09021.00028-.18029-.00536H4.42775l-2.56064-.03608V22.38219A2.75956,2.75956,0,1,1,7.373,22.20177ZM20.54879,25.664a4.82211,4.82211,0,0,0-.19236-1.16605A5.09613,5.09613,0,0,0,17.892,21.44447a5.594,5.594,0,0,0-4.29175-.43279,5.40113,5.40113,0,0,0,.04817,10.37468,6.04021,6.04021,0,0,0,1.52678.19236,5.36441,5.36441,0,0,0,2.188-.45682,4.55845,4.55845,0,0,0,1.43058-.99781v.024a1.50914,1.50914,0,0,0,.09617.70929l.012.012a.8693.8693,0,0,0,.541.42077.84793.84793,0,0,0,.69727-.13225,1.1669,1.1669,0,0,0,.43277-1.04588V25.86839l-.024-.20436Zm-4.52008,4.09941a3.55856,3.55856,0,0,1-4.3438-2.54129l-.00806-.03136v-.012a3.36525,3.36525,0,0,1-.14427-.75738,3.65144,3.65144,0,0,1,2.52447-3.7628,3.92838,3.92838,0,0,1,1.16605-.18032,3.54457,3.54457,0,0,1,2.06772.64918,3.62309,3.62309,0,0,1,1.51474,2.89729A3.554,3.554,0,0,1,16.02871,29.76344Zm14.06542-8.25893-.37268.18033.37268-.18033-.012-.024a.86938.86938,0,0,0-.541-.42075.848.848,0,0,0-.69725.13223,1.1358,1.1358,0,0,0-.39665,1.04586v4.84467a2.83807,2.83807,0,0,1-.80544,2.17594,2.281,2.281,0,0,1-3.67862-2.01965V22.21362a1.62075,1.62075,0,0,0-.12022-.72128.86932.86932,0,0,0-.541-.42077.848.848,0,0,0-.69727.13223,1.16692,1.16692,0,0,0-.43277,1.0459v5.02513a3.87493,3.87493,0,0,0,2.58456,4.00333,4.03163,4.03163,0,0,0,3.66672-.49287v.036a2.13324,2.13324,0,0,1-1.659,1.94753,2.05834,2.05834,0,0,1-1.45461-.09618,1.91064,1.91064,0,0,1-.72147-.56508l-.26448-.33661-.1683-.19236a1.22343,1.22343,0,0,0-.24043-.25247l-.04809-.04807-.04809-.024a.84394.84394,0,0,0-.79343-.03607.87611.87611,0,0,0-.50491.63716,1.5773,1.5773,0,0,0,.37266,1.13l.012.012a4.16731,4.16731,0,0,0,.78134.81749,3.84482,3.84482,0,0,0,2.40435.78133,4.74208,4.74208,0,0,0,1.15415-.14425,4.0421,4.0421,0,0,0,3.00545-4.36389v-7.8741A1.39081,1.39081,0,0,0,30.09413,21.50451Z"/><path class="cls-2" d="M33.29189,20.3384a1.28208,1.28208,0,0,1-.9377.39662,1.24427,1.24427,0,0,1-.9377-.39662,1.3261,1.3261,0,0,1,1.8754-1.87538,1.23384,1.23384,0,0,1,.38472.93768,1.31852,1.31852,0,0,1-.38472.9377m-1.75515-1.75517a1.13792,1.13792,0,0,0-.3366.80545,1.1166,1.1166,0,0,0,.3366.81749,1.09,1.09,0,0,0,.80545.33661,1.07146,1.07146,0,0,0,.80545-.33661,1.145,1.145,0,0,0,.33661-.81749,1.07142,1.07142,0,0,0-.33661-.80545,1.09,1.09,0,0,0-.80544-.33661,1.138,1.138,0,0,0-.80545.33661m.78134.07213a1.09982,1.09982,0,0,1,.39662.04809.36645.36645,0,0,1,.22843.37268.31482.31482,0,0,1-.14427.28852.45656.45656,0,0,1-.2164.07212.3904.3904,0,0,1,.33662.37268v.21638c0,.03607,0,.06012.012.07214l.012.012h-.24021v-.1924a.38508.38508,0,0,0-.13223-.33661.56457.56457,0,0,0-.2886-.04811h-.20438V20.11h-.26449V18.65536Zm.2765.24043a.64751.64751,0,0,0-.31256-.06011h-.21639v.529h.22842a.59128.59128,0,0,0,.2405-.036.23505.23505,0,0,0,.15626-.22845.20322.20322,0,0,0-.09615-.20437"/></g></g></svg>