<svg xmlns="http://www.w3.org/2000/svg" viewBox="0 0 49.21681 49.21681"><defs><style>.cls-1{fill:#2d9dd8;}</style></defs><title>Asset 18</title><g id="Layer_2" data-name="Layer 2"><g id="Layer_1-2" data-name="Layer 1"><path class="cls-1" d="M41.35479,0H7.862A7.85621,7.85621,0,0,0,.0002,7.85057V41.2907a7.8702,7.8702,0,0,0,7.81428,7.92572l.04756.00019H41.2909a7.8702,7.8702,0,0,0,7.92572-7.81428l.00019-.0476v-.51148s-12.71974-5.30513-19.17538-8.43711a20.99283,20.99283,0,0,1-15.65978,8.50118c-9.77938,0-13.10312-8.5648-8.501-14.18978a9.93843,9.93843,0,0,1,5.36906-3.068,36.511,36.511,0,0,1,17.002,2.68453,35.74852,35.74852,0,0,0,2.74846-6.77526H11.825V17.64122h9.9072V14.12576H9.84351V12.20822H21.79608V7.22267a.81381.81381,0,0,1,.79624-.831q.01738-.00038.03477,0h4.85764v5.81656H39.30947v1.91754H27.48473v3.51546h9.65151a38.07169,38.07169,0,0,1-4.09069,10.35465c2.94018,1.08657,5.56082,2.04537,7.54225,2.74842a51.87951,51.87951,0,0,0,8.62888,2.49282V7.86184A7.85622,7.85622,0,0,0,41.3661,0Z"/><path class="cls-1" d="M7.54245,27.99587c-3.835,3.19587-1.534,9.07628,6.2,9.07628a16.74136,16.74136,0,0,0,12.46391-7.15878A26.37836,26.37836,0,0,0,12.40018,26.334,9.24119,9.24119,0,0,0,7.54245,27.99587Z"/></g></g></svg>