<?xml version="1.0" encoding="utf-8"?>
<!-- Generator: Adobe Illustrator 24.1.0, SVG Export Plug-In . SVG Version: 6.00 Build 0)  -->
<svg version="1.1" id="Layer_1" xmlns="http://www.w3.org/2000/svg" xmlns:xlink="http://www.w3.org/1999/xlink" x="0px" y="0px"
	 viewBox="0 0 60 59.84782" style="enable-background:new 0 0 60 59.84782;" xml:space="preserve">
<style type="text/css">
	.st0{fill:#016FD0;}
	.st1{fill:#FFFFFF;}
</style>
<g>
	<path id="path3078" class="st0" d="M0,0h59.99681v32.30074l-3.11129,4.63551l3.11324,3.99088l-0.00195,18.9207H0V29.39162
		l1.85144-2.12915L0,25.22588V0z"/>
	<path id="path3082" class="st1" d="M11.63195,41.6968v-9.39606h9.94869l1.06739,1.39147l1.10268-1.39147h36.24611L60,41.00489
		c0,0-0.84126,0.69192-2.17459,0.69192H37.82985l-1.20344-1.48116v1.48116h-3.94357v-2.52838c0,0-0.5387,0.35293-1.70333,0.35293
		h-1.34229v2.17544h-5.9709l-1.06586-1.42131l-1.08223,1.42131H11.63195z"/>
	<path id="path3080" class="st1" d="M0,25.22588l2.24347-5.23032h3.87984l1.27319,2.92981v-2.92981h4.823l0.75793,2.11758
		l0.73479-2.11758h21.65029v1.06458c0,0,1.13814-1.06458,3.00859-1.06458l7.02472,0.02455l1.25122,2.89147v-2.91602h4.03614
		l1.11086,1.66091v-1.66091h4.07317v9.39606h-4.07317l-1.06458-1.66629v1.66629H44.7995l-0.59634-1.48116h-1.59418l-0.58664,1.48116
		h-4.02151c-1.60947,0-2.6383-1.04284-2.6383-1.04284v1.04284h-6.06347l-1.20344-1.48116v1.48116H5.54854L4.9526,27.91046h-1.5891
		l-0.59172,1.48116H0V25.22588z"/>
	<path id="path3046" class="st0" d="M3.03752,21.1539l-3.02595,7.03547h1.97005l0.55833-1.40882h3.24581l0.55543,1.40882h2.01344
		l-3.02306-7.03548L3.03752,21.1539L3.03752,21.1539z M4.15706,22.79127l0.98936,2.46185H3.16481L4.15706,22.79127z"/>
	<path id="path3048" class="st0" d="M8.56291,28.18819v-7.03548l2.79955,0.0104l1.62831,4.53603l1.58932-4.54643h2.77716v7.03548
		h-1.75887v-5.18403l-1.86444,5.18403h-1.54253l-1.86964-5.18403v5.18403H8.56291z"/>
	<path id="path3050" class="st0" d="M18.5607,28.18819v-7.03548h5.73947v1.57373h-3.96209v1.20344h3.86951v1.48116h-3.86951v1.24972
		h3.96209v1.52744L18.5607,28.18819z"/>
	<path id="path3052" class="st0" d="M25.31846,21.1539v7.03547h1.75887v-2.49944h0.74058l2.10891,2.49944h2.14941l-2.3143-2.59201
		c0.9498-0.08015,1.92955-0.89535,1.92955-2.16098c0-1.48051-1.16203-2.28249-2.45895-2.28249L25.31846,21.1539L25.31846,21.1539z
		 M27.07733,22.72762h2.01055c0.4823,0,0.83315,0.37727,0.83315,0.74058c0,0.46741-0.45458,0.74058-0.80711,0.74058h-2.03658
		L27.07733,22.72762L27.07733,22.72762z"/>
	<path id="path3054" class="st0" d="M34.20537,28.18819h-1.7959v-7.03548h1.7959V28.18819z"/>
	<path id="path3056" class="st0" d="M38.46369,28.18819h-0.38765c-1.8756,0-3.01438-1.47767-3.01438-3.48881
		c0-2.06082,1.12603-3.54667,3.49459-3.54667h1.94401v1.6663h-2.01509c-0.96151,0-1.64151,0.75036-1.64151,1.89773
		c0,1.3625,0.77755,1.93475,1.89773,1.93475h0.46286L38.46369,28.18819z"/>
	<path id="path3058" class="st0" d="M42.29096,21.1539l-3.02595,7.03547h1.97005l0.55832-1.40882h3.24581l0.55543,1.40882h2.01344
		l-3.02306-7.03548L42.29096,21.1539L42.29096,21.1539z M43.4105,22.79127l0.98937,2.46185h-1.98162L43.4105,22.79127
		L43.4105,22.79127z"/>
	<path id="path3060" class="st0" d="M47.81347,28.18819v-7.03548h2.23619l2.85527,4.42032v-4.42032h1.75887v7.03548h-2.16387
		l-2.92759-4.53603v4.53603H47.81347z"/>
	<path id="path3062" class="st0" d="M12.82123,40.50027v-7.03548h5.73947v1.57373h-3.96208v1.20344h3.86951v1.48116h-3.86951
		v1.24973h3.96208v1.52744L12.82123,40.50027z"/>
	<path id="path3064" class="st0" d="M40.94462,40.50027v-7.03548h5.73947v1.57373H42.722v1.20344h3.851v1.48116h-3.851v1.24973
		h3.96208v1.52744L40.94462,40.50027z"/>
	<path id="path3066" class="st0" d="M18.78345,40.50027l2.79452-3.47435l-2.86106-3.56113h2.21594l1.7039,2.20148l1.70969-2.20148
		h2.12916l-2.82345,3.51774l2.79967,3.51774h-2.21559l-1.65443-2.16677l-1.61423,2.16677L18.78345,40.50027z"/>
	<path id="path3068" class="st0" d="M26.66075,33.46598v7.03548h1.80516v-2.22173h1.85144c1.56658,0,2.75402-0.8311,2.75402-2.44738
		c0-1.33891-0.93131-2.36637-2.52548-2.36637H26.66075L26.66075,33.46598z M28.46591,35.05706h1.9498
		c0.5061,0,0.86786,0.31019,0.86786,0.81001c0,0.46955-0.35994,0.81001-0.87365,0.81001h-1.94401V35.05706L28.46591,35.05706z"/>
	<path id="path3072" class="st0" d="M33.83508,33.46479v7.03548h1.75887v-2.49945h0.74058l2.10891,2.49945h2.14941l-2.3143-2.59202
		c0.9498-0.08016,1.92955-0.89535,1.92955-2.16098c0-1.48051-1.16204-2.28248-2.45895-2.28248L33.83508,33.46479L33.83508,33.46479z
		 M35.59395,35.03852h2.01055c0.4823,0,0.83315,0.37727,0.83315,0.74057c0,0.46741-0.45458,0.74058-0.80711,0.74058h-2.03659
		V35.03852z"/>
	<path id="path3074" class="st0" d="M47.49872,40.50027v-1.52744h3.52005c0.52084,0,0.74636-0.28146,0.74636-0.59015
		c0-0.29576-0.22481-0.59478-0.74636-0.59478H49.4281c-1.38267,0-2.15271-0.84241-2.15271-2.10717
		c0-1.12807,0.70517-2.21595,2.7598-2.21595h3.42517l-0.74058,1.58298h-2.9623c-0.56627,0-0.74058,0.29714-0.74058,0.5809
		c0,0.29166,0.21541,0.61329,0.64801,0.61329h1.6663c1.54134,0,2.21016,0.8743,2.21016,2.01923
		c0,1.23092-0.74529,2.23909-2.29407,2.23909H47.49872z"/>
	<path id="path3076" class="st0" d="M53.95418,40.50027v-1.52744h3.52005c0.52085,0,0.74636-0.28146,0.74636-0.59015
		c0-0.29576-0.22481-0.59478-0.74637-0.59478h-1.59067c-1.38267,0-2.15271-0.84241-2.15271-2.10717
		c0-1.12807,0.70517-2.21595,2.75981-2.21595h3.42517l-0.74058,1.58298h-2.96231c-0.56626,0-0.74057,0.29714-0.74057,0.5809
		c0,0.29166,0.21541,0.61329,0.64801,0.61329h1.6663c1.54134,0,2.21016,0.8743,2.21016,2.01923
		c0,1.23092-0.74529,2.23909-2.29407,2.23909H53.95418z"/>
</g>
</svg>
