<svg xmlns="http://www.w3.org/2000/svg" viewBox="0 0 50.33613 32.22473"><defs><style>.cls-1{fill:#fff;}</style></defs><g id="Layer_2" data-name="Layer 2"><g id="Section_1" data-name="Section 1"><path d="M45.82835,0H4.50783c-.17209,0-.34449,0-.51628.001-.14521.001-.29009.00265-.435.0066a6.32068,6.32068,0,0,0-.94666.08327,3.19639,3.19639,0,0,0-.89976.29662,3.024,3.024,0,0,0-1.323,1.323,3.182,3.182,0,0,0-.29632.9001,6.27875,6.27875,0,0,0-.08366.94635c-.00389.14487-.00556.28975-.00651.4346-.001.17215-.00067.34418-.00067.51664V27.71693c0,.17246-.00033.34419.00067.51668.001.14485.00262.28972.00651.4346a6.27618,6.27618,0,0,0,.08366.946,3.18123,3.18123,0,0,0,.29632.90013,3.02382,3.02382,0,0,0,1.323,1.32292,3.18357,3.18357,0,0,0,.89976.297,6.36973,6.36973,0,0,0,.94666.08324q.21731.00492.435.0059c.17179.00133.34419.00133.51628.00133H45.82835c.17179,0,.34419,0,.51595-.00133q.21731-.001.43529-.0059a6.387,6.387,0,0,0,.94669-.08324,3.18618,3.18618,0,0,0,.89943-.297,3.02382,3.02382,0,0,0,1.323-1.32292,3.16169,3.16169,0,0,0,.29628-.90013,6.27439,6.27439,0,0,0,.08327-.946q.00592-.21732.00657-.4346c.00134-.17249.00134-.34422.00134-.51668V4.50814c0-.17246,0-.34449-.00134-.51664q-.001-.21727-.00657-.4346a6.277,6.277,0,0,0-.08327-.94635,3.16242,3.16242,0,0,0-.29628-.9001,3.024,3.024,0,0,0-1.323-1.323,3.199,3.199,0,0,0-.89943-.29662A6.33767,6.33767,0,0,0,46.77959.0076C46.63405.00365,46.48917.002,46.3443.001,46.17254,0,46.00014,0,45.82835,0Z"/><path class="cls-1" d="M45.82835,1.07411l.50831.001c.1377.001.2754.00246.41387.00623a5.3708,5.3708,0,0,1,.78523.06663,2.12018,2.12018,0,0,1,.6035.19719,1.94992,1.94992,0,0,1,.85271.85363,2.09136,2.09136,0,0,1,.196.60283,5.33988,5.33988,0,0,1,.06654.78462c.00371.13679.00553.27358.00621.41362.0013.16936.00127.33862.00127.50831V27.71693c0,.16969,0,.33865-.00131.51163-.00064.13675-.00246.27354-.0062.41057a5.33224,5.33224,0,0,1-.06709.78718,2.08435,2.08435,0,0,1-.19593.60061,1.95,1.95,0,0,1-.85406.85363,2.10249,2.10249,0,0,1-.59955.19624,5.46087,5.46087,0,0,1-.78258.06688c-.1391.00313-.27753.005-.41933.00568-.169.00131-.3386.00128-.50762.00128H4.50111c-.16707,0-.33449,0-.5046-.00131-.13871-.00064-.27711-.00249-.41091-.00553A5.47267,5.47267,0,0,1,2.8,31.0771a2.11013,2.11013,0,0,1-.6039-.19776,1.95,1.95,0,0,1-.85171-.85239,2.10877,2.10877,0,0,1-.19651-.60371,5.31329,5.31329,0,0,1-.06691-.7839c-.00371-.1376-.00526-.27518-.00614-.412l-.00067-.40382,0-.10662V4.50814l0-.10662.00064-.403c.00091-.13761.00246-.27518.00617-.41267a5.318,5.318,0,0,1,.0673-.78645,2.10536,2.10536,0,0,1,.19661-.60256,1.95022,1.95022,0,0,1,.85271-.85223A2.1165,2.1165,0,0,1,2.79985,1.148a5.36382,5.36382,0,0,1,.78608-.06675c.13764-.00374.27528-.00523.41188-.00617l.51-.001H45.82835"/><path d="M13.74144,10.83854A2.80927,2.80927,0,0,0,14.38777,8.836a2.7857,2.7857,0,0,0-1.84656.95574,2.63,2.63,0,0,0-.66211,1.92478,2.32426,2.32426,0,0,0,1.86234-.878"/><path d="M14.37972,11.85486c-1.02852-.06127-1.903.58374-2.39419.58374-.49145,0-1.24359-.55287-2.0571-.538A3.03307,3.03307,0,0,0,7.34982,13.467c-1.10516,1.9048-.29165,4.73029.78305,6.28165.52191.76751,1.15089,1.61259,1.97967,1.58223.78306-.03073,1.09-.507,2.04182-.507.95114,0,1.22762.507,2.05653.49168.85961-.01537,1.397-.76789,1.91891-1.53614a6.8179,6.8179,0,0,0,.85923-1.7661,2.7893,2.7893,0,0,1-1.67279-2.5343,2.84308,2.84308,0,0,1,1.35068-2.38064,2.94051,2.94051,0,0,0-2.2872-1.24351"/><path d="M23.3353,9.71434a3.61468,3.61468,0,0,1,3.79213,3.78442,3.655,3.655,0,0,1-3.84818,3.80044h-2.4751v3.93611H19.01588V9.71433H23.3353Zm-2.53116,6.08381h2.05191a2.15716,2.15716,0,0,0,2.44308-2.29138,2.149,2.149,0,0,0-2.43507-2.28338H20.80414Z"/><path d="M27.59466,18.84814c0-1.46917,1.12575-2.37131,3.12192-2.48311l2.29923-.13567v-.64665c0-.93418-.63079-1.49305-1.68446-1.49305a1.60811,1.60811,0,0,0-1.77256,1.22955H27.93008c.09579-1.51707,1.38909-2.63481,3.465-2.63481,2.03589,0,3.3372,1.07786,3.3372,2.76248v5.78843H33.07956V19.85408h-.03973A3.001,3.001,0,0,1,30.38916,21.379,2.54624,2.54624,0,0,1,27.59466,18.84814Zm5.42115-.75845V17.427l-2.06793.12767c-1.03.07192-1.6127.527-1.6127,1.24556,0,.73443.60677,1.21353,1.53293,1.21353A2.01317,2.01317,0,0,0,33.01581,18.08969Z"/><path d="M36.29264,24.32519V22.92794a3.19175,3.19175,0,0,0,.55872.03188,1.39884,1.39884,0,0,0,1.49288-1.19751c0-.016.15185-.511.15185-.519l-3.03382-8.40723h1.868l2.124,6.83442H39.486l2.124-6.83442h1.8203l-3.14594,8.83828c-.71826,2.036-1.54864,2.69071-3.28915,2.69071A6.67025,6.67025,0,0,1,36.29264,24.32519Z"/></g></g></svg>