<svg xmlns="http://www.w3.org/2000/svg" viewBox="0 0 48.08454 19.38203"><defs><style>.cls-1{fill:#09569a;}.cls-2{fill:#ffd802;}</style></defs><title>Asset 2</title><g id="Layer_2" data-name="Layer 2"><g id="Layer_1-2" data-name="Layer 1"><g id="Layer_1-2-2" data-name="Layer 1-2"><path class="cls-1" d="M42.85366,5.23068H27.96052L26.43887,6.94254l-4.90732,5.535h0L20.0099,14.1894H5.326l1.48362-1.73088.70376-.81793L8.99687,9.90976H2.24461a2.28569,2.28569,0,0,0-2.24443,2.3015h0v4.86928A2.27347,2.27347,0,0,0,2.24461,19.382H28.15073a5.63979,5.63979,0,0,0,3.74706-1.71186L35.816,13.21935Z"/><path class="cls-2" d="M45.83992.038a2.2857,2.2857,0,0,1,2.24444,2.3015V7.18981a2.27348,2.27348,0,0,1-2.24444,2.3015h-6.7333l1.50263-1.71186h0l.74181-.85593,1.5026-1.71186H27.96052l-7.9316,8.9397H5.24988l10.59447-11.983.39945-.4565A5.81707,5.81707,0,0,1,20.00989,0h25.83Z"/></g></g></g></svg>