<svg xmlns="http://www.w3.org/2000/svg" viewBox="0 0 48.09331 48.10092"><defs><style>.cls-1{fill:#c31349;}.cls-2{fill:#fff;}</style></defs><title>Asset 5</title><g id="Layer_2" data-name="Layer 2"><g id="Layer_1-2" data-name="Layer 1"><g id="Layer_1-2-2" data-name="Layer 1-2"><path class="cls-1" d="M0,39.1505a8.94831,8.94831,0,0,0,8.94423,8.95042H48.08862l.00469-8.95046V8.94519A8.94613,8.94613,0,0,0,39.14623,0H8.94423A8.94481,8.94481,0,0,0,0,8.94519Z"/><path class="cls-2" d="M11.04085,17.33353A3.34423,3.34423,0,0,1,14.31,13.9158q.07653-.0017.15306.0001H33.62678a3.42124,3.42124,0,0,1,.01721,6.84246H14.463a3.34918,3.34918,0,0,1-3.42222-3.27453Q11.03913,17.4087,11.04085,17.33353Z"/><path class="cls-2" d="M11.04085,30.76479a3.34814,3.34814,0,0,1,3.26977-3.42474q.07618-.00177.15239-.00006H33.62678a3.42191,3.42191,0,0,1,0,6.84377H14.463a3.3465,3.3465,0,0,1-3.42209-3.26918Q11.0392,30.8397,11.04085,30.76479Z"/></g></g></g></svg>