<svg xmlns="http://www.w3.org/2000/svg" viewBox="0 0 46.77327 34.07929"><defs><style>.cls-1{fill:#6d6f71;}.cls-2{fill:#e83944;}</style></defs><title>Asset 16</title><g id="Layer_2" data-name="Layer 2"><g id="Layer_1-2" data-name="Layer 1"><path class="cls-1" d="M3.79637,14.054a17.95724,17.95724,0,0,1-3.40709-.31466c-.33336-.05554-.3889-.16681-.3889-.42593V.35191a.33616.33616,0,0,1,.32-.35155L.33377,0H1.278a.35169.35169,0,0,1,.35189.3515V3.796a13.1727,13.1727,0,0,1,2.1665-.18513c2.68477,0,4.03643,1.6293,4.03643,4.5364V9.4804C7.8328,12.258,6.57371,14.054,3.79637,14.054ZM6.20351,8.14728c0-1.98115-.59255-3.11071-2.40714-3.11071a14.46744,14.46744,0,0,0-2.1665.12959v7.35129c.62954.05554,1.53676.11105,2.1665.11105,1.8331,0,2.40714-1.12951,2.40714-3.14793Z"/><path class="cls-1" d="M17.33172,9.35092H11.12853v.25935c0,2.2033.87038,3.01815,2.57392,3.01815a25.34078,25.34078,0,0,0,3.29582-.20381h.09253a.26247.26247,0,0,1,.29637.25935v.62954c0,.24064-.074.3704-.37039.42594a16.79711,16.79711,0,0,1-3.31433.31466A3.88831,3.88831,0,0,1,9.49932,9.61021V7.94367a3.87777,3.87777,0,0,1,4.11046-4.33278,3.83336,3.83336,0,0,1,4.07363,4.33278v1C17.68341,9.18428,17.55385,9.35092,17.33172,9.35092Zm-1.2961-1.40719c0-2.09245-.79635-2.9071-2.42584-2.9071-1.59227,0-2.48128.9074-2.48128,2.9071v.16656h4.907Z"/><path class="cls-1" d="M24.23823,13.96151a9.01662,9.01662,0,0,1-1.20356.09253c-1.70354,0-2.51839-.44444-2.51839-2.48127V5.11062l-1.796-.20361c-.20361-.01851-.35169-.12956-.35169-.3334v-.5a.32576.32576,0,0,1,.35169-.33318h1.796V1.92586a.377.377,0,0,1,.33337-.37039l.96295-.14808h.05551a.29425.29425,0,0,1,.278.30966l-.00031.005V3.74048h1.99991a.37127.37127,0,0,1,.37025.37026v.62954a.37134.37134,0,0,1-.37025.37043H22.14578v6.46217c0,1.01845.25934,1.16656.99994,1.16656h1.037c.25915,0,.38871.074.38871.25912v.64826C24.57151,13.81335,24.47887,13.92448,24.23823,13.96151Z"/><path class="cls-1" d="M32.82977,13.92448h-.85168a.3715.3715,0,0,1-.37026-.37039v-.40723a5.63822,5.63822,0,0,1-2.85136.90718,2.69865,2.69865,0,0,1-3.01837-2.99963v-.22213c0-1.99991,1.16653-2.99966,4.46256-2.99966h1.37015V7.0918c0-1.55524-.537-2.09225-1.98116-2.09225a26.95778,26.95778,0,0,0-2.83307.1481H26.664c-.16661,0-.3332-.05554-.3332-.29618V4.20341c0-.20381.12959-.31486.38871-.35188a15.95463,15.95463,0,0,1,2.8701-.24064c2.57371,0,3.61068,1.29612,3.61068,3.48091v6.46229A.37137.37137,0,0,1,32.82977,13.92448Zm-1.2591-4.9253H30.20053c-2.24056,0-2.83308.5-2.83308,1.81459v.22213c0,1.33311.62955,1.685,1.70354,1.685a5.09416,5.09416,0,0,0,2.49968-.74051Z"/><path class="cls-1" d="M42.25465,13.92448H41.403a.37148.37148,0,0,1-.37039-.37039v-.40723a5.63828,5.63828,0,0,1-2.85137.90718,2.69865,2.69865,0,0,1-3.01837-2.99963v-.22213c0-1.99991,1.16653-2.99966,4.46242-2.99966h1.37018V7.0918c0-1.55524-.537-2.09225-1.98115-2.09225a26.95783,26.95783,0,0,0-2.83308.1481h-.09253c-.16659,0-.33318-.05554-.33318-.29618V4.20341c0-.20381.12956-.31486.38869-.35188a15.95455,15.95455,0,0,1,2.8701-.24064c2.5737,0,3.61069,1.29612,3.61069,3.48091v6.46229A.37139.37139,0,0,1,42.25465,13.92448Zm-1.2592-4.9253H39.62531c-2.24056,0-2.83308.5-2.83308,1.81459v.22213c0,1.33311.62955,1.685,1.70354,1.685a5.0942,5.0942,0,0,0,2.49968-.74051Z"/><path class="cls-1" d="M46.43958,13.92448h-.96294a.3532.3532,0,0,1-.3334-.37039V.35194a.3363.3363,0,0,1,.32031-.35156L45.47664,0h.96294a.33652.33652,0,0,1,.33352.33949l-.00034.01242V13.55409a.35214.35214,0,0,1-.33288.37038Z"/><path class="cls-2" d="M4.51808,30.63517a12.90774,12.90774,0,0,1-1.51844-.12956v3.20325a.37136.37136,0,0,1-.3704.37042H.38891A.38769.38769,0,0,1,0,33.70886V20.729c0-.29637.074-.426.574-.537a17.39413,17.39413,0,0,1,3.94407-.48147,4.25826,4.25826,0,0,1,4.64755,4.74023V25.895a4.24061,4.24061,0,0,1-4.64755,4.74014Zm1.64781-6.18439c0-1.31463-.33318-2.25907-1.64781-2.25907a10.67518,10.67518,0,0,0-1.51844.09257v5.77717a13.958,13.958,0,0,0,1.51844.11107c1.31463,0,1.64781-.98145,1.64781-2.27755Z"/><path class="cls-2" d="M13.51684,30.46859H11.25791a.4039.4039,0,0,1-.38891-.38891V16.63686a.38769.38769,0,0,1,.38891-.37039h2.25884a.356.356,0,0,1,.35216.35975l-.00027.01064V30.07968A.37239.37239,0,0,1,13.51684,30.46859Z"/><path class="cls-2" d="M23.71936,30.46859H21.64562a.37136.37136,0,0,1-.3704-.3704v-.29612a4.08154,4.08154,0,0,1-2.57373.83316A2.8864,2.8864,0,0,1,15.535,27.45047v-.16665c0-2.1665,1.38887-3.12941,4.5551-3.12941h1v-.66658c0-1.05551-.5185-1.2776-1.38888-1.2776-1.185,0-2.49967.074-3.07368.12959h-.09257a.30186.30186,0,0,1-.33337-.33321V20.50668a.414.414,0,0,1,.35189-.40742,14.91581,14.91581,0,0,1,3.20327-.38871c2.6664,0,4.333,1.074,4.333,3.77717v6.61047A.37154.37154,0,0,1,23.71936,30.46859ZM21.14566,25.932H20.09015c-1.2961,0-1.62949.44445-1.62949,1.35185v.16659c0,.77765.38891.92564,1.16656.92564a3.42964,3.42964,0,0,0,1.51844-.40722Z"/><path class="cls-2" d="M34.848,30.46859H32.60746a.38769.38769,0,0,1-.37039-.38891v-6.1658c0-1.29612-.24064-1.72206-1.37014-1.72206a3.9724,3.9724,0,0,0-1.74056.59255v7.29531a.38771.38771,0,0,1-.37042.38891H26.51561a.4039.4039,0,0,1-.38891-.38891V20.22919a.37137.37137,0,0,1,.37026-.37043H28.5709a.37154.37154,0,0,1,.37042.37043v.44422a4.66687,4.66687,0,0,1,3.01815-.96272c2.68477,0,3.27733,1.87013,3.27733,4.20322v6.16577A.40387.40387,0,0,1,34.848,30.46859Z"/></g></g></svg>