<svg xmlns="http://www.w3.org/2000/svg" viewBox="0 0 41.69239 49.1157"><defs><style>.cls-1{fill:#ee702e;}</style></defs><title>Asset 8</title><g id="Layer_2" data-name="Layer 2"><g id="Layer_1-2" data-name="Layer 1"><path class="cls-1" d="M15.53764,4.316A4.271,4.271,0,0,1,19.465.08639V0h2.67589V.08639A4.35047,4.35047,0,0,1,25.85258,4.316a4.28338,4.28338,0,0,1-3.71166,4.22956v.12975H19.465V8.58874A4.31183,4.31183,0,0,1,15.53764,4.316Z"/><path class="cls-1" d="M39.96606,29.82323a10.0791,10.0791,0,0,1,1.46746,5.04987c0,7.898-9.36583,14.2426-20.88941,14.2426C9.96986,49.1157,1.33794,43.72076,0,36.77213c.43174-1.68329,2.11476-.21574,3.06445.73373a28.6099,28.6099,0,0,0,4.5317,3.10736,17.84892,17.84892,0,0,0,12.94769,1.2086,6.35248,6.35248,0,0,0,5.56769-6.94872s.12975-6.38781.04322-7.33732c-.08613-.90643-.30217-4.57491,2.84867-4.1434a14.65426,14.65426,0,0,1,10.18564,5.22248,2.48332,2.48332,0,0,0,.30213.34539A4.30135,4.30135,0,0,1,39.96606,29.82323Z"/><path class="cls-1" d="M41.69239,25.24828c-.43174,1.68329-2.115.216-3.06468-.73374a25.2879,25.2879,0,0,0-4.53151-3.10726,17.62606,17.62606,0,0,0-12.9477-1.20861,6.36312,6.36312,0,0,0-5.56791,6.90573s-.12934,6.43076-.043,7.38014c.08612.90643.3019,4.57491-2.84867,4.1434A14.50205,14.50205,0,0,1,2.50333,33.36246a1.161,1.161,0,0,1-.30213-.34521,8.58724,8.58724,0,0,1-.51791-.82A10.61859,10.61859,0,0,1,.259,27.14735c0-7.898,9.36556-14.24265,20.88937-14.24265C31.72253,12.9047,40.35444,18.29965,41.69239,25.24828Z"/></g></g></svg>