<svg xmlns="http://www.w3.org/2000/svg" viewBox="0 0 48.89769 20.1413"><defs><style>.cls-1{fill:#407f63;fill-rule:evenodd;}</style></defs><title>Asset 12</title><g id="Layer_2" data-name="Layer 2"><g id="Layer_1-2" data-name="Layer 1"><g id="Layer_1-2-2" data-name="Layer 1-2"><path class="cls-1" d="M48.89769,4.86924A4.8686,4.8686,0,0,0,44.0371.00093V0H26.32191V9.33124H44.0371V9.326a4.53375,4.53375,0,0,0,4.84923-4.1946Q48.8958,5.0005,48.89769,4.86924Z"/><path class="cls-1" d="M48.89769,15.20251A4.53148,4.53148,0,0,0,44.301,10.73716q-.13211.00191-.26393.01153v-.00062H26.32191V20.077H44.0371v-.00618A4.86822,4.86822,0,0,0,48.89769,15.20251Z"/><path class="cls-1" d="M12.97362,10.74807V9.32112H25.9809V8.92205A8.85667,8.85667,0,0,0,17.12469.06492H8.85775A8.85746,8.85746,0,0,0,0,8.92205v2.36213A8.85767,8.85767,0,0,0,8.85775,20.1413h8.26634a8.85681,8.85681,0,0,0,8.85681-8.85681v-.53642Z"/></g></g></g></svg>