<?xml version="1.0" standalone="no"?>
<!DOCTYPE svg PUBLIC "-//W3C//DTD SVG 20010904//EN"
 "http://www.w3.org/TR/2001/REC-SVG-20010904/DTD/svg10.dtd">
<svg version="1.0" xmlns="http://www.w3.org/2000/svg"
 width="512.000000pt" height="512.000000pt" viewBox="0 0 512.000000 512.000000"
 preserveAspectRatio="xMidYMid meet">

<g transform="translate(0.000000,512.000000) scale(0.100000,-0.100000)"
fill="#000000" stroke="none">
<path d="M1600 4200 c-269 -30 -515 -206 -704 -502 -20 -31 -36 -60 -36 -63 0
-3 298 -5 663 -5 386 0 691 -5 732 -10 243 -35 421 -139 518 -301 45 -77 93
-220 103 -309 3 -36 10 -71 14 -78 4 -9 87 114 230 342 l224 356 453 0 c249 0
453 3 453 7 0 12 -64 108 -127 189 -136 178 -312 301 -507 357 -69 20 -97 21
-1006 23 -514 1 -969 -2 -1010 -6z"/>
<path d="M4030 3103 c-150 -229 -273 -422 -274 -428 -1 -15 565 -1045 575
-1045 12 0 86 213 118 340 51 210 65 330 65 575 1 277 -27 478 -96 705 -28 91
-99 270 -108 270 -4 0 -130 -188 -280 -417z"/>
<path d="M1322 2728 c-24 -101 -58 -245 -76 -321 l-34 -138 363 3 363 3 44 30
c79 56 141 228 142 395 1 97 -27 154 -94 188 -43 21 -53 22 -355 22 l-310 0
-43 -182z"/>
<path d="M2860 2430 c-1 -44 -39 -208 -69 -300 -80 -236 -206 -402 -383 -503
-66 -38 -210 -84 -301 -96 -49 -7 -308 -11 -678 -11 l-600 0 27 -47 c89 -156
217 -308 335 -399 78 -60 189 -118 279 -146 l75 -23 1010 0 1010 0 75 23 c238
75 436 244 590 503 l50 84 -468 3 -467 3 -150 290 c-291 564 -334 645 -335
619z"/>
</g>
</svg>
