<svg xmlns="http://www.w3.org/2000/svg" viewBox="0 0 40.52754 29.07962"><defs><style>.cls-1{fill:#56bcdb;}.cls-2{fill:#18799f;}</style></defs><g id="Layer_2" data-name="Layer 2"><g id="Layer_1-2" data-name="Layer 1"><path class="cls-1" d="M.46377,10l1.5-9.9h3.1a2.851,2.851,0,0,1,2.4,1.2,3.76646,3.76646,0,0,1,.6,3l-.2,1.6a4.7937,4.7937,0,0,1-1.5,3,4.04913,4.04913,0,0,1-2.7,1.1Zm3.2-8.4-1,6.9h1.1a1.574,1.574,0,0,0,1.3-.7,4.74285,4.74285,0,0,0,.8-1.9l.3-1.7a2.888,2.888,0,0,0-.2-1.9,1.16709,1.16709,0,0,0-1.1-.7Z"/><path class="cls-1" d="M10.16377,10h-1.9l1.5-9.9h1.9Z"/><path class="cls-1" d="M14.06377,5.9l-.6,4.1h-1.9l1.5-9.9h3a3.113,3.113,0,0,1,2.2.8,2.226,2.226,0,0,1,.6,2,3.50614,3.50614,0,0,1-.6,1.4,2.73,2.73,0,0,1-1.2.9,1.78857,1.78857,0,0,1,1,.9,2.44979,2.44979,0,0,1,.1,1.5l-.1.7a2.71875,2.71875,0,0,0,0,.9,1.44531,1.44531,0,0,0,.2.7V10h-2a1.16548,1.16548,0,0,1-.2-.7,3.40193,3.40193,0,0,1,.1-1l.1-.7a2.251,2.251,0,0,0-.1-1.2.81156.81156,0,0,0-.8-.4l-1.3-.1Zm.2-1.5h1a1.28387,1.28387,0,0,0,1-.4,1.90532,1.90532,0,0,0,.5-1,1.45414,1.45414,0,0,0-.1-1,.97479.97479,0,0,0-.9-.4h-1Z"/><path class="cls-1" d="M24.56377,5.6h-3l-.4,2.9h3.6l-.2,1.5h-5.5l1.5-9.9h5.5l-.2,1.5h-3.6l-.4,2.5h3Z"/><path class="cls-1" d="M32.36377,6.8h0a3.65694,3.65694,0,0,1-1.1,2.5,3.9365,3.9365,0,0,1-2.5.8,3.24365,3.24365,0,0,1-2.4-.9,3.646,3.646,0,0,1-.6-2.7l.4-2.9a4.31862,4.31862,0,0,1,1.3-2.7,3.91648,3.91648,0,0,1,2.6-.9,3.199,3.199,0,0,1,2.3.8,2.59133,2.59133,0,0,1,.5,2.4h-1.9a1.98857,1.98857,0,0,0-.1-1.4,1.41756,1.41756,0,0,0-1.1-.4,1.43266,1.43266,0,0,0-1.1.5,3.35382,3.35382,0,0,0-.6,1.6l-.4,2.9a2.62205,2.62205,0,0,0,.1,1.6,1.29031,1.29031,0,0,0,1.1.5,1.36584,1.36584,0,0,0,1.1-.4,2.22579,2.22579,0,0,0,.5-1.3Z"/><path class="cls-1" d="M39.86377,1.6h-2.3l-1.3,8.4h-1.9l1.3-8.4h-2.3l.2-1.5h6.5Z"/><g id="Send_Money" data-name="Send Money"><path class="cls-1" d="M21.72617,29.07962H6.14935c-.2274,0-.3411-.2274-.3411-.4548l1.137-8.98225a.48909.48909,0,0,1,.4548-.4548H22.97686c.22739,0,.3411.2274.3411.4548l-1.137,8.98225A.48909.48909,0,0,1,21.72617,29.07962ZM6.71784,28.17H21.49877l1.02329-8.18636H7.74113Z"/><path class="cls-1" d="M19.45218,27.37413H8.76443c-.2274,0-.3411-.2274-.3411-.4548a.30148.30148,0,0,0-.34109-.34109c-.2274,0-.3411-.3411-.3411-.5685l.4548-3.97948a.48909.48909,0,0,1,.4548-.4548.48909.48909,0,0,0,.4548-.45479c0-.2274.2274-.3411.4548-.3411H20.24808a.30149.30149,0,0,1,.3411.3411c0,.22739.11369.45479.34109.45479a.30149.30149,0,0,1,.3411.3411l-.4548,4.20688a.48909.48909,0,0,1-.4548.4548c-.2274,0-.4548.1137-.4548.34109A.41648.41648,0,0,1,19.45218,27.37413Zm-10.23295-.7959H19.22478a1.37346,1.37346,0,0,1,.79589-.79589l.4548-3.411a1.20211,1.20211,0,0,1-.68219-.79589H9.78773a1.37342,1.37342,0,0,1-.7959.79589l-.45479,3.411A.83052.83052,0,0,1,9.21923,26.57823Z"/><path class="cls-1" d="M14.3357,25.55494c-.90959,0-1.36439-.5685-1.36439-1.47809a1.563,1.563,0,0,1,1.70549-1.4781,1.40565,1.40565,0,0,1,1.47809,1.5918A1.75261,1.75261,0,0,1,14.3357,25.55494Zm.3411-2.274a.87869.87869,0,0,0-.90959.7959c0,.45479.2274.79589.68219.79589a.8787.8787,0,0,0,.9096-.79589A.63974.63974,0,0,0,14.6768,23.281Z"/><path class="cls-1" d="M10.811,24.53164h-.7959c-.2274,0-.34109-.22739-.34109-.45479a.48908.48908,0,0,1,.45479-.4548h.7959c.2274,0,.3411.2274.3411.4548A.48908.48908,0,0,1,10.811,24.53164Z"/><path class="cls-1" d="M18.99738,24.53164h-.7959c-.2274,0-.3411-.22739-.3411-.45479a.48909.48909,0,0,1,.4548-.4548h.7959c.2274,0,.3411.2274.3411.4548A.48908.48908,0,0,1,18.99738,24.53164Z"/><path class="cls-1" d="M4.67125,28.17H3.07946c-.2274,0-.3411-.2274-.3411-.4548a.48909.48909,0,0,1,.4548-.4548H4.67125c.2274,0,.3411.2274.3411.4548C5.01235,28.05633,4.89865,28.17,4.67125,28.17Z"/><path class="cls-1" d="M4.89865,25.78234H1.60136c-.22739,0-.34109-.2274-.34109-.4548a.48909.48909,0,0,1,.4548-.4548H5.01235c.2274,0,.3411.2274.3411.4548A.48909.48909,0,0,1,4.89865,25.78234Z"/><path class="cls-1" d="M5.58085,20.77956H3.07946c-.2274,0-.3411-.22739-.3411-.45479a.48909.48909,0,0,1,.4548-.4548H5.69455c.2274,0,.3411.2274.3411.4548A.48908.48908,0,0,1,5.58085,20.77956Z"/><path class="cls-1" d="M5.23975,23.281H.35068c-.2274,0-.3411-.2274-.3411-.4548a.48909.48909,0,0,1,.4548-.45479H5.35345c.2274,0,.3411.2274.3411.45479A.41648.41648,0,0,1,5.23975,23.281Z"/></g><path class="cls-2" d="M3.105,12.05192a1.52763,1.52763,0,0,1,1.08254.32025,1.18341,1.18341,0,0,1,.33471.89752,1.32236,1.32236,0,0,1-.26.7865,1.19955,1.19955,0,0,1-.30276.28527,1.01169,1.01169,0,0,1-.4057.15273v.01413a1.02849,1.02849,0,0,1,.55539.37408,1.09972,1.09972,0,0,1,.20655.6802,1.50931,1.50931,0,0,1-.13893.65531,1.42917,1.42917,0,0,1-.3845.4945,1.783,1.783,0,0,1-.57323.31353,2.20261,2.20261,0,0,1-.7051.11034H0l1.061-5.08436Zm-.698,4.5145a2.87123,2.87123,0,0,0,.33472-.0249,1.18023,1.18023,0,0,0,.406-.12783,1.00555,1.00555,0,0,0,.34548-.30276.91248.91248,0,0,0,.146-.54833.78561.78561,0,0,0-.08544-.39157.57814.57814,0,0,0-.23145-.22808,1.02154,1.02154,0,0,0-.33472-.107,2.669,2.669,0,0,0-.39527-.02826H1.13939L.769,16.56642Zm.35625-2.32857q1.08236,0,1.08253-.96816a.53753.53753,0,0,0-.34212-.54833,1.07611,1.07611,0,0,0-.32395-.08208,3.20237,3.20237,0,0,0-.331-.01817H1.59521l-.34178,1.61674Z"/><path class="cls-2" d="M5.10959,14.03467a1.34956,1.34956,0,0,1,.35961-.37341,1.48131,1.48131,0,0,1,.48442-.22068,2.18637,2.18637,0,0,1,.56246-.07132,2.97244,2.97244,0,0,1,.51268.04239A1.32313,1.32313,0,0,1,7.456,13.561a.82169.82169,0,0,1,.29569.28863.87524.87524,0,0,1,.11034.45953,1.60567,1.60567,0,0,1-.03936.33842q-.03885.18165-.07468.331l-.23481,1.00382q-.02169.114-.06055.25633a1.02377,1.02377,0,0,0-.03936.27114.24907.24907,0,0,0,.04979.17762.1721.1721,0,0,0,.12817.04979.31971.31971,0,0,0,.09621-.01749l.09621-.0323-.09251.44876a1.19081,1.19081,0,0,1-.18166.05315.86657.86657,0,0,1-.18872.02489.4958.4958,0,0,1-.37744-.13523.44539.44539,0,0,1-.09957-.37744l-.01447-.01413a1.27025,1.27025,0,0,1-.477.39157,1.77607,1.77607,0,0,1-.75488.13523,1.71351,1.71351,0,0,1-.438-.05315.8989.8989,0,0,1-.35255-.17829.8835.8835,0,0,1-.23851-.32025,1.16,1.16,0,0,1-.08914-.48038,1.01971,1.01971,0,0,1,.17459-.63378,1.10835,1.10835,0,0,1,.44506-.34582,2.21514,2.21514,0,0,1,.59812-.16013q.32748-.04239.63411-.07132.24171-.02118.41647-.04642a.94356.94356,0,0,0,.28829-.08141.3636.3636,0,0,0,.16753-.16416.6596.6596,0,0,0,.05349-.292.38743.38743,0,0,0-.07132-.24221.51548.51548,0,0,0-.178-.146.84431.84431,0,0,0-.23884-.07468,1.58819,1.58819,0,0,0-.25264-.02086,1.63542,1.63542,0,0,0-.33842.035.98452.98452,0,0,0-.30242.11774.78955.78955,0,0,0-.22808.20655.686.686,0,0,0-.12111.30277H4.92087A1.2932,1.2932,0,0,1,5.10959,14.03467Zm.17089,2.525a.84128.84128,0,0,0,.45919.12783,1.13645,1.13645,0,0,0,1.03275-.48442,1.195,1.195,0,0,0,.20285-.44808q.05349-.24221.11774-.49855H7.07854a.82121.82121,0,0,1-.32395.1312,4.1124,4.1124,0,0,1-.41646.06055c-.14735.0148-.2957.0323-.44506.05383a1.7704,1.7704,0,0,0-.40234.10293.741.741,0,0,0-.292.20319.57008.57008,0,0,0-.12111.36668A.42533.42533,0,0,0,5.28048,16.55969Z"/><path class="cls-2" d="M9.27894,13.45471l-.1137.55506h.01413a1.43375,1.43375,0,0,1,.57692-.48038,1.7342,1.7342,0,0,1,.73336-.16013,1.12839,1.12839,0,0,1,.77271.22741.92408.92408,0,0,1,.253.71923,2.24432,2.24432,0,0,1-.02859.31352q-.02877.19277-.07838.40637l-.44876,2.10049h-.60519l.47-2.15095c.00471-.03767.01177-.08141.02153-.13119.00941-.04979.01883-.10227.02825-.15677.00976-.05449.01783-.107.02523-.15676a.913.913,0,0,0,.01043-.12447.43454.43454,0,0,0-.185-.3882.79549.79549,0,0,0-.45582-.12447,1.10961,1.10961,0,0,0-.49485.1211,1.40057,1.40057,0,0,0-.4168.30613,1.00723,1.00723,0,0,0-.25634.34515,2.54081,2.54081,0,0,0-.14936.42386l-.42723,2.03657H7.92594l.76935-3.68157Z"/><path class="cls-2" d="M13.12467,12.05192l-.63378,2.9906.01413.01413,1.85155-1.60194h.79054l-1.60227,1.35973.91164,2.32184H13.78l-.71956-1.95853-.72629.64791-.27753,1.31062h-.59846l1.06841-5.08436Z"/><path class="cls-2" d="M14.90491,12.05192h4.18751l-.16383.769h-1.6164l-.89752,4.31535h-.89011l.89718-4.31535H14.74848Z"/><path class="cls-2" d="M18.45124,13.45471h.769l-.14936.71923.01413.01412a2.14554,2.14554,0,0,1,.21025-.29939,1.81942,1.81942,0,0,1,.27417-.2671,1.44216,1.44216,0,0,1,.32395-.19175.92236.92236,0,0,1,.36668-.07468c.06661,0,.13187.00067.19578.00336a1.80715,1.80715,0,0,1,.19579.01749l-.17089.77642c-.04743-.00942-.09487-.01682-.1423-.02153s-.0952-.00673-.1423-.00673a1.2477,1.2477,0,0,0-.545.11034,1.13434,1.13434,0,0,0-.39157.30276,1.62189,1.62189,0,0,0-.26.44136,3.0779,3.0779,0,0,0-.15677.5268L18.501,17.13628h-.81174Z"/><path class="cls-2" d="M23.45722,16.06787c-.01346.06661-.0296.13052-.04575.19242a.63089.63089,0,0,0-.02557.17089.18078.18078,0,0,0,.03634.12111.16919.16919,0,0,0,.13456.04306.568.568,0,0,0,.14263-.01817,1.05545,1.05545,0,0,1,.14263-.02489l-.12783.584c-.105.02355-.20991.04642-.31352.06795a1.63572,1.63572,0,0,1-.32026.03162.47532.47532,0,0,1-.34178-.12783.49741.49741,0,0,1-.14936-.34178,1.49114,1.49114,0,0,1-.57054.35591,2.01858,2.01858,0,0,1-.66876.1137,1.46722,1.46722,0,0,1-.43463-.06391,1.2016,1.2016,0,0,1-.36735-.185.86464.86464,0,0,1-.2523-.30613.94362.94362,0,0,1-.09285-.42723,1.16955,1.16955,0,0,1,.12851-.5739,1.11992,1.11992,0,0,1,.34178-.3808,1.50014,1.50014,0,0,1,.49114-.22068,3.35037,3.35037,0,0,1,.584-.09285q.41376-.02825.81139-.06391a.42087.42087,0,0,0,.32429-.146.5327.5327,0,0,0,.10362-.33842.35253.35253,0,0,0-.1857-.35255.99044.99044,0,0,0-.43463-.08881,1.34422,1.34422,0,0,0-.58668.11774.64032.64032,0,0,0-.331.45953H20.6799a1.52062,1.52062,0,0,1,.22068-.5739,1.33431,1.33431,0,0,1,.38484-.37744,1.54085,1.54085,0,0,1,.51671-.20588,2.99174,2.99174,0,0,1,.61629-.06055,2.51025,2.51025,0,0,1,.7791.09553,1.052,1.052,0,0,1,.4131.23145.56579.56579,0,0,1,.16013.2819,1.32606,1.32606,0,0,1,.02825.24557,2.47831,2.47831,0,0,1-.07131.55506Zm-2.44227.05719a.38908.38908,0,0,0,.06055.224.45761.45761,0,0,0,.1534.14264.72714.72714,0,0,0,.20588.07871,1.10224,1.10224,0,0,0,.22875.0249,1.13263,1.13263,0,0,0,.50191-.10025.92647.92647,0,0,0,.33371-.27047,1.28515,1.28515,0,0,0,.20722-.40233,3.31458,3.31458,0,0,0,.11707-.49518L22.81,15.313a.47924.47924,0,0,1-.22876.1211,1.91052,1.91052,0,0,1-.27719.04979q-.17157.01514-.39561.02893a1.80025,1.80025,0,0,0-.41983.07468.89271.89271,0,0,0-.33505.185A.44848.44848,0,0,0,21.015,16.12506Z"/><path class="cls-2" d="M24.90374,13.45471h.76162l-.11371.5342.01413.01413a1.54557,1.54557,0,0,1,1.26756-.6479,1.10512,1.10512,0,0,1,.81543.26306.97147.97147,0,0,1,.25971.7125c0,.06661-.002.142-.00673.2274a1.42073,1.42073,0,0,1-.02893.22808l-.49115,2.3501H26.5696l.47029-2.272c.01413-.06123.02691-.12043.039-.17762a.79107.79107,0,0,0,.01817-.16416q0-.04239-.004-.1312a.39164.39164,0,0,0-.05315-.17829.4119.4119,0,0,0-.16753-.1534.72333.72333,0,0,0-.33842-.06392.877.877,0,0,0-.43059.10361,1.4745,1.4745,0,0,0-.33842.2523,1.31849,1.31849,0,0,0-.24557.35255,1.93427,1.93427,0,0,0-.15273.438l-.4131,1.99418h-.81207Z"/><path class="cls-2" d="M30.69253,14.52985a.45966.45966,0,0,0-.20992-.4057.98112.98112,0,0,0-.53084-.12851,1.22289,1.22289,0,0,0-.23144.02153.60475.60475,0,0,0-.19915.07468.40778.40778,0,0,0-.14263.14264.42814.42814,0,0,0-.05316.224.2515.2515,0,0,0,.09622.20655.91953.91953,0,0,0,.2523.13927q.15642.06056.34918.1137c.12851.03566.25634.07738.38484.12447.109.04306.216.09016.32026.14264a1.0928,1.0928,0,0,1,.27383.19242.88123.88123,0,0,1,.189.27046.91256.91256,0,0,1,.07132.37744,1.016,1.016,0,0,1-.14263.54834,1.22259,1.22259,0,0,1-.37.37744,1.60118,1.60118,0,0,1-.52344.21731,2.661,2.661,0,0,1-.59476.06728,2.802,2.802,0,0,1-.59812-.06055,1.31279,1.31279,0,0,1-.48442-.20655,1.01415,1.01415,0,0,1-.32765-.39157,1.46969,1.46969,0,0,1-.12783-.623h.769a.50876.50876,0,0,0,.22068.49518,1.1046,1.1046,0,0,0,.59072.146,1.49848,1.49848,0,0,0,.26373-.0249.94093.94093,0,0,0,.24894-.08208.51829.51829,0,0,0,.18906-.16012.43346.43346,0,0,0,.07468-.26038.30221.30221,0,0,0-.10294-.23481.93853.93853,0,0,0-.26374-.16012,3.03843,3.03843,0,0,0-.36331-.12447c-.13523-.03835-.2671-.08074-.39494-.12851a2.07589,2.07589,0,0,1-.31016-.13523,1.16445,1.16445,0,0,1-.2597-.18906.79483.79483,0,0,1-.17829-.2597.90428.90428,0,0,1-.06392-.35591.9561.9561,0,0,1,.13187-.51267,1.07642,1.07642,0,0,1,.34515-.34919,1.57319,1.57319,0,0,1,.48442-.19915,2.38247,2.38247,0,0,1,.55573-.06391,2.82594,2.82594,0,0,1,.56246.05315,1.22592,1.22592,0,0,1,.45885.18838.92689.92689,0,0,1,.3068.36331,1.24706,1.24706,0,0,1,.10294.56987Z"/><path class="cls-2" d="M32.37319,14.05956h-.60485l.1211-.60485h.60485q.06459-.32093.13523-.57726a1.36558,1.36558,0,0,1,.20655-.44136.874.874,0,0,1,.36332-.2846,1.5077,1.5077,0,0,1,.59812-.09957,2.60643,2.60643,0,0,1,.31352.01749c.09958.01211.19713.02288.292.0323l-.13524.61965a1.3755,1.3755,0,0,0-.31352-.02893.69961.69961,0,0,0-.31689.05718.4136.4136,0,0,0-.17089.16013.78082.78082,0,0,0-.08881.24221c-.01951.09217-.04306.19309-.07132.30276h.71182l-.1211.60485h-.71182l-.64118,3.07672h-.8114Z"/><path class="cls-2" d="M37.14469,15.99655a1.61871,1.61871,0,0,1-.64858.94394,2.02361,2.02361,0,0,1-1.12492.29536,1.83381,1.83381,0,0,1-.64455-.11034,1.42865,1.42865,0,0,1-.50931-.32025,1.49909,1.49909,0,0,1-.33438-.506,1.75924,1.75924,0,0,1-.1211-.6728,2.6182,2.6182,0,0,1,.13523-.83292A2.29806,2.29806,0,0,1,34.292,14.067a1.97473,1.97473,0,0,1,.64118-.516,1.88165,1.88165,0,0,1,.87263-.19578,1.68819,1.68819,0,0,1,.79727.16349,1.31543,1.31543,0,0,1,.477.4131,1.47283,1.47283,0,0,1,.23145.54833,2.87375,2.87375,0,0,1,.06055.56986,2.02914,2.02914,0,0,1-.01413.24894c-.00942.076-.01884.14465-.02826.20655H34.58805c-.00471.02422-.00875.04508-.01077.06392a.41591.41591,0,0,0-.004.05718v.11371a.91549.91549,0,0,0,.20318.61965.84733.84733,0,0,0,.6728.23548,1.02855,1.02855,0,0,0,.56314-.15.75552.75552,0,0,0,.32025-.44876ZM36.5533,14.9712a.31952.31952,0,0,0,.0074-.06055V14.7438a.73837.73837,0,0,0-.20655-.53824.76337.76337,0,0,0-.56986-.20992.97384.97384,0,0,0-.72663.27451,1.5946,1.5946,0,0,0-.39157.70105Z"/><path class="cls-2" d="M38.32748,13.45471h.769l-.15.71923.01481.01412a2.0596,2.0596,0,0,1,.20991-.29939,1.83328,1.83328,0,0,1,.27383-.2671,1.45962,1.45962,0,0,1,.32429-.19175.92356.92356,0,0,1,.36668-.07468c.06661,0,.13187.00067.19578.00336a1.80715,1.80715,0,0,1,.19579.01749l-.17089.77642c-.0471-.00942-.09487-.01682-.14264-.02153-.04709-.00471-.09486-.00673-.142-.00673a1.24666,1.24666,0,0,0-.545.11034,1.14061,1.14061,0,0,0-.39157.30276,1.60445,1.60445,0,0,0-.2597.44136,3.04684,3.04684,0,0,0-.15676.5268l-.34178,1.63087h-.81208Z"/></g></g></svg>