<svg xmlns="http://www.w3.org/2000/svg" viewBox="0 0 48.46403 48.4641"><defs><style>.cls-1{fill:none;}.cls-2{fill:#a01813;}</style></defs><title>Asset 11</title><g id="Layer_2" data-name="Layer 2"><g id="Layer_1-2" data-name="Layer 1"><path class="cls-1" d="M29.16967,13.80284a.90271.90271,0,0,0-.66163-.30337H19.91031a.90455.90455,0,0,0-.66229.30337,1.22835,1.22835,0,0,0-.32763.84682v7.27981H29.49833V14.64966A1.22772,1.22772,0,0,0,29.16967,13.80284Z"/><path class="cls-1" d="M29.16967,13.80284a.90271.90271,0,0,0-.66163-.30337H19.91031a.90455.90455,0,0,0-.66229.30337,1.22835,1.22835,0,0,0-.32763.84682v7.27981H29.49833V14.64966A1.22772,1.22772,0,0,0,29.16967,13.80284Z"/><path class="cls-1" d="M28.508,13.49947H19.91031a.90455.90455,0,0,0-.66229.30337,1.22835,1.22835,0,0,0-.32763.84682v7.27981H29.49833V14.64966a1.22772,1.22772,0,0,0-.32866-.84682A.90271.90271,0,0,0,28.508,13.49947Z"/><path class="cls-1" d="M28.508,13.49947H19.91031a.90455.90455,0,0,0-.66229.30337,1.22835,1.22835,0,0,0-.32763.84682v7.27981H29.49833V14.64966a1.22772,1.22772,0,0,0-.32866-.84682A.90271.90271,0,0,0,28.508,13.49947Z"/><path class="cls-1" d="M33.24958,22.18V14.64966A4.83412,4.83412,0,0,0,28.508,9.74822H19.91031a4.83466,4.83466,0,0,0-4.7419,4.90144v7.54817a3.368,3.368,0,0,0-2.04657,3.08889V35.35826a3.36653,3.36653,0,0,0,3.35733,3.35733H31.9845a3.36648,3.36648,0,0,0,3.35732-3.35733V25.28672A3.36716,3.36716,0,0,0,33.24958,22.18Zm-3.75125-.25053H18.92039V14.64966a1.22835,1.22835,0,0,1,.32763-.84682.90455.90455,0,0,1,.66229-.30337H28.508a.90271.90271,0,0,1,.66163.30337,1.22772,1.22772,0,0,1,.32866.84682Z"/><path class="cls-1" d="M33.24958,22.18V14.64966A4.83412,4.83412,0,0,0,28.508,9.74822H19.91031a4.83466,4.83466,0,0,0-4.7419,4.90144v7.54817a3.368,3.368,0,0,0-2.04657,3.08889V35.35826a3.36653,3.36653,0,0,0,3.35733,3.35733H31.9845a3.36648,3.36648,0,0,0,3.35732-3.35733V25.28672A3.36716,3.36716,0,0,0,33.24958,22.18Zm-3.75125-.25053H18.92039V14.64966a1.22835,1.22835,0,0,1,.32763-.84682.90455.90455,0,0,1,.66229-.30337H28.508a.90271.90271,0,0,1,.66163.30337,1.22772,1.22772,0,0,1,.32866.84682Z"/><path class="cls-1" d="M33.04794,22.31952V14.78918A4.83389,4.83389,0,0,0,28.3064,9.88773H19.70867a4.83437,4.83437,0,0,0-4.74183,4.90145V22.337a3.368,3.368,0,0,0-2.04656,3.089V35.49741a3.36641,3.36641,0,0,0,3.35725,3.35733H31.78286a3.36642,3.36642,0,0,0,3.35732-3.35733V25.426A3.36666,3.36666,0,0,0,33.04794,22.31952Zm-3.54961-.39005H18.92039V14.64966a1.22835,1.22835,0,0,1,.32763-.84682.90455.90455,0,0,1,.66229-.30337H28.508a.90271.90271,0,0,1,.66163.30337,1.22772,1.22772,0,0,1,.32866.84682Z"/><path class="cls-2" d="M28.508,13.49947H19.91031a.90455.90455,0,0,0-.66229.30337,1.22835,1.22835,0,0,0-.32763.84682v7.27981H29.49833V14.64966a1.22772,1.22772,0,0,0-.32866-.84682A.90271.90271,0,0,0,28.508,13.49947Z"/><path class="cls-2" d="M24.23183,0A24.23205,24.23205,0,1,0,48.464,24.2319,24.23453,24.23453,0,0,0,24.23183,0ZM35.14018,35.49741a3.36642,3.36642,0,0,1-3.35732,3.35733H16.27753a3.36641,3.36641,0,0,1-3.35725-3.35733V25.426a3.368,3.368,0,0,1,2.04656-3.089V14.78918a4.83437,4.83437,0,0,1,4.74183-4.90145H28.3064a4.83389,4.83389,0,0,1,4.74154,4.90145v7.53034A3.36666,3.36666,0,0,1,35.14018,25.426Z"/></g></g></svg>