<svg xmlns="http://www.w3.org/2000/svg" viewBox="0 0 31.56801 48.67868"><defs><style>.cls-1{fill:#c7076f;}</style></defs><title>Asset 10</title><g id="Layer_2" data-name="Layer 2"><g id="Layer_1-2" data-name="Layer 1"><path id="path40" class="cls-1" d="M15.80964,44.89046A12.06526,12.06526,0,0,1,4.20373,35.66793a17.53221,17.53221,0,0,1-.36886-2.86449A18.82514,18.82514,0,0,1,4.184,29.92123,11.974,11.974,0,0,1,27.77985,32.775v2.89768H10.27411a6.00812,6.00812,0,0,0,5.53553,3.15681H31.54642l.02159-17.087a4.64523,4.64523,0,0,0-4.63166-4.6318H4.632A4.59176,4.59176,0,0,0,.00012,21.662L0,21.67927V43.9837a4.7,4.7,0,0,0,4.632,4.69492H26.9364a4.613,4.613,0,0,0,4.5617-3.78816Z"/><path id="path44" class="cls-1" d="M15.78414,26.49972a6.43347,6.43347,0,0,0-5.52832,3.36439h11.0569a6.43343,6.43343,0,0,0-5.52858-3.36439"/><path id="path48" class="cls-1" d="M25.88582,9.85744A9.983,9.983,0,0,0,15.78114.00077,9.98951,9.98951,0,0,0,5.68279,9.58834a.63273.63273,0,0,0-.00051.06747v2.96206a.70047.70047,0,0,0,.65171.70459h3.71766a.72651.72651,0,0,0,.68165-.70459V9.85744a5.05237,5.05237,0,0,1,10.10177,0v2.76043a.70563.70563,0,0,0,.65776.70459h3.71766a.721.721,0,0,0,.67544-.70459Z"/></g></g></svg>