<svg xmlns="http://www.w3.org/2000/svg" viewBox="0 0 48.69371 16.47668"><defs><style>.cls-1{fill:#ec681e;}</style></defs><title>Asset 4</title><g id="Layer_2" data-name="Layer 2"><g id="Layer_1-2" data-name="Layer 1"><g id="Layer_1-2-2" data-name="Layer 1-2"><path class="cls-1" d="M39.89905,16.47664c-.3757-.03612-.75149-.07141-1.12709-.10856a9.982,9.982,0,0,1-2.09733-.43083,8.34172,8.34172,0,0,1-2.33517-1.1892,9.17827,9.17827,0,0,1-1.51331-1.3695,6.82479,6.82479,0,0,1-1.64161-3.314,8.37441,8.37441,0,0,1-.085-2.2987,8.3863,8.3863,0,0,1,.68853-2.65238,8.11523,8.11523,0,0,1,1.84135-2.61483A8.70552,8.70552,0,0,1,36.09172.85288,9.576,9.576,0,0,1,38.431.15114a11.35523,11.35523,0,0,1,1.44924-.1433,10.0694,10.0694,0,0,1,2.15531.17138,10.91982,10.91982,0,0,1,2.41993.7187,2.20132,2.20132,0,0,0,.44407.13548.38332.38332,0,0,0,.46034-.20513A1.48329,1.48329,0,0,0,45.53515.293c.01239-.07319.02335-.14661.035-.21993a.0768.0768,0,0,1,.08053-.07288l.0008,0q.23286-.0009.46571.0011a.07746.07746,0,0,1,.07867.07591c.00528.03329.0088.067.01149.10056.04637.57851.09124,1.15711.139,1.73554.04664.565.09672,1.12964.14421,1.69447q.06711.797.13212,1.59416a.7818.7818,0,0,1,.0049.101.05391.05391,0,0,1-.04812.05613c-.16182.003-.32372.0031-.48557.00231a.07931.07931,0,0,1-.0746-.05838c-.016-.04438-.02773-.09032-.04325-.13494-.07326-.21027-.1402-.42306-.22211-.62993a4.54871,4.54871,0,0,0-1.63466-2.04235,6.65464,6.65464,0,0,0-3.251-1.24977A5.25638,5.25638,0,0,0,36.7691,2.50488a5.32891,5.32891,0,0,0-1.29779,1.6918,7.68753,7.68753,0,0,0-.6823,2.15249A10.91919,10.91919,0,0,0,34.65928,8.952a8.008,8.008,0,0,0,.66751,2.77959,5.93466,5.93466,0,0,0,2.21968,2.593,5.51326,5.51326,0,0,0,1.97568.80032,5.39308,5.39308,0,0,0,2.31008-.021,4.87194,4.87194,0,0,0,.91143-.32942,9.06575,9.06575,0,0,0,.96856-.54753.20465.20465,0,0,0,.10717-.19724c-.00416-.57376-.00207-1.14756-.0021-1.72134q0-.95182-.00032-1.90362a6.0379,6.0379,0,0,0-.03105-.7077,2.20972,2.20972,0,0,0-.07566-.37667.91984.91984,0,0,0-.60683-.63018,2.30727,2.30727,0,0,0-.55271-.1186c-.21481-.021-.43061-.03211-.646-.04688-.04711-.00324-.09452-.0022-.14157-.006a.07311.07311,0,0,1-.07654-.06951l0-.00658c-.00119-.15524-.00238-.31047-.00014-.46571.00085-.05971.02482-.07853.09121-.08169.04716-.00225.09448-.001.14174-.001q3.26046,0,6.52092.00016c.27764,0,.25213-.02551.25279.24644.00021.08775.00156.17554-.00049.26326-.00232.09873-.0147.11283-.12044.11665-.22271.008-.44493.01953-.66632.04658a2.154,2.154,0,0,0-.41358.09464.81081.81081,0,0,0-.51535.481,1.901,1.901,0,0,0-.12106.48972,6.27731,6.27731,0,0,0-.04478.80826q-.00162,2.03526-.00238,4.07051c-.0004.26749.039.217-.20833.35369q-.74477.41172-1.52481.75076a9.62245,9.62245,0,0,1-2.804.749c-.24152.02628-.484.04324-.72581.06746-.05086.00509-.11023-.00882-.14782.04426Z"/><path class="cls-1" d="M0,15.42352c.00828.01068.01837.03161.02455.03053A3.68321,3.68321,0,0,1,.529,15.437a3.81382,3.81382,0,0,0,.72233-.08865,1.95389,1.95389,0,0,0,.36379-.12284,1.1051,1.1051,0,0,0,.578-.59546,2.11068,2.11068,0,0,0,.14839-.60744,6.3274,6.3274,0,0,0,.03463-.66707Q2.376,8.2117,2.37582,3.06786a4.8335,4.8335,0,0,0-.07115-.90713,1.87607,1.87607,0,0,0-.15328-.48088,1.13718,1.13718,0,0,0-.58783-.55975A1.9372,1.9372,0,0,0,.89648.96747C.69446.95616.49172.95761.28929.95372.23532.95269.18115.95518.12735.95165A.08518.08518,0,0,1,.03614.873L.036.8635Q.031.63083.035.398A.08434.08434,0,0,1,.11354.30826l.01053,0c.047-.00359.09446-.002.14168-.002Q4.03249.30613,7.79923.30635c.24582,0,.23027-.02348.23.22744C8.02913.64853,8.02956.7633,8.02709.878a.07019.07019,0,0,1-.06576.07433L7.95.95212c-.081.0011-.16192.00057-.243.00162a4.49413,4.49413,0,0,0-.7666.04947,1.76268,1.76268,0,0,0-.47816.159,1.111,1.111,0,0,0-.49994.513,1.95388,1.95388,0,0,0-.16726.53908,3.41,3.41,0,0,0-.05121.56385c-.001.15524-.00478.31048-.00478.46571q-.00043,4.95147.00038,9.90292c0,.23619.004.47259.01458.7085a2.40633,2.40633,0,0,0,.11921.655,1.16217,1.16217,0,0,0,.73512.75514,3.11671,3.11671,0,0,0,.93312.16612c.13477.00716.26987.00707.40481.013.06361.00281.0812.0215.08195.08886.00183.15524.00073.31047.00007.46571a.06689.06689,0,0,1-.074.0749c-.054.00045-.108.00109-.162.00109q-3.7566.00007-7.51323-.0001c-.093,0-.186-.00222-.279-.00341Z"/><path class="cls-1" d="M26.05514,10.71019a2.81689,2.81689,0,0,0-.06853-.46285,4.56341,4.56341,0,0,1-.06063-.68443q.00411-3.09866.00318-6.1973a7.49174,7.49174,0,0,0-.04575-.95009,2.79827,2.79827,0,0,0-.11105-.51337,1.24982,1.24982,0,0,0-.87679-.85141A3.05483,3.05483,0,0,0,24.037.92633c-.18824-.00185-.17912-.006-.17809-.17767.0007-.12151.00024-.243.00119-.36452A.07165.07165,0,0,1,23.92448.3059l.00926-.0003c.0471-.00289.09446-.00215.14171-.00216q2.562-.00013,5.12393,0c.04051,0,.08107-.0009.12148.00119.06707.00345.09075.02178.0916.08088.00225.15524.00119.31047.00066.46578A.06717.06717,0,0,1,29.33605.924a4.05882,4.05882,0,0,0-.58532.0405,2.48466,2.48466,0,0,0-.5303.12641,1.29176,1.29176,0,0,0-.7982.78115,2.84055,2.84055,0,0,0-.15813.709A10.12383,10.12383,0,0,0,27.222,3.71366q.00158,6.06568.00346,12.13136c0,.06733-.00132.13478-.00549.202a.05443.05443,0,0,1-.05229.05177,1.18668,1.18668,0,0,1-.12117.00457c-.15524-.00154-.31073-.01026-.46565-.00426a.29907.29907,0,0,1-.24617-.10959c-.38006-.40242-.76424-.80089-1.14667-1.20114q-1.25892-1.31784-2.51747-2.636-2.92409-3.06007-5.84859-6.11961-1.09145-1.14187-2.18361-2.283a.49245.49245,0,0,0-.14927-.13374c-.04071.02447-.01828.05839-.01378.08622.02374.14652.04966.29268.075.43892a3.52069,3.52069,0,0,1,.05154.60435q-.001,3.686-.00084,7.372c0,.19574-.00674.39147-.00828.58722a9.75134,9.75134,0,0,0,.065,1.37425,2.91406,2.91406,0,0,0,.11881.53229,1.07266,1.07266,0,0,0,.84567.757,3.35383,3.35383,0,0,0,.724.07276c.09449-.00038.189,0,.28349.0021a.06905.06905,0,0,1,.07383.0769c.00028.162.00043.324-.00069.486a.07.07,0,0,1-.06353.07594l-.01154.00007c-.04719.00184-.09446.00239-.14168.00239q-2.67333.00014-5.34665.00012c-.24862,0-.22788.01109-.22778-.23233,0-.108-.00119-.21607.00119-.324.0014-.06216.02226-.0825.08749-.085.14837-.00562.29693-.00634.44528-.01258a3.29247,3.29247,0,0,0,.56167-.07187,1.088,1.088,0,0,0,.83493-.71844,3.16807,3.16807,0,0,0,.16726-.72777,10.29569,10.29569,0,0,0,.08-1.31293q-.00155-4.50619-.00552-9.0124c-.00009-.14177.00129-.28353.00108-.42529a3.2994,3.2994,0,0,0-.124-.93978,1.612,1.612,0,0,0-1.12972-1.14261,2.89029,2.89029,0,0,0-.777-.12348c-.054-.00163-.10811-.00132-.1619-.00532C10.83094.946,10.8046.92241,10.80358.864q-.00387-.2227-.00091-.44549c.00085-.06473.023-.08681.08282-.09075.04707-.00307.09444-.00185.14168-.00185q2.45057-.00011,4.90115,0a.14228.14228,0,0,0,.02023-.00012.31973.31973,0,0,1,.30031.12208c.3668.39628.74226.78454,1.11465,1.17565l4.58023,4.81036,3.95137,4.151C25.93941,10.6314,25.97257,10.696,26.05514,10.71019Z"/></g></g></g></svg>