<?xml version="1.0" encoding="utf-8"?>
<!-- Generator: Adobe Illustrator 24.1.0, SVG Export Plug-In . SVG Version: 6.00 Build 0)  -->
<svg version="1.1" id="Layer_1" xmlns="http://www.w3.org/2000/svg" xmlns:xlink="http://www.w3.org/1999/xlink" x="0px" y="0px"
	 viewBox="0 0 60 46.66792" style="enable-background:new 0 0 60 46.66792;" xml:space="preserve">
<style type="text/css">
	.st0{fill:#7673C0;}
	.st1{fill:#EB001B;}
	.st2{fill:#00A1DF;}
</style>
<path d="M18.15316,46.41043v-3.09023c0.07001-1.00736-0.68985-1.88073-1.69721-1.95076
	c-0.07796-0.00542-0.15617-0.00583-0.23418-0.00124c-0.69333-0.04546-1.35644,0.29005-1.73052,0.87557
	c-0.34106-0.56805-0.96555-0.90402-1.62752-0.87557c-0.57637-0.02914-1.12506,0.24914-1.4421,0.73136v-0.60774h-1.07127v4.91861
	h1.08158v-2.72456c-0.08929-0.628,0.34741-1.2095,0.97541-1.29879c0.07609-0.01081,0.15306-0.01397,0.22978-0.00941
	c0.71076,0,1.07127,0.46353,1.07127,1.29789v2.73485h1.08158v-2.72456c-0.08324-0.63457,0.36369-1.21647,0.99826-1.29971
	c0.06858-0.00901,0.13783-0.01184,0.20692-0.00849c0.73136,0,1.08158,0.46353,1.08158,1.29789v2.73485L18.15316,46.41043z
	 M24.17911,43.95371v-2.45673h-1.08158v0.59745c-0.36853-0.47557-0.94391-0.74408-1.54511-0.72105
	c-1.42223,0-2.57519,1.15296-2.57519,2.57519c0,1.42223,1.15296,2.57519,2.57519,2.57519
	c0.6012,0.02303,1.17658-0.24548,1.54511-0.72105v0.59745h1.07127L24.17911,43.95371z M20.19786,43.95371
	c0.04836-0.82062,0.75283-1.44667,1.57345-1.39831c0.82064,0.04836,1.44667,0.75283,1.39831,1.57347
	c-0.0462,0.78368-0.69311,1.39679-1.47816,1.40086c-0.8133,0.01907-1.48806-0.62478-1.50714-1.43808
	c-0.00107-0.04601,0-0.09204,0.00324-0.13795L20.19786,43.95371z M47.0674,41.37852c0.35269-0.00091,0.7023,0.06551,1.03008,0.19572
	c0.31286,0.12529,0.59809,0.31077,0.83952,0.54594c0.2383,0.23303,0.42743,0.5115,0.55623,0.81891
	c0.26909,0.66036,0.26909,1.39979,0,2.06015c-0.12868,0.30747-0.31783,0.58596-0.55623,0.81891
	c-0.24142,0.23517-0.52665,0.42065-0.83952,0.54594c-0.67915,0.2639-1.43251,0.2639-2.11166,0
	c-0.3114-0.12516-0.59496-0.31071-0.83436-0.54594c-0.23602-0.23386-0.42332-0.51219-0.55109-0.81891
	c-0.26854-0.66046-0.26854-1.39969,0-2.06015c0.12777-0.30672,0.31508-0.58504,0.55109-0.81891
	c0.2394-0.23523,0.52296-0.42076,0.83436-0.54594c0.33955-0.14075,0.70372-0.21254,1.07127-0.21118L47.0674,41.37852z
	 M47.0674,42.40859c-0.20975-0.00286-0.41803,0.03565-0.6129,0.11331c-0.18355,0.07359-0.35008,0.18402-0.48929,0.32447
	c-0.14202,0.14786-0.25243,0.32309-0.32448,0.51504c-0.15735,0.41122-0.15735,0.86608,0,1.2773
	c0.07193,0.19201,0.18234,0.36728,0.32448,0.51504c0.13912,0.14056,0.30568,0.25101,0.48929,0.32448
	c0.39238,0.15364,0.82826,0.15364,1.22064,0c0.1924-0.07113,0.36782-0.18164,0.51504-0.32448
	c0.14237-0.14759,0.25282-0.3229,0.32447-0.51504c0.15735-0.41122,0.15735-0.86608,0-1.2773
	c-0.07166-0.19213-0.1821-0.36745-0.32447-0.51504c-0.14721-0.14284-0.32264-0.25335-0.51504-0.32447
	c-0.19429-0.08895-0.40446-0.13799-0.61805-0.14423L47.0674,42.40859z M29.99903,43.95369
	c0-1.54512-0.95796-2.57519-2.33312-2.57519c-1.42223,0.01991-2.55905,1.18901-2.53913,2.61125s1.18901,2.55905,2.61125,2.53913
	c0.73325,0.02505,1.45007-0.22061,2.0138-0.69015l-0.51504-0.79316c-0.40669,0.32616-0.91053,0.5074-1.4318,0.51504
	c-0.73631,0.06333-1.38927-0.47092-1.473-1.20518h3.65162C29.99903,44.22666,29.99903,44.0979,29.99903,43.95369z
	 M26.33712,43.52106c0.04134-0.67946,0.61219-1.20482,1.29273-1.18974c0.67399-0.01437,1.23202,0.52035,1.24638,1.19434
	c0.00002,0.00019,0.00002,0.00036,0.00002,0.00055L26.33712,43.52106z M34.50562,42.7485
	c-0.47035-0.27083-1.0024-0.41625-1.54511-0.42233c-0.58715,0-0.93737,0.21632-0.93737,0.57684
	c0,0.36052,0.37083,0.42233,0.83436,0.48413l0.51504,0.07211c1.07127,0.15451,1.72023,0.60774,1.72023,1.473
	s-0.82406,1.60691-2.24042,1.60691c-0.7591,0.0202-1.50467-0.20366-2.12711-0.63864l0.51504-0.83436
	c0.47265,0.35065,1.04955,0.53206,1.63782,0.51504c0.73136,0,1.12278-0.21632,1.12278-0.59745
	c0-0.27813-0.27813-0.43263-0.86526-0.51504l-0.51504-0.07211c-1.10219-0.15451-1.69962-0.64895-1.69962-1.45241
	c0-0.97857,0.80346-1.57602,2.06015-1.57602c0.70335-0.02356,1.3987,0.15518,2.00351,0.51504L34.50562,42.7485z M39.656,42.47038
	h-1.74599v2.21981c0,0.51504,0.17511,0.82406,0.71075,0.82406c0.33433-0.01108,0.66038-0.10677,0.94767-0.27812l0.30903,0.91677
	c-0.40157,0.2506-0.86575,0.38271-1.3391,0.38112c-1.26699,0-1.70993-0.67986-1.70993-1.82324v-2.24042h-0.99918v-0.97857h0.99918
	v-1.49361h1.08158v1.49361H39.656V42.47038z M43.35912,41.36819c0.25984,0.00101,0.51763,0.04629,0.76226,0.13391l-0.32963,1.03008
	c-0.21286-0.08487-0.4404-0.12687-0.66954-0.1236c-0.70044,0-1.03008,0.45324-1.03008,1.26699v2.75546h-1.07127v-4.91861h1.06098
	v0.59745c0.26781-0.46003,0.76582-0.73669,1.29789-0.72105L43.35912,41.36819z M50.76537,45.69451
	c0.06696-0.00082,0.13344,0.01143,0.19572,0.03606c0.05914,0.02414,0.11329,0.05907,0.15966,0.10301
	c0.04525,0.0444,0.08192,0.09679,0.10815,0.15451c0.05272,0.12158,0.05272,0.25955,0,0.38112
	c-0.02623,0.05772-0.0629,0.1101-0.10815,0.15451c-0.04637,0.04395-0.10052,0.07887-0.15966,0.10301
	c-0.06166,0.02721-0.12832,0.04124-0.19572,0.0412c-0.19929-0.00151-0.37984-0.11785-0.46353-0.29872
	c-0.0521-0.1217-0.0521-0.25942,0-0.38112c0.02623-0.05772,0.0629-0.1101,0.10815-0.15451
	c0.04637-0.04395,0.10052-0.07887,0.15966-0.10301c0.0542-0.02155,0.11168-0.03373,0.16996-0.03604L50.76537,45.69451z
	 M50.76537,46.56492c0.05141,0.00032,0.10231-0.01022,0.14936-0.0309c0.04431-0.01979,0.0845-0.04774,0.11847-0.08241
	c0.14831-0.14936,0.14745-0.39068-0.00192-0.53899c-0.0336-0.03337-0.07312-0.06018-0.11655-0.07906
	c-0.04711-0.02054-0.09797-0.03106-0.14936-0.0309c-0.05135,0.00027-0.10212,0.01078-0.14937,0.0309
	c-0.04627,0.01897-0.08828,0.047-0.1236,0.08241c-0.13355,0.1457-0.13355,0.36934,0,0.51504
	c0.07205,0.07295,0.17044,0.1138,0.27297,0.11331V46.56492z M50.79627,45.95203c0.04808-0.00234,0.09546,0.01225,0.13391,0.04119
	c0.03199,0.02647,0.04924,0.06674,0.04635,0.10815c0.00149,0.03458-0.01159,0.06821-0.03606,0.0927
	c-0.02985,0.02711-0.06793,0.04343-0.10815,0.04635l0.14936,0.16995h-0.11846l-0.13906-0.16995h-0.04635v0.16995h-0.09786v-0.47379
	L50.79627,45.95203z M50.68296,46.03959v0.1236h0.11331c0.02016,0.006,0.04164,0.006,0.0618,0
	c0.00734-0.01457,0.00734-0.03178,0-0.04635c0.00734-0.01457,0.00734-0.03178,0-0.04635c-0.02016-0.006-0.04164-0.006-0.0618,0
	L50.68296,46.03959z"/>
<g id="_Group_">
	<rect x="21.88718" y="3.96614" class="st0" width="16.2237" height="29.15631"/>
	<path id="_Path_" class="st1" d="M22.91726,18.54687c-0.00607-5.69039,2.6055-11.06738,7.08177-14.58073
		C21.94774-2.36132,10.29147-0.96387,3.96401,7.08742c-6.32745,8.05129-4.93002,19.70756,3.12127,26.03503
		c6.72393,5.28429,16.18983,5.28429,22.91376,0C25.52418,29.61021,22.91278,24.23546,22.91726,18.54687z"/>
	<path class="st2" d="M58.22827,30.03222v-0.57684h0.24207v-0.1236h-0.6129v0.1236h0.24207v0.59745L58.22827,30.03222z
		 M59.418,30.03222v-0.72105H59.2326l-0.21632,0.51504l-0.21632-0.51504h-0.19056v0.72105h0.13391v-0.54078l0.20087,0.46869h0.13905
		l0.20087-0.46869v0.54594L59.418,30.03222z"/>
	<path class="st2" d="M59.99485,18.54687c-0.00248,10.24012-8.30574,18.53936-18.54587,18.53688
		c-4.15256-0.00101-8.18457-1.39595-11.44995-3.9613c8.05129-6.32747,9.44874-17.98374,3.12127-26.03503
		c-0.91243-1.16101-1.96027-2.20884-3.12127-3.12127c8.05011-6.32896,19.70665-4.9337,26.03561,3.11641
		C58.6034,10.34988,59.9999,14.38553,60,18.54172L59.99485,18.54687z"/>
</g>
</svg>
