<svg xmlns="http://www.w3.org/2000/svg" viewBox="0 0 49.29994 30.47627"><defs><style>.cls-1{fill:#eb631e;}.cls-2{fill:#e41924;}.cls-3{fill:#f59e22;}</style></defs><title>Asset 20</title><g id="Layer_2" data-name="Layer 2"><g id="Layer_1-2" data-name="Layer 1"><g id="Layer_1-2-2" data-name="Layer 1-2"><rect class="cls-1" x="17.31953" y="3.25885" width="14.66775" height="23.95676"/><path class="cls-2" d="M18.83032,15.23935A15.20944,15.20944,0,0,1,24.64918,3.26308a15.23482,15.23482,0,1,0,0,23.95676A15.20939,15.20939,0,0,1,18.83032,15.23935Z"/><path class="cls-3" d="M47.8442,24.68071V24.1898h.21159v-.10156H47.5522v.10156h.199v.49091Zm.97756,0v-.59247h-.15235l-.17774.42319-.17773-.42319h-.15235v.59247h.11v-.44859l.16506.38511h.11426l.165-.38511v.44859Z"/><path class="cls-3" d="M49.29994,15.23935A15.23482,15.23482,0,0,1,24.64915,27.21561a15.23481,15.23481,0,0,0,0-23.95676A15.23482,15.23482,0,0,1,49.29994,15.23511Z"/></g></g></g></svg>