<?xml version="1.0" encoding="utf-8"?>
<!-- Generator: Adobe Illustrator 24.1.0, SVG Export Plug-In . SVG Version: 6.00 Build 0)  -->
<svg version="1.1" id="Layer_1" xmlns="http://www.w3.org/2000/svg" xmlns:xlink="http://www.w3.org/1999/xlink" x="0px" y="0px"
	 viewBox="0 0 60 46.66796" style="enable-background:new 0 0 60 46.66796;" xml:space="preserve">
<style type="text/css">
	.st0{fill:#231F20;}
	.st1{fill:#FF5F00;}
	.st2{fill:#EB001B;}
	.st3{fill:#F79E1B;}
</style>
<g id="Layer_1-2">
	<path class="st0" d="M10.91687,46.41044v-3.09023c0.07001-1.01021-0.69218-1.8859-1.70239-1.95591
		c-0.07794-0.0054-0.15616-0.00581-0.23415-0.00124C8.287,41.31761,7.62389,41.65311,7.2498,42.23862
		c-0.34106-0.56805-0.96555-0.90401-1.62752-0.87556c-0.57637-0.02914-1.12507,0.24913-1.44211,0.73135v-0.60775H3.10889v4.92376
		h1.08158v-2.7091c-0.08626-0.6313,0.35558-1.21299,0.98688-1.29925c0.07232-0.00988,0.14542-0.01287,0.21831-0.00895
		c0.71075,0,1.07128,0.46354,1.07128,1.29789v2.74h1.08158v-2.7297c-0.08324-0.63457,0.3637-1.21647,0.99827-1.29972
		c0.06858-0.009,0.13783-0.01184,0.20692-0.00848c0.73135,0,1.08158,0.46354,1.08158,1.29789v2.74L10.91687,46.41044z
		 M26.9191,41.48667h-1.76143v-1.49361H24.0761v1.49361h-0.97857v0.97857h0.99917v2.26616
		c0,1.14339,0.44293,1.82324,1.70993,1.82324c0.47335,0.00159,0.93753-0.13052,1.3391-0.38113l-0.30902-0.91677
		c-0.28728,0.17136-0.61334,0.26705-0.94767,0.27812c-0.51504,0-0.71075-0.32962-0.71075-0.82406v-2.24557h1.75113L26.9191,41.48667
		z M36.05588,41.36306c-0.53207-0.01565-1.03008,0.26102-1.29789,0.72105v-0.59745h-1.06098v4.92376h1.07128v-2.7606
		c0-0.81376,0.35023-1.26699,1.03008-1.26699c0.22913-0.00314,0.45664,0.03887,0.66955,0.12361l0.32962-1.03008
		c-0.24466-0.08752-0.50242-0.13281-0.76226-0.13391L36.05588,41.36306z M22.24256,41.8781
		c-0.60639-0.36054-1.30359-0.53931-2.00865-0.51504c-1.24639,0-2.06015,0.59745-2.06015,1.57602
		c0,0.80346,0.59744,1.29789,1.69963,1.45241l0.51504,0.0721c0.58714,0.08241,0.86526,0.23692,0.86526,0.51504
		c0,0.38113-0.39143,0.59744-1.12278,0.59744c-0.58828,0.01703-1.16517-0.16438-1.63782-0.51504l-0.51504,0.83437
		c0.62403,0.43572,1.37146,0.65958,2.13226,0.63865c1.4215,0,2.24557-0.66955,2.24557-1.60692
		c0-0.93737-0.64895-1.3185-1.72023-1.47301l-0.51504-0.07211c-0.46354-0.06181-0.83436-0.15451-0.83436-0.48414
		s0.35023-0.57684,0.93737-0.57684c0.54268,0.0063,1.07468,0.15171,1.54511,0.42233L22.24256,41.8781z M50.93533,41.36306
		c-0.53207-0.01565-1.03008,0.26102-1.29789,0.72105v-0.59745h-1.06098v4.92376h1.07128v-2.7606
		c0-0.81376,0.35022-1.26699,1.03008-1.26699c0.22913-0.00314,0.45664,0.03887,0.66955,0.12361l0.32962-1.03008
		c-0.24466-0.08752-0.50242-0.13281-0.76226-0.13391L50.93533,41.36306z M37.13231,43.93825
		c-0.05056,1.37295,1.02146,2.52694,2.39441,2.57749c0.07742,0.00285,0.15493,0.00209,0.23228-0.0023
		c0.64322,0.03273,1.27536-0.17676,1.77173-0.58714l-0.51504-0.86526c-0.37033,0.2824-0.82191,0.43775-1.28759,0.44294
		c-0.87041-0.07042-1.51893-0.83312-1.44851-1.70353c0.06251-0.77262,0.67589-1.386,1.44851-1.44851
		c0.46569,0.00518,0.91727,0.16053,1.28759,0.44293l0.51504-0.86526c-0.49638-0.41038-1.12851-0.61987-1.77173-0.58714
		c-1.37168-0.07773-2.54666,0.97123-2.62439,2.34291c-0.00438,0.07735-0.00515,0.15486-0.0023,0.23228V43.93825z M47.16525,43.93825
		v-2.45158h-1.07128v0.59745c-0.36908-0.47489-0.94408-0.74323-1.54512-0.72105c-1.42224,0-2.57519,1.15295-2.57519,2.57519
		s1.15295,2.57519,2.57519,2.57519c0.60104,0.02217,1.17604-0.24616,1.54512-0.72105v0.59745h1.07128V43.93825z M43.17886,43.93825
		c0.04837-0.82063,0.75283-1.44667,1.57346-1.3983c0.82063,0.04837,1.44667,0.75283,1.3983,1.57346
		c-0.04619,0.7837-0.6931,1.39679-1.47815,1.40086c-0.8163,0.01033-1.48642-0.64304-1.49675-1.45934
		C43.17524,44.01601,43.17627,43.97709,43.17886,43.93825z M30.2514,41.36306c-1.42224,0.01991-2.55905,1.189-2.53914,2.61124
		s1.189,2.55905,2.61124,2.53914l0,0c0.741,0.03804,1.46972-0.20058,2.0447-0.66955l-0.51504-0.79316
		c-0.40669,0.32616-0.91054,0.5074-1.43181,0.51504c-0.73631,0.06332-1.38927-0.47092-1.47301-1.20519h3.65677
		c0-0.13391,0-0.26782,0-0.41203c0-1.54511-0.95797-2.57519-2.33827-2.57519L30.2514,41.36306z M30.2514,42.32103
		c0.67399-0.01437,1.23201,0.52036,1.24638,1.19435c0,0.00018,0.00001,0.00036,0.00001,0.00054H28.9226
		c0.0388-0.68767,0.61983-1.21838,1.3082-1.19489H30.2514z M57.09004,43.94855v-4.43963h-1.03008v2.57519
		c-0.36908-0.47489-0.94408-0.74323-1.54512-0.72105c-1.42224,0-2.57519,1.15295-2.57519,2.57519s1.15295,2.57519,2.57519,2.57519
		c0.60104,0.02217,1.17604-0.24616,1.54512-0.72105v0.59745h1.03008V43.94855z M58.87722,45.69453
		c0.06697-0.00082,0.13345,0.01143,0.19572,0.03605c0.05915,0.02414,0.11329,0.05907,0.15966,0.10301
		c0.04526,0.0444,0.08193,0.09679,0.10816,0.15451c0.05272,0.12157,0.05272,0.25956,0,0.38113
		c-0.02623,0.05772-0.0629,0.11011-0.10816,0.15451c-0.04638,0.04394-0.10051,0.07887-0.15966,0.103
		c-0.06166,0.02721-0.12832,0.04124-0.19572,0.04121c-0.19929-0.00151-0.37983-0.11785-0.46353-0.29873
		c-0.05211-0.1217-0.05211-0.25943,0-0.38113c0.02623-0.05772,0.0629-0.11011,0.10816-0.15451
		c0.04638-0.04394,0.10051-0.07887,0.15966-0.10301c0.06709-0.02668,0.13902-0.03897,0.21116-0.03605H58.87722z M58.87722,46.56495
		c0.05141,0.00031,0.1023-0.01022,0.14936-0.0309c0.04431-0.01979,0.0845-0.04774,0.11846-0.08241
		c0.13354-0.14571,0.13354-0.36933,0-0.51504c-0.03388-0.03476-0.07409-0.06273-0.11846-0.08241
		c-0.0471-0.02054-0.09797-0.03106-0.14936-0.0309c-0.05134,0.00027-0.10212,0.01078-0.14936,0.0309
		c-0.04627,0.01897-0.0883,0.04699-0.12361,0.08241c-0.13354,0.14571-0.13354,0.36933,0,0.51504
		c0.0354,0.03531,0.0774,0.06332,0.12361,0.08241c0.05196,0.0224,0.10826,0.03296,0.16481,0.0309L58.87722,46.56495z
		 M58.90812,45.95205c0.04808-0.00233,0.09545,0.01225,0.13391,0.04121c0.03198,0.02647,0.04924,0.06674,0.04635,0.10816
		c0.0015,0.03458-0.01158,0.06822-0.03606,0.0927c-0.02985,0.02711-0.06794,0.04344-0.10816,0.04635l0.14936,0.16996h-0.11846
		L58.836,46.24047h-0.04635v0.16996h-0.09786v-0.45323L58.90812,45.95205z M58.79481,46.03961v0.12361h0.11331
		c0.02016,0.00601,0.04163,0.00601,0.0618,0c0.00735-0.01458,0.00735-0.03178,0-0.04635c0.00735-0.01458,0.00735-0.03177,0-0.04635
		c-0.02017-0.00601-0.04164-0.00601-0.0618,0L58.79481,46.03961z M53.12939,43.94855
		c0.04837-0.82063,0.75283-1.44667,1.57346-1.3983c0.82063,0.04837,1.44667,0.75283,1.39831,1.57346
		c-0.04619,0.7837-0.6931,1.39679-1.47815,1.40086c-0.8163,0.01033-1.48641-0.64304-1.49674-1.45934
		C53.12577,44.02631,53.12681,43.98739,53.12939,43.94855z M16.95826,43.94855v-2.46188h-1.07128v0.59745
		c-0.36907-0.47489-0.94408-0.74323-1.54511-0.72105c-1.42224,0-2.57519,1.15295-2.57519,2.57519s1.15295,2.57519,2.57519,2.57519
		c0.60104,0.02217,1.17604-0.24616,1.54511-0.72105v0.59745h1.07128L16.95826,43.94855z M12.97187,43.94855
		c0.04837-0.82063,0.75283-1.44667,1.57346-1.3983c0.82063,0.04837,1.44667,0.75283,1.39831,1.57346
		c-0.04619,0.7837-0.69311,1.39679-1.47815,1.40086c-0.81621,0.01603-1.49086-0.63265-1.50689-1.44886
		c-0.00083-0.04241,0.00016-0.08483,0.00298-0.12716H12.97187z"/>
	<g id="_Group_">
		<rect x="21.88718" y="3.96614" class="st1" width="16.2237" height="29.15631"/>
		<path id="_Path_" class="st2" d="M22.91726,18.54687c-0.00607-5.6904,2.6055-11.06737,7.08177-14.58073
			C21.94774-2.36131,10.29146-0.96387,3.96401,7.08743S-0.966,26.79499,7.08529,33.12245
			c6.72393,5.28429,16.18981,5.28429,22.91374,0C25.52418,29.61021,22.91278,24.23547,22.91726,18.54687z"/>
		<path class="st3" d="M60,18.54687c-0.00024,10.24012-8.30169,18.54118-18.54181,18.54094
			c-4.15619-0.0001-8.19183-1.3966-11.45916-3.96536c8.05129-6.32746,9.44874-17.98373,3.12128-26.03503
			c-0.91243-1.16101-1.96028-2.20886-3.12128-3.12128c8.05011-6.32896,19.70665-4.93369,26.03561,3.11642
			C58.6034,10.34989,59.9999,14.38553,60,18.54172V18.54687z"/>
		<path class="st3" d="M58.22828,30.03222v-0.59744h0.24207v-0.12361h-0.6129v0.12361h0.26266v0.59745L58.22828,30.03222z
			 M59.41801,30.03222v-0.72106H59.2326l-0.21631,0.51504l-0.21632-0.51504h-0.16482v0.72106h0.13391v-0.54079l0.20087,0.46869
			h0.13906l0.20087-0.46869v0.54594L59.41801,30.03222z"/>
	</g>
</g>
</svg>
