<?xml version="1.0" encoding="utf-8"?>
<!-- Generator: Adobe Illustrator 22.1.0, SVG Export Plug-In . SVG Version: 6.00 Build 0)  -->
<svg version="1.1" id="Livello_1" xmlns="http://www.w3.org/2000/svg" xmlns:xlink="http://www.w3.org/1999/xlink" x="0px" y="0px"
	 viewBox="0 0 88.7 30" style="enable-background:new 0 0 88.7 30;" xml:space="preserve">
<style type="text/css">
	.st0{fill:#2D32AA;}
</style>
<title>logo double</title>
<desc>Created with Sketch.</desc>
<g id="Symbols">
	<g id="logo-dark" transform="translate(0.000000, -5.000000)">
		<g id="logo-double" transform="translate(0.000000, 5.000000)">
			<g id="nexi" transform="translate(0.000000, 3.222222)">
				<polygon id="Fill-36" class="st0" points="81.9,25.9 88.3,25.9 88.3,0.8 81.9,0.8 				"/>
				<path id="Fill-37" class="st0" d="M12.5,0.1C6.5,0.1,0.2,2.2,0.2,2.2v23.8h6.6V6.6c0,0,2.3-1,5.8-1c4.3,0,6,2.3,6,5.9v14.4h6.5
					c0-0.4,0-14,0-14.4C25.1,3.8,21.5,0.1,12.5,0.1"/>
				<path id="Fill-38" class="st0" d="M80.1,0.8h-7.9l-6,7.4L63,4c-1.6-2.1-4.3-3.3-6.9-3.3h-3.9l9.9,12.5L51.9,25.9h7.8l6.4-7.8
					l3.7,4.6c1.6,2.1,4.3,3.2,6.9,3.2h3.8L70.2,13L80.1,0.8z"/>
				<path id="Fill-39" class="st0" d="M40.6,5.5c2.9,0,5.3,1.3,6.2,3.6l-13,2.3C34.5,7.6,37.2,5.5,40.6,5.5 M53,21.1l-4.3-3.5
					c-1.4,1.6-3.7,3.5-7.5,3.5c-3,0-5.7-1.6-6.9-4.4l19.3-3.4c0-1.9-0.4-3.7-1.1-5.3c-2-4.7-6.5-8-12.1-8c-7.4,0-13.1,5.3-13.1,13.3
					c0,7.8,5.6,13.3,13.8,13.3C47.4,26.7,51.1,23.5,53,21.1"/>
			</g>
		</g>
	</g>
</g>
</svg>
