<svg xmlns="http://www.w3.org/2000/svg" viewBox="0 0 43.68524 48.43748"><defs><style>.cls-1{fill:#010101;}.cls-2{fill:#4bafe4;}.cls-3{fill:#fff;}</style></defs><title>Asset 14</title><g id="Layer_2" data-name="Layer 2"><g id="Layer_1-2" data-name="Layer 1"><path class="cls-1" d="M18.15262,17.72885V48.28942C12.758,47.97517,6.10636,46.95384,6.10636,43.99464v-21.971C6.10636,19.06443,12.758,18.0431,18.15262,17.72885Z"/><path class="cls-1" d="M29.64888,17.624V48.39409c-2.72357.07864-4.74.02629-4.74.02629s-2.04251.05241-4.79216-.02629V17.624c2.74965-.07847,4.79216-.02606,4.79216-.02606S26.92531,17.54556,29.64888,17.624Z"/><path class="cls-1" d="M43.68524,22.02363v21.971c0,2.98541-6.67771,3.98053-12.07231,4.29478V17.72885C37.00753,18.0431,43.68524,19.03822,43.68524,22.02363Z"/><circle class="cls-2" cx="8.29523" cy="30.24089" r="8.29523"/><path class="cls-1" d="M39.80941,7.51576C38.63112,4.897,35.51472,0,31.95323,0c-3.27342,0-5.55171,15.45058-5.55171,15.45058h6.54672a17.68719,17.68719,0,0,0,6.65168-5.08035A2.99144,2.99144,0,0,0,39.80941,7.51576ZM32.50314,13.565H29.15132s1.02118-7.83,2.77585-7.83c1.7283,0,4.37325,3.43053,4.37325,4.55656S32.5032,13.565,32.5032,13.565Z"/><path class="cls-1" d="M10.18671,10.37023a17.68731,17.68731,0,0,0,6.65157,5.08035H23.385S21.10682,0,17.8334,0c-3.56158,0-6.67789,4.897-7.85618,7.51576A2.99147,2.99147,0,0,0,10.18671,10.37023Zm3.29965-.07864c0-1.126,2.64493-4.55656,4.37325-4.55656,1.75467,0,2.77585,7.83,2.77585,7.83h-3.352s-3.79718-2.14739-3.79718-3.27342Z"/><path class="cls-3" d="M.87515,30.89173l5.86327,5.86313,8.23163-8.886-2.715-2.927L7.11384,32.85575,3.3591,28.04667Z"/></g></g></svg>