<svg xmlns="http://www.w3.org/2000/svg" viewBox="0 0 40.67279 47.88956"><defs><style>.cls-1{fill:#263668;}.cls-2{fill:#2b90c5;}.cls-3{fill:#20284e;}</style></defs><title>Asset 17</title><g id="Layer_2" data-name="Layer 2"><g id="Layer_1-2" data-name="Layer 1"><g id="Layer_1-2-2" data-name="Layer 1-2"><path class="cls-1" d="M34.55418,3.61107C32.33666,1.08359,28.32826,0,23.20039,0H8.3177A2.13129,2.13129,0,0,0,6.21279,1.79757L.016,41.09929a1.27766,1.27766,0,0,0,1.26242,1.477h9.18793L12.77391,27.94l-.07154.45826a2.12414,2.12414,0,0,1,2.09695-1.79759h4.36612c8.57726,0,15.29337-3.48387,17.2552-13.562q.08743-.44706.15233-.87163h0A9.51326,9.51326,0,0,0,34.55418,3.611"/><path class="cls-1" d="M16.28958,10.82522a1.86788,1.86788,0,0,1,.80409-.18148H28.76138a24.36325,24.36325,0,0,1,3.84818.27952q.50667.08145.9829.1881.47688.1053.92594.23711c.1497.04372.29673.08875.441.13645a10.5376,10.5376,0,0,1,1.61345.68221,9.51223,9.51223,0,0,0-2.01878-8.55606C32.33535,1.08359,28.32826,0,23.20039,0H8.31639a2.131,2.131,0,0,0-2.1036,1.79757L.016,41.098a1.27682,1.27682,0,0,0,1.26109,1.477h9.18926L15.2538,12.21614A1.86464,1.86464,0,0,1,16.28958,10.82522Z"/><path class="cls-2" d="M36.42064,13.03875c-1.96183,10.07679-8.67794,13.562-17.2552,13.562H14.798a2.12174,2.12174,0,0,0-2.09553,1.79759L9.8318,46.59668a1.11832,1.11832,0,0,0,1.10346,1.29288h7.74529a1.8635,1.8635,0,0,0,1.84-1.57238l.07552-.39475,1.45977-9.25151.09406-.51134a1.86355,1.86355,0,0,1,1.84-1.57238h1.15908c7.50295,0,13.37783-3.04807,15.0947-11.86377a10.106,10.106,0,0,0-1.54988-8.92035,7.397,7.397,0,0,0-2.12081-1.63595c-.045.28479-.094.57358-.15232.87162Z"/><path class="cls-3" d="M34.51974,11.34847q-.44905-.13124-.926-.23711c-.31792-.07022-.64645-.13246-.98292-.18679a24.219,24.219,0,0,0-3.84949-.28083H17.095a1.86349,1.86349,0,0,0-1.84,1.57371L12.77531,27.94l-.07152.45826a2.12173,2.12173,0,0,1,2.09553-1.79759H19.1668c8.57726,0,15.29334-3.48387,17.25518-13.562.05828-.298.10729-.58683.15235-.87162a10.59517,10.59517,0,0,0-1.61345-.6809c-.14439-.04768-.29144-.094-.44105-.1377"/></g></g></g></svg>