<svg xmlns="http://www.w3.org/2000/svg" viewBox="0 0 33.96455 49.42976"><defs><style>.cls-1{fill:#e3061d;}</style></defs><title>Asset 19</title><g id="Layer_2" data-name="Layer 2"><g id="Layer_1-2" data-name="Layer 1"><path id="path2513" class="cls-1" d="M3.38871,16.16077a9.70411,9.70411,0,0,1,1.86-.62,11.99255,11.99255,0,0,1,23.471.00387,8.64391,8.64391,0,0,1,4.38265,2.12158,17.2383,17.2383,0,0,0-.12013-2.99733,16.08022,16.08022,0,0,0-32.08516.7595,22.78326,22.78326,0,0,0-.03875,2.31726,10.20441,10.20441,0,0,1,2.53039-1.58488"/><path id="path2515" class="cls-1" d="M26.37339,17.37946H7.09516a7.01247,7.01247,0,0,0-2.87914.65876,7.9542,7.9542,0,0,0-2.3657,1.52288Q.05716,21.71754,0,25.8677v15.07q.06393,4.15886,1.85032,6.30272A7.86736,7.86736,0,0,0,4.216,48.77682a7.15978,7.15978,0,0,0,2.87914.65294H26.37339q7.4691-.06686,7.59116-8.1763V25.55188q-.11916-8.11138-7.59116-8.17242"/></g></g></svg>