<svg xmlns="http://www.w3.org/2000/svg" viewBox="0 0 48.43748 48.43748"><defs><style>.cls-1{fill:#eedc00;}.cls-2{fill:#004c99;}</style></defs><title>Asset 13</title><g id="Layer_2" data-name="Layer 2"><g id="Layer_1-2" data-name="Layer 1"><rect class="cls-1" width="48.43748" height="48.43748" rx="5.65507"/><g id="Layer_1-2-2" data-name="Layer 1-2"><path class="cls-2" d="M17.032,15.19192a5.19722,5.19722,0,0,1,1.95621-.35114,4.39178,4.39178,0,0,1,3.21037,1.20389,5.21029,5.21029,0,0,1,1.45467,3.36084,9.32,9.32,0,0,1-.301,3.26051,9.01288,9.01288,0,0,1-1.20377,3.0097A6.56408,6.56408,0,0,1,17.032,28.93623V26.92975a5.97991,5.97991,0,0,0,1.00325-.40128,4.84126,4.84126,0,0,0,1.65534-1.80583,10.92476,10.92476,0,0,0,1.05339-2.6084,8.53706,8.53706,0,0,0,.25081-2.70873,3.68844,3.68844,0,0,0-.90287-2.15695,2.79759,2.79759,0,0,0-2.05662-.80261,3.23422,3.23422,0,0,0-1.00325.1505ZM8.1534,33.75174l3.46115-15.199c.10034-.60195.20067-1.15373.301-1.75567.05016-.602.10033-1.15373.1505-1.75565h2.40775l-.20064,2.05662a8.35945,8.35945,0,0,1,2.25726-1.7055,2.09707,2.09707,0,0,1,.50161-.20064v1.40453a5.02352,5.02352,0,0,0-1.05339.50161,5.02553,5.02553,0,0,0-1.60517,1.90614,10.90633,10.90633,0,0,0-1.05339,2.80907,8.99331,8.99331,0,0,0-.25081,2.65856,2.65777,2.65777,0,0,0,2.80906,2.60842,4.27506,4.27506,0,0,0,1.1537-.1505v2.00648h-.45144a5.1691,5.1691,0,0,1-2.40776-.55178,5.28974,5.28974,0,0,1-1.75565-1.60517L10.812,33.75174Z"/><path class="cls-2" d="M33.91954,17.19839a4.9449,4.9449,0,0,0-.85275.10031V15.34239a2.445,2.445,0,0,0,.35114-.15047,5.235,5.235,0,0,1,2.35758-.50162,4.243,4.243,0,0,1,3.11,1.15373,5.01152,5.01152,0,0,1,1.3042,3.31067,10.00148,10.00148,0,0,1-1.555,6.87213,5.81268,5.81268,0,0,1-5.06632,2.85923c-.15047,0-.35114-.05016-.50162-.05016V26.2275a1.90885,1.90885,0,0,0,.85276-.40131,4.336,4.336,0,0,0,1.15372-1.555A12.28016,12.28016,0,0,0,35.926,21.7631a7.82044,7.82044,0,0,0,.20067-2.30745,2.52206,2.52206,0,0,0-.65212-1.65534A2.07835,2.07835,0,0,0,33.91954,17.19839Zm-.85275.10031a3.81947,3.81947,0,0,0-2.05664,1.856,7.31922,7.31922,0,0,0-.95306,4.51454,3.16942,3.16942,0,0,0,.75242,1.95631,2.11833,2.11833,0,0,0,1.65533.70226,2.51886,2.51886,0,0,0,.60195-.10031v2.6084a4.70089,4.70089,0,0,1-1.95631-.55178,3.89112,3.89112,0,0,1-1.65534-1.70551L27.85,33.75174H23.68654l3.21037-14.54689c.40128-1.856.65209-3.26051.75242-4.16341h3.76212l-.10033,1.65534a10.32888,10.32888,0,0,1,1.75567-1.35439Z"/></g></g></g></svg>