<svg xmlns="http://www.w3.org/2000/svg" viewBox="0 0 48.26225 30.74945"><defs><style>.cls-1{fill:#f08326;}</style></defs><title>Asset 3</title><g id="Layer_2" data-name="Layer 2"><g id="Layer_1-2" data-name="Layer 1"><path class="cls-1" d="M48.26225.05817H30.67406a16.99149,16.99149,0,0,0-7.88082,1.22439,13.55117,13.55117,0,0,0-6.18476,8.57922,9.71947,9.71947,0,0,0-.56774,2.74913,4.119,4.119,0,0,0,.41224,2.047A5.91534,5.91534,0,0,0,18.168,16.60715a8.46758,8.46758,0,0,0,2.61119,1.3187c.03666.01045.545.15542,1.15973.33185.61134.1764,1.32915.386,1.7833.52221a3.9767,3.9767,0,0,1,.82264.34585,1.68455,1.68455,0,0,1,.65148.662,1.46454,1.46454,0,0,1,.15546.634,2.02571,2.02571,0,0,1-.12222.73357,1.995,1.995,0,0,1-1.21568,1.35883,8.93539,8.93539,0,0,1-3.053.35634H2.861L0,30.73215H19.37334a21.1243,21.1243,0,0,0,8.35922-1.36061,12.84045,12.84045,0,0,0,7.57507-9.52432,6.45972,6.45972,0,0,0-.46283-5.01975,7.15066,7.15066,0,0,0-4.37351-2.86441s-.47509-.138-1.03223-.2987c-.5537-.15893-1.19644-.34234-1.52482-.43665a2.04551,2.04551,0,0,1-1.20515-.86805,1.71192,1.71192,0,0,1-.17817-1.37642,2.01046,2.01046,0,0,1,1.00435-1.20689,4.0709,4.0709,0,0,1,1.9595-.43665H40.75685c.08039-.11528.152-.23928.23234-.35456a24.86051,24.86051,0,0,1,7.27306-6.927"/></g></g></svg>