<svg xmlns="http://www.w3.org/2000/svg" viewBox="0 0 49.0786 37.56639"><defs><style>.cls-1{fill:#16a5df;}.cls-2{fill:#434444;}</style></defs><title>Asset 6</title><g id="Layer_2" data-name="Layer 2"><g id="Layer_1-2" data-name="Layer 1"><path class="cls-1" d="M.16953,2.68531.63881,0H13.0225l-.46927,2.68531H7.93867l-2.216,12.61833H2.56806l2.216-12.61833Z"/><path class="cls-1" d="M11.90145,4.06707H14.691l-.20857,1.19926a4.65974,4.65974,0,0,1,.67785-.73,2.7562,2.7562,0,0,1,.67784-.4432,2.63081,2.63081,0,0,1,.8082-.20857c.28678-.02607.59963-.05214.9907-.05214H17.976c.07821.02607.15643.02607.23464.05214a.509.509,0,0,0,.1825.02607L17.89777,6.7263a.88692.88692,0,0,1-.26071-.02607c-.07822-.02607-.1825-.02607-.28678-.05214h-.41714a2.81525,2.81525,0,0,0-1.46.33892,2.69618,2.69618,0,0,0-.93855.93855,4.96659,4.96659,0,0,0-.57356,1.40783q-.19554.82123-.39107,1.7989l-.73,4.17135H9.92006Z"/><path class="cls-1" d="M25.38012,14.339a2.49,2.49,0,0,1-.75605.62571,3.92267,3.92267,0,0,1-.88642.41713,6.36986,6.36986,0,0,1-1.01676.1825c-.365.02607-.70392.05214-1.04284.05214a5.42813,5.42813,0,0,1-1.69461-.23464,2.71715,2.71715,0,0,1-1.12105-.78213A2.63587,2.63587,0,0,1,18.367,13.244a6.73355,6.73355,0,0,1,.1825-2.0596l1.2514-7.09129H22.773L21.5477,11.18443a2.00835,2.00835,0,0,0,.15642,1.56426,1.90806,1.90806,0,0,0,1.486.41713,3.85518,3.85518,0,0,0,1.01676-.13035,1.75354,1.75354,0,0,0,.78213-.41714,2.30573,2.30573,0,0,0,.54749-.78213,5.95791,5.95791,0,0,0,.33892-1.27747l1.14712-6.49166h2.97209L28.01329,15.32971H25.2237Z"/><path class="cls-1" d="M33.2014,11.86228a1.18535,1.18535,0,0,0,.44321,1.22533,3.654,3.654,0,0,0,1.74675.31285,6.63521,6.63521,0,0,0,1.12105-.07821,2.2263,2.2263,0,0,0,.70392-.23464.81207.81207,0,0,0,.365-.41714,1.25477,1.25477,0,0,0,.10428-.57356.755.755,0,0,0-.26071-.59963,2.55321,2.55321,0,0,0-.88641-.41713l-2.99816-.75606A3.14713,3.14713,0,0,1,31.95,9.43768,2.328,2.328,0,0,1,31.37644,7.717a5.064,5.064,0,0,1,.28678-1.72068,2.89613,2.89613,0,0,1,.93855-1.25141,5.02873,5.02873,0,0,1,1.72068-.78213,10.89381,10.89381,0,0,1,2.65924-.26071,8.10035,8.10035,0,0,1,1.851.1825,3.95725,3.95725,0,0,1,1.38176.59963,2.36446,2.36446,0,0,1,.78213,1.095,3.2273,3.2273,0,0,1,.13036,1.6164H38.33738a1.04143,1.04143,0,0,0-.39107-1.01677,2.73168,2.73168,0,0,0-1.4339-.26071,6.424,6.424,0,0,0-1.12105.07822,2.244,2.244,0,0,0-.65177.2607.62248.62248,0,0,0-.28678.365,1.21967,1.21967,0,0,0-.05214.4432.70376.70376,0,0,0,.2607.57356,1.7864,1.7864,0,0,0,.80821.39107l2.65923.65177a4.05249,4.05249,0,0,1,1.95532.96463,2.511,2.511,0,0,1,.65177,1.77282,3.87667,3.87667,0,0,1-.41713,1.90318,3.31986,3.31986,0,0,1-1.19927,1.27747,4.94225,4.94225,0,0,1-1.825.70392,13.171,13.171,0,0,1-2.37246.20857,9.49614,9.49614,0,0,1-2.00746-.20857,4.15547,4.15547,0,0,1-1.53819-.65177,2.69562,2.69562,0,0,1-.93855-1.14712,3.28812,3.28812,0,0,1-.1825-1.72069h2.946Z"/><path class="cls-1" d="M46.75829,6.46559,45.898,11.28871c-.07821.39107-.13036.73-.15643.96463a.89422.89422,0,0,0,.05214.54749.44864.44864,0,0,0,.28679.28678,1.995,1.995,0,0,0,.65177.07821H47.019a.72182.72182,0,0,0,.23464-.02607.5741.5741,0,0,0,.20857-.02607l-.41714,2.19c-.20857.02607-.41714.05214-.65177.07821a5.127,5.127,0,0,1-.67785.05214c-.26071,0-.52142.02607-.78213.02607a3.0581,3.0581,0,0,1-1.56425-.31285,1.3688,1.3688,0,0,1-.65178-.93855,4.04958,4.04958,0,0,1-.05214-1.51212c.07821-.59963.1825-1.27747.28678-2.03353l.78213-4.22349h-1.46L42.69122,4.041h1.486l.49534-2.78959H47.6447L47.14935,4.041H49.0786l-.41714,2.39853H46.75829Z"/><path class="cls-2" d="M8.47305,17.72641a18.21423,18.21423,0,0,1,2.16389.13036,4.21628,4.21628,0,0,1,1.64247.57356,2.98456,2.98456,0,0,1,1.06891,1.2514,5.14608,5.14608,0,0,1,.39106,2.19,6.13557,6.13557,0,0,1-.54749,2.76352,4.36171,4.36171,0,0,1-1.486,1.72068A5.80109,5.80109,0,0,1,9.568,27.2423a11.02362,11.02362,0,0,1-2.45066.26071H4.14528l-.9907,5.60525H0L2.6853,17.72641ZM4.61455,24.8177H6.59594c.44321,0,.91249-.02607,1.38176-.05214a3.82554,3.82554,0,0,0,1.25141-.28678,2.26174,2.26174,0,0,0,.91248-.8082,2.80549,2.80549,0,0,0,.33893-1.53818,2.65285,2.65285,0,0,0-.13036-.88641,1.02591,1.02591,0,0,0-.46928-.52142,2.5482,2.5482,0,0,0-.88641-.26071,11.59081,11.59081,0,0,0-1.4339-.05214h-2.19Z"/><path class="cls-2" d="M14.20866,25.20877a6.19951,6.19951,0,0,1,.73-1.825,3.29385,3.29385,0,0,1,1.12105-1.12105A4.7879,4.7879,0,0,1,17.65,21.68919a11.77927,11.77927,0,0,1,2.03353-.18249,5.63114,5.63114,0,0,1,3.4153.8082,2.61155,2.61155,0,0,1,.73,2.6853L22.421,33.03005H19.57927l.15643-.86034a4.4366,4.4366,0,0,1-1.40783.78213,6.2457,6.2457,0,0,1-2.2421.33892,4.812,4.812,0,0,1-1.48605-.1825,2.35385,2.35385,0,0,1-.99069-.59963,1.71674,1.71674,0,0,1-.52142-.88641,3.88237,3.88237,0,0,1-.1825-1.12105,3.81545,3.81545,0,0,1,.365-1.72068,3.39488,3.39488,0,0,1,.91249-1.17319,5.09651,5.09651,0,0,1,1.27747-.73,6.80892,6.80892,0,0,1,1.4339-.365l3.80636-.57357.13035-.67784c.10428-.52142.02607-.88641-.23464-1.06891a2.62285,2.62285,0,0,0-1.4339-.28678,8.23451,8.23451,0,0,0-.91248.05214,1.79915,1.79915,0,0,0-.59963.20857,1.11589,1.11589,0,0,0-.365.41714,4.82238,4.82238,0,0,0-.28679.6257Zm4.01492,2.99816c-.33893.05214-.65178.13035-.91248.18249a3.875,3.875,0,0,0-.73.28678,1.08938,1.08938,0,0,0-.44321.52142,2.13371,2.13371,0,0,0-.18249.88641.97738.97738,0,0,0,.365.78213,1.968,1.968,0,0,0,1.19926.28678,3.02764,3.02764,0,0,0,1.14713-.18249,2.01116,2.01116,0,0,0,.78213-.49535,2.36393,2.36393,0,0,0,.49534-.78213,4.93527,4.93527,0,0,0,.26071-.93855l.15643-.88642Z"/><path class="cls-2" d="M28.5216,21.79348a41.65923,41.65923,0,0,0,1.04283,8.21234l3.91064-8.21234h3.25887L30.7637,33.05612c-.46927.88641-.88641,1.64247-1.22534,2.216a7.06787,7.06787,0,0,1-1.06891,1.38176,3.3682,3.3682,0,0,1-1.2514.73,6.436,6.436,0,0,1-1.72068.18249H24.9238c-.1825-.02607-.33892-.02607-.46927-.05214-.15643-.02607-.28678-.02607-.41714-.05214l.41714-2.32031a.38658.38658,0,0,0,.1825.02607.33068.33068,0,0,0,.15643.02607h.1825a3.61216,3.61216,0,0,0,.78212-.07821,2.21268,2.21268,0,0,0,.67785-.28678,2.38614,2.38614,0,0,0,.57356-.65178,6.43809,6.43809,0,0,0,.52142-1.04284c-.54749-1.92924-.96462-3.83242-1.30354-5.68346-.33892-1.825-.59963-3.72814-.78213-5.65739Z"/></g></g></svg>