<svg xmlns="http://www.w3.org/2000/svg" viewBox="0 0 40.44131 48.28318"><defs><style>.cls-1{fill:#73b730;fill-rule:evenodd;}</style></defs><title>Asset 7</title><g id="Layer_2" data-name="Layer 2"><g id="Layer_1-2" data-name="Layer 1"><path class="cls-1" d="M32.01737,15.24043c.198.00986.33782.02259.47806.02288,1.66064.00186,3.32132-.00413,4.982.00531a3.84241,3.84241,0,0,1,1.72027.392A2.02559,2.02559,0,0,1,40.36028,18.095c-.36216,1.7524-.77177,3.49516-1.161,5.242Q38.146,28.06308,37.093,32.78849c-.19858.88973-.39472,1.77972-.6,2.66749a3.05982,3.05982,0,0,1-1.48924,2.11736,3.59014,3.59014,0,0,1-1.61546.39741c-.32939.01571-.66.00359-.98967.00359q-12.63677,0-25.27328-.00172a3.38854,3.38854,0,0,1-1.96988-.545,2.91005,2.91005,0,0,1-1.2002-1.79522c-.27173-1.14275-.5252-2.29034-.78169-3.43682Q1.75563,25.86307.341,19.53059C.2357,19.05892.10977,18.59.04264,18.113a3.49717,3.49717,0,0,1-.00645-1.04626,1.85219,1.85219,0,0,1,.97375-1.305,3.81113,3.81113,0,0,1,1.92556-.49351c1.64964-.00986,3.29941-.00359,4.94923-.00427.49261-.00028.49376-.00071.49405-.48766.00039-.98968.00268-1.97971,0-2.96949A11.77606,11.77606,0,0,1,21.47839.07462,11.41246,11.41246,0,0,1,27.57679,2.587a11.62558,11.62558,0,0,1,4.17742,6.73,11.15748,11.15748,0,0,1,.26535,2.41857q.00041,1.53429-.00233,3.06817C32.017,14.934,32.01737,15.0639,32.01737,15.24043ZM20.18694,15.264h7.15555c.09908,0,.19826.00359.29676-.00215.21271-.01215.24527-.04274.26416-.252.00775-.08724.00427-.1757.00427-.26376.00029-1.022.01374-2.04447-.00541-3.06656a10.108,10.108,0,0,0-.12726-1.5393,7.40716,7.40716,0,0,0-2.65932-4.57272,7.5151,7.5151,0,0,0-5.86274-1.71758,7.18593,7.18593,0,0,0-3.13576,1.11159A7.58871,7.58871,0,0,0,12.493,11.46838c-.02844,1.10947-.00717,2.22031-.00717,3.33017,0,.46447.00143.46519.47974.46519Q16.57639,15.2646,20.18694,15.264Zm-.0189,4.76012v.00057c-1.51782,0-3.03568-.00272-4.55353.00158-.507.00172-.66929.17011-.6733.678-.004.52808-.00129,1.05583-.00086,1.58405.00057.64641.09606.74462.742.74806.583.003,1.16566.00029,1.7486.00086.54963.00058.55049.00086.55049.54422q.00042,3.7785.001,7.55622a3.3649,3.3649,0,0,0,.0213.46067c.0502.36309.162.48461.53428.49372.92276.022,1.84621.02263,2.76954.028a2.22622,2.22622,0,0,0,.36109-.03374.49483.49483,0,0,0,.46256-.44227,2.53466,2.53466,0,0,0,.02984-.459q.00282-3.84395.0019-7.68818c0-.44787.011-.45787.46787-.459.67054-.00158,1.34187.00272,2.01248-.003a2.97561,2.97561,0,0,0,.45715-.05046.30479.30479,0,0,0,.25875-.26473,1.56563,1.56563,0,0,0,.02929-.294c.00269-.57193.00484-1.14386.00054-1.71582-.004-.51492-.16136-.67259-.66742-.68417-.08792-.00215-.176-.00115-.26388-.00115Z"/><path class="cls-1" d="M23.54326,43.58388a4.64132,4.64132,0,1,1,4.583,4.69893q-.04337-.00054-.08673-.00189A4.64082,4.64082,0,0,1,23.54326,43.58388Z"/><path class="cls-1" d="M16.85318,43.62863a4.642,4.642,0,1,1-4.63636-4.6477l.02147.00008A4.6496,4.6496,0,0,1,16.85318,43.62863Z"/></g></g></svg>