<?xml version="1.0" encoding="utf-8"?>
<!-- Generator: Adobe Illustrator 24.1.0, SVG Export Plug-In . SVG Version: 6.00 Build 0)  -->
<svg version="1.1" id="Layer_1" xmlns="http://www.w3.org/2000/svg" xmlns:xlink="http://www.w3.org/1999/xlink" x="0px" y="0px"
	 viewBox="0 0 60 19.37543" style="enable-background:new 0 0 60 19.37543;" xml:space="preserve">
<style type="text/css">
	.st0{fill:#1C3378;}
</style>
<path class="st0" d="M31.03055,6.19424c-0.03424,2.69894,2.40526,4.20515,4.24299,5.10059
	c1.88818,0.91886,2.52238,1.50802,2.51516,2.32959c-0.0144,1.25758-1.50621,1.8125-2.90253,1.83413
	c-2.43589,0.03784-3.85202-0.65762-4.97808-1.18371l-0.87742,4.10606c1.12967,0.52069,3.22144,0.97472,5.39068,0.99453
	c5.09159,0,8.42292-2.51336,8.44093-6.41043c0.01981-4.94565-6.84103-5.21951-6.79418-7.43019
	c0.01622-0.67023,0.65582-1.3855,2.05753-1.56747c0.69365-0.09189,2.60885-0.16215,4.7799,0.83779l0.8522-3.97273
	C42.59023,0.40718,41.08942,0,39.22107,0c-4.79251,0-8.16347,2.54759-8.1905,6.19423"/>
<path class="st0" d="M56.08675,0.34218h-4.13976c-0.93012,0-1.71446,0.54217-2.06385,1.3747l-7.27351,17.36627h5.08796
	l1.01325-2.7976h6.21687l0.58795,2.7976H60L56.08675,0.34218z M50.10482,12.44219l2.55301-7.03735l1.46867,7.03735H50.10482z"/>
<polyline class="st0" points="24.86158,0.34232 20.851,19.08355 25.69936,19.08355 29.70812,0.34232 24.86156,0.34232 "/>
<path class="st0" d="M17.68902,0.34232l-5.04655,12.75599l-2.04131-10.8462c-0.23962-1.21074-1.18551-1.9098-2.2359-1.9098H0.1153
	L0,0.88643c1.6936,0.36755,3.61779,0.9603,4.7835,1.5945c0.71346,0.38736,0.91707,0.72608,1.15128,1.64675L9.8012,19.08354h5.12403
	l7.85538-18.74122L17.68902,0.34232"/>
</svg>
