<?xml version="1.0" encoding="utf-8"?>
<!-- Generator: Adobe Illustrator 24.1.0, SVG Export Plug-In . SVG Version: 6.00 Build 0)  -->
<svg version="1.1" id="Layer_1" xmlns="http://www.w3.org/2000/svg" xmlns:xlink="http://www.w3.org/1999/xlink" x="0px" y="0px"
	 viewBox="0 0 60 65" style="enable-background:new 0 0 60 65;" xml:space="preserve">
<style type="text/css">
	.st0{fill:#1C3378;}
	.st1{fill:#FFFFFF;}
</style>
<path id="path8681" class="st0" d="M60,0H0v65h60V0z"/>
<path id="path8683" class="st1" d="M58.5,42.2h-57V1.5h57V42.2z"/>
<path id="path8685" class="st0" d="M44.4,8.9L33.2,35.6h-7.3l-5.5-21.3c-0.3-1.3-0.6-1.8-1.6-2.3c-1.7-0.9-4.4-1.7-6.8-2.3l0.2-0.8
	h11.7c1.5,0,2.8,1,3.2,2.7L30,27.1l7.2-18.2H44.4"/>
<path id="path8687" class="st1" d="M17.4,52.6c0.3,0.1,0.6,0.1,1.1,0.1c1.6,0,2.6-0.8,2.6-2.3c0-1.4-0.9-2.1-2.4-2.1
	c-0.6,0-1,0.1-1.3,0.1V52.6z M15.2,46.9c0.8-0.1,1.9-0.3,3.3-0.3c1.6,0,2.7,0.3,3.5,1c0.7,0.6,1.2,1.6,1.2,2.7c0,1.2-0.4,2.1-1,2.8
	c-0.9,0.9-2.2,1.3-3.8,1.3c-0.4,0-0.8,0-1.1-0.1v4.7h-2.2L15.2,46.9z"/>
<path id="path8689" class="st1" d="M31.4,53.9l-0.9-3.1c-0.2-0.8-0.4-1.6-0.6-2.3h0c-0.2,0.7-0.4,1.6-0.6,2.3l-0.9,3.1H31.4z
	 M28,55.6l-1,3.5h-2.2l3.8-12.4h2.8l3.9,12.4h-2.3l-1.1-3.5H28z"/>
<path id="path8691" class="st1" d="M39.7,59.1v-5.2L36,46.7h2.5l1.4,3.2c0.4,0.9,0.7,1.6,1,2.5h0c0.3-0.8,0.6-1.6,1-2.5l1.4-3.2h2.5
	l-4,7.2v5.2H39.7z"/>
</svg>
