<svg id="Layer_1" data-name="Layer 1" xmlns="http://www.w3.org/2000/svg" xmlns:xlink="http://www.w3.org/1999/xlink" viewBox="0 0 48.89094 48.89094"><defs><style>.cls-1{fill:none;}.cls-2{clip-path:url(#clip-path);}.cls-3{fill:url(#linear-gradient);}.cls-4{clip-path:url(#clip-path-2);}.cls-5{fill:url(#linear-gradient-2);}.cls-6{fill:url(#linear-gradient-3);}.cls-7{fill:url(#linear-gradient-4);}.cls-8{fill:url(#linear-gradient-5);}.cls-9{fill:url(#linear-gradient-6);}.cls-10{fill:url(#linear-gradient-7);}.cls-11{opacity:0.33;isolation:isolate;}.cls-12{fill:#fff;}.cls-13{fill:#24387d;}</style><clipPath id="clip-path"><rect class="cls-1" width="48.89094" height="48.89094" rx="5.43214"/></clipPath><linearGradient id="linear-gradient" x1="39.84683" y1="-647.81509" x2="-23.7245" y2="-653.94621" gradientTransform="matrix(1, 0, 0, -1, 0, -624.35158)" gradientUnits="userSpaceOnUse"><stop offset="0.002" stop-color="#83d0f5"/><stop offset="0.467" stop-color="#0a98d5"/><stop offset="1" stop-color="#24387d"/></linearGradient><clipPath id="clip-path-2"><rect class="cls-1" x="-17.89935" y="-2.71607" width="83.29632" height="54.32308"/></clipPath><linearGradient id="linear-gradient-2" x1="54.21769" y1="-618.72978" x2="68.90991" y2="-645.77257" gradientTransform="matrix(1, 0, 0, -1, 0, -624.35158)" gradientUnits="userSpaceOnUse"><stop offset="0" stop-color="#0a98d5"/><stop offset="1" stop-color="#24387d"/></linearGradient><linearGradient id="linear-gradient-3" x1="26.995" y1="-637.11631" x2="23.88084" y2="-622.50354" gradientTransform="matrix(1, 0, 0, -1, 0, -624.35158)" gradientUnits="userSpaceOnUse"><stop offset="0" stop-color="#e3157f"/><stop offset="0.005" stop-color="#e3157f"/><stop offset="1" stop-color="#6e237e"/></linearGradient><linearGradient id="linear-gradient-4" x1="12.82548" y1="-652.38881" x2="-6.49846" y2="-621.08745" gradientTransform="matrix(1, 0, 0, -1, 0, -624.35158)" gradientUnits="userSpaceOnUse"><stop offset="0" stop-color="#fabf09"/><stop offset="0.47" stop-color="#ee890a"/><stop offset="1" stop-color="#e74519"/></linearGradient><linearGradient id="linear-gradient-5" x1="24.04788" y1="-636.50052" x2="26.16935" y2="-620.91112" gradientTransform="matrix(1, 0, 0, -1, 0, -624.35158)" gradientUnits="userSpaceOnUse"><stop offset="0" stop-color="#98c12c"/><stop offset="0.998" stop-color="#0c863b"/><stop offset="1" stop-color="#0c863b"/></linearGradient><linearGradient id="linear-gradient-6" x1="15.44099" y1="-662.99815" x2="19.487" y2="-682.16235" xlink:href="#linear-gradient-5"/><linearGradient id="linear-gradient-7" x1="-8.08571" y1="-668.69079" x2="-15.59156" y2="-678.11314" gradientTransform="matrix(1, 0, 0, -1, 0, -624.35158)" gradientUnits="userSpaceOnUse"><stop offset="0" stop-color="#ee890a"/><stop offset="1" stop-color="#e74519"/></linearGradient></defs><title>Payment methods</title><g id="Laag_1" data-name="Laag 1"><g class="cls-2"><path class="cls-3" d="M-18.84387-4.14616H65.397V54.26941H-18.84387Z"/><g class="cls-4"><path class="cls-5" d="M97.77047-2.67634l-33.25,57.58811a10.39435,10.39435,0,0,1-18.00458,0L23.67844,15.38571l10.46112-18.062Z"/><path class="cls-6" d="M34.13914-2.67677,23.67887,15.38571,13.26931-2.67677Z"/><path class="cls-7" d="M13.26931-2.67634,23.67887,15.38571,13.24057,33.438a9.51787,9.51787,0,0,1-16.48109,0L-24.09091-2.67634Z"/></g><path class="cls-8" d="M23.62731,15.42585l-.02536.04438-.02577-.04142L23.602,15.384Z"/><g class="cls-4"><path class="cls-9" d="M2.06188,82.70974H44.78281A6.26,6.26,0,0,0,50.204,73.3195L28.8435,36.3223a6.26,6.26,0,0,0-10.84273,0L-3.35969,73.3195a6.26,6.26,0,0,0,5.42157,9.39024Z"/><path class="cls-10" d="M-55.39607,84.15589H-1.31979a7.92381,7.92381,0,0,0,7.92406-7.92356,7.92382,7.92382,0,0,0-1.06183-3.96257L-21.4957,25.43859a7.9238,7.9238,0,0,0-10.82411-2.90035,7.92387,7.92387,0,0,0-2.90035,2.90035L-62.25829,72.26976A7.9238,7.9238,0,0,0-59.358,83.09388a7.9238,7.9238,0,0,0,3.96234,1.06159Z"/></g></g><image class="cls-11" width="599" height="559" transform="scale(0.08162 0.08746)" xlink:href="Payment%20methods1.png"/><path class="cls-12" d="M38.64451,8.49728H8.5594a4.40859,4.40859,0,0,0-3.81822,6.61289l15.043,26.05474a4.40859,4.40859,0,0,0,7.63559,0l15.043-26.05474a4.4086,4.4086,0,0,0-3.81821-6.61289Z"/><path class="cls-13" d="M40.05727,13.93491Q37.26512,18.77963,34.462,23.61a1.77323,1.77323,0,0,1-3.11585-.02747Q28.57471,18.7623,25.8147,13.9404a1.77958,1.77958,0,0,1,3.02318-1.8783q.02387.03842.04577.078c1.30457,2.24867,2.59013,4.50326,3.88625,6.75827.03888.06635.08326.1327.1551.24934.46824-.80633.90563-1.56532,1.346-2.32432.9031-1.55644,1.79775-3.11585,2.70635-4.6668a1.77874,1.77874,0,1,1,3.12665,1.697q-.02231.04107-.04672.08093M30.77268,29.98368c-1.20738,2.11048-2.42912,4.21-3.645,6.315q-.964,1.67055-1.92791,3.33518a1.788,1.788,0,0,1-3.227.00845Q19.22295,34.86348,16.4887,30.08a1.78339,1.78339,0,0,1,.194-2.14936,1.70225,1.70225,0,0,1,2.05512-.40443,1.98871,1.98871,0,0,1,.77548.69814c1.30162,2.21317,2.57069,4.44578,3.84991,6.67248.06973.11621.13862.22989.23032.38752.382-.65926.73956-1.27119,1.09412-1.88607.98593-1.70056,1.96384-3.407,2.96075-5.10209a1.76647,1.76647,0,0,1,2.90835-.30427,1.73688,1.73688,0,0,1,.216,1.9913m-18.087-6.30651Q11.02783,20.78489,9.36742,17.893c-.73956-1.28471-1.48461-2.56731-2.21318-3.85837a1.77747,1.77747,0,0,1,3.05911-1.81093l.00477.00811q1.944,3.36519,3.87484,6.73333c.04691.08579.09974.169.17454.29625.67827-1.17442,1.32655-2.29347,1.97482-3.41252.70321-1.21287,1.39882-2.43166,2.11048-3.642a1.78018,1.78018,0,1,1,3.06345,1.81423q-2.56352,4.44156-5.13505,8.87973c-.1551.26329-.3047.53206-.46275.79534a1.78043,1.78043,0,0,1-3.13276-.01944"/></g></svg>