<svg xmlns="http://www.w3.org/2000/svg" viewBox="0 0 24.05 16.91"><defs><style>.cls-1{fill:#3fa9f5;}</style></defs><title>Community</title><g id="Layer_2" data-name="Layer 2"><g id="Layer_1-2" data-name="Layer 1"><path class="cls-1" d="M12,0a4.21,4.21,0,1,0,4.21,4.21A4.2,4.2,0,0,0,12,0Zm0,7.57a3.36,3.36,0,1,1,3.36-3.36A3.37,3.37,0,0,1,12,7.57Z"/><path class="cls-1" d="M3.54,1.2a3,3,0,1,0,3,3A3,3,0,0,0,3.54,1.2Zm0,5.17A2.16,2.16,0,1,1,5.7,4.22,2.16,2.16,0,0,1,3.54,6.37Z"/><path class="cls-1" d="M20.51,1.2a3,3,0,1,0,3,3A3,3,0,0,0,20.51,1.2Zm0,5.18a2.17,2.17,0,1,1,2.17-2.16A2.16,2.16,0,0,1,20.51,6.38Z"/><path class="cls-1" d="M15,9.24c-1.27,0-1.31.44-3,.45h0c-1.66,0-1.71-.45-3-.45a4,4,0,0,0-4.18,3.67v2.5a1.38,1.38,0,0,0,1.52,1.48l5.66,0,5.66,0a1.36,1.36,0,0,0,1.52-1.48v-2.5A4,4,0,0,0,15,9.24Zm3.33,6.29a.52.52,0,0,1-.55.53H6.23a.52.52,0,0,1-.55-.53V13.79a4.26,4.26,0,0,1,.53-2.13,2.74,2.74,0,0,1,2.63-1.58c.68,0,1.74.45,3.15.46h0c1.41,0,2.46-.5,3.15-.46a3.13,3.13,0,0,1,3.16,3.07Z"/><path class="cls-1" d="M23.56,12.08c-.41,0-.37-.62-.37-.62s.21-2.22-2.68-2.11a3.25,3.25,0,0,0-1.6.27,3.79,3.79,0,0,0-.78-.57,3.19,3.19,0,0,1,1.47-.57h1.82A2.92,2.92,0,0,1,24,11.21C24,11.5,24.13,12.08,23.56,12.08Z"/><path class="cls-1" d="M.49,12.08c.41,0,.37-.62.37-.62S.65,9.24,3.54,9.35a3.25,3.25,0,0,1,1.6.27,3.79,3.79,0,0,1,.78-.57,3.19,3.19,0,0,0-1.47-.57H2.63A2.92,2.92,0,0,0,0,11.21C0,11.5-.08,12.08.49,12.08Z"/></g></g></svg>