<svg xmlns="http://www.w3.org/2000/svg" viewBox="0 0 16.9 16.9"><defs><style>.cls-1{fill:#3fa9f5;}</style></defs><title>FAQ</title><g id="Layer_2" data-name="Layer 2"><g id="Layer_1-2" data-name="Layer 1"><path class="cls-1" d="M8.45,16.9A8.45,8.45,0,1,1,16.9,8.45,8.46,8.46,0,0,1,8.45,16.9ZM8.45,1a7.49,7.49,0,1,0,7.49,7.49A7.5,7.5,0,0,0,8.45,1Z"/><path class="cls-1" d="M8.46,4.13A3.29,3.29,0,0,0,5.55,5.67a.42.42,0,0,0,.09.56l.73.55a.41.41,0,0,0,.56-.07,1.64,1.64,0,0,1,1.4-.84c.52,0,1.16.34,1.16.84s-.31.58-.83.86-1.39.76-1.39,1.8v.17a.4.4,0,0,0,.41.4H8.9a.4.4,0,0,0,.41-.4v-.1c0-.72,2.11-.75,2.11-2.71A2.9,2.9,0,0,0,8.46,4.13Zm-.17,6.31a1.17,1.17,0,1,0,1.17,1.17A1.17,1.17,0,0,0,8.29,10.44Z"/></g></g></svg>