<svg xmlns="http://www.w3.org/2000/svg" viewBox="0 0 12.97998 16.98999"><defs><style>.cls-1{fill:#3fa9f5;}</style></defs><g id="Layer_2" data-name="Layer 2"><g id="Layer_1-2" data-name="Layer 1"><g id="Reports"><path class="cls-1" d="M12.61987,3.43,9.55994.36a1.24283,1.24283,0,0,0-.87-.36H1.23A1.22906,1.22906,0,0,0,0,1.23V15.76a1.22906,1.22906,0,0,0,1.23,1.23H5.08984a1.81694,1.81694,0,0,1-.17993-.77v-.24H1.27a.27747.27747,0,0,1-.28-.27V1.28A.27943.27943,0,0,1,1.27,1H8.01V4.51a.478.478,0,0,0,.47.48h3.51V7.91h.23a1.77055,1.77055,0,0,1,.76.18V4.29A1.21981,1.21981,0,0,0,12.61987,3.43ZM8.97,4.01V1.12l2.88989,2.89Z"/><rect class="cls-1" x="1.9815" y="2.00678" width="5.00554" height="1.00284" rx="0.48011"/><rect class="cls-1" x="1.9815" y="6.01621" width="5.45809" height="1.00284" rx="0.50134"/><rect class="cls-1" x="1.9815" y="4.01246" width="4.08104" height="1.00284" rx="0.48011"/><path class="cls-1" d="M5.76166,8.02387a1.84844,1.84844,0,0,0-.84986.999H2.42171a.436.436,0,0,1-.4385-.4385V8.45784a.43892.43892,0,0,1,.4385-.4385H5.70289A.25717.25717,0,0,1,5.76166,8.02387Z"/></g><path class="cls-1" d="M12.23,8.92h-5.55a.78676.78676,0,0,0-.76.76v6.55a.78676.78676,0,0,0,.76.76H12.23a.778.778,0,0,0,.75-.76V9.68A.778.778,0,0,0,12.23,8.92Zm-4.29,6.86a.21514.21514,0,0,1-.2.2H7.12988a.215.215,0,0,1-.2-.2v-.61a.21509.21509,0,0,1,.2-.2H7.74a.21519.21519,0,0,1,.2.2Zm0-2.02a.22484.22484,0,0,1-.2.21H7.12988a.22474.22474,0,0,1-.2-.21v-.6a.21509.21509,0,0,1,.2-.2H7.74a.21519.21519,0,0,1,.2.2Zm2.01,2.02a.20742.20742,0,0,1-.19995.2H9.1499a.215.215,0,0,1-.2-.2v-.61a.21509.21509,0,0,1,.2-.2H9.75a.20747.20747,0,0,1,.19995.2Zm0-2.02a.21652.21652,0,0,1-.19995.21H9.1499a.22474.22474,0,0,1-.2-.21v-.6a.21509.21509,0,0,1,.2-.2H9.75a.20747.20747,0,0,1,.19995.2Zm2.02,2.02a.21514.21514,0,0,1-.19995.2h-.6001a.20734.20734,0,0,1-.19995-.2V13.16a.20738.20738,0,0,1,.19995-.2H11.77a.21519.21519,0,0,1,.19995.2Zm0-4.03a.21518.21518,0,0,1-.19995.2H7.12988a.21508.21508,0,0,1-.2-.2V10.13a.215.215,0,0,1,.2-.2H11.77a.21514.21514,0,0,1,.19995.2Z"/></g></g></svg>