<svg xmlns="http://www.w3.org/2000/svg" viewBox="0 0 50.05233 22.91992"><defs><style>.cls-1{fill:#ce0538;}.cls-2{fill:#005faa;}</style></defs><g id="Layer_2" data-name="Layer 2"><g id="Layer_14" data-name="Layer 14"><path class="cls-1" d="M17.73154,14.25365H13.99071c.01247-.04988.01247-.09975.02494-.13716A98.8534,98.8534,0,0,1,17.80636.25047.18022.18022,0,0,0,17.8313.16319h9.47677c-.01247.04987-.02494.08728-.03741.13716-.22445.823-.4489,1.68337-.68582,2.5687-.01247.02494-.01247.06235-.02493.08729H20.62445c-.2868.94768-.56112,1.92029-.83545,2.89291h5.499l-.03741.14963c-.24938.91027-.4863,1.833-.73569,2.74328-.01247.02494-.01247.06235-.02494.08729H19.00343c-.47384,1.84547-.91027,3.65354-1.27189,5.33692a.10543.10543,0,0,1,0,.08728"/><path class="cls-2" d="M13.36724,14.25365H9.60147c0-.03741-.01247-.07481-.01247-.11222-.1247-.84792-.22445-1.72079-.31174-2.60612-1.38411-.01246-2.75574-.01246-4.11491-.02493-.46137.8978-.92274,1.78313-1.38411,2.66846-.01247.02493-.02494.0374-.02494.06234H0c.03741-.06234.07482-.12469.11222-.17457C2.76822,9.5402,5.14988,4.73947,8.41687.22553c.01247-.01247.02494-.03741.03741-.04988h3.94034V.27541a75.15726,75.15726,0,0,0,.93521,13.866c.02494.02494.02494.06234.03741.11222m-6.746-5.58631c.81052,0,1.6335,0,2.45648.01247-.07481-1.37164-.12469-2.76821-.12469-4.12738C8.13007,5.9116,7.357,7.29571,6.62127,8.66734"/><path class="cls-2" d="M35.99927,14.25365H32.23351v-.11222c.02494-.83545.0374-1.69585.02494-2.58118-1.42152,0-2.83057,0-4.25208.01247-.54866.8978-1.08484,1.78313-1.621,2.63105-.01247.01247-.02494.03741-.03741.04988H22.58216a1.13835,1.13835,0,0,0,.09976-.1621c2.70586-4.3269,5.86063-9.56406,8.367-13.87849a.09454.09454,0,0,0,.02494-.04988h3.94034c0,.03741.01247.07482.01247.09976a82.30108,82.30108,0,0,1,.94768,13.866.22488.22488,0,0,1,.02493.12469M29.68974,8.69228H32.246c-.0374-1.38411-.09975-2.79315-.17457-4.17726-.76064,1.37164-1.55868,2.78069-2.38166,4.17726"/><path class="cls-2" d="M50.05233.93629c-.27433,1.035-.52372,2.06993-.77311,3.11736h-.28679a5.00256,5.00256,0,0,0-1.54621-1.07237,4.46632,4.46632,0,0,0-3.76577-.1621c-.72323.36161-1.30929,1.18459-.78558,1.90782.4489.62347,3.16724.84792,4.46406,1.73325a2.91114,2.91114,0,0,1,.97262,3.39169,5.80134,5.80134,0,0,1-2.58118,3.31687,8.68933,8.68933,0,0,1-4.82567,1.27188,10.28333,10.28333,0,0,1-4.58876-1.01c.38656-1.0599.76064-2.15721,1.09731-3.27946h.29927a4.67865,4.67865,0,0,0,1.833,1.35916c1.222.47384,4.35183,1.0225,5.08753-1.035.22445-.63594-.19951-1.10978-.87286-1.33423-1.434-.48631-3.94035-.67335-4.62617-2.35672a4.21453,4.21453,0,0,1-.11222-2.469,4.72767,4.72767,0,0,1,2.29438-3.10489A9.14839,9.14839,0,0,1,48.04474.25047a6.76317,6.76317,0,0,1,2.00759.68582"/><path class="cls-2" d="M4.676,20.72529l-.06235.212c-.31173,1.1846-.02494,1.9577,1.78313,1.9577a2.72133,2.72133,0,0,0,2.843-1.93276,1.2507,1.2507,0,0,0-.91026-1.77066l-.88533-.32421c-.48631-.17457-.58607-.424-.49878-.72322a.92532.92532,0,0,1,.93521-.66089c.52371,0,.62347.31174.46136.93521H9.78851l.06235-.24939c.29926-1.10978-.212-1.75819-1.67091-1.75819a2.60689,2.60689,0,0,0-2.80562,1.85795,1.275,1.275,0,0,0,.87286,1.72078l1.02249.399a.5399.5399,0,0,1,.399.69829.9691.9691,0,0,1-1.01.7357c-.54866,0-.74817-.36161-.59853-.8978l.04988-.212H4.676Zm5.51149-1.0599c-.57359,2.14474-.34914,3.27946,1.59609,3.24205,1.84548,0,2.76822-1.13472,3.34181-3.24205.5736-2.14474.34915-3.27946-1.59609-3.24206-1.84548-.01246-2.76821,1.12225-3.34181,3.24206m1.60856,0c.33667-1.25942.64841-2.16968,1.44645-2.16968.64842,0,.69829.63594.27433,2.16968-.41149,1.53374-.78557,2.16968-1.44645,2.16968-.78558,0-.611-.91027-.27433-2.16968m3.49144,3.08h1.60856l1.37164-5.08753h.93521l.2868-1.07237h-.93521l.08728-.2868c.09976-.36161.29927-.49878.74817-.49878a2.60632,2.60632,0,0,1,.31174.01247l.29926-1.12225c-.2868-.02494-.56112-.03741-.84792-.03741a1.86374,1.86374,0,0,0-2.06993,1.48387l-.13716.4489h-.81052l-.28679,1.07237h.81051ZM20.612,16.573h-.81051l-.2868,1.07237h.81052l-.94768,3.52885c-.33668,1.247-.19951,1.6335,1.0599,1.6335a10.09362,10.09362,0,0,0,1.07237-.07482l.29927-1.09731a3.29381,3.29381,0,0,1-.36161.02494c-.46137,0-.52372-.19951-.38656-.67335l.8978-3.34181h.93521l.2868-1.07237h-.93521l.36161-1.30929H20.99854Zm2.34426,6.17237h1.85795l1.9577-4.37677h.02494l-.34915,4.37677h1.833L31.28582,16.573H29.75208l-1.93276,4.37677h-.02494l.34915-4.37677H26.3978l-1.9577,4.38924h-.02494l.43643-4.37677H23.243Zm9.87579-4.277.04988-.17457a.97184.97184,0,0,1,.96015-.798c.53618,0,.67335.2868.53618.76064-.11222.41149-.3242.59853-.83545.72322l-.97261.23692a2.4274,2.4274,0,0,0-2.09487,1.93277c-.22445.823-.07482,1.77066,1.035,1.77066a2.04852,2.04852,0,0,0,1.80807-.798h.02494a2.247,2.247,0,0,0,.02494.64841h1.54621a2.38714,2.38714,0,0,1,.1247-1.19706l.87286-3.24206c.29926-1.10978.14963-1.89535-1.75819-1.89535a2.5301,2.5301,0,0,0-2.70587,1.90782l-.03741.14963H32.832ZM33.68,20.87493a1.30943,1.30943,0,0,1-1.24695.94767c-.43643,0-.49877-.38655-.37408-.86039a1.31418,1.31418,0,0,1,1.17213-.99755,2.71019,2.71019,0,0,0,.7731-.31174Zm2.16968,1.87041H37.4582l.99755-3.70342a1.48261,1.48261,0,0,1,1.48386-1.10978c.16211,0,.33668.01247.49878.02494l.41149-1.50881a2.04659,2.04659,0,0,0-.28679-.02493,2.24755,2.24755,0,0,0-1.70832.98508h-.02494l.22445-.823H37.52054Zm9.20245-2.843.09975-.36161c.51125-1.89536.424-3.12983-1.45893-3.12983-2.16968,0-2.90537,1.53374-3.34181,3.19217-.41149,1.53375-.798,3.30441,1.53374,3.30441a2.79465,2.79465,0,0,0,2.868-2.232H43.30636c-.29927.76063-.62347,1.15965-1.15966,1.15965-.59853,0-.59853-.71075-.41149-1.434l.13717-.49878Zm-2.93032-.93521.06234-.23692c.14964-.57359.51125-1.222,1.15966-1.222.66088,0,.63594.52371.424,1.47139h-1.646Z"/></g></g></svg>