<svg xmlns="http://www.w3.org/2000/svg" viewBox="0 0 20 17"><defs><style>.cls-1{fill:#3fa9f5;}</style></defs><title>API</title><g id="Layer_2" data-name="Layer 2"><g id="Layer_1-2" data-name="Layer 1"><g id="API"><path class="cls-1" d="M19.0998,0H.90026A.90064.90064,0,0,0,0,.88521V16.11485A.88769.88769,0,0,0,.90026,17H19.0998A.88763.88763,0,0,0,20,16.11485V.88521A.89414.89414,0,0,0,19.0998,0ZM5,1H6V2H5ZM3,1H4V2H3ZM1,1H2V2H1ZM19,16H1V5H19ZM19,4H1V3H19Z"/><path class="cls-1" d="M5.398,10.79792h7.62135a.29783.29783,0,0,1,.29783.29783v.3933a.29822.29822,0,0,1-.29822.29822H5.39757a.29815.29815,0,0,1-.29815-.29815v-.39267a.29854.29854,0,0,1,.29854-.29854Z" transform="translate(-4.18332 17.03545) rotate(-74.01684)"/><path class="cls-1" d="M13.70081,11.69767l-.40965.38017-1.32895,1.20055a.29866.29866,0,0,1-.41965-.02l-.2698-.29017a.29955.29955,0,0,1,.02-.42017l1.329-1.21049-1.349-1.4807a.29955.29955,0,0,1,.02-.42017l.28975-.26012a.30122.30122,0,0,1,.42965.02l1.6187,1.78075a1.0591,1.0591,0,0,1,.09995.12A.45835.45835,0,0,1,13.70081,11.69767Z"/><path class="cls-1" d="M4.74176,11.69767l.40964.38017,1.329,1.20055a.29865.29865,0,0,0,.41964-.02l.26981-.29017a.29956.29956,0,0,0-.02-.42017L5.82085,11.33753l1.349-1.4807a.29956.29956,0,0,0-.02-.42017l-.28974-.26012a.30122.30122,0,0,0-.42965.02l-1.6187,1.78075a1.05851,1.05851,0,0,0-.1.12A.45835.45835,0,0,0,4.74176,11.69767Z"/></g></g></g></svg>