<svg xmlns="http://www.w3.org/2000/svg" viewBox="0 0 17 17.00126"><defs><style>.cls-1{fill:#3fa9f5;}</style></defs><title>Banks</title><g id="Layer_2" data-name="Layer 2"><g id="Layer_1-2" data-name="Layer 1"><g id="Banks"><path class="cls-1" d="M16.5,16.00126H16v-1.5a.49511.49511,0,0,0-.5-.5H13.20007v-7h-1v7H10.4v-7h-1v7H7.6v-7h-1v7H4.79993v-7h-1v7H1.5a.50142.50142,0,0,0-.5.5v1.5H.5a.49518.49518,0,0,0-.5.5v.5H17v-.5A.49511.49511,0,0,0,16.5,16.00126Zm-1.5,0H2v-1H15Z"/><path class="cls-1" d="M15.79212,3.56747,9.50043.49738,8.59163.053a.49191.49191,0,0,0-.44429,0L7.2182.50749,1.179,3.44622a.462.462,0,0,0-.25247.31313v1.737a.51315.51315,0,0,0,.50494.50494H15.56985a.5.5,0,0,0,.50494-.50494V4.05219A.48344.48344,0,0,0,15.79212,3.56747Zm-.72721,1.42391H1.9364v-.8079L8.12712,1.16394a.49184.49184,0,0,1,.44429,0l6.4935,3.16094Z"/><circle class="cls-1" cx="8.36944" cy="3.25926" r="1.00995"/></g></g></g></svg>