<svg xmlns="http://www.w3.org/2000/svg" viewBox="0 0 17 17"><defs><style>.cls-1{fill:#3fa9f5;}</style></defs><title>Billing_Suite</title><g id="Layer_2" data-name="Layer 2"><g id="Layer_1-2" data-name="Layer 1"><g id="Billing_Suite"><rect class="cls-1" x="6.01614" y="4.99872" width="4.99294" height="0.99818" rx="0.49909"/><rect class="cls-1" x="6.01614" y="6.99509" width="4.99294" height="0.99818" rx="0.49909"/><rect class="cls-1" x="6.01614" y="8.96387" width="4.99294" height="0.99818" rx="0.49909"/><rect class="cls-1" x="6.01614" y="1.99511" width="4.99294" height="2.00489" rx="0.49946"/><path class="cls-1" d="M16.5,14.01H16V4.5a.5.5,0,0,0-.5-.5H13.01V.5a.5.5,0,0,0-.5-.5h-8a.493.493,0,0,0-.49.5V4H1.51A.51014.51014,0,0,0,1,4.5v9.51H.5a.50142.50142,0,0,0-.5.5v1.99321A.49679.49679,0,0,0,.49678,17H16.50322A.49679.49679,0,0,0,17,16.50322V14.51A.49511.49511,0,0,0,16.5,14.01ZM5.02,1h6.99v9.96H5.02ZM2,5H4.02v6.46a.5.5,0,0,0,.5.5h7.99a.50147.50147,0,0,0,.5-.5V5H15v9.01H2ZM16,16H1v-.99H16Z"/></g></g></g></svg>