<svg xmlns="http://www.w3.org/2000/svg" viewBox="0 0 16.98923 16.99927"><defs><style>.cls-1{fill:#3fa9f5;}</style></defs><g id="Layer_2" data-name="Layer 2"><g id="Layer_1-2" data-name="Layer 1"><path class="cls-1" d="M16.96914,12.614c-.01-.06021-.74258-5.148-.85308-5.93067a1.56615,1.56615,0,0,0-1.54518-1.34472H6.36205a.02659.02659,0,0,1-.03014-.03007V3.18109A.02664.02664,0,0,1,6.36205,3.151H9.03152a.5187.5187,0,0,0,.50175-.51179V.51173A.5139.5139,0,0,0,9.02148,0H2.619a.51869.51869,0,0,0-.50175.51173V2.63916a.50984.50984,0,0,0,.50175.50175H5.29828a.02663.02663,0,0,1,.03013.03013V5.30851a.02659.02659,0,0,1-.03013.03007h-2.89A1.58221,1.58221,0,0,0,.86287,6.6833C.83274,6.92413.05,12.5036.02989,12.614A1.1351,1.1351,0,0,0,0,12.92506v2.49877a1.57165,1.57165,0,0,0,1.57532,1.57544H15.42371a1.56742,1.56742,0,0,0,1.56552-1.56546V12.905A1.32552,1.32552,0,0,0,16.96914,12.614ZM3.16093,2.12742a.02663.02663,0,0,1-.03013-.03013V1.03358a.0266.0266,0,0,1,.03013-.03008H8.49964a.02659.02659,0,0,1,.03013.03008V2.09729a.02663.02663,0,0,1-.03013.03013ZM15.97568,15.44386a.55285.55285,0,0,1-.54193.54193H1.57532a.56949.56949,0,0,1-.57182-.562V13.81819a.02645.02645,0,0,1,.02989-.03008H15.94555a.02662.02662,0,0,1,.03013.03008Zm0-2.65925a.035.035,0,0,1-.02009.01H1.04368a.03413.03413,0,0,1-.02009-.01.03076.03076,0,0,1-.01029-.02009l.85308-5.93067a.57069.57069,0,0,1,.552-.50175H14.57088a.5758.5758,0,0,1,.55173.4917c.05022.27091.85307,5.88051.86312,5.94072A.03109.03109,0,0,1,15.97568,12.78461Z"/><path class="cls-1" d="M4.47558,8.24876V8.7706a.50987.50987,0,0,1-.50175.50175H3.442a.50321.50321,0,0,1-.50176-.50175c0-.21076-.01-.53188-.01-.53188a.512.512,0,0,1,.50175-.5118h.52184A.51827.51827,0,0,1,4.47558,8.24876Z"/><path class="cls-1" d="M7.68674,8.24876V8.7706a.50987.50987,0,0,1-.50175.50175H6.6531a.512.512,0,0,1-.51179-.50175V8.23872a.512.512,0,0,1,.50175-.5118H7.1649A.51827.51827,0,0,1,7.68674,8.24876Z"/><path class="cls-1" d="M10.85772,8.24876V8.7706a.50987.50987,0,0,1-.50175.50175H9.82433a.503.503,0,0,1-.50175-.50175c0-.21076-.01029-.53188-.01029-.53188a.512.512,0,0,1,.50175-.5118h.53188A.51618.51618,0,0,1,10.85772,8.24876Z"/><path class="cls-1" d="M14.06912,8.24876V8.7706a.50987.50987,0,0,1-.50175.50175h-.53188a.50321.50321,0,0,1-.50175-.50175c0-.21076-.01-.53188-.01-.53188a.512.512,0,0,1,.50175-.5118h.52184A.51827.51827,0,0,1,14.06912,8.24876Z"/><path class="cls-1" d="M6.071,10.37618v.53189a.508.508,0,0,1-.4917.50175H5.0376a.512.512,0,0,1-.50175-.5118v-.52184a.50542.50542,0,0,1,.50175-.51179h.52184A.5075.5075,0,0,1,6.071,10.37618Z"/><path class="cls-1" d="M9.24222,10.37618v.53189a.50121.50121,0,0,1-.49171.50175H8.20858a.512.512,0,0,1-.50175-.5118v-.52184a.50542.50542,0,0,1,.50175-.51179h.52184A.50755.50755,0,0,1,9.24222,10.37618Z"/><path class="cls-1" d="M12.45338,10.37618v.53189a.50121.50121,0,0,1-.49171.50175h-.54193a.512.512,0,0,1-.50175-.5118v-.52184a.50542.50542,0,0,1,.50175-.51179h.52184A.50755.50755,0,0,1,12.45338,10.37618Z"/></g></g></svg>