<svg xmlns="http://www.w3.org/2000/svg" viewBox="0 0 18.71206 16.97998"><defs><style>.cls-1{fill:#3fa9f5;}</style></defs><g id="Layer_2" data-name="Layer 2"><g id="Layer_1-2" data-name="Layer 1"><path class="cls-1" d="M12.45482,11.44875a.22217.22217,0,0,0-.08008-.13.20789.20789,0,0,0-.06006-.04c-.02,0-.04993-.01-.07995-.01H12.1848a3.63905,3.63905,0,0,1-.84009.1,2.38818,2.38818,0,0,1-2.26-1.59h2.11011a.22535.22535,0,0,0,.22-.17l.11987-.53a.22.22,0,0,0-.22-.27h-2.49a4.061,4.061,0,0,1,0-.78h2.73a.23255.23255,0,0,0,.21008-.18006l.12-.55a.21839.21839,0,0,0-.21-.27H9.10472a2.31347,2.31347,0,0,1,2.17993-1.39,4.35475,4.35475,0,0,1,.71008.07.0603.0603,0,0,0,.03992.00995.23412.23412,0,0,0,.22009-.17l.22-.82a.22745.22745,0,0,0-.17-.28,5.69614,5.69614,0,0,0-.98-.1A3.95682,3.95682,0,0,0,7.52476,7.02877h-.62a.22182.22182,0,0,0-.22.22v.55a.22418.22418,0,0,0,.22.23h.3999a5.07159,5.07159,0,0,0,0,.78h-.3999a.22183.22183,0,0,0-.22.22v.53a.21557.21557,0,0,0,.22.22h.56006a3.9057,3.9057,0,0,0,3.85986,2.9,4.59317,4.59317,0,0,0,1.13013-.15.22455.22455,0,0,0,.16992-.26Z"/><path class="cls-1" d="M18.71206,8.49a8.37408,8.37408,0,0,1-8.25615,8.49h-.05829a.49471.49471,0,0,1-.48623-.5.48846.48846,0,0,1,.48623-.5h.05829a7.39729,7.39729,0,0,0,7.2837-7.49A7.39729,7.39729,0,0,0,10.45591,1a7.39744,7.39744,0,0,0-7.2837,7.49,1.51777,1.51777,0,0,0,.00973.21L4.654,7.18388a.46121.46121,0,0,1,.68079,0,.49272.49272,0,0,1,0,.7L3.08472,10.22a.48377.48377,0,0,1-.68079,0L.13862,7.87832a.51118.51118,0,0,1,0-.7.47218.47218,0,0,1,.69041,0L2.19975,8.6V8.49A8.37416,8.37416,0,0,1,10.45591,0,8.37408,8.37408,0,0,1,18.71206,8.49Z"/></g></g></svg>