<svg xmlns="http://www.w3.org/2000/svg" viewBox="0 0 24.14894 16.98874"><defs><style>.cls-1{fill:#3fa9f5;}</style></defs><title>Community</title><g id="Layer_2" data-name="Layer 2"><g id="Layer_1-2" data-name="Layer 1"><g id="Community"><path class="cls-1" d="M12.05677,0a4.22734,4.22734,0,1,0,4.22744,4.22737A4.22117,4.22117,0,0,0,12.05677,0Zm0,7.45056A3.22319,3.22319,0,1,1,15.28,4.22737,3.22643,3.22643,0,0,1,12.05677,7.45056Z"/><path class="cls-1" d="M3.55758,1.205a3.02794,3.02794,0,1,0,3.028,3.028A3.02351,3.02351,0,0,0,3.55758,1.205Zm0,5.05176a2.0238,2.0238,0,1,1,2.0238-2.0238A2.02583,2.02583,0,0,1,3.55758,6.25672Z"/><path class="cls-1" d="M20.59807,1.205a3.02794,3.02794,0,1,0,3.028,3.028A3.02352,3.02352,0,0,0,20.59807,1.205Zm0,5.05176a2.0238,2.0238,0,1,1,2.0238-2.0238A2.02583,2.02583,0,0,1,20.59807,6.25672Z"/><path class="cls-1" d="M15.10789,9.27807c-1.28,0-1.32032.44349-3.0036.45358h-.04024c-1.67319-.01009-1.72364-.45358-3.00372-.45358a4.06047,4.06047,0,0,0-4.21307,3.69907V15.497a1.3946,1.3946,0,0,0,1.53207,1.49178c1.25991,0,5.70484-.007,5.70484-.007s4.445.007,5.705.007A1.37015,1.37015,0,0,0,19.3212,15.497V12.97714A4.06061,4.06061,0,0,0,15.10789,9.27807Zm3.19848,6.19362a.50152.50152,0,0,1-.54063.50386H6.34793a.50152.50152,0,0,1-.54063-.50386V13.81028a3.8988,3.8988,0,0,1,.52662-2.03179,2.699,2.699,0,0,1,2.593-1.5065c.67579-.01337,1.7158.42772,3.10918.43845h.04151c1.39351-.01073,2.4347-.47932,3.10918-.43845a3.02391,3.02391,0,0,1,3.1196,2.92687Z"/><path class="cls-1" d="M.48718,12.13388c.51694,0,.51694-.62255.51694-.62255S.64775,9.40852,3.54967,9.519a3.25907,3.25907,0,0,1,1.60657.27107,4.60444,4.60444,0,0,1,.78324-.69873,3.20481,3.20481,0,0,0-1.476-.57229H2.63589A2.92941,2.92941,0,0,0,.00522,11.2603C.00522,11.55147-.08524,12.13388.48718,12.13388Z"/><path class="cls-1" d="M23.66176,12.13388c-.51694,0-.51694-.62255-.51694-.62255s.35637-2.10281-2.54555-1.99231a3.25907,3.25907,0,0,0-1.60657.27107,4.60411,4.60411,0,0,0-.78325-.69873,3.20487,3.20487,0,0,1,1.476-.57229h1.82757a2.92942,2.92942,0,0,1,2.63067,2.74123C24.14372,11.55147,24.23418,12.13388,23.66176,12.13388Z"/></g></g></g></svg>