<svg xmlns="http://www.w3.org/2000/svg" viewBox="0 0 50.05233 19.52369"><defs><style>.cls-1{fill:#31383d;}.cls-2{fill:#ef4c56;}</style></defs><g id="Layer_2" data-name="Layer 2"><g id="Layer_14" data-name="Layer 14"><path class="cls-1" d="M5.55464,19.43846a6.8727,6.8727,0,0,1-3.04-1.30312A6.84167,6.84167,0,0,1,.08652,13.51062,8.79181,8.79181,0,0,1,.54,9.23421,6.33494,6.33494,0,0,1,9.41759,5.88759a6.97345,6.97345,0,0,1,1.49154,1.252c.13278-.15522.08379-.31927.08407-.46538.00386-2.00479.01365-4.00969-.00587-6.01429-.00429-.44.12757-.58941.57573-.57593q1.47347.04431,2.949-.0004c.46247-.01476.57012.16543.56674.58844-.016,2.00466-.007,4.00952-.007,6.01432q0,5.97046-.00024,11.94094c-.00008.72163-.00132.72236-.7406.723q-1.34272.00119-2.68546-.00017c-.64824-.001-.64852-.00251-.6496-.668a10.68327,10.68327,0,0,0-.04315-1.15123,5.62751,5.62751,0,0,1-3.28464,1.90758A6.70808,6.70808,0,0,1,5.55464,19.43846ZM10.99392,12.4a3.56688,3.56688,0,0,0-.113-1.08929A3.38258,3.38258,0,0,0,4.293,11.08431a4.44747,4.44747,0,0,0-.12585,2.08077,3.33284,3.33284,0,0,0,2.13416,2.78865,3.309,3.309,0,0,0,3.50376-.5949A3.78638,3.78638,0,0,0,10.99392,12.4Z"/><path class="cls-1" d="M40.54174,19.43846a8.63506,8.63506,0,0,1-1.55943-.45332,5.90638,5.90638,0,0,1-3.36057-3.46891,8.4827,8.4827,0,0,1,.33676-7.14354,6.27863,6.27863,0,0,1,9.25522-1.93911,4.796,4.796,0,0,1,.6862.71231.62389.62389,0,0,0,.09256-.47976c.0039-1.62453-.00688-3.24915.00776-4.87356.00482-.5361-.23384-1.22161.11184-1.57023.36365-.36675,1.05934-.10974,1.60848-.12249.77669-.018,1.55446.01072,2.33177.01947V19.35065c-1.15719-.00011-2.31439.00215-3.47157-.00139-.5418-.00165-.58-.04157-.5848-.56741-.0037-.40254-.00074-.80513-.00074-1.2077a5.92723,5.92723,0,0,1-3.34,1.86431A6.58544,6.58544,0,0,1,40.54174,19.43846Zm5.44811-7.06328a3.99117,3.99117,0,0,0-.1869-1.39953,3.36918,3.36918,0,0,0-6.31069-.38727,4.414,4.414,0,0,0-.09471,3.37945,3.114,3.114,0,0,0,2.8072,2.19327,3.194,3.194,0,0,0,3.35252-1.76669A3.89507,3.89507,0,0,0,45.98985,12.37518Z"/><path class="cls-2" d="M26.03677,6.909c-.28841.341-.49517.57884-.69473.82255q-1.2105,1.47831-2.415,2.96146c-.07884.09733-.23865.20078-.17914.32547.07312.15317.2641.07574.40139.07592q4.70925.00627,9.41851.00343c.708.0001.7086.00112.70892.69695.00038.81924-.01,1.63866.004,2.45766.00575.33759-.11741.46523-.46167.46471q-7.04186-.01071-14.08373-.00832a1.67679,1.67679,0,0,1-1.57261-1.01548,1.66205,1.66205,0,0,1,.21644-1.89225c1.09814-1.37133,2.212-2.73015,3.32319-4.09106Q23.53581,4.23976,26.37488.774A1.81266,1.81266,0,0,1,29.665,1.941c.00308,2.37-.00656,4.74.00846,7.10987.00262.41321-.1209.57539-.54959.56294-.85017-.02468-1.7019-.02122-2.55232-.00113-.39357.0093-.55683-.11652-.54165-.527C26.0551,8.40473,26.03677,7.7222,26.03677,6.909Z"/><path class="cls-2" d="M27.86311,16.25988c.455-.00009.91011.00833,1.36477-.00313.28949-.0073.43716.09217.4336.40156-.00875.76089-.00663,1.522-.00156,2.28292a.34752.34752,0,0,1-.39946.4015q-1.40882-.0015-2.81763.001c-.29946.00092-.41464-.14558-.41153-.43626q.012-1.1194-.00023-2.239c-.00368-.302.12561-.41926.42325-.41167C26.92364,16.26874,27.39349,16.26,27.86311,16.25988Z"/></g></g></svg>