<svg xmlns="http://www.w3.org/2000/svg" viewBox="0 0 17.00762 16.98828"><defs><style>.cls-1{fill:#3fa9f5;}</style></defs><title>External link</title><g id="Layer_2" data-name="Layer 2"><g id="Layer_1-2" data-name="Layer 1"><g id="External_link"><path class="cls-1" d="M14.16442,10.57362v4.716a1.70293,1.70293,0,0,1-1.69856,1.69863H1.68857A1.6944,1.6944,0,0,1,0,15.28965V4.53261A1.69439,1.69439,0,0,1,1.68857,2.834H6.52082c.37189,0,.75383,0,.603.191L6.561,3.58781a.98126.98126,0,0,1-.603.25128H1.89966A.9073.9073,0,0,0,.995,4.74371V15.01826a.96515.96515,0,0,0,.96492.96492h10.2345a.96514.96514,0,0,0,.96486-.96492V11.13648a.93222.93222,0,0,1,.25127-.593l.56292-.57292C14.15442,9.78961,14.16442,10.03089,14.16442,10.57362Z"/><path class="cls-1" d="M9.61991.002H16.7048a.27678.27678,0,0,1,.22471.075.25943.25943,0,0,1,.075.22471V7.3834s-.03753.33706-.49763.33709-.50391-.31483-.50391-.31483L15.99148,1.7145S7.1354,10.58673,6.97489,10.74724c-.16586.16587-.48079-.23487-.48079-.23487s-.383-.32523-.21711-.49109c.16051-.16051,9.01578-9.01145,9.01578-9.01145L9.5807,1.00868S9.28279.95974,9.28818.505C9.28821.04489,9.61991.002,9.61991.002Z"/></g></g></g></svg>