<svg xmlns="http://www.w3.org/2000/svg" viewBox="0 0 80 35.65591"><defs><style>.cls-1{fill:#f66135;}.cls-2{fill:#fff;}</style></defs><g id="Layer_2" data-name="Layer 2"><g id="Layer_1-2" data-name="Layer 1"><path class="cls-1" d="M76.21505,35.65591H3.785A3.7632,3.7632,0,0,1,0,31.871V3.78494A3.79048,3.79048,0,0,1,3.785,0h72.4301A3.79048,3.79048,0,0,1,80,3.78494V31.871A3.79049,3.79049,0,0,1,76.21505,35.65591Z"/><path class="cls-2" d="M22.67,28.59676v-21.5h-4v8.30005a4.55452,4.55452,0,0,0-3.13995-1.16,6.76836,6.76836,0,0,0-5.25,2.15,7.38627,7.38627,0,0,0-1.94,5.03,7.2445,7.2445,0,0,0,1.94,5.03,6.76853,6.76853,0,0,0,5.25,2.15,5.40516,5.40516,0,0,0,3.13995-1.16v1.16Zm-4-5.85c-.18,1.42-1.21,2.28-3.01,2.58-2.5-.08-3.79-1.5-3.87994-4.17a3.814,3.814,0,0,1,3.87994-3.57,3.12265,3.12265,0,0,1,3.01,2.84Z"/><path class="cls-2" d="M38.88172,28.598l-.043-14.36559h-4V23.4797a2.76053,2.76053,0,0,1-2.15054,1.67742,2.81627,2.81627,0,0,1-2.15054-.81721,3.32989,3.32989,0,0,1-.73118-2.23656v-7.871h-4v8.90323a5.707,5.707,0,0,0,1.41936,3.828,5.31438,5.31438,0,0,0,4.172,1.63441,4.9577,4.9577,0,0,0,3.44086-1.29033V28.598Z"/><path class="cls-2" d="M55.96,28.59676v-21.5h-4v8.30005a4.5548,4.5548,0,0,0-3.14-1.16,6.76836,6.76836,0,0,0-5.25,2.15,7.38657,7.38657,0,0,0-1.94,5.03,7.24479,7.24479,0,0,0,1.94,5.03,6.76853,6.76853,0,0,0,5.25,2.15,5.40549,5.40549,0,0,0,3.14-1.16v1.16Zm-4-5.85c-.18,1.42-1.21,2.28-3.01,2.58-2.5-.08-3.79-1.5-3.87-4.17a3.79815,3.79815,0,0,1,3.87-3.57,3.12275,3.12275,0,0,1,3.01,2.84Z"/><path class="cls-2" d="M71.74,28.59676v-8.6a5.73,5.73,0,0,0-1.5-4.3,5.68719,5.68719,0,0,0-4.09-1.42,11.40482,11.40482,0,0,0-6.32,1.72l1.59,2.45a7.89634,7.89634,0,0,1,4-.86005c1.5.09,2.28.69,2.28,1.72v.43a7.33476,7.33476,0,0,0-3.14-.86,5.58883,5.58883,0,0,0-4.39,1.59,5.32041,5.32041,0,0,0-1.37,3.57,4.20369,4.20369,0,0,0,1.42,3.36,6.50861,6.50861,0,0,0,4.3,1.2,5.98077,5.98077,0,0,0,3.13995-1.16v1.16Zm-4.13-4.26c-.38.73-1.29,1.12006-2.71,1.12006-1.72-.08-2.62-.73-2.71-1.85.09-1.16.99-1.85,2.71-2.02,1.47,0,2.37.34,2.71,1.12006Z"/></g></g></svg>