<svg xmlns="http://www.w3.org/2000/svg" viewBox="0 0 50.12166 38.09955"><defs><style>.cls-1{fill:#606c94;}.cls-1,.cls-2{fill-rule:evenodd;}.cls-2{fill:#344064;}</style></defs><g id="Layer_2" data-name="Layer 2"><g id="Layer_14" data-name="Layer 14"><g id="Page-1"><g id="keeping-e-boekhouden-Insta"><g id="e-boekhouden-love-keeping"><g id="eboekhouden"><g id="Group"><path id="Path" class="cls-1" d="M25.421,37.25693a20.16667,20.16667,0,0,1-5.78911.84262C8.79656,38.09955,0,29.5715,0,19.06691S8.79656.03427,19.63189.03427a20.1182,20.1182,0,0,1,6.74582,1.15536,19.13235,19.13235,0,0,0-13.84279,18.19A19.09067,19.09067,0,0,0,25.421,37.25693Z"/></g><g id="Group-2" data-name="Group"><path id="Shape" class="cls-2" d="M31.12342,0A19.03267,19.03267,0,1,1,12.12517,19.03264,19.02423,19.02423,0,0,1,31.12342,0Zm6.55573,23.72378a7.81336,7.81336,0,0,1-1.29331,1.519,6.99,6.99,0,0,1-2.18524,1.251,7.68151,7.68151,0,0,1-2.67581.49146,6.39427,6.39427,0,0,1-4.77186-2.01049,7.30779,7.30779,0,0,1-2.00686-5.13792H40.93472A9.7585,9.7585,0,0,0,38.97246,13.716a8.7979,8.7979,0,0,0-7.31388-3.48485,8.54018,8.54018,0,0,0-7.0909,3.3955A9.714,9.714,0,0,0,22.65,17.82635H17.343a12.209,12.209,0,0,0-.13379,1.83178v.17871H22.427a9.9537,9.9537,0,0,0,2.45282,6.38889,8.53489,8.53489,0,0,0,6.86791,2.85936,9.55632,9.55632,0,0,0,3.52315-.58081,9.23309,9.23309,0,0,0,2.8096-1.74242,10.03454,10.03454,0,0,0,2.18524-3.03808Zm.71355-5.89743H25.05825a7.66311,7.66311,0,0,1,2.096-3.70824,6.59989,6.59989,0,0,1,4.54887-1.69775,6.99941,6.99941,0,0,1,3.03259.67017,5.88524,5.88524,0,0,1,2.319,1.7871A7.54407,7.54407,0,0,1,38.3927,17.82635Z"/></g></g></g></g></g></g></g></svg>