<?xml version="1.0" encoding="utf-8"?>
<!-- Generator: Adobe Illustrator 23.1.1, SVG Export Plug-In . SVG Version: 6.00 Build 0)  -->
<svg version="1.1" id="Layer_1" xmlns="http://www.w3.org/2000/svg" xmlns:xlink="http://www.w3.org/1999/xlink" x="0px" y="0px"
	 viewBox="0 0 50 44.4" style="enable-background:new 0 0 50 44.4;" xml:space="preserve">
<g id="edit">
	<path d="M33.6,29.3l3.5-3.5c0.7-0.7,1.8-0.2,1.8,0.7v13.7c0,2.3-1.9,4.2-4.2,4.2H4.2c-2.3,0-4.2-1.9-4.2-4.2V9.7
		c0-2.3,1.9-4.2,4.2-4.2H29c0.9,0,1.4,1.1,0.7,1.8l-3.5,3.5c-0.2,0.2-0.5,0.3-0.7,0.3H5.6v27.8h27.8V30
		C33.3,29.8,33.4,29.5,33.6,29.3z"/>
	<path d="M42.8,15c0.3,0.3,0.3,0.9,0,1.2l-19,19l-8.1,0.9c-1.1,0.1-2-0.8-1.9-1.9l0.9-8.1l19-19c0.3-0.3,0.9-0.3,1.2,0L42.8,15z"/>
	<path d="M49,10l-3.1,3.1c-0.3,0.3-0.9,0.3-1.2,0l-7.8-7.8c-0.3-0.3-0.3-0.9,0-1.2L40,1c1.3-1.3,3.5-1.3,4.8,0L49,5.2
		C50.3,6.5,50.3,8.7,49,10z"/>
</g>
</svg>
