<svg xmlns="http://www.w3.org/2000/svg" viewBox="0 0 17.01936 16.99927"><defs><style>.cls-1{fill:#3fa9f5;}</style></defs><title>Asset 56</title><g id="Layer_2" data-name="Layer 2"><g id="Layer_1-2" data-name="Layer 1"><path class="cls-1" d="M11.51014,5.31855H5.53935a.18231.18231,0,0,0-.18068.19067v.63221a.18866.18866,0,0,0,.18068.19067h5.97079a.18865.18865,0,0,0,.18057-.19067V5.50922A.18229.18229,0,0,0,11.51014,5.31855Zm0,2.13747H5.53935a.17983.17983,0,0,0-.18068.18062V8.2789a.17988.17988,0,0,0,.18068.18062h5.97079a.17985.17985,0,0,0,.18057-.18062V7.63664A.17981.17981,0,0,0,11.51014,7.456Zm0,0H5.53935a.17983.17983,0,0,0-.18068.18062V8.2789a.17988.17988,0,0,0,.18068.18062h5.97079a.17985.17985,0,0,0,.18057-.18062V7.63664A.17981.17981,0,0,0,11.51014,7.456Zm0-2.13747H5.53935a.18231.18231,0,0,0-.18068.19067v.63221a.18866.18866,0,0,0,.18068.19067h5.97079a.18865.18865,0,0,0,.18057-.19067V5.50922A.18229.18229,0,0,0,11.51014,5.31855Zm0,0H5.53935a.18231.18231,0,0,0-.18068.19067v.63221a.18866.18866,0,0,0,.18068.19067h5.97079a.18865.18865,0,0,0,.18057-.19067V5.50922A.18229.18229,0,0,0,11.51014,5.31855Zm0,2.13747H5.53935a.17983.17983,0,0,0-.18068.18062V8.2789a.17988.17988,0,0,0,.18068.18062h5.97079a.17985.17985,0,0,0,.18057-.18062V7.63664A.17981.17981,0,0,0,11.51014,7.456Zm0,0H5.53935a.17983.17983,0,0,0-.18068.18062V8.2789a.17988.17988,0,0,0,.18068.18062h5.97079a.17985.17985,0,0,0,.18057-.18062V7.63664A.17981.17981,0,0,0,11.51014,7.456Zm0-2.13747H5.53935a.18231.18231,0,0,0-.18068.19067v.63221a.18866.18866,0,0,0,.18068.19067h5.97079a.18865.18865,0,0,0,.18057-.19067V5.50922A.18229.18229,0,0,0,11.51014,5.31855Zm0,0H5.53935a.18231.18231,0,0,0-.18068.19067v.63221a.18866.18866,0,0,0,.18068.19067h5.97079a.18865.18865,0,0,0,.18057-.19067V5.50922A.18229.18229,0,0,0,11.51014,5.31855Zm0,2.13747H5.53935a.17983.17983,0,0,0-.18068.18062V8.2789a.17988.17988,0,0,0,.18068.18062h5.97079a.17985.17985,0,0,0,.18057-.18062V7.63664A.17981.17981,0,0,0,11.51014,7.456Zm0,0H5.53935a.17983.17983,0,0,0-.18068.18062V8.2789a.17988.17988,0,0,0,.18068.18062h5.97079a.17985.17985,0,0,0,.18057-.18062V7.63664A.17981.17981,0,0,0,11.51014,7.456Zm0-2.13747H5.53935a.18231.18231,0,0,0-.18068.19067v.63221a.18866.18866,0,0,0,.18068.19067h5.97079a.18865.18865,0,0,0,.18057-.19067V5.50922A.18229.18229,0,0,0,11.51014,5.31855Zm0,0H5.53935a.18231.18231,0,0,0-.18068.19067v.63221a.18866.18866,0,0,0,.18068.19067h5.97079a.18865.18865,0,0,0,.18057-.19067V5.50922A.18229.18229,0,0,0,11.51014,5.31855Zm0,2.13747H5.53935a.17983.17983,0,0,0-.18068.18062V8.2789a.17988.17988,0,0,0,.18068.18062h5.97079a.17985.17985,0,0,0,.18057-.18062V7.63664A.17981.17981,0,0,0,11.51014,7.456Zm0,0H5.53935a.17983.17983,0,0,0-.18068.18062V8.2789a.17988.17988,0,0,0,.18068.18062h5.97079a.17985.17985,0,0,0,.18057-.18062V7.63664A.17981.17981,0,0,0,11.51014,7.456Zm0-2.13747H5.53935a.18231.18231,0,0,0-.18068.19067v.63221a.18866.18866,0,0,0,.18068.19067h5.97079a.18865.18865,0,0,0,.18057-.19067V5.50922A.18229.18229,0,0,0,11.51014,5.31855Zm0,2.13747H5.53935a.17983.17983,0,0,0-.18068.18062V8.2789a.17988.17988,0,0,0,.18068.18062h5.97079a.17985.17985,0,0,0,.18057-.18062V7.63664A.17981.17981,0,0,0,11.51014,7.456Zm0-2.13747H5.53935a.18231.18231,0,0,0-.18068.19067v.63221a.18866.18866,0,0,0,.18068.19067h5.97079a.18865.18865,0,0,0,.18057-.19067V5.50922A.18229.18229,0,0,0,11.51014,5.31855Zm0,2.13747H5.53935a.17983.17983,0,0,0-.18068.18062V8.2789a.17988.17988,0,0,0,.18068.18062h5.97079a.17985.17985,0,0,0,.18057-.18062V7.63664A.17981.17981,0,0,0,11.51014,7.456Zm0-2.13747H5.53935a.18231.18231,0,0,0-.18068.19067v.63221a.18866.18866,0,0,0,.18068.19067h5.97079a.18865.18865,0,0,0,.18057-.19067V5.50922A.18229.18229,0,0,0,11.51014,5.31855Zm0,0H5.53935a.18231.18231,0,0,0-.18068.19067v.63221a.18866.18866,0,0,0,.18068.19067h5.97079a.18865.18865,0,0,0,.18057-.19067V5.50922A.18229.18229,0,0,0,11.51014,5.31855Zm0,2.13747H5.53935a.17983.17983,0,0,0-.18068.18062V8.2789a.17988.17988,0,0,0,.18068.18062h5.97079a.17985.17985,0,0,0,.18057-.18062V7.63664A.17981.17981,0,0,0,11.51014,7.456Zm0,0H5.53935a.17983.17983,0,0,0-.18068.18062V8.2789a.17988.17988,0,0,0,.18068.18062h5.97079a.17985.17985,0,0,0,.18057-.18062V7.63664A.17981.17981,0,0,0,11.51014,7.456Zm0-2.13747H5.53935a.18231.18231,0,0,0-.18068.19067v.63221a.18866.18866,0,0,0,.18068.19067h5.97079a.18865.18865,0,0,0,.18057-.19067V5.50922A.18229.18229,0,0,0,11.51014,5.31855Zm4.92711.14044c-.1002-.07019-.1906-.15048-.301-.24083-.29094-.24083-.63222-.52178-1.23429-.98341l-.01-.01V3.151A1.02165,1.02165,0,0,0,13.85831,2.1374H12.27282l-.01-.02c-.06027-.06021-.1405-.13046-.2107-.19067a.87963.87963,0,0,1-.10044-.0803c-.08024-.07025-.18057-.15055-.271-.23079A5.25036,5.25036,0,0,0,8.52977,0,5.3441,5.3441,0,0,0,5.38868,1.59553c-.1002.09035-.20065.17058-.29093.24084-.03014.03013-.06015.05016-.09028.08029a1.48716,1.48716,0,0,1-.26092.21076l-.01.01H3.19107A1.03469,1.03469,0,0,0,2.13734,3.161V4.22471l-.01.01c-.42139.34122-.72249.582-.96333.77272-.21069.17058-.38121.301-.56189.44154A1.61,1.61,0,0,0,0,6.67325v8.75058a1.6067,1.6067,0,0,0,1.58549,1.57544H15.4438a1.58463,1.58463,0,0,0,1.57556-1.57544V6.6833A1.57567,1.57567,0,0,0,16.43725,5.459ZM6.41227,2.06721A3.77021,3.77021,0,0,1,8.50968.99346,3.85536,3.85536,0,0,1,10.647,2.06721l.08036.06021H6.332ZM3.171,3.12088H13.85831V8.95123l-.01.01c-.57194.47162-1.154.94329-1.66585,1.3547-.44148.36125-.85283.69242-1.174.96339-.0904.07025-.18056.15049-.281.23078-.61212.5118-1.53539,1.2945-2.19761,1.2945s-1.58561-.7827-2.18769-1.2945q-.16556-.13551-.301-.24083c-.4416-.37129-1.06377-.873-1.736-1.415-.36136-.291-.7427-.60208-1.124-.90311l-.01-.01005ZM1.01355,6.67325a.68554.68554,0,0,1,.22074-.45158c.38121-.291.84291-.68238.84291-.68238l.06014-.05016V8.14844L2.0772,8.09821c-.33112-.28095-.63222-.52178-.93331-.76261l-.13034-.11043Zm15.01236,8.77061a.56389.56389,0,0,1-.562.54193H1.58549a.56544.56544,0,0,1-.57194-.572v-6.894l.06014.04011c.61213.49171,1.30448,1.05367,1.96695,1.58556.9131.73253,1.78614,1.435,2.36813,1.90661a4.95871,4.95871,0,0,1,.40155.33118,4.81814,4.81814,0,0,0,2.69936,1.415,4.90756,4.90756,0,0,0,2.75963-1.45509q.18063-.15059.33112-.271c.85295-.66228,2.318-1.84647,4.36521-3.51226l.06027-.04011Zm0-8.1986-.01.01c-.17052.13046-.35132.271-.54193.4315-.17052.13046-.34116.271-.52184.41141l-.06015.04018V5.48913l.06015.04012c.47162.37129.843.69242.85307.70246a.59593.59593,0,0,1,.22075.45159ZM5.53935,8.45952h5.97079a.17985.17985,0,0,0,.18057-.18062V7.63664a.17981.17981,0,0,0-.18057-.18062H5.53935a.17983.17983,0,0,0-.18068.18062V8.2789A.17988.17988,0,0,0,5.53935,8.45952Zm0-2.12742h5.97079a.18865.18865,0,0,0,.18057-.19067V5.50922a.18229.18229,0,0,0-.18057-.19067H5.53935a.18231.18231,0,0,0-.18068.19067v.63221A.18866.18866,0,0,0,5.53935,6.3321Zm5.97079-1.01355H5.53935a.18231.18231,0,0,0-.18068.19067v.63221a.18866.18866,0,0,0,.18068.19067h5.97079a.18865.18865,0,0,0,.18057-.19067V5.50922A.18229.18229,0,0,0,11.51014,5.31855Zm0,2.13747H5.53935a.17983.17983,0,0,0-.18068.18062V8.2789a.17988.17988,0,0,0,.18068.18062h5.97079a.17985.17985,0,0,0,.18057-.18062V7.63664A.17981.17981,0,0,0,11.51014,7.456Zm0,0H5.53935a.17983.17983,0,0,0-.18068.18062V8.2789a.17988.17988,0,0,0,.18068.18062h5.97079a.17985.17985,0,0,0,.18057-.18062V7.63664A.17981.17981,0,0,0,11.51014,7.456Zm0-2.13747H5.53935a.18231.18231,0,0,0-.18068.19067v.63221a.18866.18866,0,0,0,.18068.19067h5.97079a.18865.18865,0,0,0,.18057-.19067V5.50922A.18229.18229,0,0,0,11.51014,5.31855Zm0,2.13747H5.53935a.17983.17983,0,0,0-.18068.18062V8.2789a.17988.17988,0,0,0,.18068.18062h5.97079a.17985.17985,0,0,0,.18057-.18062V7.63664A.17981.17981,0,0,0,11.51014,7.456Zm0-2.13747H5.53935a.18231.18231,0,0,0-.18068.19067v.63221a.18866.18866,0,0,0,.18068.19067h5.97079a.18865.18865,0,0,0,.18057-.19067V5.50922A.18229.18229,0,0,0,11.51014,5.31855Zm0,2.13747H5.53935a.17983.17983,0,0,0-.18068.18062V8.2789a.17988.17988,0,0,0,.18068.18062h5.97079a.17985.17985,0,0,0,.18057-.18062V7.63664A.17981.17981,0,0,0,11.51014,7.456Zm0-2.13747H5.53935a.18231.18231,0,0,0-.18068.19067v.63221a.18866.18866,0,0,0,.18068.19067h5.97079a.18865.18865,0,0,0,.18057-.19067V5.50922A.18229.18229,0,0,0,11.51014,5.31855Zm0,0H5.53935a.18231.18231,0,0,0-.18068.19067v.63221a.18866.18866,0,0,0,.18068.19067h5.97079a.18865.18865,0,0,0,.18057-.19067V5.50922A.18229.18229,0,0,0,11.51014,5.31855Zm0,2.13747H5.53935a.17983.17983,0,0,0-.18068.18062V8.2789a.17988.17988,0,0,0,.18068.18062h5.97079a.17985.17985,0,0,0,.18057-.18062V7.63664A.17981.17981,0,0,0,11.51014,7.456Zm0,0H5.53935a.17983.17983,0,0,0-.18068.18062V8.2789a.17988.17988,0,0,0,.18068.18062h5.97079a.17985.17985,0,0,0,.18057-.18062V7.63664A.17981.17981,0,0,0,11.51014,7.456Zm0-2.13747H5.53935a.18231.18231,0,0,0-.18068.19067v.63221a.18866.18866,0,0,0,.18068.19067h5.97079a.18865.18865,0,0,0,.18057-.19067V5.50922A.18229.18229,0,0,0,11.51014,5.31855Zm0,0H5.53935a.18231.18231,0,0,0-.18068.19067v.63221a.18866.18866,0,0,0,.18068.19067h5.97079a.18865.18865,0,0,0,.18057-.19067V5.50922A.18229.18229,0,0,0,11.51014,5.31855Zm0,2.13747H5.53935a.17983.17983,0,0,0-.18068.18062V8.2789a.17988.17988,0,0,0,.18068.18062h5.97079a.17985.17985,0,0,0,.18057-.18062V7.63664A.17981.17981,0,0,0,11.51014,7.456Zm0,0H5.53935a.17983.17983,0,0,0-.18068.18062V8.2789a.17988.17988,0,0,0,.18068.18062h5.97079a.17985.17985,0,0,0,.18057-.18062V7.63664A.17981.17981,0,0,0,11.51014,7.456Zm0-2.13747H5.53935a.18231.18231,0,0,0-.18068.19067v.63221a.18866.18866,0,0,0,.18068.19067h5.97079a.18865.18865,0,0,0,.18057-.19067V5.50922A.18229.18229,0,0,0,11.51014,5.31855Zm0,0H5.53935a.18231.18231,0,0,0-.18068.19067v.63221a.18866.18866,0,0,0,.18068.19067h5.97079a.18865.18865,0,0,0,.18057-.19067V5.50922A.18229.18229,0,0,0,11.51014,5.31855Zm0,2.13747H5.53935a.17983.17983,0,0,0-.18068.18062V8.2789a.17988.17988,0,0,0,.18068.18062h5.97079a.17985.17985,0,0,0,.18057-.18062V7.63664A.17981.17981,0,0,0,11.51014,7.456Zm0,0H5.53935a.17983.17983,0,0,0-.18068.18062V8.2789a.17988.17988,0,0,0,.18068.18062h5.97079a.17985.17985,0,0,0,.18057-.18062V7.63664A.17981.17981,0,0,0,11.51014,7.456Zm0-2.13747H5.53935a.18231.18231,0,0,0-.18068.19067v.63221a.18866.18866,0,0,0,.18068.19067h5.97079a.18865.18865,0,0,0,.18057-.19067V5.50922A.18229.18229,0,0,0,11.51014,5.31855Z"/></g></g></svg>