<svg xmlns="http://www.w3.org/2000/svg" viewBox="0 0 50.03002 50.03"><defs><style>.cls-1{fill:#e1141d;}.cls-2{fill:#fff;}</style></defs><g id="Layer_2" data-name="Layer 2"><g id="Section_1" data-name="Section 1"><path class="cls-1" d="M12.65818,0H37.37184A12.65818,12.65818,0,0,1,50.03,12.65818V37.37181A12.65818,12.65818,0,0,1,37.37184,50.03H12.65821A12.65821,12.65821,0,0,1,0,37.37179V12.65818A12.65818,12.65818,0,0,1,12.65818,0Z"/><path class="cls-1" d="M12.65818,0H37.37184A12.65818,12.65818,0,0,1,50.03,12.65818V37.37181A12.65818,12.65818,0,0,1,37.37184,50.03H12.65821A12.65821,12.65821,0,0,1,0,37.37179V12.65818A12.65818,12.65818,0,0,1,12.65818,0Z"/><path class="cls-2" d="M32.29311,32.27589h-7.0506c-3.36591,0-4.92987-1.19143-5.36251-4.18765H30.287v.00388h3.655V27.03061c.00247-.03525.00459-.07069.00459-.10736v-3.6302c0-.03649-.00212-.0721-.00459-.10736V22.13476h-1.0273q-.06569-.00575-.1317-.00582H19.856c.39738-3.10411,1.9571-4.37488,5.38649-4.37488H35.85472V11.7967H32.66386v.00053h-8.0726c-8.239,0-11.40256,4.0951-11.40256,13.21775,0,9.12194,3.16353,13.2188,11.40256,13.2188H34.78475l.01146-.00053h1.15212V32.27589Z"/></g></g></svg>