<svg xmlns="http://www.w3.org/2000/svg" viewBox="0 0 16.93 16.91"><defs><style>.cls-1{fill:#3fa9f5;}</style></defs><title>External-link</title><g id="Layer_2" data-name="Layer 2"><g id="Layer_1-2" data-name="Layer 1"><path class="cls-1" d="M14.1,10.52v4.7a1.69,1.69,0,0,1-1.69,1.69H1.68A1.69,1.69,0,0,1,0,15.22V4.51A1.69,1.69,0,0,1,1.68,2.82H6.49c.37,0,.75,0,.6.19l-.56.56a1,1,0,0,1-.6.25h-4a.9.9,0,0,0-.9.9V15a1,1,0,0,0,1,1H12.14a1,1,0,0,0,1-1V11.08a.93.93,0,0,1,.25-.59l.56-.57C14.09,9.74,14.1,10,14.1,10.52Z"/><path class="cls-1" d="M9.57,0h7.05a.29.29,0,0,1,.23.08.24.24,0,0,1,.07.22V7.35s0,.33-.49.33S16,7.35,16,7.35V1.62l-9,9c-.16.17-.49-.17-.49-.17s-.33-.32-.17-.49l9-9H9.57S9.24,1,9.24.5,9.57,0,9.57,0Z"/></g></g></svg>