<svg xmlns="http://www.w3.org/2000/svg" viewBox="0 0 16.99094 16.99027"><defs><style>.cls-1{fill:#3fa9f5;}</style></defs><title>FAQ</title><g id="Layer_2" data-name="Layer 2"><g id="Layer_1-2" data-name="Layer 1"><g id="FAQ"><path class="cls-1" d="M8.49547,16.99027A8.49514,8.49514,0,1,1,16.99094,8.4948,8.50517,8.50517,0,0,1,8.49547,16.99027Zm0-15.9853A7.48983,7.48983,0,1,0,15.9853,8.4948,7.49806,7.49806,0,0,0,8.49547,1.005Z"/><path class="cls-1" d="M8.50335,4.15479a3.28834,3.28834,0,0,0-2.921,1.5449.40775.40775,0,0,0,.08788.55794l.73214.55513a.40731.40731,0,0,0,.56437-.0704,1.64664,1.64664,0,0,1,1.40455-.83925c.52213,0,1.16795.336,1.16795.84234,0,.38276-.316.57933-.83151.86836-.6012.33706-1.39678.75655-1.39678,1.80591v.16612a.40732.40732,0,0,0,.40733.40733h1.23a.40733.40733,0,0,0,.40733-.40733v-.098c0-.72742,2.12605-.75771,2.12605-2.72616A2.916,2.916,0,0,0,8.50335,4.15479Zm-.17007,6.33836A1.17566,1.17566,0,1,0,9.509,11.6688,1.177,1.177,0,0,0,8.33328,10.49315Z"/></g></g></g></svg>