<svg xmlns="http://www.w3.org/2000/svg" viewBox="0 0 18.734 17.00126"><defs><style>.cls-1{fill:#3fa9f5;}</style></defs><g id="Layer_2" data-name="Layer 2"><g id="Layer_1-2" data-name="Layer 1"><path class="cls-1" d="M8.08121,15.59842a1.40025,1.40025,0,1,1-1.39892-1.40158A1.39675,1.39675,0,0,1,8.08121,15.59842Z"/><path class="cls-1" d="M14.45358,15.59842a1.40152,1.40152,0,1,1-1.40151-1.40158A1.39852,1.39852,0,0,1,14.45358,15.59842Z"/><path class="cls-1" d="M9.57805,4.17348A17.67124,17.67124,0,0,1,11.788,3.04685L11.09494,0,18.734,2.32661,12.86534,7.65267l-.57308-2.45492a19.1904,19.1904,0,0,0-3.30347.85831c-1.54418.645-1.86765.47642-1.86765.47642A9.853,9.853,0,0,1,9.57805,4.17348Z"/><rect class="cls-1" x="4.53422" y="11.61778" width="10.35695" height="1.00284" rx="0.50142"/><rect class="cls-1" x="4.81567" y="8.42983" width="11.71685" height="1.00284" rx="0.50142"/><path class="cls-1" d="M.26789,6.92847A13.38138,13.38138,0,0,1,2.83268,6.245c1.16176-.14706,2.27872,1.2623,2.85225,2.18486.67646,0,.72058,1.00284.72058,1.00284H4.979A5.68641,5.68641,0,0,0,3.18127,7.324a.266.266,0,0,0-.1497-.04529A8.67987,8.67987,0,0,0,.56729,7.8715c-.39706.05444-.54412-.38674-.54412-.38674A.448.448,0,0,1,.26789,6.92847Z"/></g></g></svg>