<svg xmlns="http://www.w3.org/2000/svg" viewBox="0 0 14.85544 16.99377"><defs><style>.cls-1{fill:#3fa9f5;}</style></defs><title>Flexible 3D</title><g id="Layer_2" data-name="Layer 2"><g id="Layer_1-2" data-name="Layer 1"><g id="_3D_secure" data-name="3D_secure"><path class="cls-1" d="M14.60416,4.06811,7.78954.13818,7.76942.11806,7.679.06782a.49931.49931,0,0,0-.50256,0L7.10614.108.25128,4.06811a.39218.39218,0,0,0-.10049.08042.26262.26262,0,0,0-.05018.0603A.51017.51017,0,0,0,0,4.50035v7.99052a.45311.45311,0,0,0,.07043.25127.4458.4458,0,0,0,.08036.11061.3907.3907,0,0,0,.10049.08036L7.17644,16.9234a.47749.47749,0,0,0,.25128.07037A.43176.43176,0,0,0,7.679,16.9234l6.92516-3.99029a.3907.3907,0,0,0,.10049-.08036.21081.21081,0,0,0,.06024-.08042.23972.23972,0,0,0,.06037-.11055.41673.41673,0,0,0,.03018-.16085V4.50035A.498.498,0,0,0,14.60416,4.06811Zm-.75382,7.55838L11.237,10.10878v.975a.55945.55945,0,0,1-.02.18091l2.12075,1.2262L7.93027,15.61678V12.6919H6.92517v2.92488L1.51771,12.49087l2.13082-1.2262a.55575.55575,0,0,1-.02013-.18091v-.975L1.0051,11.62649V5.37479l3.37713,1.9499A.64044.64044,0,0,1,4.523,7.24426V7.184a3.10394,3.10394,0,0,1,.13067-.86437l-3.146-1.81924L6.92517,1.37444v2.955a2.08229,2.08229,0,0,1,.50255-.05024,2.08229,2.08229,0,0,1,.50255.05024v-2.955l5.41752,3.12591L10.21187,6.30953a3.17515,3.17515,0,0,1,.13067.87443v.0603a.90942.90942,0,0,1,.13055.08043l3.37725-1.9499Z"/><path class="cls-1" d="M9.629,8.08851H9.33744V7.184a1.34865,1.34865,0,0,0-.04024-.35182A1.86026,1.86026,0,0,0,7.93027,5.36473a1.61025,1.61025,0,0,0-1.0051,0A1.86121,1.86121,0,0,0,5.56831,6.8422a1.27236,1.27236,0,0,0-.04025.34176v.90455H5.23654a.59008.59008,0,0,0-.603.593v2.40221a.59229.59229,0,0,0,.603.603H9.629a.59834.59834,0,0,0,.60291-.603V8.68155A.59621.59621,0,0,0,9.629,8.08851ZM6.53316,7.184a.87914.87914,0,0,1,.40207-.74377.83438.83438,0,0,1,.985,0,.87912.87912,0,0,1,.40207.74377v.90455H6.53316Zm1.39711,3.19622a.49755.49755,0,1,1-.995,0v-.995a.49755.49755,0,0,1,.995,0Z"/></g></g></g></svg>