<svg xmlns="http://www.w3.org/2000/svg" viewBox="0 0 16.9883 16.98828"><defs><style>.cls-1{fill:#3fa9f5;}</style></defs><title>GDPR</title><g id="Layer_2" data-name="Layer 2"><g id="Layer_1-2" data-name="Layer 1"><g id="GDPR"><path class="cls-1" d="M8.44147,14.83233l.285.57759.6372.09287a.13967.13967,0,0,1,.07706.23818l-.46091.44927.10905.63465a.13959.13959,0,0,1-.20246.147l-.57-.2997-.57031.2997a.13933.13933,0,0,1-.2021-.147l.109-.63465L7.19179,15.741a.13966.13966,0,0,1,.07743-.23818l.6372-.09287.28461-.57759A.13978.13978,0,0,1,8.44147,14.83233Z"/><path class="cls-1" d="M15.94675,7.44932l.285.57759.63719.09287A.13967.13967,0,0,1,16.946,8.358l-.4609.44927.109.63465a.1396.1396,0,0,1-.20247.147l-.57-.2997-.57032.2997a.13933.13933,0,0,1-.2021-.147l.10905-.63465L14.69707,8.358a.13965.13965,0,0,1,.07742-.23818l.6372-.09287.28461-.57759A.13979.13979,0,0,1,15.94675,7.44932Z"/><path class="cls-1" d="M1.292,7.44932l.285.57759.6372.09287a.13967.13967,0,0,1,.07706.23818l-.46091.44927.109.63465a.13959.13959,0,0,1-.20247.147l-.56995-.2997-.57031.2997a.13933.13933,0,0,1-.2021-.147l.109-.63465L.0423,8.358a.13966.13966,0,0,1,.07743-.23818l.63719-.09287.28462-.57759A.13978.13978,0,0,1,1.292,7.44932Z"/><path class="cls-1" d="M8.44147.07766l.285.57759.6372.09287A.13967.13967,0,0,1,9.44071.9863l-.46091.44927.10905.63466a.13959.13959,0,0,1-.20246.147l-.57-.2997-.57031.2997a.13933.13933,0,0,1-.2021-.147l.109-.63466L7.19179.9863A.13966.13966,0,0,1,7.26922.74812l.6372-.09287L8.191.07766A.13978.13978,0,0,1,8.44147.07766Z"/><path class="cls-1" d="M4.6835,1.08375l.285.57759.6372.09287a.13967.13967,0,0,1,.07706.23818l-.46091.44927.109.63466a.13959.13959,0,0,1-.20246.147l-.57-.2997-.57031.2997a.13933.13933,0,0,1-.2021-.147l.109-.63466-.46127-.44927a.13966.13966,0,0,1,.07743-.23818l.6372-.09287.28461-.57759A.13978.13978,0,0,1,4.6835,1.08375Z"/><path class="cls-1" d="M2.26126,3.88177l.285.57759.6372.09287a.13967.13967,0,0,1,.07706.23818l-.4609.44927.109.63466a.13959.13959,0,0,1-.20246.147l-.57-.2997-.57032.2997a.13933.13933,0,0,1-.2021-.147l.10905-.63466-.46127-.44927A.13965.13965,0,0,1,1.089,4.55223l.6372-.09287.28461-.57759A.13979.13979,0,0,1,2.26126,3.88177Z"/><path class="cls-1" d="M12.564,1.08375l.285.57759.63719.09287a.13967.13967,0,0,1,.07706.23818l-.4609.44927.109.63466a.13959.13959,0,0,1-.20247.147l-.56995-.2997-.57032.2997a.13933.13933,0,0,1-.2021-.147l.109-.63466-.46127-.44927a.13965.13965,0,0,1,.07742-.23818l.6372-.09287.28461-.57759A.13979.13979,0,0,1,12.564,1.08375Z"/><path class="cls-1" d="M15.02089,3.88177l.285.57759.6372.09287a.13967.13967,0,0,1,.07706.23818l-.46091.44927.109.63466a.13959.13959,0,0,1-.20247.147l-.57-.2997-.57032.2997a.13933.13933,0,0,1-.2021-.147l.109-.63466-.46127-.44927a.13965.13965,0,0,1,.07742-.23818l.6372-.09287.28462-.57759A.13978.13978,0,0,1,15.02089,3.88177Z"/><path class="cls-1" d="M12.34332,13.603l.285.57759.63719.09287a.13967.13967,0,0,1,.07706.23818l-.4609.44927.109.63466a.13959.13959,0,0,1-.20247.147l-.57-.2997-.57032.2997a.13933.13933,0,0,1-.2021-.147l.109-.63466-.46127-.44927a.13965.13965,0,0,1,.07742-.23818l.6372-.09287.28462-.57759A.13978.13978,0,0,1,12.34332,13.603Z"/><path class="cls-1" d="M14.97747,11.01687l.285.57758.6372.09288a.13966.13966,0,0,1,.07706.23817l-.46091.44928.109.63465a.13959.13959,0,0,1-.20246.147l-.57-.29969-.57031.29969a.13932.13932,0,0,1-.2021-.147l.109-.63465-.46127-.44928a.13965.13965,0,0,1,.07743-.23817l.6372-.09288.28461-.57758A.13978.13978,0,0,1,14.97747,11.01687Z"/><path class="cls-1" d="M4.89153,13.59807l.285.57758.6372.09288a.13967.13967,0,0,1,.07706.23817l-.46091.44928.109.63465a.13959.13959,0,0,1-.20247.147L4.76649,15.438l-.57031.29969a.13933.13933,0,0,1-.20211-.147l.109-.63465-.46127-.44928a.13965.13965,0,0,1,.07743-.23817l.63719-.09288.28462-.57758A.13978.13978,0,0,1,4.89153,13.59807Z"/><path class="cls-1" d="M2.21784,11.01687l.285.57758.6372.09288a.13966.13966,0,0,1,.07706.23817l-.46091.44928.109.63465a.13959.13959,0,0,1-.20247.147l-.56995-.29969-.57032.29969a.13932.13932,0,0,1-.2021-.147l.109-.63465L.96816,11.9255a.13965.13965,0,0,1,.07742-.23817l.6372-.09288.28462-.57758A.13978.13978,0,0,1,2.21784,11.01687Z"/><path class="cls-1" d="M10.69328,8.092H10.398V7.186a1.90375,1.90375,0,0,0-3.80745,0V8.092H6.29528a.59534.59534,0,0,0-.60074.60061v2.40262a.59534.59534,0,0,0,.60074.6006h4.398a.59528.59528,0,0,0,.60048-.6006V8.69264A.59528.59528,0,0,0,10.69328,8.092ZM8.993,10.39281a.49883.49883,0,0,1-.99766,0V9.39508a.49883.49883,0,0,1,.99766,0ZM9.39016,8.092H7.5984V7.186a.89588.89588,0,1,1,1.79176,0Z"/></g></g></g></svg>