<svg xmlns="http://www.w3.org/2000/svg" viewBox="0 0 16.98895 16.98828"><defs><style>.cls-1{fill:#3fa9f5;}</style></defs><title>General</title><g id="Layer_2" data-name="Layer 2"><g id="Layer_1-2" data-name="Layer 1"><g id="General"><path class="cls-1" d="M8.49447,16.98828A8.49414,8.49414,0,1,1,16.989,8.49381,8.50418,8.50418,0,0,1,8.49447,16.98828Zm0-15.98343a7.489,7.489,0,1,0,7.489,7.489A7.49719,7.49719,0,0,0,8.49447,1.00485Z"/><path class="cls-1" d="M7.54632,11.34252v-2.446H7.2077a.33836.33836,0,0,1-.33863-.33862V7.74917a.33837.33837,0,0,1,.33863-.33863H9.104a.33836.33836,0,0,1,.33862.33863v3.59335h.33863a.338.338,0,0,1,.33862.33862v.80877a.338.338,0,0,1-.33862.33863H7.2077a.33806.33806,0,0,1-.33863-.33863v-.80877a.338.338,0,0,1,.33863-.33862Zm2.1672-5.96373A1.21905,1.21905,0,1,1,8.49447,4.15974,1.219,1.219,0,0,1,9.71352,5.37879Z"/></g></g></g></svg>