<?xml version="1.0" encoding="utf-8"?>
<!-- Generator: Adobe Illustrator 23.1.1, SVG Export Plug-In . SVG Version: 6.00 Build 0)  -->
<svg version="1.1" id="Layer_1" xmlns="http://www.w3.org/2000/svg" xmlns:xlink="http://www.w3.org/1999/xlink" x="0px" y="0px"
	 viewBox="0 0 50 50" style="enable-background:new 0 0 50 50;" xml:space="preserve">
<g id="globe">
	<path d="M12.4,31.5H0.9C0.3,29.4,0,27.2,0,25s0.3-4.4,0.9-6.5h11.6c-0.2,2.1-0.3,4.3-0.3,6.5S12.2,29.3,12.4,31.5z"/>
	<path d="M12.8,15.3H1.9C4.8,8.5,10.7,3.2,17.9,1C15.4,4.5,13.7,9.6,12.8,15.3z"/>
	<path d="M12.8,34.7c0.9,5.7,2.6,10.9,5,14.3c-7.2-2.1-13-7.4-15.9-14.3H12.8z"/>
	<path d="M15.7,18.6h18.7c0.2,2.1,0.3,4.2,0.3,6.5s-0.1,4.4-0.3,6.5H15.7c-0.2-2.1-0.3-4.2-0.3-6.5S15.4,20.6,15.7,18.6z"/>
	<path d="M16.1,15.3C17.5,6.3,21,0,25,0c4,0,7.5,6.3,8.9,15.3H16.1z"/>
	<path d="M33.9,34.7C32.5,43.7,29,50,25,50c-4,0-7.5-6.3-8.9-15.3H33.9z"/>
	<path d="M37.2,15.3c-0.9-5.7-2.6-10.9-5-14.3c7.2,2.1,13,7.4,15.9,14.3H37.2z"/>
	<path d="M37.2,34.7h10.9c-2.9,6.8-8.7,12.1-15.9,14.3C34.6,45.6,36.3,40.4,37.2,34.7z"/>
	<path d="M50,25c0,2.2-0.3,4.4-0.9,6.5H37.6c0.2-2.1,0.3-4.3,0.3-6.5s-0.1-4.3-0.3-6.5h11.6C49.7,20.6,50,22.8,50,25z"/>
</g>
</svg>
