<svg viewBox="0 0 14.87323 16.99927" xmlns="http://www.w3.org/2000/svg"><path d="m5.82592 4.90985v-.27138a.405.405 0 0 1 .38819-.39947h5.60289a.41021.41021 0 0 1 .41427.39948v.28267a.40274.40274 0 0 1 -.403.3843h-5.61416a.4125.4125 0 0 1 -.38819-.3956z" fill="#00abee"/><path d="m11.82826 5.33041h-5.61394a.44.44 0 0 1 -.41432-.42066v-.27129a.43069.43069 0 0 1 .41429-.42457h5.60219a.43323.43323 0 0 1 .43975.42457v.28254a.43.43 0 0 1 -.42797.40941zm-5.61394-1.06657a.37871.37871 0 0 0 -.36336.37462v.27129a.38651.38651 0 0 0 .36336.37071h5.61394a.37831.37831 0 0 0 .37708-.35944v-.28256a.38706.38706 0 0 0 -.38883-.37462z" fill="#fff"/><path d="m5.82592 7.04975v-.271a.405.405 0 0 1 .38819-.39948h5.60289a.41021.41021 0 0 1 .41427.39948v.28225a.40247.40247 0 0 1 -.403.3843h-5.61416a.4125.4125 0 0 1 -.38819-.39555z" fill="#00abee"/><path d="m11.82826 7.47041h-5.61394a.44.44 0 0 1 -.41432-.42066v-.27075a.43069.43069 0 0 1 .41429-.42458h5.60219a.43324.43324 0 0 1 .43975.42458v.282a.43.43 0 0 1 -.42797.40941zm-5.61394-1.06609a.37872.37872 0 0 0 -.36332.37468v.2708a.38651.38651 0 0 0 .36336.37071h5.61394a.37831.37831 0 0 0 .37708-.35945v-.28206a.38707.38707 0 0 0 -.38883-.37463z" fill="#fff"/><path d="m14.37178 13.75989h.02007a.85608.85608 0 0 0 .48138-.72206v-12.25559a.78126.78126 0 0 0 -.77223-.78224h-11.48354a2.6388 2.6388 0 0 0 -2.61746 2.64764v11.714a2.64079 2.64079 0 0 0 2.63754 2.63759h11.85446a.36661.36661 0 0 0 .38123-.37107v-.27074a.431.431 0 0 0 -.44122-.38111h-.02008v-.02008a5.38666 5.38666 0 0 1 -.04015-2.18634zm-13.35878-11.11225a1.63077 1.63077 0 0 1 1.62454-1.62471h.55164v11.76417h-.55164a2.64321 2.64321 0 0 0 -1.58444.53151l-.04015.03012zm12.456 11.1925a6.73933 6.73933 0 0 0 -.03012 2.12617v.02008h-10.82142c-1.10306 0-1.60451-.56163-1.60451-1.0932a.96464.96464 0 0 1 .4111-.75219 1.9591 1.9591 0 0 1 1.19341-.331h10.85154zm.3712-1.06308h-9.628v-11.76406h9.628z" fill="#00abee"/><path d="m12.23122 4.63847v.28267a.40274.40274 0 0 1 -.403.3843h-5.61411a.4125.4125 0 0 1 -.38819-.39559v-.27138a.405.405 0 0 1 .38819-.39947h5.60289a.41021.41021 0 0 1 .41422.39947z" fill="#00abee"/><path d="m11.82826 5.33041h-5.61394a.44.44 0 0 1 -.41432-.42066v-.27129a.43069.43069 0 0 1 .41429-.42457h5.60219a.43323.43323 0 0 1 .43975.42457v.28254a.43.43 0 0 1 -.42797.40941zm-5.61394-1.06657a.37871.37871 0 0 0 -.36336.37462v.27129a.38651.38651 0 0 0 .36336.37071h5.61394a.37831.37831 0 0 0 .37708-.35944v-.28256a.38706.38706 0 0 0 -.38883-.37462z" fill="#fff"/><path d="m12.23122 6.77876v.28224a.40247.40247 0 0 1 -.403.3843h-5.61411a.4125.4125 0 0 1 -.38819-.39559v-.271a.405.405 0 0 1 .38819-.39948h5.60289a.41021.41021 0 0 1 .41422.39953z" fill="#00abee"/><path d="m11.82826 7.47041h-5.61394a.44.44 0 0 1 -.41432-.42066v-.27075a.43069.43069 0 0 1 .41429-.42458h5.60219a.43324.43324 0 0 1 .43975.42458v.282a.43.43 0 0 1 -.42797.40941zm-5.61394-1.06609a.37872.37872 0 0 0 -.36332.37468v.2708a.38651.38651 0 0 0 .36336.37071h5.61394a.37831.37831 0 0 0 .37708-.35945v-.28206a.38707.38707 0 0 0 -.38883-.37463z" fill="#fff"/><g fill="#00abee"><path d="m12.20534 4.64348v.28078a.38411.38411 0 0 1 -.381.361h-5.60634a.3911.3911 0 0 1 -.371-.37107v-.27071a.3856.3856 0 0 1 .371-.38111h5.59632a.38954.38954 0 0 1 .39102.38111z"/><path d="m12.20534 6.77968v.28078a.38412.38412 0 0 1 -.381.361h-5.60634a.3911.3911 0 0 1 -.371-.37108v-.2707a.37677.37677 0 0 1 .371-.37113h5.59632a.38791.38791 0 0 1 .39102.37113z"/></g></svg>