<svg xmlns="http://www.w3.org/2000/svg" viewBox="0 0 50 11.36288"><defs><style>.cls-1{fill:#484740;}.cls-2{fill:#81a7e6;}</style></defs><g id="Layer_2" data-name="Layer 2"><g id="Layer_14" data-name="Layer 14"><g id="Warstwa_2" data-name="Warstwa 2"><path class="cls-1" d="M7.73623.23287a.36644.36644,0,0,1,.19264.13442.32368.32368,0,0,1,.05736.19177v10.2532a.34249.34249,0,0,1-.05736.19263.41441.41441,0,0,1-.19264.13442,1.65734,1.65734,0,0,1-.23972.05736,3.41722,3.41722,0,0,1-.35615.01969,1.9848,1.9848,0,0,1-.36472-.01969c-.09675-.01883-.17123-.03767-.24058-.05736a.36814.36814,0,0,1-.19177-.13442.32447.32447,0,0,1-.05822-.19263V6.21818H1.71068v4.59408a.34239.34239,0,0,1-.05821.19263.41181.41181,0,0,1-.19178.13442,1.67586,1.67586,0,0,1-.24058.05736,3.43122,3.43122,0,0,1-.36472.01969,1.9377,1.9377,0,0,1-.35615-.01969,2.34317,2.34317,0,0,1-.25-.05736.36814.36814,0,0,1-.19177-.13442.32445.32445,0,0,1-.05736-.19263V.55735A.3424.3424,0,0,1,.05747.36557.40573.40573,0,0,1,.24924.23116a1.23058,1.23058,0,0,1,.25-.05822C.596.16352.72012.15411.85539.15411a2.07391,2.07391,0,0,1,.36472.01883c.09589.01969.17123.03853.24058.05822a.36388.36388,0,0,1,.19178.13441.32362.32362,0,0,1,.05821.19178V4.69H6.28507V.55735A.34245.34245,0,0,1,6.34328.36557.40575.40575,0,0,1,6.53506.23116,1.27133,1.27133,0,0,1,6.77564.17294,3.54857,3.54857,0,0,1,7.14036.15411a2.02492,2.02492,0,0,1,.35615.01883c.09589.01969.17123.03853.23972.05822m5.96648,9.66845a2.26362,2.26362,0,0,0,.97-.19263,1.798,1.798,0,0,0,.67293-.55735,2.61986,2.61986,0,0,0,.39468-.87413,5.31837,5.31837,0,0,0,.125-1.14381,5.15571,5.15571,0,0,0-.10616-1.113,2.756,2.756,0,0,0-.3553-.89381,1.7225,1.7225,0,0,0-.64468-.58646,2.17457,2.17457,0,0,0-1.02737-.22089,2.208,2.208,0,0,0-.97857.19606,1.69944,1.69944,0,0,0-.66266.55735,2.75585,2.75585,0,0,0-.39468.8844,4.64694,4.64694,0,0,0-.13356,1.13781,5.15508,5.15508,0,0,0,.10616,1.113,2.50152,2.50152,0,0,0,.3553.8844,1.839,1.839,0,0,0,.65324.58646,2.18061,2.18061,0,0,0,1.02737.22089m2.93144-5.90741a3.588,3.588,0,0,1,.7106,1.30734,5.94662,5.94662,0,0,1,.23116,1.72,5.7227,5.7227,0,0,1-.25,1.72086,3.90406,3.90406,0,0,1-.74057,1.36469,3.3587,3.3587,0,0,1-1.2397.90324,4.309,4.309,0,0,1-1.71229.31677,4.37451,4.37451,0,0,1-1.65321-.27825,3.12049,3.12049,0,0,1-1.19-.83817,3.475,3.475,0,0,1-.7106-1.31675A6.01774,6.01774,0,0,1,9.85006,7.1608a5.70774,5.70774,0,0,1,.24057-1.71229,3.9022,3.9022,0,0,1,.74057-1.363,3.4287,3.4287,0,0,1,1.2397-.89382,4.32846,4.32846,0,0,1,1.72085-.31677,4.37775,4.37775,0,0,1,1.65322.27824,3.1266,3.1266,0,0,1,1.19175.83646m6.987,3.28674a2.57787,2.57787,0,0,0-.64382-.44177c-.23116-.11558-.47088-.22089-.702-.31678s-.46146-.18321-.69176-.26968a3.20705,3.20705,0,0,1-.577-.28852,1.54111,1.54111,0,0,1-.39383-.34246.70117.70117,0,0,1-.13442-.45119.95042.95042,0,0,1,.07706-.375.7268.7268,0,0,1,.22088-.28852.96987.96987,0,0,1,.38441-.19263,2.02615,2.02615,0,0,1,.56677-.0762,2.15406,2.15406,0,0,1,.64382.08561c.19263.05737.36557.125.51368.18236a2.79141,2.79141,0,0,1,.34246.18236c.21147.13442.34674.14469.47174.05822a.3767.3767,0,0,0,.11472-.15411.612.612,0,0,0,.048-.21146,2.038,2.038,0,0,0,.01027-.25685,1.6754,1.6754,0,0,0-.01027-.24057c-.00942-.06678-.01884-.11473-.02826-.16353a.428.428,0,0,0-.05821-.15325.56949.56949,0,0,0-.15325-.1541,1.71205,1.71205,0,0,0-.27911-.16353,4.23119,4.23119,0,0,0-.43235-.17123,4.05376,4.05376,0,0,0-.55735-.125,3.31594,3.31594,0,0,0-.61557-.04794,3.6815,3.6815,0,0,0-1.23028.19263,2.69434,2.69434,0,0,0-.89382.51369,2.19686,2.19686,0,0,0-.54707.74913,2.39726,2.39726,0,0,0-.18322.89381,2.07619,2.07619,0,0,0,.625,1.56675,2.55919,2.55919,0,0,0,.63441.46146,6.75011,6.75011,0,0,0,.70118.327c.23116.09589.46147.18236.68492.26883a3.43727,3.43727,0,0,1,.56762.2791,1.2089,1.2089,0,0,1,.38441.34246.71232.71232,0,0,1,.13442.44177.971.971,0,0,1-.09674.45633.94945.94945,0,0,1-.26969.31677,1.41858,1.41858,0,0,1-.44177.202,2.23806,2.23806,0,0,1-.58646.06763,2.706,2.706,0,0,1-.77824-.10616,3.99229,3.99229,0,0,1-.5993-.2303,3.88688,3.88688,0,0,1-.42293-.24058c-.25-.1541-.4041-.16352-.52825-.08561a.34845.34845,0,0,0-.125.16352,1.04359,1.04359,0,0,0-.0488.202,2.31556,2.31556,0,0,0-.01884.28767,1.80945,1.80945,0,0,0,.048.44262.64552.64552,0,0,0,.17122.29794,1.40183,1.40183,0,0,0,.31763.21147,3.14618,3.14618,0,0,0,.49914.21147,4.69764,4.69764,0,0,0,1.44431.22859,4.39652,4.39652,0,0,0,1.22087-.16352,2.63609,2.63609,0,0,0,.97429-.49229,2.29533,2.29533,0,0,0,.64382-.80734,2.60181,2.60181,0,0,0,.22089-1.07618,2.101,2.101,0,0,0-.17979-.88525,1.6815,1.6815,0,0,0-.44177-.66351m6.18907,2.55645a.25.25,0,0,0-.125-.15325.387.387,0,0,0-.3553.00941c-.048.01884-.11558.048-.19264.07706s-.15325.04794-.24914.077a1.49471,1.49471,0,0,1-.30821.02825.73438.73438,0,0,1-.69176-.31677,2.28343,2.28343,0,0,1-.21147-1.08645V4.46822h1.7688a.3707.3707,0,0,0,.32619-.202,1.10794,1.10794,0,0,0,.09674-.49913,2.29888,2.29888,0,0,0-.01969-.28852.67209.67209,0,0,0-.06678-.22089.37754.37754,0,0,0-.14469-.1541.40241.40241,0,0,0-.19177-.048H27.699V1.43147a.34838.34838,0,0,0-.05821-.19263.38867.38867,0,0,0-.16353-.13441.78593.78593,0,0,0-.24914-.06678,3.26979,3.26979,0,0,0-.35615-.01969,3.19371,3.19371,0,0,0-.34246.01969.71993.71993,0,0,0-.25.06678.42794.42794,0,0,0-.17122.14469.39125.39125,0,0,0-.048.18235V3.05815h-.88525a.43251.43251,0,0,0-.19178.04794.30227.30227,0,0,0-.14469.16353.93488.93488,0,0,0-.06678.21147,1.24473,1.24473,0,0,0-.01969.28852,1.00434,1.00434,0,0,0,.09589.49913.35273.35273,0,0,0,.327.202h.89381V8.671a4.55913,4.55913,0,0,0,.12072,1.15066,2.0452,2.0452,0,0,0,.41352.84587,1.74822,1.74822,0,0,0,.73971.5,3.06653,3.06653,0,0,0,1.0385.16352,2.67038,2.67038,0,0,0,.39383-.02911c.13442-.01969.25684-.03852.375-.06763a1.41648,1.41648,0,0,0,.32619-.10531.77827.77827,0,0,0,.24058-.1541.53764.53764,0,0,0,.13441-.27825,1.61929,1.61929,0,0,0,.03853-.41352,2.09477,2.09477,0,0,0-.01883-.26883,1.03687,1.03687,0,0,0-.05822-.18322"/><path class="cls-2" d="M41.423,0a1.07287,1.07287,0,0,1,.75941.21147A.97348.97348,0,0,1,42.40327.952a1.02369,1.02369,0,0,1-.2303.75855,1.10208,1.10208,0,0,1-.77053.21147,1.0507,1.0507,0,0,1-.7594-.21147,1.0174,1.0174,0,0,1-.22089-.73971,1.025,1.025,0,0,1,.2303-.7594A1.09782,1.09782,0,0,1,41.423,0M36.358,3.88348a2.21146,2.21146,0,0,0,0-1.28422,1.0984,1.0984,0,0,0-.29794-.47088,1.49979,1.49979,0,0,0-.54793-.29794,3.55393,3.55393,0,0,0-.94176-.10531H33.24423V4.89287h1.47a2.20361,2.20361,0,0,0,.83645-.13441,1.51476,1.51476,0,0,0,.50941-.3553,1.33919,1.33919,0,0,0,.29794-.51883m.5993,3.45027a1.29711,1.29711,0,0,0-.4041-.55735,1.8235,1.8235,0,0,0-.68492-.34674,3.6967,3.6967,0,0,0-1.06761-.12414H33.24423V9.78489h1.91263a2.56872,2.56872,0,0,0,.80734-.10531,1.78421,1.78421,0,0,0,.5993-.31763,1.60437,1.60437,0,0,0,.39383-.51882,1.6661,1.6661,0,0,0,.14383-.72088,1.9896,1.9896,0,0,0-.14383-.78765m1.27822-1.18234a2.68926,2.68926,0,0,1,.452.8356,3.08979,3.08979,0,0,1,.17123,1.04792,3.48692,3.48692,0,0,1-.13442.97087,2.82518,2.82518,0,0,1-.375.80735,3.04068,3.04068,0,0,1-.58646.625,3.22215,3.22215,0,0,1-.77053.45119,4.51568,4.51568,0,0,1-.90323.26969,6.21234,6.21234,0,0,1-1.09586.08561H32.20572a.70978.70978,0,0,1-.44177-.1541.6657.6657,0,0,1-.2303-.56677V.99056A.67066.67066,0,0,1,31.764.42294a.77055.77055,0,0,1,.44177-.15325H34.638a5.79784,5.79784,0,0,1,1.61469.19177,2.93919,2.93919,0,0,1,1.0796.55735,2.27988,2.27988,0,0,1,.65324.90324,3.09323,3.09323,0,0,1,.22089,1.19175,2.81623,2.81623,0,0,1-.09589.7594,2.53187,2.53187,0,0,1-.28852.68492,2.31634,2.31634,0,0,1-.47088.55735,1.83864,1.83864,0,0,1-.30736.23116,2.825,2.825,0,0,1,.49057.22088,2.56853,2.56853,0,0,1,.70118.58646m3.78331-3.0102a.78677.78677,0,0,0-.25-.05737,3.23951,3.23951,0,0,0-.35531-.01969,3.196,3.196,0,0,0-.34245.01969.78084.78084,0,0,0-.25.05737.3716.3716,0,0,0-.17123.14468.39131.39131,0,0,0-.04794.18236v7.42878a.43337.43337,0,0,0,.04794.19263.42038.42038,0,0,0,.17123.13441.78058.78058,0,0,0,.25.05737,3.196,3.196,0,0,0,.34245.01969,3.23951,3.23951,0,0,0,.35531-.01969.78677.78677,0,0,0,.25-.05737.37337.37337,0,0,0,.16352-.125.34247.34247,0,0,0,.05736-.19178V3.47937a.34242.34242,0,0,0-.05736-.19177.2731.2731,0,0,0-.16352-.14469M45.90148.20719a.78084.78084,0,0,0-.25-.05737,3.23919,3.23919,0,0,0-.3553-.01969,3.1963,3.1963,0,0,0-.34246.01969.78671.78671,0,0,0-.25.05737A.37915.37915,0,0,0,44.5325.351a.40572.40572,0,0,0-.04794.19263V10.903a.4332.4332,0,0,0,.04794.19263.42049.42049,0,0,0,.17123.13442.787.787,0,0,0,.25.05736,3.1963,3.1963,0,0,0,.34246.01969,3.23919,3.23919,0,0,0,.3553-.01969.78083.78083,0,0,0,.25-.05736.37332.37332,0,0,0,.16352-.125.34255.34255,0,0,0,.05736-.19178V.53424A.32453.32453,0,0,0,46.065.3416a.33051.33051,0,0,0-.16352-.13441M49.94762.3416a.35613.35613,0,0,0-.17123-.13441.78083.78083,0,0,0-.25-.05736,3.23938,3.23938,0,0,0-.35531-.0197,3.19338,3.19338,0,0,0-.34245.0197.78649.78649,0,0,0-.25.05736A.37931.37931,0,0,0,48.40741.351a.40584.40584,0,0,0-.04794.19263V10.903a.4333.4333,0,0,0,.04794.19263.42032.42032,0,0,0,.17123.13442.78675.78675,0,0,0,.25.05736,3.19337,3.19337,0,0,0,.34245.01969,3.2369,3.2369,0,0,0,.35531-.01969.78083.78083,0,0,0,.25-.05736.37321.37321,0,0,0,.16352-.125.34251.34251,0,0,0,.05822-.19177V.53424a.27914.27914,0,0,0-.0488-.19264"/></g></g></g></svg>