<svg xmlns="http://www.w3.org/2000/svg" viewBox="0 0 22.61787 17.00126"><defs><style>.cls-1{fill:#53a2da;}.cls-2{fill:#3fa9f5;}</style></defs><title>Asset 57</title><g id="Layer_2" data-name="Layer 2"><g id="Layer_1-2" data-name="Layer 1"><path class="cls-1" d="M5.80876,11.42524H3.23841a.92651.92651,0,0,0-.93106.92094V13.773a.95059.95059,0,0,0,.93106.94114H5.80876a.9506.9506,0,0,0,.93107-.94114V12.34618A.92652.92652,0,0,0,5.80876,11.42524Z"/><path class="cls-2" d="M21.8994,7.2053a2.94127,2.94127,0,0,0-.27326-.22267l-.04051-.03033V2.15552l-.01013-.03039V2.05429A2.19431,2.19431,0,0,0,20.33078.22261,2.24514,2.24514,0,0,0,19.35932,0H2.09487a2.21355,2.21355,0,0,0-.62742.13156c-.05065.0202-.07079.0202-.08092.03033a2.27894,2.27894,0,0,0-.22273.1113A2.223,2.223,0,0,0,0,2.115V14.94691a2.23189,2.23189,0,0,0,1.25485,1.83175,2.09771,2.09771,0,0,0,.96145.2226H20.70508a.96144.96144,0,0,0,.97159-.98159,1.10228,1.10228,0,0,1,.01013-.12149V14.1576a.97365.97365,0,0,0-.24287-.62742l-.04052-.04046.01013-.05065a5.81047,5.81047,0,0,1,.44534-1.06257l.05053-.1113A5.27334,5.27334,0,0,0,22.61787,9.887V9.1888A2.69423,2.69423,0,0,0,21.8994,7.2053ZM1.02211,2.20611a1.21289,1.21289,0,0,1,.31377-.80957l.02026-.02026a1.23811,1.23811,0,0,1,.87029-.37443H19.35932a1.20713,1.20713,0,0,1,1.2042,1.20426V3.43063h-3.6331L16.90015,3.38c-.02026-.04046-.03039-.07085-.05065-.1113-.02013-.03033-.04039-.07085-.06065-.10118a2.07272,2.07272,0,0,0-1.81149-1.09295,2.17468,2.17468,0,0,0-1.83174,1.08282,1.44393,1.44393,0,0,0-.11118.21254l-.02026.06072H1.02211ZM20.56352,4.43248V6.59807L20.45209,6.588a2.64606,2.64606,0,0,0-.28326-.01013h-.08092l-.02026-.02026a2.41371,2.41371,0,0,0-1.48758-.49586c-.11142,0-.2226.01013-.334.02026h-.03039l-.05052-.01013a2.30011,2.30011,0,0,0-1.002-.30358H17.0621V4.43248Zm-19.54141,0H12.86223V7.61005l-.13143-.05058a3.32051,3.32051,0,0,0-1.11328-.20241,2.11192,2.11192,0,0,0-1.15355.3441,3.65227,3.65227,0,0,0-.30365.253l-.03038.03039H1.02211Zm12.22481,11.5568H2.22643a.50386.50386,0,0,1-.18221-.03039,1.21474,1.21474,0,0,1-1.02211-1.184V8.99652H9.61382L9.59356,9.118a1.69983,1.69983,0,0,0-.0404.41488c0,.91081.63755,1.346,1.33576,1.67992h.02026l.04052.03033-.06078.07085v.1113H8.92574a.9265.9265,0,0,0-.92094.931V13.773a.93837.93837,0,0,0,.78938.931l4.45274.01013Zm7.45816,0H14.2589V14.19806h6.44618ZM21.616,9.86681a3.13332,3.13332,0,0,1-.15194.931l-.02014.05058c-.04052.11137-.07078.21254-.12143.32384-.081.20241-.18209.39469-.28338.5971l-.06078.13156a7.68172,7.68172,0,0,0-.36418.759,3.43066,3.43066,0,0,0-.15194.45534l-.02014.07085H14.76489l-.03039-.06072A6.95576,6.95576,0,0,0,12.85223,11.152c-.2126-.172-.415-.30358-.53638-.38449a7.46722,7.46722,0,0,0-.69833-.3441l-.06066-.02026c-.51612-.21248-1.00185-.41489-1.00185-.87029a1.27879,1.27879,0,0,1,.12143-.55658,1.01739,1.01739,0,0,1,.87029-.60722.25248.25248,0,0,1,.08092-.01007,2.64485,2.64485,0,0,1,1.47757.51606c.07079.05065.13157.081.18221.11136l.05053.03033a1.01916,1.01916,0,0,0,.52625.18215h.04039V4.139a1.1366,1.1366,0,0,1,.55664-.92088,1.01913,1.01913,0,0,1,1.03224.01013.07711.07711,0,0,1,.04052.0202,1.07161,1.07161,0,0,1,.52625.90068V7.11419l.06066-.05059a1.28277,1.28277,0,0,1,.85-.30358,1.34871,1.34871,0,0,1,1.02212.44528l.02025.02026.03039-.01013a1.11569,1.11569,0,0,1,.57678-.15183A1.25594,1.25594,0,0,1,19.6831,7.6l.01.03033.02026-.01013a4.14922,4.14922,0,0,1,.47573-.03033,1.38607,1.38607,0,0,1,.29339.0202.613.613,0,0,1,.15194.02026c.44522.1113.98159.46553.98159,1.55849Z"/><path class="cls-1" d="M20.30888,15.09374a.51664.51664,0,0,1-.35395.488l-.012.01117h-.02922a.49507.49507,0,0,1-.11769.01374.51246.51246,0,1,1,.51289-.51289Z"/></g></g></svg>