<svg xmlns="http://www.w3.org/2000/svg" viewBox="0 0 17.04374 16.98827"><defs><style>.cls-1{fill:#3fa9f5;}</style></defs><title>MOTO</title><g id="Layer_2" data-name="Layer 2"><g id="Layer_1-2" data-name="Layer 1"><g id="MOTO"><path class="cls-1" d="M4.12458,1.03884l1.461,3.40892L3.69577,5.99467l-.6077.49743.3352.71018a15.2363,15.2363,0,0,0,6.36042,6.35877l.71.33474.49715-.60746,1.54643-1.88941,3.4132,1.46281-.72009,3.11987A14.40661,14.40661,0,0,1,1.0067,1.75853l3.11788-.71969M4.24568,0a.96809.96809,0,0,0-.1784.02L.61666.81637A.83492.83492,0,0,0,0,1.59265,15.39427,15.39427,0,0,0,15.39568,16.98827a.83569.83569,0,0,0,.7769-.61659l.7964-3.45075a1.095,1.095,0,0,0,.01926-.177.87381.87381,0,0,0-.48525-.73965l-3.71614-1.59266a.96.96,0,0,0-.311-.06358.90574.90574,0,0,0-.618.29308l-1.6452,2.01018A14.29749,14.29749,0,0,1,4.33279,6.77292L6.34435,5.12634a.89866.89866,0,0,0,.29311-.61592.93851.93851,0,0,0-.065-.31314L4.97975.48111A.86822.86822,0,0,0,4.24568,0Z"/><path class="cls-1" d="M17.04374,3.48262c0,1.92172-1.91754,3.47994-4.28257,3.47994a5.10577,5.10577,0,0,1-1.797-.32412,3.82386,3.82386,0,0,1-2.35179.85944.13386.13386,0,0,1-.13383-.13383.154.154,0,0,1,.03694-.092,4.28677,4.28677,0,0,0,.9166-1.60213A3.094,3.094,0,0,1,8.4786,3.48262C8.4786,1.56091,10.39614.003,12.76117.003S17.04374,1.56091,17.04374,3.48262ZM13.988,4.00784a.98029.98029,0,0,0-.718-.79741l-.83783-.23908a.14105.14105,0,0,1,.039-.27672h.54927a.4894.4894,0,0,1,.17077.03729.20556.20556,0,0,0,.2356-.03415l.29345-.29311a.20077.20077,0,0,0-.02579-.30739,1.22372,1.22372,0,0,0-.53184-.19168V1.609a.26773.26773,0,0,0-.26766-.26766h-.26766a.26773.26773,0,0,0-.26766.26766v.29345a.94169.94169,0,0,0-.82529,1.055.98029.98029,0,0,0,.718.79741l.83783.23908a.14105.14105,0,0,1-.039.27672h-.54857a.41242.41242,0,0,1-.17147-.03729.20556.20556,0,0,0-.2356.03415l-.29345.29311a.20077.20077,0,0,0,.02579.30739,1.22372,1.22372,0,0,0,.53184.19168v.29659a.26773.26773,0,0,0,.26766.26766H12.895a.26773.26773,0,0,0,.26766-.26766v-.2938A.94154.94154,0,0,0,13.988,4.00784Z"/></g></g></g></svg>