<svg xmlns="http://www.w3.org/2000/svg" viewBox="0 0 16.99322 16.98828"><defs><style>.cls-1{fill:#3fa9f5;}</style></defs><title>MSP Control</title><g id="Layer_2" data-name="Layer 2"><g id="Layer_1-2" data-name="Layer 1"><g id="MSP_control"><path class="cls-1" d="M16.575,9.00874H.41821a.51106.51106,0,0,1,0-1.00511H16.575a.51106.51106,0,0,1,0,1.00511Z"/><path class="cls-1" d="M16.575,2.92953H.41821A.466.466,0,0,1,0,2.427a.466.466,0,0,1,.41821-.50256H16.575a.466.466,0,0,1,.41821.50256A.466.466,0,0,1,16.575,2.92953Z"/><path class="cls-1" d="M16.575,15.06439H.41821a.51105.51105,0,0,1,0-1.0051H16.575a.51105.51105,0,0,1,0,1.0051Z"/><rect class="cls-1" x="5.97614" width="2.41913" height="4.85379" rx="1.20957"/><rect class="cls-1" x="11.55878" y="6.07421" width="2.41913" height="4.85379" rx="1.20957"/><rect class="cls-1" x="3.01531" y="12.13449" width="2.41913" height="4.85379" rx="1.20957"/></g></g></g></svg>