<svg xmlns="http://www.w3.org/2000/svg" viewBox="0 0 10.63 16.97998"><defs><style>.cls-1{fill:#00abee;}</style></defs><g id="Layer_2" data-name="Layer 2"><g id="Layer_1-2" data-name="Layer 1"><path class="cls-1" d="M9.07007,0h-7.51A1.55347,1.55347,0,0,0,0,1.55V15.43a1.55347,1.55347,0,0,0,1.56006,1.55h7.51a1.55142,1.55142,0,0,0,1.54-1.31L10.63,1.55A1.55351,1.55351,0,0,0,9.07007,0Zm.53,15.67A.45645.45645,0,0,1,9.15,16H1.48A.47806.47806,0,0,1,1,15.53V1.48A.48663.48663,0,0,1,1.48,1H9.15a.48005.48005,0,0,1,.48.48Z"/><circle class="cls-1" cx="5.31959" cy="14.3049" r="0.69856"/><path class="cls-1" d="M7.84009,3.99h-5.04A.794.794,0,0,0,2,4.78V9.82a.796.796,0,0,0,.80005.8h5.04A.78752.78752,0,0,0,8.63,9.82V4.78A.78531.78531,0,0,0,7.84009,3.99Zm-.24,5.64c-.4801,0-.63013,0-1.03.02l-.04-.04c-.01-.82-.01-.93-.03-1.84L6.49,6l-.5,2.16c-.16992.73-.24,1.06-.31006,1.43006L5.63,9.63c-.33,0-.45007,0-.79992.02l-.04-.04c-.09009-.42-.2-.93-.30005-1.39L4,6.05,3.96,7.57C3.92,8.94,3.92,9.08,3.92,9.59l-.03.04c-.35,0-.47,0-.86.02l-.04-.04c.06006-1.08.07007-1.2.11011-1.91L3.16,6.25c.0199-.62.02991-.93.02991-1.24l.04-.03c.58008,0,.76,0,1.4-.02L4.67,5c.06995.35.08.37.24,1.06l.43006,1.87L5.75,6.11c.13-.52.15-.63.24-1.09l.04-.04c.56006,0,.73-.01,1.37-.02L7.43994,5c.01.54.01.69.05,1.41l.04,1.02c.06006,1.23.07007,1.52.11,2.16Z"/></g></g></svg>