<svg xmlns="http://www.w3.org/2000/svg" viewBox="0 0 121.08 121.08"><defs><style>.cls-1{fill:#fff;}.cls-1,.cls-2{opacity:0.3;}.cls-2{fill:#d4fcff;}.cls-3{fill:#ffd15c;}.cls-4{fill:#f8b64c;}.cls-5{fill:#40596b;}.cls-6{fill:#f2f2f2;}.cls-7{fill:#cdd6e0;}.cls-8{fill:#ff7058;}</style></defs><title>Newsletter</title><g id="Layer_2" data-name="Layer 2"><g id="footer"><circle class="cls-1" cx="60.54" cy="60.54" r="60.54" transform="translate(-0.61 120.47) rotate(-89.42)"/><path class="cls-2" d="M80.08,42c-3.36-3.37-11.4-3.41-16-5l-3,1h-3c-3-3-1.35-1-6-1-9.28,0-3,1-6,0-1.68-.56,2,9-2,9-3.56,4.39-2.2,5.14-3,11,0,0-4,1-4,1,0,.41,0,.59,0,1,0,.19,0,1.81,0,2s-1,1.72-1,2c0,.5-2,.5-2,1s0,1.5,0,2c0,.29,0,.72,0,1s0-.19,0,0c0,.41,1,.6,1,1,0,0,0,0,0,0,.92,6.76,1,13-2,19l1,1,38.74,31.74a60.6,60.6,0,0,0,46.07-43.29"/><path class="cls-3" d="M87.89,85.75a2.32,2.32,0,0,1-.68,1.72,2.51,2.51,0,0,1-1.6.57H35.24a2.76,2.76,0,0,1-1.6-.57A2.33,2.33,0,0,1,33,85.75V52.21H87.89V85.75Z"/><path class="cls-4" d="M87.21,87.47a2.51,2.51,0,0,1-1.6.57H35.24a2.76,2.76,0,0,1-1.6-.57l26.78-23Z"/><path class="cls-5" d="M87.89,52.21l-7.78,5.61L61.91,70.87a2.57,2.57,0,0,1-3.09,0L40.74,57.82,33,52.21l7.79-5.6L57.68,34.47l1.26-.91a2.57,2.57,0,0,1,3.09,0l1.25.91,8.13,5.84,4,2.86,4.69,3.44Z"/><path class="cls-6" d="M80.11,41.57V57.82L61.91,70.87a2.57,2.57,0,0,1-3.09,0L40.74,57.82V36.76A2.29,2.29,0,0,1,43,34.47H72.9Z"/><path class="cls-7" d="M73,39.74a1.81,1.81,0,0,0,1.84,1.83h5.26L73,34.47v5.27Z"/><path class="cls-8" d="M67.18,57.48H69a6,6,0,0,1-2.75,2.86,10.09,10.09,0,0,1-5.15,1.15,11.41,11.41,0,0,1-5-1,6.81,6.81,0,0,1-3.2-3,8.89,8.89,0,0,1-1-4.24A9.52,9.52,0,0,1,53,48.55a7.15,7.15,0,0,1,3.21-3.2,10.39,10.39,0,0,1,4.69-1,9,9,0,0,1,4,.91,5.64,5.64,0,0,1,2.63,2.52,7.47,7.47,0,0,1,.92,3.55,6.83,6.83,0,0,1-1.38,4.12,5.14,5.14,0,0,1-4.46,2.29,3,3,0,0,1-1.15-.23,1.15,1.15,0,0,1-.45-.8,3.33,3.33,0,0,1-2.41,1,3,3,0,0,1-2.4-1,3.7,3.7,0,0,1-1-2.75A7,7,0,0,1,56.3,50,4.28,4.28,0,0,1,60,48a2.83,2.83,0,0,1,2.4,1.26l.23-1H65l-1.37,6.41a2.87,2.87,0,0,0-.12.8.4.4,0,0,0,.12.34c.11.12.11.12.23.12A2.55,2.55,0,0,0,65,55.3a4.72,4.72,0,0,0,1.49-1.83,6.19,6.19,0,0,0,.57-2.4,4.74,4.74,0,0,0-1.6-3.66A6,6,0,0,0,61,45.92a7.86,7.86,0,0,0-4.13,1,6.46,6.46,0,0,0-2.51,2.75,8.16,8.16,0,0,0-.8,3.77,7,7,0,0,0,.91,3.44A5.72,5.72,0,0,0,57.1,59.2a10.48,10.48,0,0,0,3.9.68,11.81,11.81,0,0,0,3.66-.57A6.89,6.89,0,0,0,67.18,57.48Zm-9.73-3.66a2.55,2.55,0,0,0,.45,1.71,1.59,1.59,0,0,0,1.15.58,2.26,2.26,0,0,0,.92-.23,3.45,3.45,0,0,0,.68-.58,4,4,0,0,0,.8-1.6,6.28,6.28,0,0,0,.35-1.94,2.46,2.46,0,0,0-.46-1.61,1.6,1.6,0,0,0-1.15-.57,2.13,2.13,0,0,0-1.37.57,3.18,3.18,0,0,0-1,1.72A6.31,6.31,0,0,0,57.45,53.82Z"/></g></g></svg>