<svg xmlns="http://www.w3.org/2000/svg" viewBox="0 0 19.3212 16.98999"><defs><style>.cls-1{fill:#3fa9f5;}</style></defs><title>Asset 59</title><g id="Layer_2" data-name="Layer 2"><g id="Layer_1-2" data-name="Layer 1"><path class="cls-1" d="M12.06,0A4.22552,4.22552,0,0,0,9.5799,7.65a6.21392,6.21392,0,0,1,.7301-.72,3.22248,3.22248,0,1,1,4.97-2.7,3.073,3.073,0,0,1-.29,1.32,6.55287,6.55287,0,0,1,1,.2,4.03348,4.03348,0,0,0,.29-1.52A4.21667,4.21667,0,0,0,12.06,0Z"/><path class="cls-1" d="M3.55758,1.20422a3.02795,3.02795,0,1,0,3.028,3.028A3.02352,3.02352,0,0,0,3.55758,1.20422Zm0,5.05177a2.02381,2.02381,0,1,1,2.0238-2.0238A2.02583,2.02583,0,0,1,3.55758,6.256Z"/><path class="cls-1" d="M9.66986,15.97H6.34992a.49338.49338,0,0,1-.53992-.5V13.81a3.89134,3.89134,0,0,1,.5199-2.03,2.64844,2.64844,0,0,1,1.87-1.43A5.24552,5.24552,0,0,1,8.53,9.31a4.001,4.001,0,0,0-3.68005,3.67V15.5a1.38881,1.38881,0,0,0,1.53,1.49h4.48A6.11335,6.11335,0,0,1,9.66986,15.97Z"/><path class="cls-1" d="M.48718,12.13315c.51694,0,.51694-.62255.51694-.62255S.64775,9.40778,3.54967,9.51828a3.25918,3.25918,0,0,1,1.60657.27108,4.604,4.604,0,0,1,.78324-.69873,3.20481,3.20481,0,0,0-1.476-.57229H2.63589A2.92941,2.92941,0,0,0,.00522,11.25957C.00522,11.55074-.08524,12.13315.48718,12.13315Z"/><path class="cls-1" d="M18.93878,12.46078c-.2867-.16808-.50414-.2867-.50414-.2867v-.8204c.35584-.19771.514-.29659.514-.29659a.67566.67566,0,0,0,.32616-.84019,5.2263,5.2263,0,0,0-1.13678-1.99676.72505.72505,0,0,0-.90933-.14824c-.29659.168-.52393.31633-.52393.31633A3.13179,3.13179,0,0,0,16.0129,7.973v-.603a.69446.69446,0,0,0-.58329-.71168,5.27735,5.27735,0,0,0-2.29323,0,.75607.75607,0,0,0-.59307.72157v.603a3.53539,3.53539,0,0,0-.68212.40532c-.19765-.12851-.5337-.31633-.5337-.31633a.6923.6923,0,0,0-.88978.14824A4.971,4.971,0,0,0,9.28126,10.207a.74715.74715,0,0,0,.33617.86c.21744.12851.51391.2867.51391.2867-.00977.26685-.00977.54366-.00977.81051-.27681.16808-.50414.29659-.50414.29659a.75217.75217,0,0,0-.33617.86,5.36008,5.36008,0,0,0,1.14668,1.9967.75289.75289,0,0,0,.90945.12851c.27668-.15813.49424-.29654.514-.29654a3.98988,3.98988,0,0,0,.70178.40532v.603a.73.73,0,0,0,.57328.72157,5.69629,5.69629,0,0,0,1.14668.10872,5.1679,5.1679,0,0,0,1.17624-.12851.72747.72747,0,0,0,.55361-.70178v-.603a4.7502,4.7502,0,0,0,.69189-.41521c.20754.12851.52393.30643.52393.30643a.7229.7229,0,0,0,.90932-.13834,5.38089,5.38089,0,0,0,1.14668-1.99676A.7171.7171,0,0,0,18.93878,12.46078Zm-1.62113.22733s.40531.23723.92924.54366a4.04959,4.04959,0,0,1-.72158,1.22571s-.44489-.24712-.90957-.52386a3.6556,3.6556,0,0,1-1.621.92917v1.06753a4.358,4.358,0,0,1-1.43325,0V14.86279A4.0191,4.0191,0,0,1,11.96,13.93362s-.47446.27674-.91923.53376a4.2638,4.2638,0,0,1-.71168-1.22572s.43488-.2768.90933-.54365a4.06965,4.06965,0,0,1-.00989-1.85836s-.57328-.33611-.89944-.54365a4.1119,4.1119,0,0,1,.71168-1.2455s.3854.22733.91923.54365A3.76686,3.76686,0,0,1,13.58127,8.665V7.59739a4.52,4.52,0,0,1,1.41346,0V8.665a3.72966,3.72966,0,0,1,1.63091.92918s.49424-.28664.89967-.53376a3.58215,3.58215,0,0,1,.72158,1.24544s-.49424.2966-.91935.53382A3.553,3.553,0,0,1,17.31765,12.68811Z"/><path class="cls-1" d="M14.28305,9.72266a2.04123,2.04123,0,1,0,2.03622,2.04617A2.04179,2.04179,0,0,0,14.28305,9.72266Zm.0099,3.06428a1.02805,1.02805,0,1,1,1.01817-1.028A1.02719,1.02719,0,0,1,14.293,12.78694Z"/><path class="cls-1" d="M14.28305,9.72266a2.04123,2.04123,0,1,0,2.03622,2.04617A2.04179,2.04179,0,0,0,14.28305,9.72266Zm.0099,3.06428a1.02805,1.02805,0,1,1,1.01817-1.028A1.02719,1.02719,0,0,1,14.293,12.78694Z"/></g></g></svg>