<svg xmlns="http://www.w3.org/2000/svg" viewBox="0 0 20.06537 16.99927"><defs><style>.cls-1{fill:#3fa9f5;}</style></defs><title>Payment Methods</title><g id="Layer_2" data-name="Layer 2"><g id="Layer_1-2" data-name="Layer 1"><g id="Payment_methods"><path class="cls-1" d="M19.45228,3.32748a1.91773,1.91773,0,0,0-.945-.47246.5751.5751,0,0,0-.181-.02012h-.31157V1.91006A1.91777,1.91777,0,0,0,16.09456,0H1.93018A1.92,1.92,0,0,0,0,1.91006V12.30463a1.94347,1.94347,0,0,0,1.08572,1.72911,2.82132,2.82132,0,0,0,.12063.36189,2.396,2.396,0,0,0,.5127.69365,2.30022,2.30022,0,0,0,.4222.31163h.02013a1.57222,1.57222,0,0,0,.49258.17088l.191.03019,14.10418,1.39729H17.13a1.90482,1.90482,0,0,0,1.90993-1.729L20.05531,4.9359a1.27971,1.27971,0,0,0,.01006-.19094A1.93944,1.93944,0,0,0,19.45228,3.32748ZM2.855,14.58664a1.02641,1.02641,0,0,1-.23119-.08044.71217.71217,0,0,1-.21113-.15076.71767.71767,0,0,1-.12063-.13069H16.09456a1.92642,1.92642,0,0,0,1.92012-1.92012V3.83012h.24126a.53774.53774,0,0,1,.13069.03019.88.88,0,0,1,.382.21107.92388.92388,0,0,1,.29145.754L18.03468,15.15965a.91714.91714,0,0,1-.33157.63334.84179.84179,0,0,1-.553.191h-.11069L2.93546,14.5967H2.9254ZM1.01534,1.91006A.91821.91821,0,0,1,1.93018.99522H16.09456a.91821.91821,0,0,1,.91484.91484V2.8349H1.01534Zm0,1.92006H17.0094V6.6047H1.01534Zm.91484,9.38935a.34353.34353,0,0,1-.13069-.02013.909.909,0,0,1-.78415-.89471V7.61H17.0094v4.69465a.91821.91821,0,0,1-.91484.91484Z"/><path class="cls-1" d="M4.88571,9.44967H2.76452a.84524.84524,0,0,0-.85446.8444v1.17616a.86242.86242,0,0,0,.85446.86459H4.88571a.86243.86243,0,0,0,.85447-.86459V10.29407A.84525.84525,0,0,0,4.88571,9.44967Zm-.15081.98515v.89472H2.90528v-.89472Z"/><path class="cls-1" d="M11.49042,9.4396H7.46929a.84526.84526,0,0,0-.84446.85447v1.17616a.84846.84846,0,0,0,.72383.85452l4.14176.01007a.87053.87053,0,0,0,.80415-.58308.83451.83451,0,0,0,.06037-.28151V10.29407A.8624.8624,0,0,0,11.49042,9.4396Zm-.15082.99522v.88465H7.62011v-.88465Z"/></g></g></g></svg>