<svg xmlns="http://www.w3.org/2000/svg" viewBox="0 0 19.64072 16.98716"><defs><style>.cls-1{fill:#3fa9f5;}</style></defs><title>Payment pages</title><g id="Layer_2" data-name="Layer 2"><g id="Layer_1-2" data-name="Layer 1"><g id="Payment_pages"><path class="cls-1" d="M18.75618,0H.88454A.89235.89235,0,0,0,0,.88454V16.10262a.8794.8794,0,0,0,.88454.88454H18.75618a.87939.87939,0,0,0,.88454-.88454V.88454A.88582.88582,0,0,0,18.75618,0ZM5.0683,1.02094H6.08051V2.03315H5.0683Zm-2.02443,0H4.05608V2.03315H3.04387ZM1.01221,1.016H2.03165V2.03315H1.01221ZM18.617,15.97686H1.01221V5.0698H18.617Zm.01155-11.91928H1.01221V3.04537h17.6163Z"/><path class="cls-1" d="M12.05426,12.46406a1.8401,1.8401,0,0,1-1.71886,1.18335v.78368a.26145.26145,0,0,1-.25992.25992H9.55433a.2606.2606,0,0,1-.25992-.25992V13.65a2.29028,2.29028,0,0,1-1.40669-.48849.2634.2634,0,0,1-.03005-.39837l.56686-.55249a.25119.25119,0,0,1,.31609-.03266.99154.99154,0,0,0,.55641.1711h1.07886a.47991.47991,0,0,0,.13453-.94041L8.8438,10.92022A1.86406,1.86406,0,0,1,7.4802,9.349,1.78246,1.78246,0,0,1,9.25392,7.40348h.04049V6.62242a.2606.2606,0,0,1,.25992-.25992h.52115a.26145.26145,0,0,1,.25992.25992v.78106a2.2903,2.2903,0,0,1,1.40669.48849.26328.26328,0,0,1,.02874.39837l-.56556.55314a.25317.25317,0,0,1-.31738.03266.984.984,0,0,0-.55641-.17176H9.25392a.48028.48028,0,0,0-.13583.94106l1.75674.51462A1.785,1.785,0,0,1,12.05426,12.46406Z"/></g></g></g></svg>