<svg xmlns="http://www.w3.org/2000/svg" viewBox="0 0 19.96 16.9"><defs><style>.cls-1{fill:#3fa9f5;}</style></defs><title>Payment_methods</title><g id="Layer_2" data-name="Layer 2"><g id="Layer_1-2" data-name="Layer 1"><path class="cls-1" d="M4.83,9.43H2.71a.82.82,0,0,0-.82.82v1.17a.83.83,0,0,0,.82.83H4.83a.83.83,0,0,0,.82-.83V10.25A.82.82,0,0,0,4.83,9.43Zm-.12,1.88H2.82v-1H4.71Zm6.71-1.88h-4a.82.82,0,0,0-.82.82v1.17a.82.82,0,0,0,.7.82h4.13a.84.84,0,0,0,.77-.56.86.86,0,0,0,.05-.27V10.25A.82.82,0,0,0,11.42,9.43Zm-3.9,1.88v-1H11.3v1Zm3.9-1.88h-4a.82.82,0,0,0-.82.82v1.17a.82.82,0,0,0,.7.82h4.13a.84.84,0,0,0,.77-.56.86.86,0,0,0,.05-.27V10.25A.82.82,0,0,0,11.42,9.43Zm-3.9,1.88v-1H11.3v1ZM4.83,9.43H2.71a.82.82,0,0,0-.82.82v1.17a.83.83,0,0,0,.82.83H4.83a.83.83,0,0,0,.82-.83V10.25A.82.82,0,0,0,4.83,9.43Zm-.12,1.88H2.82v-1H4.71Zm.12-1.88H2.71a.82.82,0,0,0-.82.82v1.17a.83.83,0,0,0,.82.83H4.83a.83.83,0,0,0,.82-.83V10.25A.82.82,0,0,0,4.83,9.43Zm-.12,1.88H2.82v-1H4.71Zm6.71-1.88h-4a.82.82,0,0,0-.82.82v1.17a.82.82,0,0,0,.7.82h4.13a.84.84,0,0,0,.77-.56.86.86,0,0,0,.05-.27V10.25A.82.82,0,0,0,11.42,9.43Zm-3.9,1.88v-1H11.3v1Zm3.9-1.88h-4a.82.82,0,0,0-.82.82v1.17a.82.82,0,0,0,.7.82h4.13a.84.84,0,0,0,.77-.56.86.86,0,0,0,.05-.27V10.25A.82.82,0,0,0,11.42,9.43Zm-3.9,1.88v-1H11.3v1ZM4.83,9.43H2.71a.82.82,0,0,0-.82.82v1.17a.83.83,0,0,0,.82.83H4.83a.83.83,0,0,0,.82-.83V10.25A.82.82,0,0,0,4.83,9.43Zm-.12,1.88H2.82v-1H4.71Zm6.71-1.88h-4a.82.82,0,0,0-.82.82v1.17a.82.82,0,0,0,.7.82h4.13a.84.84,0,0,0,.77-.56.86.86,0,0,0,.05-.27V10.25A.82.82,0,0,0,11.42,9.43Zm-3.9,1.88v-1H11.3v1ZM4.83,9.43H2.71a.82.82,0,0,0-.82.82v1.17a.83.83,0,0,0,.82.83H4.83a.83.83,0,0,0,.82-.83V10.25A.82.82,0,0,0,4.83,9.43Zm-.12,1.88H2.82v-1H4.71Zm.12-1.88H2.71a.82.82,0,0,0-.82.82v1.17a.83.83,0,0,0,.82.83H4.83a.83.83,0,0,0,.82-.83V10.25A.82.82,0,0,0,4.83,9.43Zm-.12,1.88H2.82v-1H4.71Zm6.71-1.88h-4a.82.82,0,0,0-.82.82v1.17a.82.82,0,0,0,.7.82h4.13a.84.84,0,0,0,.77-.56.86.86,0,0,0,.05-.27V10.25A.82.82,0,0,0,11.42,9.43Zm-3.9,1.88v-1H11.3v1Zm3.9-1.88h-4a.82.82,0,0,0-.82.82v1.17a.82.82,0,0,0,.7.82h4.13a.84.84,0,0,0,.77-.56.86.86,0,0,0,.05-.27V10.25A.82.82,0,0,0,11.42,9.43Zm-3.9,1.88v-1H11.3v1ZM4.83,9.43H2.71a.82.82,0,0,0-.82.82v1.17a.83.83,0,0,0,.82.83H4.83a.83.83,0,0,0,.82-.83V10.25A.82.82,0,0,0,4.83,9.43Zm-.12,1.88H2.82v-1H4.71Zm.12-1.88H2.71a.82.82,0,0,0-.82.82v1.17a.83.83,0,0,0,.82.83H4.83a.83.83,0,0,0,.82-.83V10.25A.82.82,0,0,0,4.83,9.43Zm-.12,1.88H2.82v-1H4.71Zm6.71-1.88h-4a.82.82,0,0,0-.82.82v1.17a.82.82,0,0,0,.7.82h4.13a.84.84,0,0,0,.77-.56.86.86,0,0,0,.05-.27V10.25A.82.82,0,0,0,11.42,9.43Zm-3.9,1.88v-1H11.3v1Zm3.9-1.88h-4a.82.82,0,0,0-.82.82v1.17a.82.82,0,0,0,.7.82h4.13a.84.84,0,0,0,.77-.56.86.86,0,0,0,.05-.27V10.25A.82.82,0,0,0,11.42,9.43Zm-3.9,1.88v-1H11.3v1ZM4.83,9.43H2.71a.82.82,0,0,0-.82.82v1.17a.83.83,0,0,0,.82.83H4.83a.83.83,0,0,0,.82-.83V10.25A.82.82,0,0,0,4.83,9.43Zm-.12,1.88H2.82v-1H4.71Z"/><path class="cls-1" d="M19.36,3.32a1.93,1.93,0,0,0-.92-.47.62.62,0,0,0-.18,0h-.35v-1A1.88,1.88,0,0,0,16,0H1.89A1.89,1.89,0,0,0,0,1.88V12.25A1.89,1.89,0,0,0,1.08,14a3,3,0,0,0,.11.38A2.48,2.48,0,0,0,1.7,15a2.25,2.25,0,0,0,.42.3h0a1.68,1.68,0,0,0,.49.17l.18,0L16.88,16.9h.18a1.87,1.87,0,0,0,1.87-1.69L20,4.89A1.88,1.88,0,0,0,19.36,3.32ZM.94,1.88a1,1,0,0,1,1-.95H16a1,1,0,0,1,.95.95v1H.94Zm0,1.88H17V6.6H.94Zm1,9.44a.39.39,0,0,1-.14,0,.94.94,0,0,1-.81-.93V7.53H17v4.72a1,1,0,0,1-.95.95ZM18,15.11A.92.92,0,0,1,17,16L2.89,14.58H2.81a.92.92,0,0,1-.25-.09.87.87,0,0,1-.21-.15.59.59,0,0,1-.16-.2H16a1.88,1.88,0,0,0,1.88-1.88V3.76h.28l.14,0a.83.83,0,0,1,.39.22.93.93,0,0,1,.3.78Z"/></g></g></svg>