<svg xmlns="http://www.w3.org/2000/svg" viewBox="0 0 80 80"><defs><style>.cls-1{fill:#0379bf;}</style></defs><g id="Layer_2" data-name="Layer 2"><g id="Layer_1-2" data-name="Layer 1"><path class="cls-1" d="M60.52713,47.75194a2.20367,2.20367,0,0,1-1.24031.49612H20.71318a1.99173,1.99173,0,0,1-1.36434-.62015,10.82868,10.82868,0,0,1-2.35659-6.82171A10.58772,10.58772,0,0,1,27.65891,30.13953a10.30437,10.30437,0,0,1,5.45737,1.48838,11.86233,11.86233,0,0,1,3.2248,2.85271h0a10.98657,10.98657,0,0,0-6.20155-5.5814,12.5463,12.5463,0,0,1,11.28683-7.19379A12.34334,12.34334,0,0,1,53.70543,32.49612a8.48574,8.48574,0,0,0-4.58915,3.10078h0a5.50709,5.50709,0,0,1,1.36434-.99225,8.3549,8.3549,0,0,1,12.52713,7.1938,8.434,8.434,0,0,1-2.48062,5.95349Zm.86822,6.07752h0v3.5969a.84779.84779,0,0,1-.86822.86821h-3.5969a.84779.84779,0,0,1-.86821-.86821V54.20155a.32889.32889,0,0,0-.3721-.37209H43.03876a.32888.32888,0,0,0-.37209.37209v3.22481a.8478.8478,0,0,1-.86822.86821h-3.5969a.8478.8478,0,0,1-.86822-.86821V54.20155a.32888.32888,0,0,0-.37209-.37209H24.31008a.32889.32889,0,0,0-.3721.37209v3.22481a.84779.84779,0,0,1-.86821.86821h-3.5969a.84779.84779,0,0,1-.86822-.86821V52.96124h0V52.093c0-.49612.37209-.74418.86822-.74418H60.52713c.49613,0,.86822.24806.86822.74418ZM39.938,0A40,40,0,1,0,80,39.938,39.91192,39.91192,0,0,0,39.938,0Z"/></g></g></svg>