<svg xmlns="http://www.w3.org/2000/svg" viewBox="0 0 50 49.40476"><defs><style>.cls-1{fill:#838470;}.cls-2{fill:#f96900;}</style></defs><g id="Layer_2" data-name="Layer 2"><g id="Section_1" data-name="Section 1"><path class="cls-1" d="M22.29365,4.46429A12.65249,12.65249,0,0,0,5.256,2.38393L7.31448,4.46429l1.35814,1.372c.07341-.04365.14683-.08532.22123-.125.06052-.03274.122-.06449.18254-.09524q.05655-.02976.11309-.05655c.03175-.01587.06251-.03075.09425-.04564.03076-.01487.06151-.02876.09226-.04265.05258-.02481.10715-.04861.16072-.07143.03174-.01389.06448-.02778.09622-.04068.05358-.02281.10715-.04365.16171-.06448.01885-.00794.0377-.01488.05754-.02183.06548-.02578.131-.0496.19742-.07241l.02282-.00794c.0754-.02678.15278-.05159.23016-.07639.06647-.01984.13393-.03968.20139-.05853.05754-.01687.11508-.03274.17361-.04762l.002-.001c.0625-.01489.125-.03076.18749-.04465.06349-.01487.128-.02876.19147-.04166l.003-.001c.0625-.0129.126-.0258.19047-.03671.129-.02282.25992-.04365.39187-.05952.0625-.00794.125-.01588.1875-.02183l.02381-.002c.06051-.006.121-.0119.18155-.01686h.0119c.06448-.005.129-.00892.19444-.0129.06747-.003.13493-.006.20239-.00694.06746-.002.13492-.003.20337-.003A7.88691,7.88691,0,1,1,4.7619,12.64881c0-.06845.001-.13591.003-.20337.001-.04267.002-.08532.004-.127q.003-.08631.00893-.17262c.001-.02183.003-.04266.004-.06448l.00892-.11012.01191-.129c.005-.0496.01091-.0992.01687-.14881q.003-.03421.00892-.06845c.007-.05953.01488-.11806.0248-.17758.00794-.05159.01588-.10218.0248-.15377.005-.03175.01092-.0625.01687-.09424.00893-.04663.01786-.09326.02778-.14088.00992-.05158.02183-.10417.03373-.15674.003-.01389.006-.02778.00992-.04267.01091-.04861.02282-.09722.03472-.14483.02977-.12005.06349-.23909.09921-.35616l.02678-.08829q.11458-.36161.26191-.70734c.02084-.04861.04166-.09722.06349-.14584.07341-.16369.15278-.32539.23809-.48313.01786-.03373.03572-.06845.05556-.10218.04167-.0754.08433-.15079.129-.2252L4.16667,6.881,2.45834,5.15476a12.65087,12.65087,0,0,0,1.70833,16.878v27.372H50V4.46429ZM18.94841,32.04365H9.02778V24.77083A12.68153,12.68153,0,0,0,18.94841,23.62Zm13.09524,12.5H22.123V34.623h9.92063Zm0-12.5H22.123V22.123h9.92063Zm0-12.69841H23.38194a12.68661,12.68661,0,0,0,1.501-9.92064h7.16071ZM44.94048,44.54365H35.01984V34.623h9.92064Zm0-25.19841H35.01984V9.4246h9.92064Z"/><path class="cls-1" d="M11.252,4.88492c.13-.02282.26092-.04266.39187-.05952C11.5119,4.84127,11.381,4.8621,11.252,4.88492Z"/><rect class="cls-2" x="9.02778" y="34.62302" width="9.92063" height="9.92063"/><rect class="cls-2" x="35.01984" y="22.12302" width="9.92063" height="9.92063"/><path class="cls-2" d="M12.649,13.49608a.84355.84355,0,0,1-.59984-.25024L2.37809,3.474a.84366.84366,0,0,1,1.1993-1.18689l8.22778,8.31352V5.90278a.84364.84364,0,0,1,1.68728,0v6.74961a.8437.8437,0,0,1-.84345.84369Z"/></g></g></svg>