<svg xmlns="http://www.w3.org/2000/svg" viewBox="0 0 20.06982 17"><defs><style>.cls-1{fill:#3fa9f5;}</style></defs><title>Prepaid_cards</title><g id="Layer_2" data-name="Layer 2"><g id="Layer_1-2" data-name="Layer 1"><g id="Prepaid_cards"><g id="Payment_methods"><path class="cls-1" d="M19.45,3.33a1.84336,1.84336,0,0,0-.94006-.48.5745.5745,0,0,0-.18006-.02H18.0199V1.91a1.91836,1.91836,0,0,0-1.92-1.91H1.92993A1.92044,1.92044,0,0,0,0,1.91V12.3a1.92828,1.92828,0,0,0,1.08984,1.73,2.79944,2.79944,0,0,0,.12012.36,2.2842,2.2842,0,0,0,.92993,1.01h.02a1.633,1.633,0,0,0,.5.17l.18994.03L16.95,17h.17993a1.90611,1.90611,0,0,0,1.91-1.73l1.02-10.34a1.29038,1.29038,0,0,0,.00988-.19A1.90138,1.90138,0,0,0,19.45,3.33ZM1.92993,13.22a.34253.34253,0,0,1-.13-.02.90671.90671,0,0,1-.78-.9V1.91a.922.922,0,0,1,.91-.92H16.09985a.922.922,0,0,1,.91.92V12.3a.91549.91549,0,0,1-.91.92Zm16.11,1.94a.91283.91283,0,0,1-.33.63.88316.88316,0,0,1-.56006.19h-.11l-14.1-1.38h-.01L2.85986,14.59a.69243.69243,0,0,1-.23-.09.94134.94134,0,0,1-.22-.15.70314.70314,0,0,1-.12-.13H16.09985a1.92693,1.92693,0,0,0,1.92-1.92V3.83h.24a.53573.53573,0,0,1,.13.03.8754.8754,0,0,1,.38.21.91907.91907,0,0,1,.29.75Z"/></g><path class="cls-1" d="M11.54871,10.04a.22223.22223,0,0,0-.08008-.13.20763.20763,0,0,0-.06006-.04c-.02,0-.04993-.01-.07995-.01h-.04993a3.63961,3.63961,0,0,1-.84009.1,2.38818,2.38818,0,0,1-2.26-1.59H10.2887a.22535.22535,0,0,0,.22-.17l.11987-.53a.22.22,0,0,0-.22-.27h-2.49a4.06092,4.06092,0,0,1,0-.78h2.73A.23254.23254,0,0,0,10.85864,6.44l.12-.55a.21838.21838,0,0,0-.21-.27H8.19861a2.31347,2.31347,0,0,1,2.17993-1.39,4.355,4.355,0,0,1,.71009.07.06026.06026,0,0,0,.03991.00995.23412.23412,0,0,0,.22009-.17l.22-.82a.22745.22745,0,0,0-.17-.28,5.69614,5.69614,0,0,0-.98-.1A3.95682,3.95682,0,0,0,6.61865,5.62h-.62a.22182.22182,0,0,0-.22.22v.55a.22418.22418,0,0,0,.22.23h.3999a5.07146,5.07146,0,0,0,0,.78h-.3999a.22184.22184,0,0,0-.22.22v.53a.21557.21557,0,0,0,.22.22h.56006a3.9057,3.9057,0,0,0,3.85986,2.9,4.59317,4.59317,0,0,0,1.13013-.15.22455.22455,0,0,0,.16992-.26Z"/></g></g></g></svg>