<svg xmlns="http://www.w3.org/2000/svg" viewBox="0 0 16.99927 16.99927"><defs><style>.cls-1{fill:#00abee;}.cls-2{fill:#3fa9f5;}</style></defs><g id="Layer_2" data-name="Layer 2"><g id="Layer_1-2" data-name="Layer 1"><path class="cls-1" d="M11.34765,9.96328l.34865-.88169H12.703l-.47775-1.33746.59752-1.511,1.71144,4.544H13.27209l-.29245-.81385Z"/><path class="cls-1" d="M10.27089,10.77714l1.83213-4.544H10.88838L9.63509,9.16956,8.74388,6.2331H7.81025L6.85333,9.16956,6.17848,7.83147,5.56777,9.713l.62006,1.06418H7.38318l.86473-2.63338.82447,2.63338Z"/><path class="cls-1" d="M3.61807,9.21723h.74815a2.20589,2.20589,0,0,0,.60542-.07588l.19348-.59608.54076-1.666a1.33256,1.33256,0,0,0-.14112-.18523,1.55848,1.55848,0,0,0-1.21867-.461H2.4651v4.544h1.153Zm.9903-1.93875a.59432.59432,0,0,1,.16266.4382.63946.63946,0,0,1-.14306.43871.74372.74372,0,0,1-.57754.18016H3.61807V7.11475h.43554A.76563.76563,0,0,1,4.60837,7.27848Z"/><path class="cls-2" d="M15.2854,1.00632a.70834.70834,0,0,1,.70752.70758V15.28537a.70834.70834,0,0,1-.70752.70758H1.71387a.70834.70834,0,0,1-.70752-.70758V1.7139a.70834.70834,0,0,1,.70752-.70758H15.2854M15.2854,0H1.71387A1.71388,1.71388,0,0,0,0,1.7139V15.28537a1.71389,1.71389,0,0,0,1.71387,1.7139H15.2854a1.71389,1.71389,0,0,0,1.71387-1.7139V1.7139A1.71389,1.71389,0,0,0,15.2854,0Z"/></g></g></svg>