<svg xmlns="http://www.w3.org/2000/svg" viewBox="0 0 15.96102 16.9963"><defs><style>.cls-1{fill:#3fa9f5;}</style></defs><title>Recurring payments</title><g id="Layer_2" data-name="Layer 2"><g id="Layer_1-2" data-name="Layer 1"><g id="Recurring_payments"><path class="cls-1" d="M15.961,8.51324A8.55167,8.55167,0,0,1,7.679,16.9963,8.43132,8.43132,0,0,1,.97492,13.12662v3.38719a.49129.49129,0,0,1-.49249.48249A.49605.49605,0,0,1,0,16.51381V11.55867a.496.496,0,0,1,.48243-.48243H4.95508a1.25962,1.25962,0,0,0,.49249.87443.61459.61459,0,0,0,.10061.07037.121.121,0,0,1-.08049.02012l-4.03046.01a7.46457,7.46457,0,0,0,6.24176,3.94,7.462,7.462,0,0,0,7.1865-7.488Z"/><path class="cls-1" d="M15.961.48249V5.44763a.48928.48928,0,0,1-.48255.48249H11.00581a1.25857,1.25857,0,0,0-.48243-.84431,1.22743,1.22743,0,0,0-.1406-.10048.25388.25388,0,0,1,.12048-.02013l4.03047-.01006A7.65874,7.65874,0,0,0,8.16142,1.02522a7.444,7.444,0,0,0-7.1865,7.4679H0A8.45734,8.45734,0,0,1,8.16142,0,8.66832,8.66832,0,0,1,14.996,3.86968V.48249A.48263.48263,0,0,1,15.47847,0,.48928.48928,0,0,1,15.961.48249Z"/><path class="cls-1" d="M9.04591,8.15136,7.287,7.62875a.46461.46461,0,0,1-.34183-.45231A.47417.47417,0,0,1,7.41765,6.694H8.50312a.99624.99624,0,0,1,.55285.17085.23088.23088,0,0,0,.14061.04018.31336.31336,0,0,0,.1811-.07036l.56279-.5528a.26919.26919,0,0,0-.03018-.402,2.30307,2.30307,0,0,0-1.40717-.49255V4.61344a.2595.2595,0,0,0-.26134-.26133H7.71911a.25957.25957,0,0,0-.26134.26133v.77389H7.41765a1.781,1.781,0,0,0-1.769,1.9499A1.85765,1.85765,0,0,0,7.01559,8.90518L8.674,9.39774a.47559.47559,0,0,1-.13067.93473H7.46784a1.028,1.028,0,0,1-.5628-.17091.32754.32754,0,0,0-.13067-.04018.25136.25136,0,0,0-.18085.08043l-.573.55279a.266.266,0,0,0,.03018.392,2.32445,2.32445,0,0,0,1.407.49249v.784a.25756.25756,0,0,0,.26134.25128h.52267a.25748.25748,0,0,0,.26134-.25128v-.784a1.85809,1.85809,0,0,0,1.71868-1.186A1.78215,1.78215,0,0,0,9.04591,8.15136Z"/></g></g></g></svg>