<svg xmlns="http://www.w3.org/2000/svg" viewBox="0 0 12.97836 16.98828"><defs><style>.cls-1{fill:#3fa9f5;}</style></defs><title>Reports</title><g id="Layer_2" data-name="Layer 2"><g id="Layer_1-2" data-name="Layer 1"><g id="Reports"><path class="cls-1" d="M11.75217,16.98828H1.22619A1.227,1.227,0,0,1,0,15.76209V1.22619A1.22729,1.22729,0,0,1,1.22619,0H8.6853a1.218,1.218,0,0,1,.86844.35822l3.06594,3.06965a1.22959,1.22959,0,0,1,.35868.86566V15.76209A1.227,1.227,0,0,1,11.75217,16.98828ZM1.26378,1.003a.27212.27212,0,0,0-.27514.27514V15.71018a.2753.2753,0,0,0,.27514.27514h10.4508a.2753.2753,0,0,0,.27514-.27514V4.98424H8.48005a.47088.47088,0,0,1-.47115-.47115V1.003Zm7.70513,3.007h2.89077L8.96891,1.11544Z"/><path class="cls-1" d="M9.37491,10.61676a.27185.27185,0,0,1,.235.27167,3.38617,3.38617,0,0,1-6.71415-.35113A3.3312,3.3312,0,0,1,5.8259,7.14811a.23563.23563,0,0,1,.23979.2447v3.22395Zm.65465-.77815H6.8227V6.70914a.225.225,0,0,1,.23486-.22669,3.43918,3.43918,0,0,1,3.1987,3.1213A.225.225,0,0,1,10.02956,9.83861Z"/><rect class="cls-1" x="1.97857" y="2.00592" width="5.00616" height="1.00296" rx="0.48017"/><rect class="cls-1" x="1.97857" y="4.01185" width="4.08154" height="1.00296" rx="0.48017"/></g></g></g></svg>