<svg xmlns="http://www.w3.org/2000/svg" viewBox="0 0 14.89729 17.00126"><defs><style>.cls-1{fill:#3fa9f5;}</style></defs><g id="Layer_2" data-name="Layer 2"><g id="Layer_1-2" data-name="Layer 1"><path class="cls-1" d="M13.32457,2.15393H11.7115a.04525.04525,0,0,1-.03009-.03V.39067A.38911.38911,0,0,0,11.30083,0h-.27052a.38893.38893,0,0,0-.36077.4007V2.1239a.032.032,0,0,1-.03008.03H4.22775a.04523.04523,0,0,1-.03008-.03V.37068A.36528.36528,0,0,0,3.81708,0H3.57641a.39992.39992,0,0,0-.37056.38064V2.1239a.04523.04523,0,0,1-.03008.03H1.583A1.60413,1.60413,0,0,0,0,3.72683V15.42836a1.5863,1.5863,0,0,0,1.59278,1.5729H6.68222a5.09978,5.09978,0,0,1-.71127-.61111c-.12034-.12021-.24043-.25046-.35074-.3807H1.59278a.55614.55614,0,0,1-.56085-.57106V6.37171A.032.032,0,0,1,1.062,6.34163h12.7833a.04476.04476,0,0,1,.04011.03008V7.71415c.13037.11025.27052.24043.40088.36071a8.29767,8.29767,0,0,1,.611.7213V3.73686A1.58415,1.58415,0,0,0,13.32457,2.15393Zm.52074,3.15583H1.062V3.7168a.53072.53072,0,0,1,.521-.551H13.31454a.55006.55006,0,0,1,.53077.541Z"/><path class="cls-1" d="M10.12851,7.48374a4.75876,4.75876,0,1,0,4.75875,4.75876A4.76315,4.76315,0,0,0,10.12851,7.48374Zm0,8.51568a3.75692,3.75692,0,1,1,3.75691-3.75692A3.75839,3.75839,0,0,1,10.12851,15.99942Z"/><path class="cls-1" d="M12.25253,12.04212v.42076a.30828.30828,0,0,1-.3006.3006H9.92819a.31608.31608,0,0,1-.29058-.31057V9.91822a.30661.30661,0,0,1,.29058-.30054h.42094a.30129.30129,0,0,1,.30035.30054v1.8033a.032.032,0,0,0,.03009.03009h1.27236A.29957.29957,0,0,1,12.25253,12.04212Z"/></g></g></svg>