<svg xmlns="http://www.w3.org/2000/svg" viewBox="0 0 15.93201 16.99081"><defs><style>.cls-1{fill:#3fa9f5;}</style></defs><title>Risk and Fraud</title><g id="Layer_2" data-name="Layer 2"><g id="Layer_1-2" data-name="Layer 1"><g id="Risk_and_fraud"><path class="cls-1" d="M7.96773,1.00757a1.05967,1.05967,0,0,1,.22495.04449l6.373,2.65544a.58985.58985,0,0,1,.35876.53975c0,7.0285-4.4059,10.72112-6.73486,11.69134a.59182.59182,0,0,1-.45015.0004C4.49717,14.58747,1.00754,10.35224,1.00754,4.24725a.58221.58221,0,0,1,.36332-.54L7.74167,1.05271a1.03935,1.03935,0,0,1,.22606-.04514M7.968,0a1.89478,1.89478,0,0,0-.61225.122L.98331,2.7772A1.5913,1.5913,0,0,0,0,4.24725C0,10.8352,3.80042,15.3886,7.35179,16.869a1.5993,1.5993,0,0,0,1.22449,0C11.42094,15.6839,15.932,11.59215,15.932,4.24725a1.59389,1.59389,0,0,0-.9795-1.47L8.58022.122A1.9065,1.9065,0,0,0,7.968,0Z"/><path class="cls-1" d="M5.70061,11.302a.233.233,0,0,1,0-.33008l.33008-.33008a.233.233,0,0,1,.33008,0l1.02167,1.02168L9.57119,9.47481a.233.233,0,0,1,.33008,0l.33007.33008a.233.233,0,0,1,0,.33008L7.54748,12.81884a.233.233,0,0,1-.33008,0Z"/><path class="cls-1" d="M11.50773,4.6979V8.20922a.35225.35225,0,0,1-.35694.35187.36975.36975,0,0,1-.11437-.018,3.36173,3.36173,0,0,0-1.02563-.15173c-1.36321,0-2.72642.68991-4.08963.68991a3.28219,3.28219,0,0,1-1.2885-.24857.35185.35185,0,0,1-.20844-.326V4.99535a.35216.35216,0,0,1,.35694-.3521.3745.3745,0,0,1,.11437.018A3.36408,3.36408,0,0,0,5.92116,4.813c1.36321,0,2.72642-.6899,4.08963-.6899a3.27808,3.27808,0,0,1,1.2885.24857A.35267.35267,0,0,1,11.50773,4.6979ZM4.95548,5.90155a.709.709,0,0,0,.69406-.57047,3.86577,3.86577,0,0,1-.69406-.09869ZM5.6606,8.53711a.708.708,0,0,0-.70512-.6793v.529A2.67241,2.67241,0,0,0,5.6606,8.53711ZM8.85142,6.60229A.9863.9863,0,0,0,7.966,5.53976a.98629.98629,0,0,0-.88544,1.06253A.98613.98613,0,0,0,7.966,7.66482.98631.98631,0,0,0,8.85142,6.60229Zm2.12505-1.78448a2.66258,2.66258,0,0,0-.6175-.14.70649.70649,0,0,0,.6175.68114Zm0,2.51566a.70675.70675,0,0,0-.60136.5451,3.86484,3.86484,0,0,1,.60136.09361Z"/></g></g></g></svg>