<svg xmlns="http://www.w3.org/2000/svg" viewBox="0 0 80 69.46965"><defs><style>.cls-1{fill:#001452;}</style></defs><g id="Layer_2" data-name="Layer 2"><g id="Layer_1-2" data-name="Layer 1"><path class="cls-1" d="M67.05831,46.99791H67.059L52.93359,22.46474h0L39.99956,0,26.27335,23.84067,12.93316,46.99791h.00131L0,69.46965H80Zm-2.382-1.376H41.1909L52.93359,25.22556Zm-24.67673-.693-11.743-20.39477H51.74215Zm0-42.168,11.7427,20.39544H28.25687Zm-12.934,22.46387L38.80822,45.62187H15.31583ZM2.38093,68.09362,14.1245,47.68943,25.87419,68.09362ZM15.31518,46.99791H38.80954L27.06564,67.40122ZM28.256,68.09362,39.99956,47.68943,51.74313,68.09362Zm24.6776-.69218-11.744-20.40353h23.488Zm12.934-19.712L77.61732,68.09362H54.12406Z"/></g></g></svg>