<svg xmlns="http://www.w3.org/2000/svg" viewBox="0 0 20.69003 16.98828"><defs><style>.cls-1{fill:#3fa9f5;}</style></defs><title>Split payments</title><g id="Layer_2" data-name="Layer 2"><g id="Layer_1-2" data-name="Layer 1"><g id="Split_payments"><path class="cls-1" d="M11.34649,6.90114h-.522V4.18924a.253.253,0,0,0-.25569-.24284h-.26635V7.89285h1.04407a.25479.25479,0,0,0,.25568-.253V7.15412A.25484.25484,0,0,0,11.34649,6.90114Zm0,0h-.522V4.18924a.253.253,0,0,0-.25569-.24284h-.26635V7.89285h1.04407a.25479.25479,0,0,0,.25568-.253V7.15412A.25484.25484,0,0,0,11.34649,6.90114ZM19.6565,0H10.30242V1.01191h6.4669a2.62241,2.62241,0,0,0,2.866,2.7119l.01053,4.3815a2.65523,2.65523,0,0,0-2.87651,2.722l-6.4669.01013v1.00178H19.6565A1.01117,1.01117,0,0,0,20.69,10.8476V.98152A1.00289,1.00289,0,0,0,19.6565,0Zm0,10.8476H17.83471A1.62457,1.62457,0,0,1,19.6565,9.11722Zm0-8.1357a1.60763,1.60763,0,0,1-1.82179-1.7H19.6565ZM13.88214,5.91962a3.69863,3.69863,0,0,0-3.57972-3.80477v1.0119a2.66273,2.66273,0,0,1,2.51432,2.79287,2.65339,2.65339,0,0,1-2.51432,2.78275v1.0119A3.68958,3.68958,0,0,0,13.88214,5.91962Zm-2.28,1.72026V7.15412a.25484.25484,0,0,0-.25568-.253h-.522V4.18924a.253.253,0,0,0-.25569-.24284h-.26635V7.89285h1.04407A.25479.25479,0,0,0,11.60217,7.63988Zm-1.29975-5.525v1.0119a2.66273,2.66273,0,0,1,2.51432,2.79287,2.65339,2.65339,0,0,1-2.51432,2.78275v1.0119a3.68958,3.68958,0,0,0,3.57972-3.79465A3.69863,3.69863,0,0,0,10.30242,2.11485Zm1.29975,5.525V7.15412a.25484.25484,0,0,0-.25568-.253h-.522V4.18924a.253.253,0,0,0-.25569-.24284h-.26635V7.89285h1.04407A.25479.25479,0,0,0,11.60217,7.63988Zm-1.29975-5.525v1.0119a2.66273,2.66273,0,0,1,2.51432,2.79287,2.65339,2.65339,0,0,1-2.51432,2.78275v1.0119a3.68958,3.68958,0,0,0,3.57972-3.79465A3.69863,3.69863,0,0,0,10.30242,2.11485Zm1.29975,5.525V7.15412a.25484.25484,0,0,0-.25568-.253h-.522V4.18924a.253.253,0,0,0-.25569-.24284h-.26635V7.89285h1.04407A.25479.25479,0,0,0,11.60217,7.63988Z"/><path class="cls-1" d="M7.87329,11.07562A2.68309,2.68309,0,0,1,10.30242,8.286V7.27532a3.7148,3.7148,0,0,0-3.49453,3.8003,3.70543,3.70543,0,0,0,3.49453,3.79018V13.85509A2.67329,2.67329,0,0,1,7.87329,11.07562Zm0,0A2.68309,2.68309,0,0,1,10.30242,8.286V7.27532a3.7148,3.7148,0,0,0-3.49453,3.8003,3.70543,3.70543,0,0,0,3.49453,3.79018V13.85509A2.67329,2.67329,0,0,1,7.87329,11.07562ZM3.92071,6.17368h6.38171V5.163H1.04407A1.01179,1.01179,0,0,0,0,6.14332V15.9978a1.02,1.02,0,0,0,1.04407.99048h9.25835v-1.0006l-6.38171.01012A2.61978,2.61978,0,0,0,1.0654,13.25874H1.05473L1.04407,8.88239H1.0654A2.60739,2.60739,0,0,0,3.92071,6.17368Zm-2.85531,0H2.85532a1.58206,1.58206,0,0,1-1.78992,1.698Zm0,8.09577A1.59916,1.59916,0,0,1,2.85532,15.9978H1.0654Zm6.80789-3.19383A2.68309,2.68309,0,0,1,10.30242,8.286V7.27532a3.7148,3.7148,0,0,0-3.49453,3.8003,3.70543,3.70543,0,0,0,3.49453,3.79018V13.85509A2.67329,2.67329,0,0,1,7.87329,11.07562Zm2.42907,1.9709h-.9482a.25726.25726,0,0,1-.26635-.25268v-.48515a.25725.25725,0,0,1,.26635-.25267h.522V10.34791l-.02131.0101a.31384.31384,0,0,1-.1385.04043.29737.29737,0,0,1-.22373-.11118L9.205,9.883a.36023.36023,0,0,1-.04261-.1415.27126.27126,0,0,1,.11719-.20215L9.78032,9.226a.79837.79837,0,0,1,.42615-.12128h.09589Zm0,0h-.9482a.25726.25726,0,0,1-.26635-.25268v-.48515a.25725.25725,0,0,1,.26635-.25267h.522V10.34791l-.02131.0101a.31384.31384,0,0,1-.1385.04043.29737.29737,0,0,1-.22373-.11118L9.205,9.883a.36023.36023,0,0,1-.04261-.1415.27126.27126,0,0,1,.11719-.20215L9.78032,9.226a.79837.79837,0,0,1,.42615-.12128h.09589Zm0,0h-.9482a.25726.25726,0,0,1-.26635-.25268v-.48515a.25725.25725,0,0,1,.26635-.25267h.522V10.34791l-.02131.0101a.31384.31384,0,0,1-.1385.04043.29737.29737,0,0,1-.22373-.11118L9.205,9.883a.36023.36023,0,0,1-.04261-.1415.27126.27126,0,0,1,.11719-.20215L9.78032,9.226a.79837.79837,0,0,1,.42615-.12128h.09589Zm0,0h-.9482a.25726.25726,0,0,1-.26635-.25268v-.48515a.25725.25725,0,0,1,.26635-.25267h.522V10.34791l-.02131.0101a.31384.31384,0,0,1-.1385.04043.29737.29737,0,0,1-.22373-.11118L9.205,9.883a.36023.36023,0,0,1-.04261-.1415.27126.27126,0,0,1,.11719-.20215L9.78032,9.226a.79837.79837,0,0,1,.42615-.12128h.09589Zm0,0h-.9482a.25726.25726,0,0,1-.26635-.25268v-.48515a.25725.25725,0,0,1,.26635-.25267h.522V10.34791l-.02131.0101a.31384.31384,0,0,1-.1385.04043.29737.29737,0,0,1-.22373-.11118L9.205,9.883a.36023.36023,0,0,1-.04261-.1415.27126.27126,0,0,1,.11719-.20215L9.78032,9.226a.79837.79837,0,0,1,.42615-.12128h.09589Zm0,0h-.9482a.25726.25726,0,0,1-.26635-.25268v-.48515a.25725.25725,0,0,1,.26635-.25267h.522V10.34791l-.02131.0101a.31384.31384,0,0,1-.1385.04043.29737.29737,0,0,1-.22373-.11118L9.205,9.883a.36023.36023,0,0,1-.04261-.1415.27126.27126,0,0,1,.11719-.20215L9.78032,9.226a.79837.79837,0,0,1,.42615-.12128h.09589Zm0,0h-.9482a.25726.25726,0,0,1-.26635-.25268v-.48515a.25725.25725,0,0,1,.26635-.25267h.522V10.34791l-.02131.0101a.31384.31384,0,0,1-.1385.04043.29737.29737,0,0,1-.22373-.11118L9.205,9.883a.36023.36023,0,0,1-.04261-.1415.27126.27126,0,0,1,.11719-.20215L9.78032,9.226a.79837.79837,0,0,1,.42615-.12128h.09589Zm0,0h-.9482a.25726.25726,0,0,1-.26635-.25268v-.48515a.25725.25725,0,0,1,.26635-.25267h.522V10.34791l-.02131.0101a.31384.31384,0,0,1-.1385.04043.29737.29737,0,0,1-.22373-.11118L9.205,9.883a.36023.36023,0,0,1-.04261-.1415.27126.27126,0,0,1,.11719-.20215L9.78032,9.226a.79837.79837,0,0,1,.42615-.12128h.09589Zm0,0h-.9482a.25726.25726,0,0,1-.26635-.25268v-.48515a.25725.25725,0,0,1,.26635-.25267h.522V10.34791l-.02131.0101a.31384.31384,0,0,1-.1385.04043.29737.29737,0,0,1-.22373-.11118L9.205,9.883a.36023.36023,0,0,1-.04261-.1415.27126.27126,0,0,1,.11719-.20215L9.78032,9.226a.79837.79837,0,0,1,.42615-.12128h.09589Zm0,0h-.9482a.25726.25726,0,0,1-.26635-.25268v-.48515a.25725.25725,0,0,1,.26635-.25267h.522V10.34791l-.02131.0101a.31384.31384,0,0,1-.1385.04043.29737.29737,0,0,1-.22373-.11118L9.205,9.883a.36023.36023,0,0,1-.04261-.1415.27126.27126,0,0,1,.11719-.20215L9.78032,9.226a.79837.79837,0,0,1,.42615-.12128h.09589Zm0,0h-.9482a.25726.25726,0,0,1-.26635-.25268v-.48515a.25725.25725,0,0,1,.26635-.25267h.522V10.34791l-.02131.0101a.31384.31384,0,0,1-.1385.04043.29737.29737,0,0,1-.22373-.11118L9.205,9.883a.36023.36023,0,0,1-.04261-.1415.27126.27126,0,0,1,.11719-.20215L9.78032,9.226a.79837.79837,0,0,1,.42615-.12128h.09589Z"/></g></g></g></svg>