<svg xmlns="http://www.w3.org/2000/svg" viewBox="0 0 59.95996 37"><defs><style>.cls-1{fill:#fff;}</style></defs><g id="Layer_2" data-name="Layer 2"><g id="Menu"><g id="Layer_2-2" data-name="Layer 2"><g id="Layer_1-2" data-name="Layer 1-2"><g id="Community"><path class="cls-1" d="M22.45952,0a7.86332,7.86332,0,1,0,.02325,0Zm0,13.879a6.00421,6.00421,0,1,1,6.00428-6.0042A6.00421,6.00421,0,0,1,22.45952,13.879Z"/><path class="cls-1" d="M6.62711,2.2447a5.63224,5.63224,0,1,0,.01674,0Q6.63548,2.24468,6.62711,2.2447Zm0,9.41049a3.77,3.77,0,1,1,3.77-3.77h0a3.77374,3.77374,0,0,1-3.77,3.76989Z"/><path class="cls-1" d="M38.37038,2.2447a5.63226,5.63226,0,1,0,.01671,0Q38.37874,2.24468,38.37038,2.2447Zm0,9.41049a3.77,3.77,0,1,1,3.77-3.77h0a3.77375,3.77375,0,0,1-3.77,3.76989Z"/><path class="cls-1" d="M28.1432,17.28334c-2.38441,0-2.45952.82614-5.59515.84493h-.075c-3.11685-.01879-3.21083-.84493-5.59538-.84493A7.5639,7.5639,0,0,0,9.02954,24.174v4.694a2.59788,2.59788,0,0,0,2.854,2.77891c2.347,0,10.62706-.013,10.62706-.013s8.28022.013,10.62736.013a2.55232,2.55232,0,0,0,2.85389-2.77891V24.174A7.56415,7.56415,0,0,0,28.1432,17.28334ZM34.10137,28.8209a.93424.93424,0,0,1-.927.94142q-.0401.00032-.08009-.00282H11.825a.93423.93423,0,0,1-1.00427-.85851q-.00314-.04-.00282-.08009V25.726a7.26278,7.26278,0,0,1,.981-3.78485,5.02775,5.02775,0,0,1,4.83028-2.80633c1.25887-.0249,3.19622.79677,5.79183.81675h.07733c2.59585-.02,4.53539-.89288,5.79182-.81675a5.633,5.633,0,0,1,5.81114,5.449l.0001.0032Z"/><path class="cls-1" d="M.90752,22.60318c.963,0,.963-1.1597.963-1.1597s-.66385-3.91714,4.74189-3.71134a6.07114,6.07114,0,0,1,2.99275.505,8.577,8.577,0,0,1,1.459-1.30161,5.97,5.97,0,0,0-2.74952-1.06607H4.91017A5.45694,5.45694,0,0,0,.00972,20.97586C.00972,21.51826-.15879,22.60318.90752,22.60318Z"/><path class="cls-1" d="M44.07747,22.60318c-.963,0-.963-1.1597-.963-1.1597s.66385-3.91714-4.74189-3.7113a6.07109,6.07109,0,0,0-2.99274.505,8.57671,8.57671,0,0,0-1.459-1.3016,5.97017,5.97017,0,0,1,2.74951-1.06607h3.40443a5.457,5.457,0,0,1,4.90045,5.1064C44.97527,21.51826,45.14378,22.60318,44.07747,22.60318Z"/></g></g></g><path class="cls-1" d="M52.67773,8.42853H50.75V5.10431H47.64746V3.21564H50.75V.00177h1.92773V3.21564h3.11133V5.10431H52.67773Z"/></g></g></svg>