<svg xmlns="http://www.w3.org/2000/svg" viewBox="0 0 17.00038 17"><defs><style>.cls-1{fill:#3fa9f5;}.cls-2{fill:#00abee;}</style></defs><g id="Layer_2" data-name="Layer 2"><g id="Layer_1-2" data-name="Layer 1"><path class="cls-1" d="M14.37988,2.15H12.76V.37A.36555.36555,0,0,0,12.37988,0h-.27A.38841.38841,0,0,0,11.72.38V2.14H5.32V.37A.36915.36915,0,0,0,4.95,0H4.6499A.35654.35654,0,0,0,4.28.37V2.14H2.63989A1.58576,1.58576,0,0,0,1.07,3.71v7.54H2.10986V6.35H5.57V6.22a1.20791,1.20791,0,0,1,.4-.91H2.10986V3.73a.55981.55981,0,0,1,.54-.55h11.73a.55067.55067,0,0,1,.55005.56V5.31H11.25v.01a6.49107,6.49107,0,0,1-.24,1.03h3.91992v4a2.63043,2.63043,0,0,1,.49-.05,2.845,2.845,0,0,1,.51.05V3.71A1.53472,1.53472,0,0,0,14.37988,2.15Zm1.04,9.14c-.03,0-.05.01-.07983.01a.14791.14791,0,0,0-.07007.01,1.53854,1.53854,0,0,1,.42993.01A1.33192,1.33192,0,0,0,15.41992,11.29Zm-.49.07v.01c.04-.01.09009-.02.12988-.03A.507.507,0,0,0,14.92993,11.36Z"/><path class="cls-2" d="M17,12.94a1.61823,1.61823,0,0,1-.59009,1.19c-.08008.06-.25.2-.48.38-.28.22-.63989.51-1,.81-.29.22-.57007.45-.81006.64-.3999.32-.67993.54-.68994.55A2.287,2.287,0,0,1,12.04,17H.27A.2724.2724,0,0,1,0,16.75v-.47A.2907.2907,0,0,1,.25,16H12.05005a.92671.92671,0,0,0,.29-.04,1.08967,1.08967,0,0,0,.46972-.23c.14014-.11,1.29-1.03,2.12012-1.69995.48-.38.8501-.67.86011-.68a.459.459,0,0,0,.13989-.17.50256.50256,0,0,0,.08008-.27.54136.54136,0,0,0-.08008-.33.40713.40713,0,0,0-.12012-.14.50455.50455,0,0,0-.36987-.15.72221.72221,0,0,0-.42993.15.22993.22993,0,0,0-.08008.07c-.38989.3-1.72,1.35-1.73,1.37a1.33432,1.33432,0,0,1-.8.29H7.07983a.50616.50616,0,0,1-.48974-.5.51693.51693,0,0,1,.5-.51H9.67993a.65676.65676,0,0,0,.68994-.67.68732.68732,0,0,0-.7-.69H5.35a1.82524,1.82524,0,0,0-1.1.39c-.34009.24-1.37012,1.02-1.38013,1.02l-.01.00995H.25A.24947.24947,0,0,1,0,12.96v-.45s.01-.27.26-.27H2.52l1.13989-.86A2.7603,2.7603,0,0,1,5.34,10.82H9.60986a1.65646,1.65646,0,0,1,1.71021,1.42,1.79132,1.79132,0,0,1-.11011.94H12.3999a.41021.41021,0,0,0,.15015-.07c.06982-.05,1.80981-1.44,1.82983-1.45a1.44021,1.44021,0,0,1,.24-.16,1.70212,1.70212,0,0,1,.31006-.13c.04-.01.09009-.02.12988-.03a.762.762,0,0,1,.21021-.03,1.53854,1.53854,0,0,1,.42993.01.86418.86418,0,0,1,.23.06v.01a.75012.75012,0,0,1,.16016.05,1.10574,1.10574,0,0,1,.1499.08,1.24083,1.24083,0,0,1,.23.17A1.57615,1.57615,0,0,1,17,12.94Z"/><path class="cls-1" d="M10.48,9.32a.2742.2742,0,0,1-.19995.3,2.82958,2.82958,0,0,1-.73.1,2.55932,2.55932,0,0,1-2.48-1.8h-.25a.25831.25831,0,0,1-.26026-.26V7.32a.25636.25636,0,0,1,.26026-.25h.10986a.96271.96271,0,0,1,0-.24H6.82007a.2607.2607,0,0,1-.26026-.27V6.22A.25831.25831,0,0,1,6.82007,5.96h.28979A2.56543,2.56543,0,0,1,9.55005,4.3a2.73517,2.73517,0,0,1,.55981.06l.07007.01a.24519.24519,0,0,1,.16992.11.26329.26329,0,0,1,.03.21L10.25,5.2a.21028.21028,0,0,1-.07007.11.23049.23049,0,0,1-.25.08l-.05005-.01c-.10986-.01-.23-.03-.35986-.03a1.28341,1.28341,0,0,0-1.14014.61H9.77a.24189.24189,0,0,1,.18994.1.26475.26475,0,0,1,.06006.22l-.01.07L9.95,6.63a.2771.2771,0,0,1-.25.2H8.11987a.9618.9618,0,0,0,0,.24H9.55005a.22082.22082,0,0,1,.19995.1.232.232,0,0,1,.05005.22L9.73,7.72a.279.279,0,0,1-.26.2H8.35986a1.33542,1.33542,0,0,0,1.21021.74A2.10483,2.10483,0,0,0,10.07983,8.59h.04A.1771.1771,0,0,1,10.17993,8.6h.02l.02.01c.02.01.04.03.06006.04a.362.362,0,0,1,.09985.15Z"/></g></g></svg>