<svg xmlns="http://www.w3.org/2000/svg" viewBox="0 0 21 17"><defs><style>.cls-1{fill:#3fa9f5;}</style></defs><title>Tokenization</title><g id="Layer_2" data-name="Layer 2"><g id="Layer_1-2" data-name="Layer 1"><g id="Tokenization"><path class="cls-1" d="M16.27849,0H1.73171A1.71755,1.71755,0,0,0,0,1.7V12.56388A1.71957,1.71957,0,0,0,1.73171,14.274H13.07982a3.05415,3.05415,0,0,1-.05086-.6136c0-.13077.01007-.26155.02027-.39232H1.73171a.7107.7107,0,0,1-.713-.70415V7.38845H16.98132V9.34493c.14263-.01.29546-.02007.44816-.02007A3.54656,3.54656,0,0,1,18,9.36507V1.7A1.70873,1.70873,0,0,0,16.27849,0Zm.70283,3.35677H1.01868V1.7a.70876.70876,0,0,1,.713-.69408H16.27849A.7.7,0,0,1,16.98132,1.7Z"/><rect class="cls-1" x="2.4094" y="10.99003" width="2.38191" height="1.00792"/><rect class="cls-1" x="6.00473" y="10.99003" width="3.61592" height="1.00792"/><path class="cls-1" d="M17.13318,14.113l-.30857.3319.30857.27162c.02059.03015.03088.07042,0,.09056l-.06164.07036a.05855.05855,0,0,1-.09252,0l-.30858-.27155-.09264-.08049a.0938.0938,0,0,1-.0103-.13078.12328.12328,0,0,1,.02059-.03014l.38063-.4024a.066.066,0,0,1,.09252-.01006l.07194.06035A.07523.07523,0,0,1,17.13318,14.113Z"/><path class="cls-1" d="M17.91478,13.55972a.06335.06335,0,0,1,.04117.08049l-.48332,1.64972a.06772.06772,0,0,1-.08235.05028l-.09252-.03014a.06812.06812,0,0,1-.041-.08049L17.74,13.57986a.0676.0676,0,0,1,.08223-.05028Z"/><path class="cls-1" d="M18.22335,13.22782H16.99961v-.61366a.58955.58955,0,0,1,.27756-.49289.54721.54721,0,0,1,.33933-.11063.53907.53907,0,0,1,.32916.11063.567.567,0,0,1,.27769.49289Z"/><path class="cls-1" d="M18.64491,14.39465a.103.103,0,0,1,0,.13078l-.0924.08049-.30857.27155a.06979.06979,0,0,1-.10294,0l-.06164-.07036a.06409.06409,0,0,1,.01029-.09056l.30845-.27162-.31874-.3319a.07614.07614,0,0,1,.01029-.10063l.06164-.06035a.0805.0805,0,0,1,.10294.01006l.37009.4024A.12328.12328,0,0,1,18.64491,14.39465Z"/><path class="cls-1" d="M18.17188,10.38106a3.59954,3.59954,0,0,0-.576-.05029,2.29649,2.29649,0,0,0-.45244.04022,3.3374,3.3374,0,0,0-2.93093,2.897,2.51858,2.51858,0,0,0-.03076.39232,3.02786,3.02786,0,0,0,.06164.6136A3.41368,3.41368,0,0,0,21,13.66035,3.34405,3.34405,0,0,0,18.17188,10.38106Zm1.36786,4.85859a.40178.40178,0,0,1-.41139.40233H16.10477a.40167.40167,0,0,1-.41126-.40233V13.62008a.39969.39969,0,0,1,.41126-.39226h.20563v-.61366a.77165.77165,0,0,1,.02059-.22127,1.28383,1.28383,0,0,1,.936-.99585,1.01334,1.01334,0,0,1,.3495-.05028.99222.99222,0,0,1,.33945.05028,1.241,1.241,0,0,1,.93576.98578.83908.83908,0,0,1,.03089.23134v.61366h.20575a.3998.3998,0,0,1,.41139.39226Z"/></g></g></g></svg>