<svg xmlns="http://www.w3.org/2000/svg" viewBox="0 0 16.98899 16.98575"><defs><style>.cls-1{fill:#3fa9f5;}</style></defs><title>Tools</title><g id="Layer_2" data-name="Layer 2"><g id="Layer_1-2" data-name="Layer 1"><path id="Tools" class="cls-1" d="M15.90218,10.59631a3.7044,3.7044,0,0,0-3.24494-1.03474L11.21057,8.1149l.442-.442h1.48683a.96682.96682,0,0,0,.75347-.37171l2.89335-3.86787a.94571.94571,0,0,0-.08039-1.22562L14.76694.27879A.934.934,0,0,0,13.55131.18834l-3.8678,2.9034a.91425.91425,0,0,0-.38177.74342V5.322l-.442.442a.90719.90719,0,0,0-.11049-.10043L7.413,4.32742A3.65637,3.65637,0,0,0,6.37829,1.10253,3.72465,3.72465,0,0,0,2.842.108a1.18117,1.18117,0,0,0-.55253,1.96909L3.40456,3.18212,3.3644,3.373l-.18089.03017L2.06839,2.28805a1.149,1.149,0,0,0-1.1453-.29138,1.15815,1.15815,0,0,0-.81375.83386A3.73714,3.73714,0,0,0,4.33886,7.4217l.864.85391a4.6373,4.6373,0,0,0-1.04479.7937L.62171,12.60557A2.05876,2.05876,0,0,0,.019,14.07235,2.01265,2.01265,0,0,0,.62171,15.519l.854.85392a2.09907,2.09907,0,0,0,2.91339,0L7.9254,12.83668a7.52128,7.52128,0,0,0,.864-.97453l.7937.78364a3.72346,3.72346,0,0,0,3.66687,4.34,3.572,3.572,0,0,0,.91424-.12055,1.158,1.158,0,0,0,.8338-.81375,1.1716,1.1716,0,0,0-.29132-1.14524l-1.11512-1.10513.0301-.19088.19089-.03011,1.11512,1.11513a1.19527,1.19527,0,0,0,1.1453.29132,1.14138,1.14138,0,0,0,.80369-.84386A3.75735,3.75735,0,0,0,15.90218,10.59631Zm.01,3.30527a.19491.19491,0,0,1-.16077.12055.19051.19051,0,0,1-.12055-.04022l-1.46673-1.47678-1.39645.2411-.2411,1.3864,1.46672,1.45673a.16825.16825,0,0,1,.05022.17077.215.215,0,0,1-.12055.14066,3.17255,3.17255,0,0,1-.663.07033,2.72176,2.72176,0,0,1-2.6623-3.36555l.07034-.28126-2.17-2.1801-.30138.73342a3.99444,3.99444,0,0,1-.97452,1.24574L3.68583,15.65969a1.12347,1.12347,0,0,1-1.507,0l-.85391-.854a1.055,1.055,0,0,1,0-1.49689L4.86129,9.76251A2.82858,2.82858,0,0,1,6.17735,8.9487l.89414-.21094L4.65029,6.31657,4.369,6.3869a2.71957,2.71957,0,0,1-2.57185-.71325,2.76048,2.76048,0,0,1-.72337-2.61208A.19759.19759,0,0,1,1.24458,2.941a.2359.2359,0,0,1,.12055.04023L2.83191,4.458l1.39646-.24111.231-1.38639L3.00268,1.3738a.19707.19707,0,0,1-.05021-.19088A.20271.20271,0,0,1,3.073,1.06237,2.74547,2.74547,0,0,1,6.39834,4.35759L6.328,4.63885,8.8597,7.17054l1.44667-1.44667-.02011-1.8586L14.0838.992l1.88871,1.8586L13.12938,6.66823H11.24067L9.80406,8.10484l2.54174,2.54169.28127-.07027a2.65075,2.65075,0,0,1,2.57185.7233,2.74446,2.74446,0,0,1,.79364,1.93893A2.99211,2.99211,0,0,1,15.91223,13.90158Z"/></g></g></svg>