<svg xmlns="http://www.w3.org/2000/svg" xmlns:xlink="http://www.w3.org/1999/xlink" viewBox="0 0 50 43.94369"><defs><style>.cls-1,.cls-2{fill-rule:evenodd;}.cls-1{fill:url(#linear-gradient);}.cls-2{fill:url(#linear-gradient-2);}</style><linearGradient id="linear-gradient" x1="1560.60422" y1="168.68667" x2="1561.41141" y2="168.68667" gradientTransform="matrix(-11.79486, 38.92889, 38.92889, 11.79486, 11852.67363, -62738.97612)" gradientUnits="userSpaceOnUse"><stop offset="0" stop-color="#cd2b27"/><stop offset="1" stop-color="#f68b1e"/></linearGradient><linearGradient id="linear-gradient-2" x1="1560.60468" y1="168.52663" x2="1561.41188" y2="168.52663" gradientTransform="matrix(-11.79437, 38.92727, 38.92727, 11.79437, 11884.68522, -62726.53328)" xlink:href="#linear-gradient"/></defs><g id="Layer_2" data-name="Layer 2"><g id="Layer_14" data-name="Layer 14"><path class="cls-1" d="M18.45631,15.8393a5.46619,5.46619,0,0,0-.43588-1.61439c-1.3238-4.10056-4.74631-8.78229-11.68012-12.91513C1.82-1.354-.92445.212.28634,4.4982c.72648,2.66375,2.09872,4.036,2.66375,6.94188S.52851,18.70485,4.24161,21.69147a75.2146,75.2146,0,0,0-3.14806,7.184C.0442,31.62.93212,34.78418,6.09816,34.79226c11.78507,0,14.0452-11.03437,12.23709-19.09825Z"/><path class="cls-2" d="M45.53773,17.74428c-7.82979-1.913-13.56089-.96863-17.37892,1.04936a5.00331,5.00331,0,0,0-1.43681.84755c-6.91767,4.49608-13.0362,13.96449-4.601,22.19788,3.72924,3.64853,6.60287,1.9857,7.74908-.70226.94442-2.17943,1.96956-4.76246,2.809-7.37777,4.7221.46818,5.715-4.76245,8.13654-6.43335,2.40543-1.66282,4.33463-1.74354,6.76429-3.13192,3.87453-2.26015,3.027-5.24677-2.04221-6.45756Z"/></g></g></svg>