<svg xmlns="http://www.w3.org/2000/svg" viewBox="0 0 46.81876 40.16913"><defs><style>.cls-1{fill:#0979be;}</style></defs><g id="Layer_2" data-name="Layer 2"><g id="Section_1" data-name="Section 1"><path class="cls-1" d="M34.78062,12.44166a3.78925,3.78925,0,1,1-3.76438-4.21144,3.875,3.875,0,0,1,.60163.04756,12.318,12.318,0,1,0,3.16275,4.16388ZM21.2498,25.2876a6.03893,6.03893,0,1,1,6.03774-6.04011A6.039,6.039,0,0,1,21.2498,25.2876Z"/><path class="cls-1" d="M38.438,20.95014A19.21214,19.21214,0,1,1,27.756,3.72867a15.56539,15.56539,0,1,0,10.43228,14.696c0-.22591-.00474-.44944-.01664-.673A19.15927,19.15927,0,0,1,38.438,20.95014Z"/><path class="cls-1" d="M34.78062,12.44166a3.78925,3.78925,0,1,1-3.76438-4.21144,3.875,3.875,0,0,1,.60163.04756,12.318,12.318,0,1,0,3.16275,4.16388ZM21.2498,25.2876a6.03893,6.03893,0,1,1,6.03774-6.04011A6.039,6.039,0,0,1,21.2498,25.2876Z"/><path class="cls-1" d="M34.78062,12.44166a3.78925,3.78925,0,1,1-3.76438-4.21144,3.875,3.875,0,0,1,.60163.04756,12.318,12.318,0,1,0,3.16275,4.16388ZM21.2498,25.2876a6.03893,6.03893,0,1,1,6.03774-6.04011A6.039,6.039,0,0,1,21.2498,25.2876Z"/><circle class="cls-1" cx="38.43915" cy="6.6636" r="2.83843"/><circle class="cls-1" cx="44.57761" cy="2.24115" r="2.24115"/></g></g></svg>