<svg xmlns="http://www.w3.org/2000/svg" viewBox="0 0 49.43142 30.26795"><defs><style>.cls-1{fill:#72808a;}.cls-1,.cls-2{fill-rule:evenodd;}.cls-2{fill:#bfd22b;}</style></defs><g id="Layer_2" data-name="Layer 2"><g id="Layer_14" data-name="Layer 14"><path class="cls-1" d="M20.06919,0V17.79139c0,4.3709-2.62665,7.0591-7.07962,7.0591s-7.05911-2.6882-7.05911-7.0591V0H0V17.09369C0,24.9531,5.25328,30.268,13.01009,30.268c7.8594,0,13.01008-5.31485,13.01008-13.17426V0Z"/><path class="cls-2" d="M49.43142,0H43.13158L28.89025,20.08971a3.71572,3.71572,0,0,0-.43093,2.09311A3.031,3.031,0,0,0,29.588,23.92707a2.60561,2.60561,0,0,0,1.55956.53354h0l10.77334-.08208v5.68422h5.438V19.76138H35.78518Z"/></g></g></svg>