<svg xmlns="http://www.w3.org/2000/svg" viewBox="0 0 19.95996 17"><defs><style>.cls-1{fill:#3fa9f5;}</style></defs><title>Wallet</title><g id="Layer_2" data-name="Layer 2"><g id="Layer_1-2" data-name="Layer 1"><g id="Wallet"><path class="cls-1" d="M17.97,1.99a1.96046,1.96046,0,0,0-2-1.99H1.86A1.8647,1.8647,0,0,0,0,1.99V15a1.85776,1.85776,0,0,0,1.86,2h16.1a1.95878,1.95878,0,0,0,2-2V3.99A1.94167,1.94167,0,0,0,17.97,1.99ZM18.96,15a.98786.98786,0,0,1-1,1H1.86c-.92,0-.93006-.96-.93006-1V1.99A.94243.94243,0,0,1,1.86,1H15.97a.97636.97636,0,0,1,1,.99H3.46a.50142.50142,0,0,0-.5.5.49511.49511,0,0,0,.5.5H17.97a.97636.97636,0,0,1,.99,1Z"/><circle class="cls-1" cx="15.45725" cy="8.49779" r="1.50519"/></g></g></g></svg>