<svg xmlns="http://www.w3.org/2000/svg" viewBox="0 0 17.05872 16.98828"><defs><style>.cls-1{fill:#3fa9f5;}</style></defs><title>Wrappers</title><g id="Layer_2" data-name="Layer 2"><g id="Layer_1-2" data-name="Layer 1"><g id="Wrappers"><path class="cls-1" d="M4.8108,11.68666c.03032.03026.04042.10094.0101.12115L4.205,12.464l-.13126.01011L1.06508,9.75822l-.9188-.84806A.55266.55266,0,0,1,0,8.50628.51988.51988,0,0,1,.14628,8.1024l.9188-.84806,3.0087-2.71592.13126.0101.61586.65623c.03032.02021.02022.09089-.0101.12115l-3.45288,3.14-.04155.04036.04155.04037Z"/><path class="cls-1" d="M12.24792,11.68666c-.03031.03026-.04042.10094-.0101.12115l.61586.65623.13126.01011,3.0087-2.71593.9188-.84806a.55266.55266,0,0,0,.14628-.40388.51988.51988,0,0,0-.14628-.40388l-.9188-.84806-3.0087-2.71592-.13126.0101-.61586.65623c-.03032.02021-.02021.09089.0101.12115l3.45288,3.14.04155.04036-.04155.04037Z"/><rect class="cls-1" x="8.0279" y="-0.35015" width="1.00964" height="17.68858" rx="0.50482" transform="translate(2.7943 -2.0902) rotate(16.665)"/></g></g></g></svg>