<svg xmlns="http://www.w3.org/2000/svg" viewBox="0 0 50 15.63907"><defs><style>.cls-1{opacity:0.4;}.cls-2{fill:#fff;}.cls-3{fill:#222;}.cls-4{fill:#f27221;}</style></defs><g id="Layer_2" data-name="Layer 2"><g id="Layer_14" data-name="Layer 14"><path class="cls-1" d="M42.5336.70626A7.45112,7.45112,0,0,0,36.66476,3.56a7.46378,7.46378,0,0,0-11.39965-.40293,7.46535,7.46535,0,0,0-11.48051.50584,7.46641,7.46641,0,1,0,0,9.01949,7.46534,7.46534,0,0,0,11.48051.50583,7.46377,7.46377,0,0,0,11.39965-.40292A7.46564,7.46564,0,1,0,42.5336.70626Z"/><path class="cls-2" d="M42.16512,0a7.45115,7.45115,0,0,0-5.86884,2.85375,7.46377,7.46377,0,0,0-11.39965-.40292,7.46534,7.46534,0,0,0-11.48051.50583,7.46641,7.46641,0,1,0,0,9.01949,7.46534,7.46534,0,0,0,11.48051.50583,7.46377,7.46377,0,0,0,11.39965-.40292A7.46564,7.46564,0,1,0,42.16512,0Z"/><path class="cls-3" d="M8.445,9.22829a2.10565,2.10565,0,0,1-2.542.72218,1.41528,1.41528,0,0,1-.91029-1.16331A3.91047,3.91047,0,0,1,4.92,8.03761c-.00247-1.04937.00034-2.09876-.00316-3.14813-.00035-.106.0186-.14751.138-.145.39449.00845.78934.00692,1.18391.00064.10246-.00163.12421.02973.12384.127Q6.35713,6.318,6.36077,7.76392a2.10483,2.10483,0,0,0,.11352.7127.68824.68824,0,0,0,.59876.47873,1.48859,1.48859,0,0,0,.56666-.02629.884.884,0,0,0,.65844-.6948,2.695,2.695,0,0,0,.08314-.67591q.00264-1.339-.00167-2.678c-.00049-.10369.02071-.1376.13157-.13553.39929.00746.79881.00428,1.19823.00169.07266-.00047.11086.00769.11064.09713-.004,1.63811.016,3.27659-.0128,4.91423a2.56687,2.56687,0,0,1-2.19974,2.55874.13637.13637,0,0,1-.18173-.09685c-.12075-.29316-.24946-.58314-.37987-.87221-.03714-.08235-.04417-.1253.06831-.13115A1.36391,1.36391,0,0,0,8.4133,9.96773,3.67976,3.67976,0,0,0,8.445,9.22829Z"/><path class="cls-3" d="M30.21483,7.68279c-.11111.16391-.20757.31032-.30885.45332a.2332.2332,0,0,0-.0296.149c-.00024.49856-.00269.99716.002,1.49568.00094.0989-.0128.14065-.128.138-.36594-.0085-.73224-.0059-1.09832-.0012-.091.00117-.11945-.02086-.11932-.11706q.0045-3.22644.00123-6.45288c0-.06639.00369-.112.08231-.13562.404-.12138.80623-.2489,1.20928-.37359a.18869.18869,0,0,1,.04807-.00051V6.17218c.05571.00745.06438-.03948.085-.06431q.541-.65232,1.07734-1.30849a.24662.24662,0,0,1,.21608-.10171c.484.0048.968.00222,1.4833.00222-.1115.13916-.20649.25908-.30292.37782q-.633.77952-1.26729,1.55805c-.04046.0496-.06881.08846-.03547.16145.2104.46065.4136.92456.62116,1.38651a1.92117,1.92117,0,0,0,.226.37737.75109.75109,0,0,0,.64637.32633c.08533-.00271.11534.01873.11378.10954-.00556.32279-.00471.64576-.0004.96858.00109.08139-.02678.102-.10474.108a1.69475,1.69475,0,0,1-1.58181-.72,5.79388,5.79388,0,0,1-.63169-1.205C30.35474,8.0014,30.29,7.85469,30.21483,7.68279Z"/><path class="cls-3" d="M20.46331,9.24219a2.16842,2.16842,0,0,1-2.656.64437,1.42346,1.42346,0,0,1-.79974-1.10684,3.92141,3.92141,0,0,1-.07378-.77769c-.00016-1.04477.00168-2.08953-.00261-3.13428-.00046-.11174.02788-.14426.14144-.14213q.5776.01084,1.15553,0c.11507-.0022.151.02187.15025.145-.00584.964-.00275,1.928-.00369,2.89207a2.28952,2.28952,0,0,0,.05631.50792.77216.77216,0,0,0,.94043.677c.65212-.04391.94336-.37935,1.00325-1.08227.03394-.39837.01932-.79691.02132-1.19538q.00457-.91178-.00126-1.82357c-.00061-.09219.02242-.12144.11777-.12023q.60626.00774,1.21265.00007c.0909-.0011.10976.02846.10964.11375q-.0036,2.49318.00024,4.98635c.00015.09276-.02332.12117-.11807.11986q-.56343-.00786-1.127-.00008c-.09672.00132-.13358-.02106-.129-.12469C20.46933,9.62871,20.46331,9.43532,20.46331,9.24219Z"/><path class="cls-3" d="M42.97076,7.5046c0,.75945-.0019,1.51892.00218,2.27835.00057.10577-.01775.14795-.13748.145-.361-.00887-.72245-.00526-1.08367-.00168-.08463.00084-.12489-.01014-.12463-.11246q.00537-2.11459.00154-4.2292c-.00006-.06753.00673-.10984.08716-.1338.38578-.11487.76966-.2363,1.15246-.36076.10489-.0341.10381.01529.10362.09347Q42.969,6.344,42.97076,7.5046Z"/><path class="cls-4" d="M42.28791,4.31978a.65328.65328,0,0,1-.65808-.67513.66019.66019,0,0,1,.67216-.66409.67584.67584,0,0,1,.665.67807A.66634.66634,0,0,1,42.28791,4.31978Z"/></g></g></svg>