<svg xmlns="http://www.w3.org/2000/svg" viewBox="0 0 20.31429 17.00126"><defs><style>.cls-1{fill:#3fa9f5;}</style></defs><title>Asset 58</title><g id="Layer_2" data-name="Layer 2"><g id="Layer_1-2" data-name="Layer 1"><path class="cls-1" d="M0,6.00739V1.86755C0,.46271.61575,0,1.86,0H5.7287a.34167.34167,0,0,1,.30966.30966V.69553c0,.14451-.21676.30966-.32.30966H1.68821a.683.683,0,0,0-.683.683V6.00739a.35794.35794,0,0,1-.26837.33031H.32A.354.354,0,0,1,0,6.00739Z"/><path class="cls-1" d="M20.31429,6.00739V1.86755C20.31429.46271,19.69854,0,18.45431,0H14.58559a.34168.34168,0,0,0-.30966.30966V.69553c0,.14451.21677.30966.32.30966h4.03016a.683.683,0,0,1,.683.683V6.00739a.35794.35794,0,0,0,.26837.33031h.41684A.354.354,0,0,0,20.31429,6.00739Z"/><path class="cls-1" d="M0,10.99387v4.13984c0,1.40483.61575,1.86755,1.86,1.86755H5.7287a.34167.34167,0,0,0,.30966-.30966v-.38587c0-.14451-.21676-.30966-.32-.30966H1.68821a.683.683,0,0,1-.683-.683V10.99387a.35794.35794,0,0,0-.26837-.33031H.32A.354.354,0,0,0,0,10.99387Z"/><path class="cls-1" d="M20.31429,10.99387v4.13984c0,1.40483-.61575,1.86755-1.86,1.86755H14.58559a.34168.34168,0,0,1-.30966-.30966v-.38587c0-.14451.21677-.30966.32-.30966h4.03016a.683.683,0,0,0,.683-.683V10.99387a.35794.35794,0,0,1,.26837-.33031h.41684A.354.354,0,0,1,20.31429,10.99387Z"/><path class="cls-1" d="M15.81842,2.708H4.48852a1.715,1.715,0,0,0-1.71,1.71v8.1a1.72675,1.72675,0,0,0,1.71,1.7h11.36A1.68994,1.68994,0,0,0,17.53839,12.528V4.418A1.71775,1.71775,0,0,0,15.81842,2.708Zm-11.31989,1H15.83838a.71.71,0,0,1,.71.71v.71H3.7785V4.428A.72.72,0,0,1,4.49853,3.708Zm12.04987,8.8a.71488.71488,0,0,1-.72.71H10.66852v-.27a1.79989,1.79989,0,0,0-.32007-1,1.696,1.696,0,0,0-1.42993-.74,2.09012,2.09012,0,0,0-.59009.09,1.78221,1.78221,0,0,1-.59.09,1.84826,1.84826,0,0,1-.62-.09,2.04415,2.04415,0,0,0-.56006-.09,1.69836,1.69836,0,0,0-1.45.73,1.886,1.886,0,0,0-.29,1.01v.27H4.49847a.717.717,0,0,1-.72-.72V6.148H16.5484Z"/><path class="cls-1" d="M7.738,7.02525A1.85413,1.85413,0,1,0,9.592,8.87952,1.85414,1.85414,0,0,0,7.738,7.02525Z"/><path class="cls-1" d="M15.11847,7.828v.47a.2476.2476,0,0,1-.25.25H11.94854a.24752.24752,0,0,1-.25-.25v-.47a.2561.2561,0,0,1,.25-.26h2.91993A.25618.25618,0,0,1,15.11847,7.828Z"/><path class="cls-1" d="M15.11847,9.448v.46a.25877.25877,0,0,1-.25.27H11.94854a.25869.25869,0,0,1-.25-.27v-.46a.25614.25614,0,0,1,.25-.26h2.91993A.25622.25622,0,0,1,15.11847,9.448Z"/><path class="cls-1" d="M15.11847,11.06794v.47a.24756.24756,0,0,1-.25.25H11.94854a.24748.24748,0,0,1-.25-.25v-.47a.25867.25867,0,0,1,.25-.26995h2.91993A.25875.25875,0,0,1,15.11847,11.06794Z"/></g></g></svg>