<?xml version="1.0" encoding="UTF-8" standalone="no"?>
<svg preserveAspectRatio="xMidYMid slice" width="270px" height="46px" viewBox="0 0 274 46" version="1.1" xmlns="http://www.w3.org/2000/svg" xmlns:xlink="http://www.w3.org/1999/xlink">
    <!-- Generator: Sketch 3.8.3 (29802) - http://www.bohemiancoding.com/sketch -->
    <title>craft-commerce-logo</title>
    <desc>Created with Sketch.</desc>
    <defs></defs>
    <g id="Page-1" stroke="none" stroke-width="1" fill="none" fill-rule="evenodd">
        <g id="craft-commerce-logo" fill="#D95947">
            <path d="M81.785,9.404 L81.762,9.404 L76.58,13.468 L76.191,15.516 L70.823,15.516 L72.392,7.28 C72.762,4.173 77.494,5.113 78.198,5.289 L78.954,1.32 C70.445,-1.95 67.96,7.28 67.96,7.28 L66.392,15.516 L66.364,15.516 L61.035,19.695 L65.596,19.695 L60.585,46 L65.016,46 L70.026,19.695 L75.393,19.695 L73.431,29.992 C72.184,37.488 79.693,36.668 82.089,36.185 L82.839,32.259 C77.107,33.553 77.862,29.991 77.862,29.991 L79.824,19.694 L86.657,19.694 L87.453,15.515 L80.62,15.515 L81.785,9.404 L81.785,9.404 Z" id="Shape"></path>
            <path d="M46.654,15.616 L45.854,20.048 C56.681,15.33 54.857,23.551 54.857,23.551 L54.636,24.786 C54.636,24.786 48.288,21.528 43.844,25.156 C43.844,25.156 41.241,26.892 41.241,30.363 C41.241,33.834 44.423,35.699 44.423,35.699 C44.423,35.699 49.208,38.224 52.955,34.189 L52.541,36.067 L56.731,36.067 L59.364,23.574 C61.342,11.247 46.654,15.616 46.654,15.616 L46.654,15.616 Z M53.616,30.492 C49.005,35.222 46.053,32.125 46.053,32.125 C44.054,30.18 46.263,28.18 46.263,28.18 C49.313,25.393 53.98,28.455 53.98,28.455 L53.616,30.492 L53.616,30.492 Z" id="Shape"></path>
            <path d="M42.902,15.529 C39.485,15.565 36.38,17.472 36.38,17.472 L36.777,15.601 L32.675,15.601 L28.933,36.106 L33.124,36.106 L35.661,22.616 C37.536,18.806 42.172,19.99 42.172,19.99 L42.902,15.529 L42.902,15.529 Z" id="Shape"></path>
            <path d="M26.911,6.741 C27.123,6.902 27.324,7.071 27.521,7.244 L30.702,4.748 L30.801,4.619 C30.314,4.127 29.791,3.662 29.224,3.234 C21.926,-2.275 10.896,0.031 4.59,8.386 C-1.715,16.74 -0.91,27.977 6.39,33.488 C12.35,37.986 20.795,37.273 27.126,32.312 L27.121,32.3 L24.093,29.925 C19.402,32.942 13.581,33.158 9.37,29.981 C3.763,25.75 3.144,17.117 7.987,10.699 C12.832,4.281 21.304,2.509 26.911,6.741 L26.911,6.741 Z" id="Shape"></path>
            <path d="M95.556,19.61 C96.311,18.83 97.217,18.212 98.274,17.752 C99.331,17.294 100.499,17.066 101.778,17.072 C102.896,17.077 103.911,17.249 104.82,17.589 C105.73,17.929 106.582,18.357 107.38,18.871 L108.2,17.676 C107.308,17.097 106.326,16.621 105.258,16.248 C104.188,15.876 103.031,15.686 101.784,15.681 C100.313,15.675 98.952,15.941 97.703,16.479 C96.454,17.017 95.372,17.755 94.457,18.694 C93.542,19.633 92.833,20.733 92.332,21.993 C91.831,23.254 91.578,24.603 91.571,26.043 C91.565,27.481 91.815,28.824 92.321,30.073 C92.826,31.322 93.525,32.412 94.417,33.344 C95.307,34.276 96.375,35.007 97.62,35.539 C98.864,36.073 100.222,36.343 101.693,36.35 C102.94,36.354 104.099,36.175 105.172,35.813 C106.244,35.452 107.23,34.983 108.128,34.412 L107.318,33.21 C106.516,33.718 105.659,34.138 104.746,34.469 C103.834,34.801 102.818,34.964 101.7,34.96 C100.421,34.954 99.255,34.718 98.202,34.249 C97.149,33.78 96.249,33.137 95.501,32.319 C94.753,31.499 94.173,30.538 93.764,29.432 C93.353,28.328 93.15,27.153 93.156,25.906 C93.162,24.659 93.375,23.493 93.795,22.408 C94.214,21.323 94.801,20.39 95.556,19.61 L95.556,19.61 Z" id="Shape"></path>
            <path d="M127.569,18.744 C126.71,17.829 125.69,17.106 124.51,16.573 C123.329,16.04 122.036,15.771 120.63,15.764 C119.223,15.758 117.925,16.016 116.741,16.538 C115.555,17.06 114.529,17.791 113.662,18.73 C112.795,19.669 112.11,20.77 111.61,22.03 C111.107,23.291 110.855,24.639 110.849,26.078 C110.843,27.517 111.076,28.869 111.55,30.134 C112.023,31.4 112.682,32.496 113.526,33.427 C114.368,34.359 115.38,35.089 116.562,35.622 C117.741,36.155 119.035,36.425 120.442,36.431 C121.849,36.438 123.153,36.171 124.354,35.633 C125.556,35.095 126.589,34.364 127.457,33.441 C128.323,32.518 129.008,31.419 129.509,30.142 C130.01,28.865 130.264,27.507 130.27,26.069 C130.276,24.631 130.043,23.279 129.569,22.013 C129.095,20.75 128.429,19.659 127.569,18.744 L127.569,18.744 Z M128.073,29.608 C127.668,30.693 127.105,31.641 126.382,32.454 C125.659,33.266 124.8,33.902 123.807,34.36 C122.814,34.82 121.71,35.047 120.495,35.041 C119.28,35.035 118.17,34.8 117.165,34.332 C116.16,33.863 115.308,33.228 114.608,32.426 C113.907,31.624 113.369,30.67 112.99,29.565 C112.612,28.461 112.425,27.286 112.43,26.04 C112.435,24.793 112.634,23.627 113.021,22.541 C113.409,21.457 113.965,20.516 114.688,19.719 C115.41,18.924 116.269,18.296 117.262,17.837 C118.255,17.378 119.358,17.15 120.574,17.156 C121.789,17.161 122.899,17.398 123.904,17.866 C124.908,18.334 125.769,18.97 126.485,19.771 C127.201,20.574 127.748,21.52 128.127,22.608 C128.505,23.697 128.692,24.864 128.687,26.111 C128.682,27.356 128.477,28.523 128.073,29.608 L128.073,29.608 Z" id="Shape"></path>
            <path d="M162.268,17.555 C161.71,16.994 161.073,16.583 160.356,16.324 C159.637,16.065 158.879,15.934 158.081,15.93 C156.419,15.923 154.866,16.364 153.423,17.252 C151.982,18.142 150.777,19.191 149.812,20.401 C149.468,18.865 148.785,17.728 147.765,16.987 C146.745,16.247 145.566,15.875 144.224,15.869 C143.391,15.865 142.592,15.981 141.824,16.218 C141.056,16.455 140.343,16.763 139.685,17.144 C139.029,17.525 138.412,17.962 137.833,18.455 C137.255,18.949 136.742,19.45 136.292,19.958 L136.309,16.218 L134.823,16.211 L134.735,36.112 L136.269,36.118 L136.332,21.589 C137.424,20.38 138.604,19.362 139.871,18.536 C141.136,17.71 142.505,17.301 143.975,17.307 C147.108,17.321 148.666,19.15 148.651,22.794 L148.592,36.172 L150.125,36.18 L150.188,21.89 C151.216,20.52 152.388,19.422 153.703,18.596 C155.017,17.771 156.393,17.361 157.832,17.367 C160.965,17.381 162.523,19.21 162.509,22.855 L162.449,36.234 L163.983,36.24 L164.043,22.718 C164.049,21.536 163.893,20.52 163.576,19.671 C163.261,18.823 162.824,18.118 162.268,17.555 L162.268,17.555 Z" id="Shape"></path>
            <path d="M197.033,17.709 C196.474,17.147 195.838,16.737 195.121,16.478 C194.402,16.219 193.644,16.087 192.846,16.084 C191.183,16.077 189.63,16.518 188.188,17.406 C186.746,18.296 185.542,19.345 184.577,20.555 C184.233,19.018 183.55,17.882 182.53,17.141 C181.51,16.401 180.33,16.028 178.988,16.022 C178.155,16.018 177.356,16.134 176.589,16.371 C175.82,16.607 175.107,16.916 174.45,17.297 C173.792,17.677 173.175,18.115 172.598,18.608 C172.02,19.102 171.506,19.602 171.056,20.112 L171.073,16.371 L169.587,16.365 L169.499,36.266 L171.032,36.272 L171.096,21.742 C172.189,20.533 173.367,19.514 174.635,18.689 C175.901,17.864 177.269,17.453 178.739,17.46 C181.872,17.474 183.431,19.303 183.416,22.947 L183.357,36.326 L184.89,36.332 L184.952,22.043 C185.981,20.672 187.153,19.576 188.468,18.75 C189.782,17.924 191.159,17.514 192.597,17.521 C195.73,17.534 197.288,19.364 197.273,23.008 L197.214,36.387 L198.748,36.394 L198.807,22.871 C198.814,21.689 198.658,20.672 198.341,19.824 C198.026,18.977 197.59,18.271 197.033,17.709 L197.033,17.709 Z" id="Shape"></path>
            <path d="M218.751,18.979 C218.035,18.112 217.15,17.43 216.098,16.93 C215.046,16.43 213.817,16.177 212.41,16.17 C211.003,16.163 209.731,16.421 208.595,16.944 C207.456,17.466 206.479,18.198 205.66,19.137 C204.84,20.077 204.212,21.177 203.774,22.438 C203.336,23.699 203.116,25.049 203.11,26.486 C203.102,27.925 203.32,29.277 203.762,30.542 C204.204,31.807 204.854,32.904 205.714,33.835 C206.572,34.768 207.655,35.498 208.965,36.031 C210.273,36.564 211.79,36.836 213.517,36.843 C214.539,36.848 215.612,36.733 216.731,36.498 C217.85,36.262 218.86,35.924 219.757,35.48 L219.569,34.807 C219.505,34.615 219.426,34.392 219.331,34.135 C218.467,34.547 217.538,34.87 216.547,35.105 C215.554,35.341 214.547,35.457 213.525,35.452 C212.053,35.445 210.768,35.217 209.667,34.764 C208.566,34.312 207.649,33.684 206.918,32.88 C206.186,32.078 205.631,31.124 205.253,30.021 C204.874,28.916 204.688,27.724 204.693,26.446 L220.901,26.517 L220.904,25.894 C220.91,24.52 220.731,23.24 220.369,22.055 C220.005,20.872 219.466,19.846 218.751,18.979 L218.751,18.979 Z M204.744,25.104 C204.846,24.018 205.09,23.012 205.477,22.086 C205.865,21.161 206.379,20.363 207.023,19.695 C207.664,19.027 208.434,18.503 209.332,18.123 C210.228,17.743 211.221,17.556 212.308,17.561 C213.459,17.566 214.465,17.771 215.327,18.173 C216.188,18.577 216.905,19.115 217.477,19.79 C218.049,20.464 218.493,21.265 218.809,22.194 C219.123,23.123 219.295,24.114 219.323,25.169 L204.744,25.104 L204.744,25.104 Z" id="Shape"></path>
            <path d="M226.918,20.79 L226.937,16.618 L225.452,16.612 L225.364,36.512 L226.897,36.519 L226.958,22.852 C227.796,21.162 228.89,19.895 230.236,19.055 C231.582,18.214 232.942,17.748 234.317,17.658 L234.324,16.124 C232.821,16.117 231.428,16.559 230.147,17.448 C228.863,18.337 227.787,19.452 226.918,20.79 L226.918,20.79 Z" id="Shape"></path>
            <path d="M240.32,20.25 C241.076,19.47 241.982,18.851 243.039,18.392 C244.096,17.934 245.264,17.706 246.543,17.712 C247.661,17.716 248.676,17.889 249.585,18.229 C250.495,18.568 251.348,18.996 252.145,19.51 L252.965,18.315 C252.073,17.737 251.092,17.261 250.024,16.888 C248.954,16.516 247.797,16.326 246.549,16.321 C245.078,16.315 243.718,16.58 242.469,17.119 C241.22,17.657 240.139,18.395 239.223,19.334 C238.309,20.273 237.6,21.373 237.099,22.633 C236.598,23.895 236.344,25.243 236.338,26.682 C236.331,28.12 236.581,29.465 237.088,30.714 C237.592,31.962 238.291,33.053 239.183,33.984 C240.073,34.916 241.14,35.647 242.385,36.18 C243.629,36.713 244.987,36.983 246.457,36.989 C247.705,36.995 248.863,36.815 249.936,36.454 C251.007,36.092 251.994,35.623 252.892,35.052 L252.081,33.849 C251.278,34.358 250.423,34.778 249.509,35.109 C248.598,35.441 247.581,35.604 246.463,35.599 C245.185,35.593 244.019,35.358 242.965,34.888 C241.911,34.421 241.013,33.777 240.265,32.958 C239.517,32.139 238.938,31.179 238.529,30.073 C238.117,28.969 237.916,27.793 237.921,26.546 C237.926,25.3 238.14,24.134 238.56,23.048 C238.979,21.962 239.566,21.03 240.32,20.25 L240.32,20.25 Z" id="Shape"></path>
            <path d="M273.36,26.127 C273.367,24.752 273.187,23.473 272.826,22.288 C272.463,21.104 271.924,20.079 271.209,19.212 C270.493,18.346 269.608,17.663 268.557,17.162 C267.504,16.662 266.275,16.409 264.868,16.402 C263.462,16.397 262.189,16.655 261.054,17.177 C259.915,17.7 258.937,18.431 258.118,19.37 C257.298,20.309 256.671,21.41 256.233,22.67 C255.795,23.932 255.574,25.28 255.567,26.719 C255.561,28.157 255.778,29.51 256.219,30.774 C256.662,32.04 257.313,33.137 258.172,34.067 C259.029,35.001 260.113,35.731 261.422,36.264 C262.731,36.797 264.248,37.068 265.975,37.076 C266.998,37.081 268.069,36.966 269.19,36.73 C270.309,36.495 271.319,36.157 272.215,35.711 L272.027,35.039 C271.963,34.848 271.884,34.623 271.79,34.367 C270.925,34.779 269.997,35.103 269.005,35.339 C268.012,35.574 267.005,35.69 265.983,35.684 C264.511,35.678 263.226,35.45 262.125,34.996 C261.023,34.544 260.107,33.916 259.376,33.113 C258.644,32.311 258.09,31.357 257.711,30.253 C257.332,29.149 257.146,27.957 257.151,26.678 L273.359,26.75 L273.36,26.127 L273.36,26.127 Z M257.202,25.336 C257.303,24.25 257.549,23.244 257.935,22.317 C258.324,21.392 258.837,20.594 259.48,19.926 C260.123,19.258 260.892,18.734 261.789,18.354 C262.686,17.974 263.678,17.788 264.766,17.792 C265.916,17.797 266.922,18.002 267.784,18.405 C268.645,18.809 269.362,19.347 269.934,20.022 C270.508,20.696 270.952,21.497 271.267,22.425 C271.58,23.354 271.754,24.345 271.781,25.401 L257.202,25.336 L257.202,25.336 Z" id="Shape"></path>
        </g>
    </g>
</svg>