<svg xmlns="http://www.w3.org/2000/svg" viewBox="0 0 46.86 52.88"><defs><style>.cls-1{fill:#2ba9e0;}</style></defs><title>Drupal_8</title><g id="Layer_2" data-name="Layer 2"><g id="Section_1" data-name="Section 1"><path class="cls-1" d="M22,32.74a8.35,8.35,0,1,0,8.35,8.35A8.34,8.34,0,0,0,22,32.74Z"/><path class="cls-1" d="M32.43,31.14a14.38,14.38,0,0,1-2.17,21.74A24.09,24.09,0,0,0,45.39,39.31c3.54-8.67.24-15.2-5.27-21.12a10.4,10.4,0,0,1,.27,2.38A11,11,0,0,1,32.43,31.14Z"/><path class="cls-1" d="M23,20.58a6.39,6.39,0,1,0,6.4-6.38A6.38,6.38,0,0,0,23,20.58Z"/><path class="cls-1" d="M11,50.35a14.38,14.38,0,0,1,9.29-23.53A11,11,0,0,1,29.39,9.59a11.7,11.7,0,0,1,1.47.1A83.93,83.93,0,0,1,20.84,0C22.28,15.07,7.11,9.59,1.49,23.5-2.26,32.81,1.13,44.32,11,50.35Z"/></g></g></svg>