<svg xmlns="http://www.w3.org/2000/svg" viewBox="0 0 403.39 83.89"><defs><style>.cls-1{fill:#00abee;}.cls-2{fill:#969595;}</style></defs><title>MSP-logo</title><g id="Layer_2" data-name="Layer 2"><g id="Layer_1-2" data-name="Layer 1"><path class="cls-1" d="M24.16,35.18l4-17.69c1.22-5.06,1.41-6.08,2.31-10.63l.38-.39c5.45,0,7.06-.06,13.27-.19l.45.38c.06,5.32.13,6.73.45,13.72l.38,9.94c.57,12,.7,14.8,1.08,21l-.32.38c-4.74-.06-6.22,0-10.06.19l-.39-.38c-.06-8-.06-9-.25-18L35.32,16.4l-4.88,21c-1.6,7.11-2.31,10.31-3,14l-.46.39c-3.26-.07-4.35,0-7.75.19l-.39-.38c-.89-4.1-2-9-3-13.53L11.09,16.91,10.7,31.65c-.32,13.33-.32,14.74-.32,19.68l-.32.39c-3.46,0-4.62,0-8.4.18l-.32-.38C1.92,41,2,39.85,2.37,32.93L3,18.83c.2-6,.26-9,.33-12l.38-.39c5.64,0,7.37,0,13.59-.18l.38.38c.71,3.4.77,3.59,2.31,10.32Z"/><path class="cls-1" d="M68.19,48.08a11.8,11.8,0,0,1-8.85,4.29c-6.92,0-7.56-6.22-7.75-7.76-.19-1.92-.19-4-.19-7.82V33.4c.07-9.23,0-10.77-.19-15.13l.32-.38a79.19,79.19,0,0,0,9.36-.38l.38.38c0,2.24-.13,13.2-.13,15.64,0,1.54,0,6.79.19,7.95a3,3,0,0,0,3.08,3,4.84,4.84,0,0,0,3.65-1.86V37.38c0-1.22-.19-13.78-.37-19.11l.38-.38c4.23-.06,5.32-.12,9.42-.38l.38.38c-.06,4-.13,6.23-.13,12.31,0,1.34,0,9.62.06,13.33s.13,5.83.19,7.82l-.32.39c-4.55-.07-5.32,0-9.29.12l-.33-.26Z"/><path class="cls-1" d="M93.7,51.74c-4.23-.06-5.45-.07-9.93.19l-.33-.38c.13-4,.26-8.27.26-17.37,0-5.84,0-11.8,0-17.63-.13-6.41-.32-8.59-.51-11.66l.32-.39c4.29-.7,5.83-1,9.8-1.79l.39.38c-.07,3.72-.07,6.09-.07,11.41,0,2.12.06,16.54.12,25,.13,5.64.25,8.78.38,11.86Z"/><path class="cls-1" d="M114.34,25c-2.82-.06-2.88-.06-4.42-.06V33c-.07,1.73-.07,4-.07,5.76,0,3.27.06,6.41,3,6.41a3.69,3.69,0,0,0,2.11-.64l.38.32c-.19,2.82-.25,3.27-.31,6.29l-.39.51a18.75,18.75,0,0,1-5.26.64c-1.41,0-5.45,0-7.62-2.89-1.6-2.18-1.6-5-1.54-9.55V36c0-1.6.07-9.42.07-11.21-1.15,0-1.8.06-3.14.13l-.32-.39c.13-2.88.13-2.88.26-6.28l.38-.38a23.2,23.2,0,0,0,2.89,0c0-1.16,0-1.8-.07-7.82l.32-.45c4.24-1,5.46-1.41,9.17-2.56l.45.32c-.13,2.82-.19,3.59-.26,10.7,2.31-.06,2.82-.06,4.68-.19l.39.39c-.2,2.95-.2,3.33-.33,6.28Z"/><path class="cls-1" d="M128.56,51.75c-4.1-.06-5.64-.07-10.12.19l-.39-.39c.19-4.1.33-8.14.33-15.38,0-10.12-.32-13.65-.57-17l.31-.38c4.49-.64,5.65-.83,10.07-1.79l.38.38c-.06.9-.06,1.8-.06,2.63-.07,3.85-.14,7.63-.13,11.48,0,6.66.12,13.26.57,19.93Zm-1-39.93c-3.84.45-5,.57-8.9,1.28l-.39-.39c.07-3.39,0-4.23-.12-7.75l.38-.39c4.42-.44,5.19-.57,9.1-1.15l.39.39c-.13,3.65-.07,4.61-.07,7.62Z"/><path d="M156.26,16.06a10.24,10.24,0,0,0-7.18-2.95c-3.27,0-5.38,1.92-5.38,4.68,0,2.05,1,3.46,3.08,5,.63.58,4.1,2.89,4.86,3.4,4,2.82,7.3,5.77,7.3,12.18A14.46,14.46,0,0,1,155.61,48c-3.34,3.79-7.89,4.62-12.25,4.62a22.17,22.17,0,0,1-9.61-2.06l-.38-.64c.06-1.34.19-2.75.26-4.17.06-1.21.12-2.43.13-3.65l.51-.19A11.54,11.54,0,0,0,142.21,45c4.81,0,6.09-3.4,6.09-5.58,0-2.82-1.79-4.36-4.87-6.47l-2.69-1.87c-3.33-2.37-7.5-5.32-7.49-12.37,0-4.61,1.73-7.75,3.59-9.54,3-2.95,7-3.59,10.64-3.59A21.42,21.42,0,0,1,157,7.66l.26.52c-.13,1.34-.26,2.69-.33,4l-.19,3.66Z"/><path d="M177.85,49.07a10.59,10.59,0,0,1-7.63,3.27c-4.81,0-8.59-3.72-8.58-10.58,0-9.67,8.46-11.86,16-13.26,0-2.18,0-4.62-4.55-4.62a14.16,14.16,0,0,0-8.2,2.57l-.45-.26c.19-3,.26-3.78.32-6.48l.39-.51a29.78,29.78,0,0,1,10.9-2.11c2.49,0,7.56.38,9.93,4.49,1.41,2.5,1.41,5.45,1.28,10.71l-.07,5.06a110.72,110.72,0,0,0,.51,14l-.45.39c-4.29-.06-5.25,0-9,.12l-.45-.32Zm-.12-14.68c-2.69.39-6.92,1.09-6.93,6.28,0,2.7,1.41,4.42,3.46,4.42a4.55,4.55,0,0,0,3.46-1.72Z"/><path d="M207.92,25c-1.86-.06-2.89-.06-4-.06,0,15.12.25,21.14.44,26.53l-.39.32c-4.61,0-5.57,0-9.8.19l-.32-.39c0-.76,0-1.6.07-2.37.12-4.48.13-18.65.13-24.35-1.41,0-1.79.06-3.21.13l-.32-.39c.13-2.37.2-3.26.33-6.34l.38-.38A21.71,21.71,0,0,0,194,18c-.06-5-.13-9.1,1.93-11.73,2.56-3.32,7.3-3.32,8.78-3.32a22.2,22.2,0,0,1,4.48.45l.26.38c-.26,2.82-.32,3.52-.39,6.66l-.44.39a2.74,2.74,0,0,0-1.55-.45,2.88,2.88,0,0,0-2.49,1.35c-.77,1.14-.77,2.36-.77,6.34,2,0,2.62,0,4.48-.13l.39.39c-.26,2.82-.26,3.46-.39,6.28Z"/><path d="M220.22,36.84c.12,5.64,3.2,8.52,8,8.53a10.82,10.82,0,0,0,7-2.31l.45.26c-.19,2.76-.26,4-.33,6.66l-.25.52c-1.35,1.15-5.38,2-9.1,2-11,0-15.45-7-15.44-17.77a28.67,28.67,0,0,1,.77-7c1.93-7.82,7.31-10.7,12.95-10.7a13.34,13.34,0,0,1,5.45,1.09c6,2.7,7,8.72,7,14.94,0,1.22-.07,2.43-.07,3.33l-.45.38Zm7.11-6.09a19.71,19.71,0,0,0-.19-3.27c-.32-2.11-1.34-3.84-3.2-3.84-.9,0-3.59.38-3.79,7.11Z"/><path d="M250.86,17.37c-.07,1.47-.07,1.66-.07,3.2,1.48-1.34,3.79-3.4,7.44-3.4a8.85,8.85,0,0,1,7.62,4.5c2.25,3.45,2.7,8.2,2.7,11.34,0,4.55-.65,14.42-9.63,18-2.75,1-4.42.95-7.88.95.06,4.68.25,10.45.38,13l-.39.39c-1.28-.07-2.56-.13-3.77-.13-2,0-3.65.12-6,.26l-.38-.39c.19-5.13.26-10.26.26-15.32,0-10.19,0-20.45-.89-30.57l.32-.39c4.68-.64,5.9-.89,9.81-1.72Zm.37,27.68a4,4,0,0,0,.9.07h.51c5.65-.58,5.77-8.2,5.78-11.35A17.9,17.9,0,0,0,257.33,27a3.56,3.56,0,0,0-3.08-2.31,4.54,4.54,0,0,0-3.14,1.73c0,6.73.06,9.81.12,18.65"/><path d="M287.31,49.1a10.54,10.54,0,0,1-7.62,3.27c-4.81,0-8.59-3.72-8.59-10.58,0-9.68,8.47-11.86,16-13.26,0-2.18,0-4.62-4.54-4.62a14.26,14.26,0,0,0-8.21,2.56l-.45-.25c.19-2.95.26-3.78.32-6.47l.39-.52a29.78,29.78,0,0,1,10.9-2.11c2.5,0,7.55.39,9.93,4.49,1.41,2.5,1.4,5.45,1.28,10.7l-.07,5.07a112.61,112.61,0,0,0,.51,14l-.45.39c-4.29-.07-5.25,0-9,.12l-.45-.32Zm-.12-14.67c-2.69.38-6.92,1.08-6.92,6.28,0,2.69,1.41,4.42,3.46,4.42a4.55,4.55,0,0,0,3.46-1.73Z"/><path d="M306,65A123.68,123.68,0,0,0,310.32,53c-2.88-10.13-8.06-26.61-10.94-34.56l.31-.38c4.68-.06,5.58-.12,10.13-.44l.52.38c.7,3.4.89,4.36,2.62,11.35L315.39,39,318,28.67c1.21-4.62,1.28-5,2.5-10.45l.38-.38a77.49,77.49,0,0,0,7.95-.13l.25.38c-1.66,5.07-2.05,6.48-5.83,18.85l-3.21,10.51c-2.57,8.91-3.66,12.81-4.68,17.43l-.45.38c-4.16,0-5,0-8.66.13Z"/><path class="cls-2" d="M370.28,0a4.64,4.64,0,1,0,4.64,4.65A4.64,4.64,0,0,0,370.28,0"/><path class="cls-2" d="M347.9,9.51a4.65,4.65,0,1,0,6.57,0,4.64,4.64,0,0,0-6.57,0"/><path class="cls-2" d="M393.87,16.09a4.65,4.65,0,1,0-6.57,0,4.65,4.65,0,0,0,6.57,0"/><path class="cls-2" d="M343,27.85a4.65,4.65,0,1,0,4.64,4.65A4.65,4.65,0,0,0,343,27.85"/><path class="cls-2" d="M347.89,48.92a4.64,4.64,0,1,0,6.56,0,4.64,4.64,0,0,0-6.56,0"/><path class="cls-2" d="M370.87,55.72a4.64,4.64,0,1,0,4.64,4.65,4.65,4.65,0,0,0-4.64-4.65"/><path class="cls-2" d="M387.29,48.93a4.64,4.64,0,1,0,6.57,0,4.65,4.65,0,0,0-6.57,0"/><path class="cls-2" d="M398.74,27.87a4.65,4.65,0,1,0,4.65,4.64,4.64,4.64,0,0,0-4.65-4.64"/><path d="M0,75.68H2.2a2.5,2.5,0,0,0,1,1.78,3.92,3.92,0,0,0,2.45.7A3.79,3.79,0,0,0,8,77.51a2.13,2.13,0,0,0,.86-1.77,1.79,1.79,0,0,0-.57-1.39,4.08,4.08,0,0,0-1.81-.82L4,72.9a6.72,6.72,0,0,1-1.35-.49,5.53,5.53,0,0,1-1.12-.76,3.17,3.17,0,0,1-.8-1.15A4,4,0,0,1,.42,69a3.84,3.84,0,0,1,.75-2.36A4.54,4.54,0,0,1,3.08,65.1a6.84,6.84,0,0,1,2.6-.48,6.67,6.67,0,0,1,2.56.47,4.44,4.44,0,0,1,1.91,1.46,3.93,3.93,0,0,1,.77,2.34H8.76a2.48,2.48,0,0,0-.9-1.73,3.37,3.37,0,0,0-2.21-.67,3.6,3.6,0,0,0-2.17.61,2,2,0,0,0-.81,1.69c0,1,.69,1.73,2.07,2.06l2.47.63a9.06,9.06,0,0,1,1.27.4,5.42,5.42,0,0,1,1.06.57,3.29,3.29,0,0,1,1.37,1.79,4.45,4.45,0,0,1,.19,1.31,3.93,3.93,0,0,1-1.57,3.32,6.55,6.55,0,0,1-4.07,1.18,8,8,0,0,1-2.1-.26,5,5,0,0,1-1.55-.7,4.49,4.49,0,0,1-1-1A4,4,0,0,1,.2,76.9,4.58,4.58,0,0,1,0,75.68Z"/><path d="M13.64,79.75V68.32h2.15V69.8h.11A2.75,2.75,0,0,1,17,68.63a3.35,3.35,0,0,1,1.86-.49,4,4,0,0,1,2.11.49A2.62,2.62,0,0,1,22.09,70h.1a2.86,2.86,0,0,1,1.25-1.34,4.35,4.35,0,0,1,2.24-.54,3.74,3.74,0,0,1,2.8,1,3.84,3.84,0,0,1,1,2.8v7.78H27.31V72.48a2.54,2.54,0,0,0-.61-1.78,2.21,2.21,0,0,0-1.7-.65,2.18,2.18,0,0,0-1.74.7,2.72,2.72,0,0,0-.63,1.88v7.12H20.49V72.63a2.72,2.72,0,0,0-.62-1.92,2.22,2.22,0,0,0-1.71-.66,2.25,2.25,0,0,0-1.68.67,2.59,2.59,0,0,0-.66,1.89v7.14Z"/><path d="M39,78.25a3.49,3.49,0,0,1-1.26,1.21,3.92,3.92,0,0,1-2,.47A3.81,3.81,0,0,1,33,79a3.24,3.24,0,0,1-1-2.51A3.09,3.09,0,0,1,33,74a4.44,4.44,0,0,1,3-.9h2.94V71.85c0-1.27-.74-1.9-2.22-1.9s-2.1.57-2.22,1.71h-2.1a3.49,3.49,0,0,1,1.16-2.56,4.8,4.8,0,0,1,3.25-1,5,5,0,0,1,3.18.91,3.4,3.4,0,0,1,1.14,2.82v7.88H39v-1.5Zm-2.62,0a2.62,2.62,0,0,0,1.84-.67,2.11,2.11,0,0,0,.75-1.65v-1.2H36.29a2.38,2.38,0,0,0-1.58.45,1.56,1.56,0,0,0-.53,1.24,1.62,1.62,0,0,0,.62,1.36A2.52,2.52,0,0,0,36.34,78.2Z"/><path d="M44.38,79.75V68.32h2.18v1.41h.07a3.35,3.35,0,0,1,.31-.54,2.74,2.74,0,0,1,.48-.5,2.27,2.27,0,0,1,.81-.4,4.6,4.6,0,0,1,1.18-.14,6.19,6.19,0,0,1,.76,0v2a4.54,4.54,0,0,0-1-.07c-1.73,0-2.6.91-2.6,2.71v6.94Z"/><path d="M53.4,68.37V65.51h2.15v2.86H57.8v1.76H55.55v6.3a1.71,1.71,0,0,0,.39,1.31,2.12,2.12,0,0,0,1.4.34l.52,0v1.7a6.28,6.28,0,0,1-1.06.08,6.62,6.62,0,0,1-1.69-.19,2.11,2.11,0,0,1-1-.62,2.39,2.39,0,0,1-.53-1,6.08,6.08,0,0,1-.16-1.48V70.13H51.8V68.37Z"/><path d="M64.75,65h5.56a4.75,4.75,0,0,1,3.49,1.31,4.64,4.64,0,0,1,1.31,3.41,4.56,4.56,0,0,1-1.31,3.39,4.78,4.78,0,0,1-3.5,1.29H67v5.4H64.75ZM67,66.84V72.5h2.08a8.13,8.13,0,0,0,1.6-.13,3.28,3.28,0,0,0,1.16-.43,1.89,1.89,0,0,0,.76-.87,3.37,3.37,0,0,0,.25-1.4,2.81,2.81,0,0,0-.74-2.09,2.77,2.77,0,0,0-2-.74Z"/><path d="M83.29,78.25A3.34,3.34,0,0,1,82,79.46a3.9,3.9,0,0,1-2,.47,3.85,3.85,0,0,1-2.7-.94,3.24,3.24,0,0,1-1-2.51,3.06,3.06,0,0,1,1-2.45,4.41,4.41,0,0,1,3-.9h2.94V71.85c0-1.27-.74-1.9-2.21-1.9s-2.11.57-2.22,1.71H76.72a3.46,3.46,0,0,1,1.17-2.56,4.8,4.8,0,0,1,3.25-1,4.94,4.94,0,0,1,3.17.91,3.4,3.4,0,0,1,1.14,2.82v7.88H83.37v-1.5Zm-2.62,0a2.65,2.65,0,0,0,1.85-.67,2.13,2.13,0,0,0,.74-1.65v-1.2H80.63a2.43,2.43,0,0,0-1.59.45,1.56,1.56,0,0,0-.53,1.24,1.61,1.61,0,0,0,.63,1.36A2.47,2.47,0,0,0,80.67,78.2Z"/><path d="M97.9,68.32c-2.63,7.55-4,11.34-4,11.36l-.3.8c-.15.41-.3.76-.44,1a5.82,5.82,0,0,1-.56.92,3.48,3.48,0,0,1-.76.77,3.87,3.87,0,0,1-1,.48,4.36,4.36,0,0,1-1.35.19,7.84,7.84,0,0,1-1.29-.1v-1.7a4.93,4.93,0,0,0,.87,0,2.23,2.23,0,0,0,1.48-.42,2.43,2.43,0,0,0,.71-1.31l.15-.54L87.3,68.32h2.43l2.86,9.37h.1l2.88-9.37Z"/><path d="M100,79.75V68.32h2.15V69.8h.11a2.75,2.75,0,0,1,1.07-1.17,3.35,3.35,0,0,1,1.86-.49,4,4,0,0,1,2.11.49A2.58,2.58,0,0,1,108.45,70h.1a2.86,2.86,0,0,1,1.25-1.34,4.35,4.35,0,0,1,2.24-.54,3.74,3.74,0,0,1,2.8,1,3.84,3.84,0,0,1,1,2.8v7.78h-2.17V72.48a2.5,2.5,0,0,0-.61-1.78,2.21,2.21,0,0,0-1.7-.65,2.18,2.18,0,0,0-1.74.7,2.72,2.72,0,0,0-.63,1.88v7.12h-2.14V72.63a2.72,2.72,0,0,0-.62-1.92,2.22,2.22,0,0,0-1.71-.66,2.25,2.25,0,0,0-1.68.67,2.59,2.59,0,0,0-.66,1.89v7.14Z"/><path d="M123.38,79.94a4.64,4.64,0,0,1-3.69-1.45,5.67,5.67,0,0,1-1.29-3.91v-1a5.87,5.87,0,0,1,1.27-4,5,5,0,0,1,7.14,0,5.91,5.91,0,0,1,1.24,3.94v1h-7.47v.32a3.78,3.78,0,0,0,.71,2.33,2.46,2.46,0,0,0,2.08.93,2.55,2.55,0,0,0,1.63-.46,1.91,1.91,0,0,0,.73-1.14h2.18a3.89,3.89,0,0,1-.37,1.17,4.24,4.24,0,0,1-.81,1.08,3.59,3.59,0,0,1-1.38.84A5.5,5.5,0,0,1,123.38,79.94Zm-2.8-7h5.31v0a3.26,3.26,0,0,0-.71-2.17,2.43,2.43,0,0,0-1.94-.84,2.4,2.4,0,0,0-1.94.84,3.25,3.25,0,0,0-.72,2.17Z"/><path d="M130.61,79.75V68.32h2.16v1.55h.07a2.94,2.94,0,0,1,1.2-1.23,4.58,4.58,0,0,1,5,.56,3.87,3.87,0,0,1,1.14,3v7.58H138V72.92c0-1.9-.86-2.85-2.57-2.85a2.48,2.48,0,0,0-1.94.75,3.13,3.13,0,0,0-.69,2.18v6.75Z"/><path d="M143.87,68.37V65.51H146v2.86h2.25v1.76H146v6.3a1.71,1.71,0,0,0,.39,1.31,2.12,2.12,0,0,0,1.4.34l.52,0v1.7a6.28,6.28,0,0,1-1.06.08,6.62,6.62,0,0,1-1.69-.19,2.11,2.11,0,0,1-1.05-.62,2.29,2.29,0,0,1-.53-1,5.62,5.62,0,0,1-.16-1.48V70.13h-1.57V68.37Z"/><path d="M154.15,75.68h2.2a2.53,2.53,0,0,0,1,1.78,3.94,3.94,0,0,0,2.45.7,3.79,3.79,0,0,0,2.33-.65,2.13,2.13,0,0,0,.86-1.77,1.79,1.79,0,0,0-.57-1.39,4.08,4.08,0,0,0-1.81-.82l-2.49-.63a6.41,6.41,0,0,1-1.34-.49,5.33,5.33,0,0,1-1.13-.76,3.17,3.17,0,0,1-.8-1.15,4,4,0,0,1-.29-1.55,3.84,3.84,0,0,1,.75-2.36,4.51,4.51,0,0,1,1.92-1.49,6.79,6.79,0,0,1,2.59-.48,6.63,6.63,0,0,1,2.56.47,4.44,4.44,0,0,1,1.91,1.46,3.86,3.86,0,0,1,.77,2.34h-2.16a2.47,2.47,0,0,0-.89-1.73,3.38,3.38,0,0,0-2.22-.67,3.55,3.55,0,0,0-2.16.61,2,2,0,0,0-.82,1.69c0,1,.69,1.73,2.07,2.06l2.47.63a9.06,9.06,0,0,1,1.27.4,5.8,5.8,0,0,1,1.07.57,3.62,3.62,0,0,1,.83.77,3.28,3.28,0,0,1,.53,1,4.15,4.15,0,0,1,.19,1.31,4,4,0,0,1-1.56,3.32,6.59,6.59,0,0,1-4.07,1.18,8.07,8.07,0,0,1-2.11-.26,5.07,5.07,0,0,1-1.55-.7,4.49,4.49,0,0,1-1-1,4,4,0,0,1-.59-1.17A5,5,0,0,1,154.15,75.68Z"/><path d="M172.21,79.94a4.67,4.67,0,0,1-3.69-1.45,5.67,5.67,0,0,1-1.28-3.91v-1a5.92,5.92,0,0,1,1.26-4,5,5,0,0,1,7.14,0,5.91,5.91,0,0,1,1.24,3.94v1h-7.46v.32a3.77,3.77,0,0,0,.7,2.33,2.47,2.47,0,0,0,2.08.93,2.53,2.53,0,0,0,1.63-.46,1.91,1.91,0,0,0,.73-1.14h2.18a3.89,3.89,0,0,1-.37,1.17,4.19,4.19,0,0,1-.8,1.08,3.72,3.72,0,0,1-1.39.84A5.47,5.47,0,0,1,172.21,79.94Zm-2.79-7h5.31v0a3.21,3.21,0,0,0-.72-2.17,2.66,2.66,0,0,0-3.88,0,3.24,3.24,0,0,0-.71,2.17Z"/><path d="M179.6,79.75V68.32h2.18v1.41h.08a2.74,2.74,0,0,1,.31-.54,3,3,0,0,1,.47-.5,2.33,2.33,0,0,1,.82-.4,4.52,4.52,0,0,1,1.17-.14,6.06,6.06,0,0,1,.76,0v2a4.43,4.43,0,0,0-1-.07c-1.74,0-2.6.91-2.6,2.71v6.94Z"/><path d="M190.28,79.75l-4-11.43h2.41l2.68,9.25h.08l2.9-9.25h2.32l-4.1,11.43Z"/><path d="M198.89,66.43a1.26,1.26,0,0,1,0-1.8,1.36,1.36,0,0,1,1-.36,1.41,1.41,0,0,1,1,.35,1.26,1.26,0,0,1,0,1.82,1.48,1.48,0,0,1-2,0Zm-.11,13.32V68.32H201V79.75Z"/><path d="M203.83,74.62V73.4a5.54,5.54,0,0,1,1.29-3.8,4.5,4.5,0,0,1,3.57-1.47,4.65,4.65,0,0,1,3.24,1.08,3.45,3.45,0,0,1,1.22,2.59h-2.09a2.11,2.11,0,0,0-.7-1.28,2.59,2.59,0,0,0-3.65.41,4.27,4.27,0,0,0-.69,2.52v1.18a4,4,0,0,0,.72,2.46,2.36,2.36,0,0,0,2,1,2.63,2.63,0,0,0,1.65-.46,2,2,0,0,0,.76-1.17h2.09a3.31,3.31,0,0,1-1.3,2.5,4.93,4.93,0,0,1-3.24,1,4.51,4.51,0,0,1-3.58-1.45A5.68,5.68,0,0,1,203.83,74.62Z"/><path d="M220.08,79.94a4.67,4.67,0,0,1-3.69-1.45,5.67,5.67,0,0,1-1.29-3.91v-1a5.92,5.92,0,0,1,1.27-4,5,5,0,0,1,7.14,0,5.91,5.91,0,0,1,1.24,3.94v1h-7.47v.32A3.78,3.78,0,0,0,218,77.2a2.47,2.47,0,0,0,2.08.93,2.55,2.55,0,0,0,1.63-.46,1.91,1.91,0,0,0,.73-1.14h2.18a3.89,3.89,0,0,1-.37,1.17,4,4,0,0,1-.81,1.08,3.59,3.59,0,0,1-1.38.84A5.5,5.5,0,0,1,220.08,79.94Zm-2.8-7h5.31v0a3.21,3.21,0,0,0-.71-2.17,2.66,2.66,0,0,0-3.88,0,3.25,3.25,0,0,0-.72,2.17Z"/><path d="M226.79,71.62a3.43,3.43,0,0,1,.35-1.57,3,3,0,0,1,1-1.1,4.64,4.64,0,0,1,1.38-.61,6.21,6.21,0,0,1,1.65-.21,4.51,4.51,0,0,1,3.06,1,3.16,3.16,0,0,1,1.1,2.49h-2a2,2,0,0,0-.58-1.28,2.21,2.21,0,0,0-1.65-.53,2.61,2.61,0,0,0-1.57.43,1.43,1.43,0,0,0-.6,1.21,1.13,1.13,0,0,0,.18.63,2.33,2.33,0,0,0,.36.43,1.86,1.86,0,0,0,.63.29l.64.18.76.13.11,0h.09l.1,0a12,12,0,0,1,1.22.27,5.5,5.5,0,0,1,1,.39,2.89,2.89,0,0,1,.85.58,2.45,2.45,0,0,1,.52.83,2.88,2.88,0,0,1,.2,1.13A3.14,3.14,0,0,1,234.35,79a5.42,5.42,0,0,1-3.39,1,5.17,5.17,0,0,1-3.18-.89,2.86,2.86,0,0,1-1.2-2.42h2.13a1.77,1.77,0,0,0,.71,1.21,2.7,2.7,0,0,0,1.64.45,2.86,2.86,0,0,0,1.81-.48,1.47,1.47,0,0,0,.6-1.22,1.36,1.36,0,0,0-1-1.28,10.87,10.87,0,0,0-1.88-.47c-.49-.1-.89-.2-1.22-.29a7.17,7.17,0,0,1-1-.38,3,3,0,0,1-.85-.57,2.45,2.45,0,0,1-.52-.83A3,3,0,0,1,226.79,71.62Z"/></g></g></svg>