<svg xmlns="http://www.w3.org/2000/svg" xmlns:xlink="http://www.w3.org/1999/xlink" viewBox="0 0 48.71867 31.03068"><defs><style>.cls-1{fill-rule:evenodd;fill:url(#linear-gradient);}</style><linearGradient id="linear-gradient" x1="21.96507" y1="32.73907" x2="26.73977" y2="-1.71122" gradientUnits="userSpaceOnUse"><stop offset="0" stop-color="#292a60"/><stop offset="0.25" stop-color="#792b80"/><stop offset="0.5" stop-color="#cb2239"/><stop offset="0.75" stop-color="#da4f32"/><stop offset="1" stop-color="#f49826"/></linearGradient></defs><title>Asset 68</title><g id="Layer_2" data-name="Layer 2"><g id="Top_menu" data-name="Top menu"><path class="cls-1" d="M48.69958,6.64831c-.5299-6.44626-10.1211-8.43339-22.06775-4.95193l.03183-.80281c.03176-.8293-1.24791-1.08629-2.85883-.57494-1.60827.514-2.9436,1.6003-2.978,2.42959l-.03975,1.028C8.58873,8.903-.51765,17.80007.02286,24.38145c.58023,7.03179,11.944,8.76192,25.38494,3.863.94055-.34178,1.86788-.71007,2.77667-1.09688,0,0,11.90157-4.32665,18.87774-14.57759A11.03077,11.03077,0,0,0,48.69958,6.64831ZM28.18447,24.37349c-.65972.30736-1.346.59614-2.04806.86905-.21993.08742-.43983.16957-.65972.25171C14.84153,29.43141,5.78288,27.74368,5.245,21.72664c-.4875-5.47653,6.25551-12.65933,15.497-16.87206l-.10861,2.782c-.03444.82929,1.24526,1.08629,2.85618.57494,1.60823-.51136,2.94356-1.6003,2.97539-2.43225l.12452-3.06548C35.85478.13581,43.284,2.03816,43.76886,7.46965A9.11255,9.11255,0,0,1,42.47324,12.57S38.89376,20.06011,28.18447,24.37349ZM29.3489,12.17617c.1097,1.75809-2.54506,4.38791-5.92927,5.87126-3.386,1.48523-6.21705,1.2628-6.328-.49471-.10888-1.75756,2.54752-4.38732,5.93232-5.872,3.38432-1.4861,6.21769-1.26333,6.325.49541Z"/></g></g></svg>