<svg xmlns="http://www.w3.org/2000/svg" viewBox="0 0 48.45912 48.35293"><defs><style>.cls-1{fill:#43a1da;}.cls-2{fill:#fff;}.cls-3{fill:#45a2da;}</style></defs><title>Asset 54</title><g id="Layer_2" data-name="Layer 2"><g id="Section_1" data-name="Section 1"><path class="cls-1" d="M48.45912,9.84376a10.23191,10.23191,0,0,0-.079-1.44627,9.64853,9.64853,0,0,0-.76594-2.66113,9.8797,9.8797,0,0,0-2.49852-3.375A9.75369,9.75369,0,0,0,42.819.84786a7.51108,7.51108,0,0,0-3.4242-.82738l-.0254-.00164L39.3473.01843A.89766.89766,0,0,1,39.03724,0H.02468A.49272.49272,0,0,0,.00543.24125Q.00358,19.6572.00666,39.07358a6.98361,6.98361,0,0,0,.07864,1.262,9.88415,9.88415,0,0,0,5.25591,7.03027,8.98909,8.98909,0,0,0,4.15082.98711q19.29063-.01659,38.58207-.00614c.06144,0,.12288-.00369.18391.00041.1323.009.18555-.06349.19456-.18268.00942-.129.00573-.25886.00573-.38829Q48.4583,28.81,48.45912,9.84376Z"/><path class="cls-2" d="M39.16452,31.18176a3.79255,3.79255,0,0,1-1.47646-.265,1.564,1.564,0,0,0-.97651-.10534.906.906,0,0,0-.74278.92267,2.3052,2.3052,0,0,0,.059.60869,2.71627,2.71627,0,0,1-.02915,1.353c-.32632,1.17915-.64956,2.35916-.98,3.53714a2.02516,2.02516,0,0,1-.354.70837.22091.22091,0,0,0,.00374.30961,1.78477,1.78477,0,0,1,.03812,2.33106.43763.43763,0,0,0-.07682.34582,2.05218,2.05218,0,0,1-4.02942.78,1.8113,1.8113,0,0,1-.03355-.18048.2353.2353,0,0,0-.2744-.23586c-.6.01308-1.19983.01627-1.79976-.00069-.17661-.005-.24613.08458-.2669.26047A2.00875,2.00875,0,0,1,26.435,43.33674a2.05349,2.05349,0,0,1-2.23-1.45912.908.908,0,0,1-.06287-.29751c.01684-.25252-.10322-.36948-.32639-.46965a1.89394,1.89394,0,0,1-1.043-2.34442c.127-.40874.26856-.813.40882-1.21749a.995.995,0,0,0,.01813-.60064q-.53544-2.0201-1.06-4.04305a.28392.28392,0,0,0-.31052-.2511,1.97645,1.97645,0,0,1-1.991-2.08472,2.01147,2.01147,0,0,1,2.4362-1.83452,6.27039,6.27039,0,0,0,1.3433.0744,1.90474,1.90474,0,0,1,1.525.78085,3.13729,3.13729,0,0,1,.42314,1.0311c.0396.136.03788.3331.12744.39166.08725.057.2211-.11254.33966-.17377a2.96209,2.96209,0,0,1,1.38362-.30387c2.20282.00075,4.40564.01268,6.60846.01748a3.62,3.62,0,0,0,.75192-.05967,1.05176,1.05176,0,0,0,.788-1.48182,4.64467,4.64467,0,0,1-.42948-2.01788,4.00415,4.00415,0,0,1,.88243-2.30674A1.23647,1.23647,0,0,0,36.237,23.5147a3.21815,3.21815,0,0,0-.84676-1.40036.45844.45844,0,0,0-.40912-.13232A2.722,2.722,0,1,1,37.309,18.82218a2.59944,2.59944,0,0,1-.503,2.08222.64922.64922,0,0,0-.105.66333,3.64543,3.64543,0,0,0,.77469,1.30755,1.10992,1.10992,0,0,0,1.03744.35775,4.00361,4.00361,0,0,1,1.48353,7.86605A3.11724,3.11724,0,0,1,39.16452,31.18176Z"/><path class="cls-2" d="M44.29028,12.25764a2.73017,2.73017,0,0,1-5.46032-.015,2.73017,2.73017,0,0,1,5.46032.015Z"/><path class="cls-2" d="M39.40772,15.144a.60072.60072,0,0,1-.62217.61194.62882.62882,0,0,1-.60771-.61806.63884.63884,0,0,1,.61575-.61317A.60018.60018,0,0,1,39.40772,15.144Z"/><path class="cls-2" d="M36.86564,16.445a.61483.61483,0,0,1,1.22948-.01976.63575.63575,0,0,1-.61742.63116A.6264.6264,0,0,1,36.86564,16.445Z"/><path class="cls-3" d="M30.45544,31.82979c1.05706.00007,2.11415-.004,3.17118.00153a1.08762,1.08762,0,0,1,1.17524,1.03057,2.06694,2.06694,0,0,1-.11877.741c-.28135,1.02777-.57419,2.05246-.847,3.08245a1.23925,1.23925,0,0,1-1.30893,1.01425c-1.41134-.02225-2.82328-.00635-4.235-.00676a1.13008,1.13008,0,0,1-1.218-.92656c-.31166-1.1256-.60569-2.2564-.93783-3.37592a1.15832,1.15832,0,0,1,1.189-1.56661C28.36814,31.84882,29.412,31.82972,30.45544,31.82979Z"/><path class="cls-3" d="M28.98284,40.00626q-2.06652,0-4.13306.00027a1.4929,1.4929,0,0,1-.44351-.05664.54246.54246,0,0,1-.41332-.68832,11.13515,11.13515,0,0,1,.48-1.49484,1.37918,1.37918,0,0,0,.04747-.8725c-.47817-1.79111-.93868-3.58692-1.40551-5.38106-.0694-.26668-.12085-.29881-.39914-.29521a1.83359,1.83359,0,0,0-.67649.12955.698.698,0,0,1-.78746-.28452.7189.7189,0,0,1,.03438-.82192.62912.62912,0,0,1,.73744-.23622,1.83131,1.83131,0,0,0,.60337.08489c.33366.00522.66694-.00378,1.00111.02135a.57367.57367,0,0,1,.56075.42465c.12875.42193.24.84938.35171,1.2763.444,1.696.87712,3.39479,1.33329,5.08744a1.95235,1.95235,0,0,1-.11935,1.1736c-.05819.174-.12211.346-.18609.518-.08483.228-.05089.28225.18929.28234q2.69058.001,5.38116.00041c.68884,0,1.37769-.00106,2.06652.00145a.57789.57789,0,0,1,.56307.33682.53513.53513,0,0,1-.0653.57755.62486.62486,0,0,1-.54639.21736Q31.06984,40.00485,28.98284,40.00626Z"/><path class="cls-3" d="M41.78568,27.20765A2.64224,2.64224,0,1,1,39.119,24.55187,2.62662,2.62662,0,0,1,41.78568,27.20765Z"/><path class="cls-3" d="M35.53484,19.80445c-.07843-.00389-.13966-.01-.20081-.00934a.202.202,0,0,0-.22532.229c.00149.08809.01909.17592.02026.264a.575.575,0,0,1-.24843.54833.46888.46888,0,0,1-.52149.00424.58361.58361,0,0,1-.26129-.56279.78212.78212,0,0,1,.01442-.08035c.04285-.31579-.02552-.39366-.33813-.39523a1.13616,1.13616,0,0,1-.44429-.03762.511.511,0,0,1-.34242-.52344.52434.52434,0,0,1,.47593-.45928,2.40423,2.40423,0,0,1,.26555.00182c.35733.00835.42611-.0652.3783-.41654a.66409.66409,0,0,1,.08991-.46908.471.471,0,0,1,.52858-.21863.44956.44956,0,0,1,.37822.38029,4.17273,4.17273,0,0,1,.04124.46724.21.21,0,0,0,.213.22531c.11529.00783.23038.01905.34574.02544a.51362.51362,0,1,1-.00208,1.02628C35.64044,19.80668,35.579,19.80445,35.53484,19.80445Z"/><path class="cls-3" d="M25.40535,41.28155a.77787.77787,0,1,1,.79707.78974A.755.755,0,0,1,25.40535,41.28155Z"/><path class="cls-3" d="M31.83245,41.26877a.78511.78511,0,0,1,.805-.756.77106.77106,0,0,1,.73666.79651.7382.7382,0,0,1-.75177.75132A.77934.77934,0,0,1,31.83245,41.26877Z"/><path class="cls-3" d="M43.41726,12.29094a1.856,1.856,0,0,1-3.7116-.04839,1.856,1.856,0,1,1,3.7116.04839Z"/><path class="cls-2" d="M28.21141,34.20945c.51561-.00271.51548-.00271.51569-.5192a1.90036,1.90036,0,0,1,.03056-.44709.51668.51668,0,0,1,.50257-.42513.5045.5045,0,0,1,.4824.46882,6.63361,6.63361,0,0,1,.01322.69431c-.003.164.05616.23454.22735.23026.34072-.00854.68188-.00723,1.02268-.00055.16118.00315.22033-.06433.214-.22017-.00719-.17691-.00554-.35446-.00041-.53152a.522.522,0,0,1,.44308-.5301.49193.49193,0,0,1,.55412.45081,3.95105,3.95105,0,0,1,.01693.63171c-.0032.15212.05674.20788.20655.19855.14942-.00931.3-.00508.44986-.00079a.5113.5113,0,0,1,.55016.48591.4929.4929,0,0,1-.50525.52477,3.14947,3.14947,0,0,1-.38582-.02575c-.2551-.00987-.3503.08173-.34478.3372a2.34556,2.34556,0,0,1,.00164.62911c-.07122.29245-.21209.43213-.48.43449-.28146.00248-.40858-.111-.48044-.42417a1.51387,1.51387,0,0,1-.00363-.56794c.04235-.28529-.073-.43023-.35205-.40588a4.44535,4.44535,0,0,1-.81368-.00078c-.24951-.02376-.3303.06746-.33116.32048-.00065.19051.01517.38193.00147.57134a.50142.50142,0,0,1-.48879.48479.52006.52006,0,0,1-.50368-.42442,3.26783,3.26783,0,0,1-.02412-.733c-.00141-.14049-.04944-.192-.19135-.19213a4.42112,4.42112,0,0,1-.755-.01665.48469.48469,0,0,1-.453-.50852.52258.52258,0,0,1,.51273-.48754C27.9656,34.20348,28.08868,34.20945,28.21141,34.20945Z"/><path class="cls-2" d="M42.47579,12.24993a.91971.91971,0,0,1-.91282.92574.92041.92041,0,0,1-.01249-1.84077A.9232.9232,0,0,1,42.47579,12.24993Z"/><path class="cls-2" d="M10.23432,11.96363l.12695-1.01172h1.12842V12.655a2.95976,2.95976,0,0,1-1.12011.67969,4.38805,4.38805,0,0,1-1.57325.28222,3.41273,3.41273,0,0,1-2.80908-1.15039,4.942,4.942,0,0,1-.94043-3.21289,4.56665,4.56665,0,0,1,.9624-3.03027A3.429,3.429,0,0,1,8.79633,5.073a4.87508,4.87508,0,0,1,1.41553.20508,3.16271,3.16271,0,0,1,1.04.48632l-.01123,1.83594H10.10151L9.96333,6.59352a2.22237,2.22237,0,0,0-1.145-.23731A1.94157,1.94157,0,0,0,7.17866,7.155a3.48821,3.48821,0,0,0-.59961,2.14355,3.76249,3.76249,0,0,0,.583,2.209,1.84566,1.84566,0,0,0,1.58984.82617,3.64282,3.64282,0,0,0,.9375-.11035A1.11024,1.11024,0,0,0,10.23432,11.96363Z"/><path class="cls-2" d="M17.436,11.96363l.127-1.01172h1.12842V12.655a2.95976,2.95976,0,0,1-1.12011.67969A4.38805,4.38805,0,0,1,15.998,13.617a3.41273,3.41273,0,0,1-2.80908-1.15039,4.942,4.942,0,0,1-.94043-3.21289,4.56665,4.56665,0,0,1,.9624-3.03027A3.429,3.429,0,0,1,15.998,5.073a4.87508,4.87508,0,0,1,1.41553.20508,3.16271,3.16271,0,0,1,1.04.48632l-.01123,1.83594H17.30316L17.165,6.59352a2.22237,2.22237,0,0,0-1.145-.23731,1.94157,1.94157,0,0,0-1.63965.79883,3.48821,3.48821,0,0,0-.59961,2.14355,3.76249,3.76249,0,0,0,.583,2.209,1.84566,1.84566,0,0,0,1.58984.82617,3.64282,3.64282,0,0,0,.9375-.11035A1.11024,1.11024,0,0,0,17.436,11.96363Z"/><path class="cls-2" d="M23.66694,11.86988l1.78613-5.41406-.73584-.14355V5.24488h3.02539V6.31227l-.769.14355-2.48291,7.001H22.79291l-2.54931-7.001-.75781-.14355V5.24488h3.01416V6.31227l-.74121.14355Z"/><path class="cls-2" d="M5.47944,17.76246a.91994.91994,0,0,0,.08691.40235,1.2176,1.2176,0,0,0,.19336.29785,1.128,1.128,0,0,0,.3252.22656c.1455.07324.26758.12891.36523.166q.14722.05565.42188.14941.30981.104.48.16211a2.85356,2.85356,0,0,1,.42334.19726,1.408,1.408,0,0,1,.38525.29,1.49369,1.49369,0,0,1,.33643.96,1.48061,1.48061,0,0,1-.499,1.19336,2.08852,2.08852,0,0,1-1.39306.42383A2.59218,2.59218,0,0,1,5.58735,22.032a1.88769,1.88769,0,0,1-.7041-.46679V20.40113h.3833l.09277.89356A1.68786,1.68786,0,0,0,6.68256,21.74a1.545,1.545,0,0,0,.936-.2793.8743.8743,0,0,0,.34863-.7539,1.06067,1.06067,0,0,0-.07568-.41016,1.14487,1.14487,0,0,0-.1626-.28808.9698.9698,0,0,0-.30566-.21875,3.14626,3.14626,0,0,0-.356-.16211q-.137-.05127-.45459-.15528-.30909-.104-.48731-.16992a3.11356,3.11356,0,0,1-.43554-.21289A1.541,1.541,0,0,1,5.2934,18.784a1.41913,1.41913,0,0,1-.2417-.41993,1.6138,1.6138,0,0,1-.10254-.59375,1.35517,1.35517,0,0,1,.499-1.08105,1.82743,1.82743,0,0,1,1.22656-.42383,2.47818,2.47818,0,0,1,.88818.15625,1.63962,1.63962,0,0,1,.63233.39649l-.00781,1.084h-.3711l-.09326-.79a1.32363,1.32363,0,0,0-1.04834-.36719,1.3241,1.3241,0,0,0-.85107.27442A.901.901,0,0,0,5.47944,17.76246Z"/><path class="cls-2" d="M12.92426,21.70875l.61914.06152v.34864H11.81782v-.34864l.59961-.06152V19.55738a1.89474,1.89474,0,0,0-.19336-.99218.80937.80937,0,0,0-.731-.2959,1.44075,1.44075,0,0,0-.71777.20117,1.71321,1.71321,0,0,0-.55909.4873v2.751l.60352.06152v.34864H9.09028v-.34864l.61914-.06152V16.65211l-.61914-.05469v-.34375l1.126-.07715v2.27442a2.12119,2.12119,0,0,1,.60547-.43164,1.71614,1.71614,0,0,1,.772-.1875q1.3308,0,1.33056,1.52832Z"/><path class="cls-2" d="M16.86616,22.02809a1.89819,1.89819,0,0,1-.89991.20312,1.92056,1.92056,0,0,1-.90332-.20312,1.53218,1.53218,0,0,1-.5996-.53614,2.611,2.611,0,0,1-.31348-.70019,2.83507,2.83507,0,0,1-.10254-.76563,3.08488,3.08488,0,0,1,.06006-.60937,2.39505,2.39505,0,0,1,.20312-.59082,1.93708,1.93708,0,0,1,.356-.50684,1.59372,1.59372,0,0,1,.54932-.35156,1.97987,1.97987,0,0,1,.74853-.13574,1.95149,1.95149,0,0,1,.74512.13574,1.62244,1.62244,0,0,1,.54736.35156,1.93142,1.93142,0,0,1,.35791.50684,2.34865,2.34865,0,0,1,.20117.59082,3.19786,3.19786,0,0,1,.05811.60937,2.96155,2.96155,0,0,1-.09863.76368,2.50193,2.50193,0,0,1-.31153.70214A1.55735,1.55735,0,0,1,16.86616,22.02809Zm-.89991-3.75879a1.20576,1.20576,0,0,0-1.02343.4873,2.04751,2.04751,0,0,0-.36524,1.26172,2.093,2.093,0,0,0,.36182,1.28418,1.20617,1.20617,0,0,0,1.02685.4834,1.19384,1.19384,0,0,0,1.01758-.4834,2.09907,2.09907,0,0,0,.35987-1.28418,2.05359,2.05359,0,0,0-.36377-1.26367A1.19483,1.19483,0,0,0,15.96625,18.2693Z"/><path class="cls-2" d="M20.90034,17.8318a1.36523,1.36523,0,0,1,1.21679.59765,2.76519,2.76519,0,0,1,.40039,1.56543A2.64344,2.64344,0,0,1,22.061,21.6316a1.60028,1.60028,0,0,1-1.35791.59961,1.84157,1.84157,0,0,1-1.11816-.41406V23.697l.855.0625v.33985h-1.981v-.33985l.61914-.0625v-5.3584l-.61914-.05371V17.9441l1.07959-.081.023.60351a1.93478,1.93478,0,0,1,.59424-.44531A1.6363,1.6363,0,0,1,20.90034,17.8318Zm-.23584,3.9541q1.32275,0,1.32275-1.791,0-1.72558-1.19922-1.72558a1.28517,1.28517,0,0,0-.68115.20508,1.65836,1.65836,0,0,0-.522.49121v2.31347a1.39879,1.39879,0,0,0,.47168.36035A1.36453,1.36453,0,0,0,20.6645,21.7859Z"/></g></g></svg>