<svg xmlns="http://www.w3.org/2000/svg" viewBox="0 0 41.43894 41.43894"><defs><style>.cls-1{fill:#e5422b;}</style></defs><title>Asset 63</title><g id="Layer_2" data-name="Layer 2"><g id="Section_1" data-name="Section 1"><path class="cls-1" d="M37.07327,0H4.35791A4.34366,4.34366,0,0,0,0,4.36567v32.7076a4.34366,4.34366,0,0,0,4.35791,4.36567H37.07327a4.375,4.375,0,0,0,4.36567-4.36567V4.36567A4.34534,4.34534,0,0,0,37.07327,0ZM20.64192,25.248a6.26965,6.26965,0,0,0,4.21834-1.79124L26.79883,25.69a10.71507,10.71507,0,0,1-6.68419,2.56667c-4.60606,0-7.51392-3.05519-6.8393-7.36658a9.05912,9.05912,0,0,1,9.21211-7.36657,7.70854,7.70854,0,0,1,5.76919,2.47362l-2.714,2.22548a4.46924,4.46924,0,0,0-3.536-1.6982,5.22042,5.22042,0,0,0-5.33495,4.36567C16.284,23.45673,17.83487,25.248,20.64192,25.248Z"/></g></g></svg>