<svg xmlns="http://www.w3.org/2000/svg" viewBox="0 0 48.08299 48"><defs><style>.cls-1{fill:#0cf;}</style></defs><title>Asset 34</title><g id="Layer_2" data-name="Layer 2"><g id="Section_1" data-name="Section 1"><path class="cls-1" d="M16.19107,23.38918c.00007-2.22766.01028-4.4554-.00827-6.6829-.00386-.46422.14949-.61424.6123-.61291,4.47142.01292,8.9429.007,13.41435.00853.59265.0002.61686.64075.61686.64075q.002,6.683-.00013,13.36595c-.00021.60274-.026.62805-.62937.62824q-6.683.00205-13.36595,0c-.62539-.00019-.63893-.01582-.63933-.66469Q16.18949,26.73067,16.19107,23.38918Z"/><path class="cls-1" d="M33.43341,23.39761c0-2.228.00945-4.456-.00783-6.6838-.00354-.456.13652-.62194.60671-.62055q6.73224.01985,13.46453.00039c.44693-.00123.58669.15371.58562.59086q-.0165,6.73224-.00027,13.46454c.001.43095-.12708.59743-.58031.59613q-6.73224-.01922-13.46453,0c-.46444.00134-.61562-.1535-.612-.61536C33.44319,27.88587,33.43342,25.6417,33.43341,23.39761Z"/><path class="cls-1" d="M7.30292,14.56669c-2.22717-.00006-4.4544-.00931-6.68144.00763-.45284.00345-.62288-.13-.62141-.60357Q.02085,7.28932,0,.60781c-.00146-.46933.15831-.60732.616-.606Q7.3217.02132,14.0274,0c.50377-.00186.62614.18085.62471.65082-.01342,4.422-.00731,8.84406-.00872,13.2661-.0002.62858-.02208.64879-.659.64923Q10.64367,14.56844,7.30292,14.56669Z"/><path class="cls-1" d="M23.48018,47.99183c-2.22717,0-4.45441-.00989-6.68143.0081-.45827.0037-.61731-.13746-.61585-.60651q.02079-6.68143.00005-13.36294c-.00148-.47379.16926-.60432.62159-.60308q6.70566.01839,13.41136-.00039c.45971-.00134.61985.14348.61853.60932q-.01895,6.68144.00044,13.36294c.00143.47495-.1732.604-.62485.60048C27.96686,47.98242,25.72348,47.99184,23.48018,47.99183Z"/><path class="cls-1" d="M40.76647,47.99181q-3.34114.00014-6.68229-.00059c-.63319-.00049-.65007-.01723-.65024-.65466q-.00179-6.63386.00024-13.26771c.00021-.60432.02823-.633.62593-.63318,4.471-.0016,8.942.00462,13.413-.00894.46927-.00143.61114.16153.60991.61807q-.0181,6.68223-.00077,13.36452c.001.43547-.13657.594-.58512.59049C45.25368,47.98217,43.01,47.99174,40.76647,47.99181Z"/></g></g></svg>