<svg xmlns="http://www.w3.org/2000/svg" viewBox="0 0 47.41487 61.09008"><defs><style>.cls-1{fill:#092e20;}</style></defs><title>Asset 61</title><g id="Layer_2" data-name="Layer 2"><g id="Section_1" data-name="Section 1"><path class="cls-1" d="M21.53487,0H31.524V46.23653a65.89394,65.89394,0,0,1-12.97264,1.362C6.3566,47.59815,0,42.08555,0,31.51228,0,21.32857,6.74617,14.713,17.18889,14.713a15.96681,15.96681,0,0,1,4.346.51846Zm0,23.27393a9.92273,9.92273,0,0,0-3.37267-.51846c-5.05942,0-7.9785,3.11365-7.9785,8.56181,0,5.31928,2.78936,8.23794,7.91364,8.23794a23.315,23.315,0,0,0,3.43753-.259Z"/><path class="cls-1" d="M47.41487,15.426V38.58191c0,7.9785-.58373,11.80518-2.33493,15.1134-1.62189,3.17893-3.76266,5.18915-8.17307,7.39477L27.6312,56.67925c4.41083-2.07549,6.55117-3.89112,7.91321-6.68132,1.42732-2.8538,1.88175-6.162,1.88175-14.85355V15.426ZM37.42616.05314h9.98871V10.3017H37.42616Z"/></g></g></svg>