<svg xmlns="http://www.w3.org/2000/svg" viewBox="0 0 46.85731 52.88158"><defs><style>.cls-1{fill:#2ba9e0;}</style></defs><title>Asset 36</title><g id="Layer_2" data-name="Layer 2"><g id="Section_1" data-name="Section 1"><path class="cls-1" d="M22.04129,32.74225a8.3439,8.3439,0,1,0,8.34389,8.34389A8.345,8.345,0,0,0,22.04129,32.74225Z"/><path class="cls-1" d="M32.42761,31.14313a14.37879,14.37879,0,0,1-2.16909,21.73845A24.1317,24.1317,0,0,0,45.39468,39.31287c3.53072-8.67638.23749-15.1995-5.27232-21.121a10.70645,10.70645,0,0,1,.26915,2.37492A11.0178,11.0178,0,0,1,32.42761,31.14313Z"/><path class="cls-1" d="M22.99126,20.58265A6.38854,6.38854,0,1,0,29.38771,14.202,6.382,6.382,0,0,0,22.99126,20.58265Z"/><path class="cls-1" d="M11.03748,50.34834a14.37768,14.37768,0,0,1,9.29386-23.52756,10.9825,10.9825,0,0,1,9.05637-17.2261,11.13418,11.13418,0,0,1,1.47245.095A84.54528,84.54528,0,0,1,20.838,0C22.27878,15.07284,7.111,9.59468,1.4903,23.49589-2.26208,32.80558,1.12614,44.316,11.03748,50.34834Z"/></g></g></svg>