<svg xmlns="http://www.w3.org/2000/svg" viewBox="0 0 46.81876 53.55129"><defs><style>.cls-1{fill:#2fa8e0;}</style></defs><title>Asset 35</title><g id="Layer_2" data-name="Layer 2"><g id="Section_1" data-name="Section 1"><path class="cls-1" d="M18.874,43.59453q-3.1582,3.7445-6.30164,7.49265a6.6119,6.6119,0,0,1-1.54369-.781c-9.90416-6.02509-13.28912-17.52586-9.5391-26.829,2.57005-6.35694,7.13865-8.65783,11.1984-10.7301-.04058.19911-.2515,1.34942-.29574,1.62228-.28763,1.80311-.2655,1.86209,1.24631,2.10545,3.54352.5826,7.08334,1.14308,10.62687,1.71461,3.49927.56048,7.00223,1.11358,10.4978,1.69249,2.15341.35766,2.057.43824,1.37853,2.50684a6.27866,6.27866,0,0,1-1.15413,2.12388Q26.929,34.05359,18.874,43.59453Z"/><path class="cls-1" d="M35.37976,15.1807C28.42178,14.0155,21.449,12.92776,14.48,11.81418,18.466,9.6571,21.50436,7.13127,20.82222,0A84.74539,84.74539,0,0,0,30.83329,9.68289l6.67406,6.12466A8.84054,8.84054,0,0,0,35.37976,15.1807Z"/><path class="cls-1" d="M45.35766,39.28105A24.11235,24.11235,0,0,1,30.23225,52.83934a29.52154,29.52154,0,0,1-12.69914.04056q11.062-13.09184,22.10551-26.20212a7.06,7.06,0,0,0,1.41963-7.42259C45.96608,24.88574,48.67256,31.13576,45.35766,39.28105Z"/></g></g></svg>