<?xml version="1.0" encoding="utf-8"?>
<!-- Generator: Adobe Illustrator 24.0.2, SVG Export Plug-In . SVG Version: 6.00 Build 0)  -->
<svg version="1.1" id="Lag_1" xmlns="http://www.w3.org/2000/svg" xmlns:xlink="http://www.w3.org/1999/xlink" x="0px" y="0px"
	 viewBox="0 0 60 60.2" style="enable-background:new 0 0 60 60.2;" xml:space="preserve">
<style type="text/css">
	.st0{fill:#1584C6;}
	.st1{fill:#51544B;}
</style>
<g>
	<g>
		<path class="st0" d="M22.3,23.1c4.4,4.4,0.2,15.5-4.2,19.9s-3.7-7.2-8.1-11.6s-14.6,2.8-7.6-4.2C6.8,22.9,17.9,18.7,22.3,23.1"/>
		<path class="st1" d="M37.1,22.4c-4.4,4.4-15.5,0.2-19.9-4.2s6.9-3.9,11.3-8.1s-2.8-14.8,4.2-7.9C37.1,6.9,41.2,18,37.1,22.4"/>
		<path class="st0" d="M37.7,37c-4.4-4.4-0.2-15.5,4.2-19.9s3.7,7.2,8.1,11.6s14.6-2.8,7.6,4.2C53.2,37.5,42.1,41.4,37.7,37"/>
		<path class="st1" d="M23.2,37.9c4.4-4.4,15.5-0.2,19.9,4.2s-7.2,3.7-11.6,8.1s2.8,14.6-4.2,7.6C22.9,53.4,18.8,42.3,23.2,37.9"/>
	</g>
</g>
</svg>
