<svg xmlns="http://www.w3.org/2000/svg" xmlns:xlink="http://www.w3.org/1999/xlink" viewBox="0 0 48.0082 61.1506"><defs><style>.cls-1{fill:url(#linear-gradient);}.cls-2{fill:#999;}.cls-3{fill:#fff;}.cls-4{fill:url(#linear-gradient-2);}.cls-5{fill:#c00;}.cls-6{fill:url(#linear-gradient-3);}.cls-7{fill:url(#linear-gradient-4);}.cls-8{fill:url(#linear-gradient-5);}.cls-9{fill:url(#linear-gradient-6);}.cls-10{fill:url(#linear-gradient-7);}</style><linearGradient id="linear-gradient" x1="7.03246" y1="30.29495" x2="44.47778" y2="30.29495" gradientUnits="userSpaceOnUse"><stop offset="0" stop-color="#ff3400"/><stop offset="1" stop-color="#ff8e0d"/></linearGradient><linearGradient id="linear-gradient-2" x1="20.2796" y1="32.78735" x2="32.8157" y2="19.94113" gradientUnits="userSpaceOnUse"><stop offset="0.10016" stop-color="#575353"/><stop offset="1" stop-color="#999"/></linearGradient><linearGradient id="linear-gradient-3" x1="323.32213" y1="-580.14097" x2="324.59079" y2="-584.10911" gradientTransform="matrix(0.59133, 1.4075, -1.91413, 0.43482, -1292.0804, -155.30721)" gradientUnits="userSpaceOnUse"><stop offset="0.50155" stop-color="#ff6b08"/><stop offset="1" stop-color="#ffe9db"/></linearGradient><linearGradient id="linear-gradient-4" x1="163.32159" y1="-77.86048" x2="164.56993" y2="-81.82314" gradientTransform="matrix(0.33466, 1.4075, -1.08331, 0.43482, -134.64446, -148.74499)" xlink:href="#linear-gradient-3"/><linearGradient id="linear-gradient-5" x1="223.32194" y1="-240.87495" x2="224.57469" y2="-244.83881" gradientTransform="matrix(0.39048, 1.4075, -1.26397, 0.43482, -374.59251, -158.75756)" xlink:href="#linear-gradient-3"/><linearGradient id="linear-gradient-6" x1="402.16145" y1="-804.49547" x2="403.45507" y2="-808.47009" gradientTransform="matrix(0.90558, 1.4075, -2.93137, 0.43482, -2701.6622, -166.89493)" xlink:href="#linear-gradient-3"/><linearGradient id="linear-gradient-7" x1="442.34768" y1="-919.02043" x2="443.66804" y2="-923.00168" gradientTransform="matrix(1.24148, 1.4075, -4.01867, 0.43482, -4216.84445, -173.99848)" xlink:href="#linear-gradient-3"/></defs><title>Asset 74</title><g id="Layer_2" data-name="Layer 2"><g id="Section_1" data-name="Section 1"><polygon class="cls-1" points="7.032 27.575 8.846 21.862 44.478 32.844 43.144 38.728 7.032 27.575"/><path class="cls-2" d="M8.84571,21.86163,44.47778,32.84376,43.1435,38.72827,7.03246,27.57508l1.81325-5.71345m0-.17865a.17868.17868,0,0,0-.17019.12462L6.86223,27.52105a.17861.17861,0,0,0,.11753.22468l36.111,11.15319a.1786.1786,0,0,0,.22689-.13115L44.652,32.88326a.17861.17861,0,0,0-.12158-.21018L8.89831,21.69094a.17876.17876,0,0,0-.05265-.008Z"/><path class="cls-3" d="M44.2471,31.07942l.41055.13115L44.25,32.67381l-.56757-.18616L42.2882,31.384s-.34739-.34717.19387-.34212S44.2471,31.07942,44.2471,31.07942Z"/><path class="cls-2" d="M44.25,32.76311a.08906.08906,0,0,1-.02783-.00445l-.56755-.18615a.09009.09009,0,0,1-.0276-.01487l-1.39427-1.10358-.00769-.00686c-.03121-.03117-.18367-.19425-.12119-.34318.06473-.1543.30131-.15226.379-.15139.53584.005,1.75434.03718,1.76657.03751a.08865.08865,0,0,1,.02481.00422l.41053.13113a.08931.08931,0,0,1,.05885.109L44.336,32.69775a.08925.08925,0,0,1-.086.06536Zm-.5246-.35536.46364.15207.35948-1.29037-.31648-.1011c-.13163-.00346-1.246-.03243-1.75082-.03714-.159-.00142-.20786.03053-.21264.04187-.009.02142.03143.0945.07947.14446Z"/><path class="cls-3" d="M9.7364,20.45468,9.33479,20.319l-.53111,1.39649.558.1838,1.748-.06024s.47765-.07218.04614-.384S9.7364,20.45468,9.7364,20.45468Z"/><path class="cls-2" d="M8.72438,21.75321a.08777.08777,0,0,1-.00278-.069l.53109-1.39646a.08785.08785,0,0,1,.11024-.052l.40159.13573a.08691.08691,0,0,1,.0221.01114c.00988.00688.9935.69245,1.4207,1.00118.062.04465.25055.1811.21176.341-.03743.15438-.25332.19455-.29622.201l-.0101.00095-1.748.06021a.08882.08882,0,0,1-.03052-.00433l-.558-.1838a.08782.08782,0,0,1-.05183-.04566Zm2.37676-.00181c.06719-.01153.14188-.04578.14722-.068.00283-.01177-.0172-.06557-.14394-.15723-.40249-.29087-1.30176-.91821-1.408-.99229l-.30959-.10463-.46835,1.23152.45586.15014Z"/><path class="cls-4" d="M42.289,31.38866l1.38989,1.09009-15.52-4.78L24.529,26.58886h-.02v-.01l-15.5-4.79,1.77-.12012s.48-.07983.03992-.38989l-.17-.11011c-.48-.33984-1.29992-.84985-1.29992-.84985l15.52,4.79,3.84,1.16992,15.52,4.8s-.96-.04-1.55-.04h-.2C41.93891,31.04882,42.289,31.38866,42.289,31.38866Z"/><path class="cls-2" d="M44.249,30.98876l-15.51-4.78-3.8501-1.16992-15.51-4.80005a.09119.09119,0,0,0-.11987.05005.1309.1309,0,0,0,.03.11987h.01c.00989.01.81995.51,1.29993.84009l.15.09985c.15991.11011.15991.16016.15991.16016a.18257.18257,0,0,1-.13989.06006l-1.76.11987a.118.118,0,0,0-.09009.1001c0,.03.01.07007.04.07983.01.01026.01.01026.03.01026l15.52,4.80981,3.61,1.1001,15.5299,4.78a.03677.03677,0,0,0,.03.01.10208.10208,0,0,0,.08008-.05005.11893.11893,0,0,0-.02-.12988l-1.39-1.09009a.23819.23819,0,0,1-.08-.13013s.03-.04.22-.04h.18994c.58008,0,1.53.04,1.54.04h.01a.10626.10626,0,0,0,.09-.08008A.092.092,0,0,0,44.249,30.98876Zm-1.57007.05005h-.2c-.54.01-.18994.34985-.18994.34985l1.38989,1.09009-15.52-4.78L24.529,26.58886l-15.52-4.8,1.77-.12012s.48-.07983.03992-.38989l-.17-.11011c-.48-.33984-1.29992-.84985-1.29992-.84985l15.52,4.79,3.84,1.16992,15.52,4.8S43.269,31.03881,42.6789,31.03881Z"/><polygon class="cls-3" points="6.984 27.746 0.179 49.961 36.358 60.972 43.093 38.899 6.984 27.746"/><path class="cls-2" d="M6.984,27.74614,43.09315,38.89927,36.35807,60.972.1786,49.9613,6.984,27.74614m0-.17861a.17859.17859,0,0,0-.17077.12629L.00783,49.909a.1786.1786,0,0,0,.11877.22319L36.30607,61.14281a.17839.17839,0,0,0,.22283-.11874L43.264,38.95139a.1786.1786,0,0,0-.11812-.22277L7.0367,27.57549a.17853.17853,0,0,0-.0527-.008Z"/><circle class="cls-3" cx="32.0465" cy="32.95983" r="1.3294"/><path class="cls-5" d="M32.0465,31.63043a1.3294,1.3294,0,1,1-1.3294,1.3294,1.3294,1.3294,0,0,1,1.3294-1.3294m0-.21982a1.54922,1.54922,0,1,0,1.54922,1.54922,1.551,1.551,0,0,0-1.54922-1.54922Z"/><circle class="cls-3" cx="18.44713" cy="28.78594" r="1.3294"/><path class="cls-5" d="M18.44713,27.45654a1.3294,1.3294,0,1,1-1.3294,1.3294,1.3294,1.3294,0,0,1,1.3294-1.3294m0-.21983a1.54923,1.54923,0,1,0,1.54922,1.54923,1.551,1.551,0,0,0-1.54922-1.54923Z"/><path class="cls-5" d="M32.06739,33.59032a.61825.61825,0,0,1-.425-1.06737c.72883-.68943,1.49629-1.37,2.30883-2.09042,3.45565-3.06415,7.37221-6.53721,10.86547-12.88977,2.18991-4.61117,2.54144-8.40929,1.045-11.28948a8.47323,8.47323,0,0,0-3.35178-3.398,12.65536,12.65536,0,0,0-4.19135-1.49307,8.92547,8.92547,0,0,0-7.184,1.904A7.67191,7.67191,0,0,0,28.40045,9.34l-.0001.01124a31.33607,31.33607,0,0,1-1.42763,8.10067A25.79687,25.79687,0,0,1,24.581,23.44309a16.88469,16.88469,0,0,1-2.70537,3.6196,9.389,9.389,0,0,1-3.22941,2.26093.61824.61824,0,0,1-.401-1.16965,8.51965,8.51965,0,0,0,2.82119-2.03126,20.7782,20.7782,0,0,0,4.71616-9.0064l.00805-.02738A30.69882,30.69882,0,0,0,27.164,9.33318a9.38191,9.38191,0,0,1,.87263-4.03139,8.79,8.79,0,0,1,2.30033-2.98044A10.176,10.176,0,0,1,38.52586.14318,13.90472,13.90472,0,0,1,43.13257,1.787a9.68817,9.68817,0,0,1,3.82635,3.89623c1.68635,3.24569,1.3387,7.42-1.03332,12.40694l-.01645.03211A46.79285,46.79285,0,0,1,34.7716,31.35767c-.80487.71369-1.56511,1.38779-2.27944,2.06354A.61627.61627,0,0,1,32.06739,33.59032Z"/><rect class="cls-6" x="9.60353" y="45.5534" width="8.29341" height="3.98155" transform="translate(-35.74079 47.15017) rotate(-73.41349)"/><rect class="cls-7" x="4.36875" y="45.30188" width="4.69367" height="3.98155" transform="translate(-40.52626 40.22851) rotate(-73.41349)"/><rect class="cls-8" x="17.07836" y="48.8612" width="5.47641" height="3.98155" transform="translate(-34.57635 55.32762) rotate(-73.41349)"/><rect class="cls-9" x="20.8637" y="47.39502" width="12.70081" height="3.98155" transform="translate(-27.88535 61.36971) rotate(-73.41349)"/><rect class="cls-10" x="25.68052" y="47.07358" width="17.4118" height="3.98155" transform="translate(-22.4524 68.0139) rotate(-73.41349)"/></g></g></svg>