<svg xmlns="http://www.w3.org/2000/svg" viewBox="0 0 49.18708 49.18708"><defs><style>.cls-1{fill:#0086cc;fill-rule:evenodd;}.cls-2{fill:#fff;}</style></defs><title>Asset 47</title><g id="Layer_2" data-name="Layer 2"><g id="Section_1" data-name="Section 1"><path class="cls-1" d="M49.18708,38.00446A11.18136,11.18136,0,0,1,38.00445,49.18708H11.18263A11.18429,11.18429,0,0,1,0,38.00446V11.18491A11.18478,11.18478,0,0,1,11.18263,0H38.00217A11.18282,11.18282,0,0,1,49.18479,11.18263V38.00446Z"/><path class="cls-2" d="M12.23043,34.45612a4.245,4.245,0,1,0,4.2461,4.24611A4.24574,4.24574,0,0,0,12.23043,34.45612Zm0,5.76976a1.52366,1.52366,0,1,1,1.52365-1.52365A1.52264,1.52264,0,0,1,12.23043,40.22588Z"/><path class="cls-2" d="M36.75991,34.646a4.245,4.245,0,1,0,4.2461,4.2461A4.24574,4.24574,0,0,0,36.75991,34.646Zm0,5.76976a1.52366,1.52366,0,1,1,1.52365-1.52366A1.52265,1.52265,0,0,1,36.75991,40.41577Z"/><path class="cls-2" d="M43.73532,7.69149a.451.451,0,0,0-.17387-.032H42.9346a3.95839,3.95839,0,0,0-3.81371,2.92377L35.568,23.8157a5.8758,5.8758,0,0,1-5.63249,4.14315L28.922,27.95656a3.214,3.214,0,0,1-2.36327-1.09584,1.21076,1.21076,0,0,0-.89452-.38434l-2.38844-.00229a1.27027,1.27027,0,0,0-.94027.41637,3.14828,3.14828,0,0,1-2.3381,1.0661l-1.06382.00229a5.86372,5.86372,0,0,1-5.55928-3.89836l-2.73846-8.60431a3.93711,3.93711,0,0,0-3.74737-2.7499L6.17469,12.704a.76142.76142,0,0,0-.72751.99061L9.174,25.40112a9.085,9.085,0,0,0,9.01611,6.662h3.18a5.1344,5.1344,0,0,0,2.91462-1.057.25345.25345,0,0,1,.34317,0,5.1344,5.1344,0,0,0,2.91462,1.057h2.894a9.433,9.433,0,0,0,9.38672-7.10124L44.21118,8.618A.77262.77262,0,0,0,43.73532,7.69149Z"/><circle class="cls-2" cx="30.75451" cy="21.72239" r="2.21914"/><circle class="cls-2" cx="24.49974" cy="21.72239" r="2.21914"/><circle class="cls-2" cx="18.24498" cy="21.72239" r="2.21914"/><circle class="cls-2" cx="30.75451" cy="15.4539" r="2.21914"/><circle class="cls-2" cx="24.49974" cy="15.4539" r="2.21914"/><circle class="cls-2" cx="18.24498" cy="15.4539" r="2.21914"/></g></g></svg>