<svg xmlns="http://www.w3.org/2000/svg" viewBox="0 0 48.45912 53.42457"><defs><style>.cls-1{fill:#4e5157;}.cls-2{fill:#f36b22;}</style></defs><title>Asset 55</title><g id="Layer_2" data-name="Layer 2"><g id="Section_1" data-name="Section 1"><path class="cls-1" d="M0,34.22363c.48815-2.67433.98676-5.34683,1.4625-8.02335Q3.7158,13.52339,5.93825.84112C6.05579.1654,6.32854-.00174,6.96724,0c6.6191.01818,13.23827.01,19.85742.01267.90867.00036.92692.02955.77542.945-.10592.64-.24507,1.27592-.319,1.9194-.07045.61335-.35227.82788-.983.82325-3.535-.02593-7.07036-.01223-10.60559-.01207-1.8303.00009-3.66073.01277-5.4908-.00776-.52371-.00587-.8061.09963-.90729.69756-.59118,3.49344-1.21995,6.98069-1.85566,10.46647-.1326.72708.2601.77056.80993.7694q6.69435-.0141,13.38873-.005c1.227.00009,1.22506.00033,1.01153,1.17684-.1114.61376-.25532,1.2254-.3104,1.84455-.058.65161-.38647.80753-.99329.805-4.48791-.01864-8.97593-.00995-13.46392-.00967-1.22061.00008-1.23111-.00148-1.44758,1.2176Q5.24934,27.31358,4.07924,33.98643c-.20145,1.14879-.19058,1.15311-1.37183,1.15143C1.80493,35.13658.90247,35.12815,0,35.12291Z"/><path class="cls-2" d="M33.85655,35.87231c-.28981-.07227-.578-.15191-.86968-.2157-4.12133-.90126-6.589-3.51137-6.9283-7.68872a20.79643,20.79643,0,0,1,2.8965-12.87036c2.52043-4.0962,6.3228-6.04578,11.09205-6.2368A19.92008,19.92008,0,0,1,47.5956,9.91048c.72254.25634,1.00185.59987.7993,1.38218-.2246.86745-.32569,1.76633-.488,2.65016-.19544,1.06432-.20425,1.06-1.16589.6305a13.89583,13.89583,0,0,0-8.21957-1.1132,7.272,7.272,0,0,0-5.98367,4.766A19.22436,19.22436,0,0,0,31.163,27.24052a4.30038,4.30038,0,0,0,3.54252,3.95942,15.07209,15.07209,0,0,0,7.50186-.39682c.79647-.21353,1.57-.51666,2.345-.80291.392-.14479.52188-.02237.45587.35917-.21275,1.22963-.43273,2.458-.6489,3.68706-.07164.40721-.37587.54976-.72422.67014a25.46837,25.46837,0,0,1-4.23367,1.02019c-.19515.03187-.386.08971-.57886.13554Z"/><path d="M15.11323,44.86305a.746.746,0,0,1-.24219-.56836.73687.73687,0,0,1,.24219-.56543.84926.84926,0,0,1,.603-.22461.88842.88842,0,0,1,.62354.2207.73777.73777,0,0,1,.2417.56934.7484.7484,0,0,1-.2417.57227.88211.88211,0,0,1-.62354.2246A.84382.84382,0,0,1,15.11323,44.86305Zm-.07178,8.37109V46.0525h1.36963v7.18164Z"/><path d="M18.27094,49.282V47.97438a4.4362,4.4362,0,0,1,1.02881-3.10059,3.58181,3.58181,0,0,1,2.78711-1.13086,3.56611,3.56611,0,0,1,2.77979,1.127,4.4523,4.4523,0,0,1,1.022,3.1045V49.282a4.277,4.277,0,0,1-1.02881,3.04981,3.65288,3.65288,0,0,1-2.79346,1.09277,3.60772,3.60772,0,0,1-2.77978-1.09277A4.31139,4.31139,0,0,1,18.27094,49.282Zm1.41065-1.32128V49.282a3.1692,3.1692,0,0,0,.66064,2.17676,2.40356,2.40356,0,0,0,3.46826,0,3.1668,3.1668,0,0,0,.66114-2.17676V47.96071a3.322,3.322,0,0,0-.66455-2.21778,2.30958,2.30958,0,0,0-3.46143,0A3.32191,3.32191,0,0,0,19.68159,47.96071Z"/><path d="M26.99946,50.67946h1.3833a1.56342,1.56342,0,0,0,.63379,1.11328,2.44717,2.44717,0,0,0,1.53955.43945,2.36838,2.36838,0,0,0,1.46533-.4082,1.32157,1.32157,0,0,0,.53809-1.11133,1.12467,1.12467,0,0,0-.35791-.87207,2.60085,2.60085,0,0,0-1.13428-.51758l-1.5669-.39551a4.06823,4.06823,0,0,1-.84521-.30664,3.21163,3.21163,0,0,1-.70508-.47949,1.98085,1.98085,0,0,1-.50439-.72266,2.50287,2.50287,0,0,1-.18067-.9707,2.42212,2.42212,0,0,1,.4668-1.48242,2.81024,2.81024,0,0,1,1.20605-.93653,4.50718,4.50718,0,0,1,3.24023-.01074,2.81039,2.81039,0,0,1,1.19923.917,2.42887,2.42887,0,0,1,.4834,1.47168h-1.356a1.55335,1.55335,0,0,0-.562-1.084,2.09869,2.09869,0,0,0-1.39307-.42188,2.21131,2.21131,0,0,0-1.35937.38477,1.25084,1.25084,0,0,0-.51465,1.05957q0,.98145,1.30127,1.29492l1.55371.39453a5.93648,5.93648,0,0,1,.79736.25293,3.525,3.525,0,0,1,.6709.35743,2.24916,2.24916,0,0,1,.5249.48339,2.1441,2.1441,0,0,1,.33008.64063,2.62439,2.62439,0,0,1,.123.82812,2.4618,2.4618,0,0,1-.98487,2.08106,4.11868,4.11868,0,0,1-2.55859.74609,4.87279,4.87279,0,0,1-1.32178-.167,3.13038,3.13038,0,0,1-.97412-.43945,2.69884,2.69884,0,0,1-.64062-.63672,2.54041,2.54041,0,0,1-.37159-.73926A3.03145,3.03145,0,0,1,26.99946,50.67946Z"/></g></g></svg>