<svg xmlns="http://www.w3.org/2000/svg" viewBox="0 0 46.85731 51.59187"><defs><style>.cls-1{fill:#4e5157;}.cls-2{fill:#f36b22;}</style></defs><title>Asset 53</title><g id="Layer_2" data-name="Layer 2"><g id="Section_1" data-name="Section 1"><path class="cls-1" d="M0,33.09237c.472-2.58593.95414-5.17009,1.41416-7.75813Q3.593,13.07638,5.742.81331c.11366-.65338.37739-.815.995-.8133,6.40031.01758,12.80069.00968,19.201.01225.87864.00035.89628.02857.74979.91373-.10241.61884-.237,1.23374-.30843,1.856-.06811.59308-.34062.80051-.95052.796-3.41818-.02508-6.83665-.01183-10.255-.01167-1.7698.00008-3.53973.01234-5.3093-.0075-.5064-.00568-.77946.09633-.8773.67449-.57165,3.378-1.17963,6.75-1.79432,10.12051-.12822.703.25149.74508.78315.744q6.47307-.01364,12.94617-.0048c1.18642.00009,1.18456.00031.97809,1.13794-.10771.59347-.24687,1.18489-.30014,1.78357-.05606.63007-.37369.78085-.96046.77841-4.33956-.018-8.67923-.00963-13.01886-.00936-1.18027.00008-1.19042-.00143-1.39974,1.17736Q5.07581,26.41074,3.9444,32.863c-.19479,1.11082-.18428,1.115-1.32649,1.11337C1.74527,33.97514.87264,33.967,0,33.96192Z"/><path class="cls-2" d="M32.73743,34.68655c-.28023-.06988-.5589-.14688-.84094-.20856-3.9851-.87148-6.37121-3.39531-6.69928-7.43457A20.10906,20.10906,0,0,1,27.998,14.59848,12.39949,12.39949,0,0,1,38.72337,8.56784a19.26156,19.26156,0,0,1,7.299,1.01505c.69866.24786.96873.58.77288,1.33649-.21717.83878-.31492,1.70794-.47186,2.56256-.189,1.02914-.1975,1.02493-1.12735.60966a13.43656,13.43656,0,0,0-7.94787-1.07641,7.03169,7.03169,0,0,0-5.78589,4.60846,18.589,18.589,0,0,0-1.32931,8.71644,4.15824,4.15824,0,0,0,3.42542,3.82854,14.57387,14.57387,0,0,0,7.25389-.3837c.77014-.20648,1.51806-.49958,2.26747-.77637.37907-.14.50463-.02163.4408.3473-.20571,1.189-.41842,2.37676-.62745,3.56518-.06926.39375-.36344.53159-.70028.648a24.62721,24.62721,0,0,1-4.09372.98647c-.1887.03081-.37325.08674-.55973.131Z"/><path d="M1.51652,51.4737H.13859l3.13769-8.99609H4.746l3.1372,8.99609H6.42667l-.8374-2.57715H2.35978Zm2.48437-7.52051H3.955L2.683,47.84187h2.5835Z"/><path d="M9.06974,51.4737V44.52644h1.31152v.94335h.0459a1.71391,1.71391,0,0,1,.73193-.748,2.4665,2.4665,0,0,1,1.26514-.30664,2.50615,2.50615,0,0,1,1.77637.64551,2.3445,2.3445,0,0,1,.69531,1.80566V51.4737H13.558V47.32136q0-1.73292-1.562-1.7334a1.52015,1.52015,0,0,0-1.18311.458,1.89209,1.89209,0,0,0-.41845,1.32129V51.4737Z"/><path d="M19.15372,44.41511a2.53368,2.53368,0,0,1,1.30127.30664,1.56446,1.56446,0,0,1,.7085.78027H21.203V42.003h1.33154v9.4707H21.24943V50.419H21.203a1.45492,1.45492,0,0,1-.6919.81446,2.558,2.558,0,0,1-1.35742.33886,2.43169,2.43169,0,0,1-1.99414-.85644,3.52135,3.52135,0,0,1-.70166-2.30078v-.83692a3.52849,3.52849,0,0,1,.70508-2.29687A2.42291,2.42291,0,0,1,19.15372,44.41511Zm.3291,1.12011a1.43231,1.43231,0,0,0-1.252.59961,2.76062,2.76062,0,0,0-.42187,1.61524v.4873a2.75082,2.75082,0,0,0,.42822,1.63184,1.46472,1.46472,0,0,0,1.272.5957,1.48623,1.48623,0,0,0,1.2461-.58008A2.61917,2.61917,0,0,0,21.203,48.251V47.71a2.5129,2.5129,0,0,0-.458-1.5918A1.51637,1.51637,0,0,0,19.48282,45.53522Z"/><path d="M24.58439,51.4737V44.52644h1.3247v.85742h.04639a1.8686,1.8686,0,0,1,.188-.333A1.71564,1.71564,0,0,1,26.433,44.751a1.31057,1.31057,0,0,1,.49463-.24414,2.68468,2.68468,0,0,1,.71484-.08593,3.14678,3.14678,0,0,1,.46143.0332v1.19336a3.07235,3.07235,0,0,0-.59326-.04q-1.5813,0-1.58155,1.64844V51.4737Z"/><path d="M31.93986,44.40827a2.83158,2.83158,0,0,1,2.2705.89942,3.5777,3.5777,0,0,1,.77442,2.416v.5332a3.61656,3.61656,0,0,1-.771,2.43946,2.83442,2.83442,0,0,1-2.27392.89551,2.84625,2.84625,0,0,1-2.28028-.89258,3.61269,3.61269,0,0,1-.77148-2.44239v-.52636a3.58617,3.58617,0,0,1,.78125-2.40332A2.81456,2.81456,0,0,1,31.93986,44.40827Zm.67871,1.21973a1.722,1.722,0,0,0-.67871-.126,1.74612,1.74612,0,0,0-.68213.126,1.3469,1.3469,0,0,0-.49121.33594,1.76131,1.76131,0,0,0-.31641.51074,2.7607,2.7607,0,0,0-.17774.626,4.45788,4.45788,0,0,0-.05273.709v.375a4.51339,4.51339,0,0,0,.05273.71191,2.78573,2.78573,0,0,0,.17481.626,1.67124,1.67124,0,0,0,.31641.50781,1.34562,1.34562,0,0,0,.49414.333,1.80186,1.80186,0,0,0,.68213.12207,1.72353,1.72353,0,0,0,.81738-.18164,1.28634,1.28634,0,0,0,.53027-.51367,2.52806,2.52806,0,0,0,.27051-.72559,4.30765,4.30765,0,0,0,.082-.87988v-.375a4.71594,4.71594,0,0,0-.04932-.709,2.72332,2.72332,0,0,0-.17138-.626,1.70372,1.70372,0,0,0-.313-.51074A1.35394,1.35394,0,0,0,32.61857,45.628Z"/><path d="M36.80021,43.377a.72762.72762,0,0,1-.23389-.55078.71628.71628,0,0,1,.23389-.54687.827.827,0,0,1,.58349-.21778.85915.85915,0,0,1,.603.21485.71238.71238,0,0,1,.23389.5498.72217.72217,0,0,1-.23389.55371.84794.84794,0,0,1-.603.21777A.81653.81653,0,0,1,36.80021,43.377Zm-.06885,8.09668V44.52644h1.32471V51.4737Z"/><path d="M42.50529,44.41511a2.53366,2.53366,0,0,1,1.30126.30664,1.56446,1.56446,0,0,1,.7085.78027h.03955V42.003h1.33154v9.4707H44.601V50.419H44.5546a1.45494,1.45494,0,0,1-.69189.81446,2.558,2.558,0,0,1-1.35742.33886,2.43172,2.43172,0,0,1-1.99415-.85644,3.52135,3.52135,0,0,1-.70166-2.30078v-.83692a3.52849,3.52849,0,0,1,.70508-2.29687A2.42293,2.42293,0,0,1,42.50529,44.41511Zm.3291,1.12011a1.43232,1.43232,0,0,0-1.252.59961,2.76062,2.76062,0,0,0-.42187,1.61524v.4873a2.7509,2.7509,0,0,0,.42822,1.63184,1.46473,1.46473,0,0,0,1.272.5957,1.48623,1.48623,0,0,0,1.2461-.58008A2.6191,2.6191,0,0,0,44.5546,48.251V47.71a2.5129,2.5129,0,0,0-.458-1.5918A1.51637,1.51637,0,0,0,42.83439,45.53522Z"/></g></g></svg>