<svg xmlns="http://www.w3.org/2000/svg" viewBox="0 0 48.31642 18.05136"><defs><style>.cls-1,.cls-2{fill:#01abd6;}.cls-1{fill-rule:evenodd;}</style></defs><title>Asset 71</title><g id="Layer_2" data-name="Layer 2"><g id="Layer_14" data-name="Layer 14"><path class="cls-1" d="M3.6463,5.46576c-.0941,0-.11763-.04705-.07058-.11763l.494-.63516a.337.337,0,0,1,.25877-.11762h8.39824c.0941,0,.11762.07057.07057.14115l-.39991.61163a.35846.35846,0,0,1-.23525.14115Z"/><path class="cls-1" d="M.0941,7.63C0,7.63-.02352,7.583.02352,7.51239l.494-.63517A.337.337,0,0,1,.77631,6.7596H11.50347a.10812.10812,0,0,1,.11763.14115l-.1882.56459a.20573.20573,0,0,1-.21172.14114Z"/><path class="cls-1" d="M5.787,9.79426c-.09409,0-.11762-.07057-.07057-.14114L6.04579,9.065A.312.312,0,0,1,6.281,8.92386h4.7049c.09409,0,.14114.07057.14114.16467l-.047.56459a.17675.17675,0,0,1-.16467.16467Z"/><path class="cls-1" d="M30.20544,5.04231c-1.482.3764-2.49359.65869-3.95211,1.03508-.35287.0941-.37639.11762-.68221-.23524a3.14885,3.14885,0,0,0-1.10565-.89393,4.09026,4.09026,0,0,0-4.25794.35286A5.00291,5.00291,0,0,0,17.808,9.77074a3.68787,3.68787,0,0,0,3.1758,3.69334A4.34181,4.34181,0,0,0,24.983,11.91147c.21172-.25877.39991-.54107.63516-.87041H21.07794c-.494,0-.61164-.30582-.447-.70573.30581-.72926.8704-1.95254,1.19974-2.56417a.63522.63522,0,0,1,.58812-.3764h8.56291c-.04705.63517-.04705,1.27033-.14115,1.90549a10.03268,10.03268,0,0,1-1.929,4.6108,9.79963,9.79963,0,0,1-6.70448,3.99916A8.33276,8.33276,0,0,1,15.879,16.35759a7.38915,7.38915,0,0,1-2.98761-5.22243A9.23311,9.23311,0,0,1,14.891,4.24248,10.43938,10.43938,0,0,1,21.47786.17275a8.10657,8.10657,0,0,1,6.234,1.1527,7.3741,7.3741,0,0,1,2.72884,3.317C30.58183,4.85412,30.48774,4.97174,30.20544,5.04231Z"/><path class="cls-2" d="M37.99205,18.05136a8.8249,8.8249,0,0,1-5.74-2.07016A7.37785,7.37785,0,0,1,29.71143,11.441a8.98034,8.98034,0,0,1,1.90548-7.10439A9.86173,9.86173,0,0,1,38.20377.408a8.726,8.726,0,0,1,6.70448,1.19975,7.32252,7.32252,0,0,1,3.31695,5.246,9.08076,9.08076,0,0,1-2.70532,7.9748A10.77959,10.77959,0,0,1,39.874,17.83964C39.23885,17.95726,38.60368,17.98078,37.99205,18.05136Zm5.59883-9.5039a6.7699,6.7699,0,0,0-.07058-.7763,3.87516,3.87516,0,0,0-4.799-3.12876,5.139,5.139,0,0,0-4.11679,4.09326,3.87421,3.87421,0,0,0,2.16425,4.44613,4.31263,4.31263,0,0,0,3.83449-.14115,5.14834,5.14834,0,0,0,2.98761-4.49318Z"/></g></g></svg>