<svg xmlns="http://www.w3.org/2000/svg" viewBox="0 0 48.65961 65.97709"><defs><style>.cls-1{fill:#5382a1;}.cls-2{fill:#e76f00;}</style></defs><title>Asset 57</title><g id="Layer_2" data-name="Layer 2"><g id="Section_1" data-name="Section 1"><path class="cls-1" d="M15.67136,51.02372s-2.52127,1.4662,1.7943,1.96235a37.75469,37.75469,0,0,0,13.66174-.57955A23.77,23.77,0,0,0,34.75761,54.179c-12.91575,5.53547-29.23089-.32063-19.08625-3.15523"/><path class="cls-1" d="M14.09312,43.80029s-2.82784,2.09323,1.49092,2.53993a53.29625,53.29625,0,0,0,17.62735-.84629,7.82332,7.82332,0,0,0,2.71545,1.65542c-15.61591,4.5663-33.00923.3601-21.83372-3.34906"/><path class="cls-2" d="M27.39814,31.547c3.18244,3.664-.83615,6.96113-.83615,6.96113s8.08075-4.17152,4.36962-9.39526c-3.46607-4.87146-6.12409-7.2919,8.26534-15.63726,0,0-22.58665,5.64111-11.79881,18.07139"/><path class="cls-1" d="M44.48026,56.3666s1.86579,1.53734-2.05482,2.72666c-7.45514,2.25844-31.0291,2.94042-37.57785.09-2.35411-1.02412,2.06051-2.44534,3.44918-2.74356a8.95456,8.95456,0,0,1,2.27586-.25554c-2.618-1.84427-16.92172,3.62132-7.26558,5.18658,26.3337,4.27057,48.00382-1.92305,41.17321-5.00413"/><path class="cls-1" d="M16.8838,36.316s-11.99122,2.84811-4.24639,3.88237a90.0692,90.0692,0,0,0,15.86114-.17c4.96251-.41861,9.94547-1.30864,9.94547-1.30864a21.05084,21.05084,0,0,0-3.01581,1.6138C23.25134,43.536-.27212,42.04617,6.5,38.77038A22.68893,22.68893,0,0,1,16.8838,36.316"/><path class="cls-1" d="M38.39458,48.33974c12.37836-6.43227,6.65509-12.61362,2.66033-11.78085a9.26358,9.26358,0,0,0-1.4157.38038,2.25551,2.25551,0,0,1,1.05773-.81588C48.59986,33.345,54.67771,44.318,38.1458,48.66392a1.07682,1.07682,0,0,0,.24878-.32418"/><path class="cls-2" d="M30.93161,0s6.85533,6.85764-6.502,17.40275c-10.7112,8.459-2.44248,13.28208-.00444,18.79266-6.25231-5.64111-10.84066-10.607-7.76243-15.22878C21.18087,14.18226,33.69757,10.89294,30.93161,0"/><path class="cls-1" d="M18.10015,65.76969c11.88168.76058,30.12734-.422,30.55946-6.04406,0,0-.83064,2.13128-9.81957,3.82386A97.68842,97.68842,0,0,1,8.77246,64.012c.00018-.00018,1.51867,1.25689,9.32769,1.75766"/></g></g></svg>