<svg xmlns="http://www.w3.org/2000/svg" viewBox="0 0 47.41487 48.81173"><defs><style>.cls-1{fill:#ff2d20;}</style></defs><title>Asset 62</title><g id="Layer_2" data-name="Layer 2"><g id="Section_1" data-name="Section 1"><path class="cls-1" d="M47.38836,11.04234c-.0061-.02265-.01867-.04257-.02676-.06435a.762.762,0,0,0-.04929-.1185,64.40188,64.40188,0,0,0-.12049-.15722.77754.77754,0,0,0-.07469-.05751.75056.75056,0,0,0-.08426-.06485l-.00062-.00025-.00063-.0005L37.85455,5.29574a.7648.7648,0,0,0-.763,0l-9.17707,5.28342-.00063.0005-.00062.00025a.75158.75158,0,0,0-.08427.06485.7774.7774,0,0,0-.07468.05751,64.40188,64.40188,0,0,0-.12049.15722.762.762,0,0,0-.04929.1185c-.00809.02178-.02066.0417-.02676.06435a.76772.76772,0,0,0-.02651.19966V21.277L19.88366,25.68V6.04833a.76725.76725,0,0,0-.02652-.19966c-.0061-.02266-.01867-.04257-.02676-.06435a.76115.76115,0,0,0-.04929-.11851.74373.74373,0,0,0-.05228-.06833.7504.7504,0,0,0-.06821-.08888.77616.77616,0,0,0-.07468-.05751.7504.7504,0,0,0-.08427-.06485L19.501,5.386l-.00062-.0005L10.32333.102a.7648.7648,0,0,0-.763,0L.38325,5.38549.38263,5.386.382,5.38624a.74938.74938,0,0,0-.08426.06485.77754.77754,0,0,0-.07469.05751.75146.75146,0,0,0-.06821.08888.7473.7473,0,0,0-.05228.06833.76309.76309,0,0,0-.04929.11851C.04518,5.8061.03261,5.826.02651,5.84867A.76767.76767,0,0,0,0,6.04833V37.48a.76486.76486,0,0,0,.38325.66284l18.35414,10.567a.75466.75466,0,0,0,.12622.0519c.02.00722.03871.01892.05912.0244a.76372.76372,0,0,0,.39246,0c.0178-.00473.034-.01519.05153-.02128a.76035.76035,0,0,0,.13369-.055l18.35414-10.567A.76486.76486,0,0,0,38.2378,37.48V27.44491l8.79382-5.06285a.76486.76486,0,0,0,.38325-.66284V11.242A.76772.76772,0,0,0,47.38836,11.04234ZM19.11728,36.6003l-7.63275-4.31972,8.01588-4.615.00025-.00024L28.296,22.60164l7.63935,4.39826-5.6051,3.19956Zm17.591-19.63261V25.68l-3.21163-1.8491L29.06073,21.277V12.56482l3.21162,1.849ZM37.473,6.841l7.64433,4.401L37.473,15.643l-7.64432-4.401ZM13.91821,29.11439l-3.21163,1.8491V11.774l4.43594-2.55389,3.21162-1.849V26.5605ZM9.94183,1.6472l7.64432,4.40113-7.64432,4.401L2.2975,6.04833Zm-8.41232,5.724,3.21163,1.849L9.17707,11.774V32.28631l.00025.00137-.00025.00149a.75859.75859,0,0,0,.0117.08564.78868.78868,0,0,0,.01506.11178l.0005.00175a65.52519,65.52519,0,0,0,.07618.18148l.00112.00224a44.7286,44.7286,0,0,0,.12.1551l.002.00249a.78519.78519,0,0,0,.07307.05527.74194.74194,0,0,0,.0824.06348l.00323.00137.00287.00212,8.789,4.97409v8.79815L1.52951,37.03784ZM36.70829,37.03784,19.88366,46.72413V37.924L32.3438,30.81126,36.70829,28.32Zm9.17707-15.76076L38.2378,25.68V16.96769l4.43593-2.55389,3.21163-1.849Z"/></g></g></svg>