<svg xmlns="http://www.w3.org/2000/svg" viewBox="0 0 48.07918 71.70571"><defs><style>.cls-1{fill:#ed5153;}</style></defs><title>Asset 43</title><g id="Layer_2" data-name="Layer 2"><g id="Section_1" data-name="Section 1"><path class="cls-1" d="M24.03959,0,27.344,5.74967a3.95319,3.95319,0,0,1,0,3.83312L7.64971,43.7504l9.31844,16.12553a8.15071,8.15071,0,0,0,14.14288,0L40.42947,43.7504l-2.44526-4.36182L27.41009,57.695a3.83,3.83,0,0,1-3.30441,1.91656A3.75112,3.75112,0,0,1,20.80127,57.695L12.67242,43.7504,30.97885,12.02805l3.30441,5.74968a3.95314,3.95314,0,0,1,0,3.83312L21.52824,43.7504l2.51135,4.36182L37.91811,24.05611l9.12018,15.79508a7.948,7.948,0,0,1,0,7.8645L37.78594,63.77513a15.8788,15.8788,0,0,1-27.4927,0L1.04089,47.71569a7.948,7.948,0,0,1,0-7.86449L24.03959,0"/></g></g></svg>