<svg xmlns="http://www.w3.org/2000/svg" viewBox="0 0 47.84504 49.26407"><defs><style>.cls-1{fill:#09c;fill-rule:evenodd;}</style></defs><title>Asset 49</title><g id="Layer_2" data-name="Layer 2"><g id="Section_1" data-name="Section 1"><g id="V3"><g id="Cases"><g id="Menu"><g id="Logiver-logo-zonder-box-wit"><polygon id="Fill-1" class="cls-1" points="0 46.106 0 37.26 2.43 37.26 2.43 43.931 4.861 43.931 4.861 46.106 0 46.106"/><g id="Group-28"><path id="Fill-2" class="cls-1" d="M8.728,41.47972c-.47032,0-.94082.38008-.94082,1.29742,0,1.00895.2484,1.41533.88866,1.41533.61408,0,.94082-.53721.94082-1.34965,0-.9308-.23525-1.3631-.88866-1.3631m-.183,4.78345c-1.94682,0-3.22727-.87825-3.22727-3.22365A3.4243,3.4243,0,0,1,8.87182,39.4354a2.91119,2.91119,0,0,1,3.21431,3.26314A3.42527,3.42527,0,0,1,8.545,46.26317"/><path id="Fill-4" class="cls-1" d="M16.37166,41.401a1.752,1.752,0,0,0-.45742-.05229c-.54878,0-1.01915.36695-1.01915,1.62495,0,.94352.209,1.28443.6271,1.28443.44427,0,.84947-.48466.84947-1.58578Zm-1.51584,7.86308a8.18239,8.18239,0,0,1-2.10348-.275l.18271-2.14929a5.4124,5.4124,0,0,0,1.9993.4193c1.03211,0,1.47644-.3409,1.47644-1.10079v-.09178a3.5701,3.5701,0,0,1,.05229-.66824H16.437A1.826,1.826,0,0,1,14.8036,46.25c-1.58108,0-2.41726-1.08793-2.41726-3.01429a3.51305,3.51305,0,0,1,3.711-3.80035,14.66866,14.66866,0,0,1,2.65239.22267v6.2382c0,1.92642-.88853,3.36786-3.8939,3.36786Z"/><path id="Fill-6" class="cls-1" d="M21.51939,39.09474a1.3769,1.3769,0,1,1,1.42415-1.37609,1.40238,1.40238,0,0,1-1.42415,1.37609Zm1.1891,7.01127H20.33023V41.38792c-.31333-.05242-.75773-.10484-1.13668-.131V39.69763a25.20723,25.20723,0,0,1,3.51494-.1181Z"/><path id="Fill-8" class="cls-1" d="M28.98014,46.106H26.11848l-2.90079-8.8461H25.831l1.34576,4.42955c.14377.47166.30056.9697.43124,1.57265h.02605a13.13133,13.13133,0,0,1,.41841-1.70374l1.30644-4.29846h2.48276Z"/><path id="Fill-10" class="cls-1" d="M34.55894,41.1521a.83834.83834,0,0,0-.79711.90423h1.46361c.026-.62893-.24827-.90423-.6665-.90423m2.9008,2.45077H33.77492c.03919.45854.4705.82563,1.39817.82563A4.72984,4.72984,0,0,0,37.094,44.022l.20908,1.78254a7.01321,7.01321,0,0,1-2.50874.45868c-2.18227,0-3.42372-1.02226-3.42372-3.32869,0-2.01814,1.13707-3.51226,3.24056-3.51226,2.01258,0,2.92677,1.34971,2.92677,3.1583a6.98709,6.98709,0,0,1-.0782,1.02232"/><path id="Fill-12" class="cls-1" d="M41.1835,40.56251h.01289a1.92741,1.92741,0,0,1,1.8293-1.14028l-.1176,2.359c-.95384-.249-1.47651.19651-1.47651,1.59884V46.106H39.05333V41.38795c-.31353-.05242-.75792-.10485-1.13662-.131V39.69765a23.57271,23.57271,0,0,1,3.33178-.11816c0,.23587-.02586.62906-.065.983"/><path id="Fill-14" class="cls-1" d="M46.34262,46.26319c-1.58114,0-2.091-.47193-2.091-2.16229V41.42739h-.82316V39.59256h.81027V37.758l2.37813-.64225v2.47682H47.845v1.83483H46.6299v2.18853c0,.485.15685.66843.549.66843a2.80959,2.80959,0,0,0,.66617-.09192v1.87406a6.367,6.367,0,0,1-1.50242.1967"/><path id="Fill-16" class="cls-1" d="M28.45562,14.43747A1.53728,1.53728,0,0,1,26.92,15.97716H16.44985A1.53616,1.53616,0,0,1,14.915,14.43747v-10.5a1.5375,1.5375,0,0,1,1.53482-1.541H26.92a1.53862,1.53862,0,0,1,1.53559,1.541Z"/><path id="Fill-18" class="cls-1" d="M11.50916,14.66912a1.30577,1.30577,0,0,1-1.30527,1.30806H1.30436A1.30587,1.30587,0,0,1,0,14.66912V5.7437A1.30762,1.30762,0,0,1,1.30436,4.43393h8.89953A1.30752,1.30752,0,0,1,11.50916,5.7437Z"/><path id="Fill-20" class="cls-1" d="M47.79357,33.39387a1.80778,1.80778,0,0,1-1.80577,1.81094H33.67045a1.80847,1.80847,0,0,1-1.80726-1.81094V21.03929a1.80964,1.80964,0,0,1,1.80726-1.81172H45.9878a1.809,1.809,0,0,1,1.80577,1.81172Z"/><path id="Fill-22" class="cls-1" d="M28.45562,31.26894A1.53833,1.53833,0,0,1,26.92,32.8098H16.44985A1.53721,1.53721,0,0,1,14.915,31.26894V20.76864a1.53758,1.53758,0,0,1,1.53482-1.54105H26.92a1.5387,1.5387,0,0,1,1.53559,1.54105Z"/><path id="Fill-24" class="cls-1" d="M11.50916,29.46258a1.30739,1.30739,0,0,1-1.30527,1.30976H1.30436A1.30748,1.30748,0,0,1,0,29.46258V20.53775a1.30724,1.30724,0,0,1,1.30436-1.31016h8.89953a1.30715,1.30715,0,0,1,1.30527,1.31016Z"/><path id="Fill-26" class="cls-1" d="M45.98779,0H33.67044a1.80845,1.80845,0,0,0-1.80726,1.81022v12.355a1.80979,1.80979,0,0,0,1.80726,1.812H45.98779a1.809,1.809,0,0,0,1.80577-1.812V1.81022A1.80771,1.80771,0,0,0,45.98779,0"/></g></g></g></g></g></g></g></svg>