<svg xmlns="http://www.w3.org/2000/svg" viewBox="0 0 48.45912 48.48035"><defs><style>.cls-1{fill:#7cbd73;}.cls-2{fill:#6db868;}</style></defs><title>Asset 51</title><g id="Layer_2" data-name="Layer 2"><g id="Section_1" data-name="Section 1"><path class="cls-1" d="M32.26838,25.05063a.80007.80007,0,0,0-.80792-.80792H17.01482a.80007.80007,0,0,0-.80792.80792v.06463a8.078,8.078,0,0,0,16.06148,0Z"/><path class="cls-2" d="M40.37991,15.32326a16.16412,16.16412,0,0,0-32.28454,0v.03231a.80007.80007,0,0,0,.80792.80792H15.399a.81685.81685,0,0,0,.79176-.72713h0a8.07969,8.07969,0,0,1,16.0938,0h0a.80729.80729,0,0,0,.80792.72713H39.572a.80007.80007,0,0,0,.80792-.80792Z"/><path class="cls-2" d="M47.66736,24.24271H41.18783a.81248.81248,0,0,0-.80792.75944h0a16.16013,16.16013,0,0,1-32.28454,0h0a.82391.82391,0,0,0-.79176-.7756H.80792A.80007.80007,0,0,0,0,25.03447v.01616a24.2433,24.2433,0,0,0,48.45912,0h0A.807.807,0,0,0,47.66736,24.24271Z"/><path class="cls-2" d="M24.23764,32.32192a8.0827,8.0827,0,0,0,8.03074-7.20666v-.06463a.80007.80007,0,0,0-.80792-.80792H24.23764v8.07921Z"/><path class="cls-1" d="M24.23764,8.08428a8.06867,8.06867,0,0,1,8.0469,7.35208h0a.80729.80729,0,0,0,.80792.72713H39.572a.80007.80007,0,0,0,.80792-.80792v-.03231A16.16063,16.16063,0,0,0,24.23764.00507h0Z"/><path class="cls-1" d="M8.09537,25.01831h0a.82391.82391,0,0,0-.79176-.7756H.80792A.80007.80007,0,0,0,0,25.05063v.01616A24.25223,24.25223,0,0,0,24.23764,48.48035V40.40113A16.14993,16.14993,0,0,1,8.09537,25.01831Z"/></g></g></svg>