<svg xmlns="http://www.w3.org/2000/svg" viewBox="0 0 48.45912 22.11271"><defs><style>.cls-1{fill:#83b7b9;}.cls-2{fill:#b4191d;}.cls-3{fill:#801756;}.cls-4{fill:#016782;}</style></defs><title>Asset 52</title><g id="Layer_2" data-name="Layer 2"><g id="Section_1" data-name="Section 1"><path class="cls-1" d="M8.275,8.06064a.50206.50206,0,0,1-.51287-.57125V2.33019H7.73282L5.4173,7.592a.6386.6386,0,0,1-1.23117,0L1.85578,2.33019H1.84111v5.1592a.50205.50205,0,0,1-.51291.57125.50207.50207,0,0,1-.51291-.57125V.76216A.61291.61291,0,0,1,1.43087.07352c.21984,0,.48364.07321.6888.5565l2.69652,6.1851h.02947L7.48368.63c.2052-.48329.469-.5565.68887-.5565a.6129.6129,0,0,1,.61558.68864V7.48939A.50217.50217,0,0,1,8.275,8.06064Z"/><path class="cls-1" d="M13.94647,4.58717V7.48939a.516.516,0,1,1-1.026,0V4.58717L10.341.894A.57155.57155,0,0,1,10.22386.5568a.48192.48192,0,0,1,.49843-.48328.50317.50317,0,0,1,.4395.26358l2.2864,3.40026L15.73453.3371a.54171.54171,0,0,1,.45433-.26358.47041.47041,0,0,1,.49834.46861A.60732.60732,0,0,1,16.5699.894Z"/><path class="cls-2" d="M17.78568,7.40128a.62537.62537,0,0,1-.2639-.469.4783.4783,0,0,1,.48377-.48359.57126.57126,0,0,1,.381.16109,2.26456,2.26456,0,0,0,1.539.63041,1.4639,1.4639,0,0,0,1.61213-1.36331c0-.95252-.80611-1.18691-1.86143-1.50941-1.01114-.30783-2.037-.76192-2.037-2.18377C17.63925.645,19.00209,0,20.2772,0a3.10912,3.10912,0,0,1,1.81725.5568.538.538,0,0,1,.2638.44.46962.46962,0,0,1-.4836.48336.57245.57245,0,0,1-.41023-.17577A1.96747,1.96747,0,0,0,20.21859.87931c-.71822,0-1.539.36645-1.539,1.26044,0,.87939.71823,1.09934,1.59762,1.37766,1.06991.3371,2.30092.70355,2.30092,2.25722a2.39842,2.39842,0,0,1-2.66721,2.35922A3.33678,3.33678,0,0,1,17.78568,7.40128Z"/><path class="cls-2" d="M30.47736,8.06064a.5021.5021,0,0,1-.51288-.57125V4.36746H25.6412V7.48939a.51588.51588,0,1,1-1.02581,0V.645a.51591.51591,0,1,1,1.02581,0V3.47347h4.32328V.645a.51591.51591,0,1,1,1.02582,0V7.48939A.5019.5019,0,0,1,30.47736,8.06064Z"/><path class="cls-2" d="M37.13027,8.13385a3.96586,3.96586,0,0,1-4.08889-4.08858,4.104,4.104,0,0,1,8.20713,0A3.98127,3.98127,0,0,1,37.13027,8.13385Zm0-7.23986a2.96555,2.96555,0,0,0-2.9752,3.15128,2.99475,2.99475,0,1,0,5.97975,0A2.98012,2.98012,0,0,0,37.13027.894Z"/><path class="cls-2" d="M43.30015.77651c0-.41006.19068-.60075.61574-.60075h1.80233c1.65647,0,2.7409.79144,2.7409,2.30117,0,1.52408-1.18723,2.31559-2.79952,2.31559H44.326V7.48939a.51588.51588,0,1,1-1.02581,0Zm2.30092,3.1513c1.08435,0,1.81787-.48368,1.81787-1.45088,0-.99679-.74788-1.39226-1.81787-1.39226H44.326V3.92781Z"/><path class="cls-2" d="M18.05564,11.41341a5.34965,5.34965,0,1,0,5.34973,5.34965A5.3495,5.3495,0,0,0,18.05564,11.41341Zm1.51409,7.04577a1.973,1.973,0,0,1-1.43239.54047,2.2367,2.2367,0,1,1,0-4.47287,2.06819,2.06819,0,0,1,1.37735.51176.39513.39513,0,0,1,.138.29149.33775.33775,0,0,1-.34574.33686c-.10272,0-.18108-.02784-.3494-.187a1.175,1.175,0,0,0-.81158-.30529,1.47922,1.47922,0,0,0-1.50036,1.58865,1.4708,1.4708,0,0,0,1.49172,1.57952,1.27655,1.27655,0,0,0,.93468-.35835.42088.42088,0,0,1,.2876-.13389.32553.32553,0,0,1,.33718.3283A.38581.38581,0,0,1,19.56973,18.45918Z"/><path class="cls-3" d="M30.47233,11.41341A5.34965,5.34965,0,1,0,35.822,16.76306,5.34964,5.34964,0,0,0,30.47233,11.41341Zm-.0046,7.58624a2.23671,2.23671,0,1,1,2.27165-2.23635A2.176,2.176,0,0,1,30.46773,18.99965Z"/><path class="cls-3" d="M30.46773,15.17465a1.47148,1.47148,0,0,0-1.483,1.58865,1.49,1.49,0,1,0,2.97464,0A1.4755,1.4755,0,0,0,30.46773,15.17465Z"/><path class="cls-1" d="M42.99934,11.40278A5.34949,5.34949,0,1,0,48.349,16.75212,5.34944,5.34944,0,0,0,42.99934,11.40278Zm3.27328,7.16491a.37307.37307,0,1,1-.74439,0v-2.0134c0-.921-.32394-1.36878-.99076-1.36878-1.01717,0-1.09593,1.11489-1.09593,1.45666v1.92552a.373.373,0,1,1-.74432,0V16.431c0-.89628-.25794-1.24552-.92071-1.24552-.53992,0-1.12235.48051-1.12235,1.5359v1.84628a.37307.37307,0,1,1-.74439,0v-2.9453c0-.16284-.0092-.43656-.01777-.65682a.36883.36883,0,0,1,.09415-.27913.37375.37375,0,0,1,.26079-.10454.34878.34878,0,0,1,.3636.37851l.0092.23867a1.60357,1.60357,0,0,1,1.30668-.66144,1.3323,1.3323,0,0,1,1.27391.778,1.60228,1.60228,0,0,1,1.43422-.778,1.55431,1.55431,0,0,1,1.63807,1.77053Z"/><path class="cls-4" d="M10.69918,16.75758a5.34959,5.34959,0,1,1-5.34965-5.34933A5.34965,5.34965,0,0,1,10.69918,16.75758Z"/></g></g></svg>