<svg xmlns="http://www.w3.org/2000/svg" xmlns:xlink="http://www.w3.org/1999/xlink" viewBox="0 0 48.65961 46.47216"><defs><style>.cls-1{fill:url(#linear-gradient);}.cls-2{fill:url(#linear-gradient-2);}.cls-3{fill:#14559a;}.cls-4{fill:url(#linear-gradient-3);}.cls-5{fill:#3092c4;}.cls-6{fill:#1969bc;}.cls-7{fill:url(#linear-gradient-4);}.cls-8{fill:url(#linear-gradient-5);}.cls-9{fill:url(#linear-gradient-6);}.cls-10{fill:#2b74b1;}.cls-11{fill:#125a9e;}.cls-12{fill:url(#linear-gradient-7);}.cls-13{fill:url(#linear-gradient-8);}.cls-14{fill:#0d82ca;}.cls-15{fill:url(#linear-gradient-9);}.cls-16{fill:#127bca;}.cls-17{fill:url(#linear-gradient-10);}.cls-18{fill:url(#linear-gradient-11);}.cls-19{fill:#05a1e6;}.cls-20{fill:url(#linear-gradient-12);}.cls-21{fill:url(#linear-gradient-13);}.cls-22{fill:url(#linear-gradient-14);}.cls-23{fill:#079ae1;}.cls-24{fill:#1e5cb3;}.cls-25{fill:#1d60b5;}.cls-26{fill:#175fab;}.cls-27{fill:url(#linear-gradient-15);}.cls-28{fill:#7dcbec;}.cls-29{fill:#5ec5ed;}.cls-30{fill:url(#linear-gradient-16);}.cls-31{fill:url(#linear-gradient-17);}.cls-32{fill:url(#linear-gradient-18);}</style><linearGradient id="linear-gradient" x1="585.99743" y1="-110.34106" x2="585.99743" y2="-110.62624" gradientTransform="matrix(45.60761, 0, 0, -81.33501, -26704.66098, -8974.30368)" gradientUnits="userSpaceOnUse"><stop offset="0" stop-color="#0994dc"/><stop offset="0.35001" stop-color="#66cef5"/><stop offset="0.84616" stop-color="#127bca"/><stop offset="1" stop-color="#127bca"/></linearGradient><linearGradient id="linear-gradient-2" x1="586.63562" y1="-110.32274" x2="586.63562" y2="-110.60792" gradientTransform="matrix(47.86916, 0, 0, -83.40828, -28059.58968, -9202.13)" gradientUnits="userSpaceOnUse"><stop offset="0" stop-color="#0e76bc"/><stop offset="0.36" stop-color="#36aee8"/><stop offset="0.84616" stop-color="#00adef"/><stop offset="1" stop-color="#00adef"/></linearGradient><linearGradient id="linear-gradient-3" x1="585.41844" y1="-110.66929" x2="585.41844" y2="-110.44531" gradientTransform="matrix(45.45223, 0, 0, -84.50002, -26581.62744, -9333.21626)" gradientUnits="userSpaceOnUse"><stop offset="0" stop-color="#1c63b7"/><stop offset="0.5" stop-color="#33bdf2"/><stop offset="1" stop-color="#33bdf2" stop-opacity="0.41961"/></linearGradient><linearGradient id="linear-gradient-4" x1="585.38089" y1="-110.36986" x2="585.38089" y2="-110.65505" gradientTransform="matrix(45.01054, 0, 0, -86.59824, -26322.60895, -9560.54656)" gradientUnits="userSpaceOnUse"><stop offset="0" stop-color="#166ab8"/><stop offset="0.39999" stop-color="#36aee8"/><stop offset="0.84616" stop-color="#0798dd"/><stop offset="1" stop-color="#0798dd"/></linearGradient><linearGradient id="linear-gradient-5" x1="589.12926" y1="-110.24688" x2="589.12926" y2="-110.53208" gradientTransform="matrix(58.35091, 0, 0, -92.08223, -34352.46901, -10154.35928)" gradientUnits="userSpaceOnUse"><stop offset="0" stop-color="#124379"/><stop offset="0.39" stop-color="#1487cb"/><stop offset="0.78023" stop-color="#165197"/><stop offset="1" stop-color="#165197"/></linearGradient><linearGradient id="linear-gradient-6" x1="566.80629" y1="-113.48052" x2="566.99751" y2="-113.48052" gradientTransform="matrix(19.4176, 0, 0, -30.92188, -10992.80992, -3503.55031)" gradientUnits="userSpaceOnUse"><stop offset="0" stop-color="#33bdf2" stop-opacity="0.69804"/><stop offset="1" stop-color="#1dacd8"/></linearGradient><linearGradient id="linear-gradient-7" x1="591.36313" y1="-110.38949" x2="591.36313" y2="-110.20265" gradientTransform="matrix(79.14249, 0, 0, -98.67868, -46760.85517, -10875.22278)" gradientUnits="userSpaceOnUse"><stop offset="0" stop-color="#136ab4"/><stop offset="0.6" stop-color="#59caf5" stop-opacity="0.54902"/><stop offset="1" stop-color="#59caf5" stop-opacity="0.23529"/></linearGradient><linearGradient id="linear-gradient-8" x1="592.30604" y1="-110.27889" x2="592.49726" y2="-110.27889" gradientTransform="matrix(72.02258, 0, 0, -99.16128, -42659.37748, -10925.50846)" gradientUnits="userSpaceOnUse"><stop offset="0" stop-color="#05a1e6" stop-opacity="0.24706"/><stop offset="1" stop-color="#05a1e6"/></linearGradient><linearGradient id="linear-gradient-9" x1="588.23642" y1="-110.94248" x2="588.23642" y2="-110.68675" gradientTransform="matrix(49.05111, 0, 0, -73.82221, -28845.99023, -8171.68845)" gradientUnits="userSpaceOnUse"><stop offset="0" stop-color="#318ed5"/><stop offset="1" stop-color="#38a7e4"/></linearGradient><linearGradient id="linear-gradient-10" x1="587.14929" y1="-110.92732" x2="587.14929" y2="-110.60611" gradientTransform="matrix(45.60358, 0, 0, -57.12834, -26767.26268, -6318.69675)" gradientUnits="userSpaceOnUse"><stop offset="0" stop-color="#05a1e6"/><stop offset="1" stop-color="#05a1e6" stop-opacity="0.54902"/></linearGradient><linearGradient id="linear-gradient-11" x1="588.91461" y1="-110.54866" x2="588.91461" y2="-110.35744" gradientTransform="matrix(52.51912, 0, 0, -81.09359, -30919.44056, -8945.45576)" gradientUnits="userSpaceOnUse"><stop offset="0" stop-color="#1959a6"/><stop offset="0.5" stop-color="#05a1e6"/><stop offset="0.91759" stop-color="#7ec5ea"/><stop offset="1" stop-color="#7ec5ea"/></linearGradient><linearGradient id="linear-gradient-12" x1="592.37425" y1="-110.36517" x2="592.33346" y2="-110.19534" gradientTransform="matrix(72.67681, 0, 0, -99.00468, -43041.43953, -10908.32554)" gradientUnits="userSpaceOnUse"><stop offset="0" stop-color="#165096"/><stop offset="1" stop-color="#0d82ca"/></linearGradient><linearGradient id="linear-gradient-13" x1="577.9055" y1="-111.48968" x2="577.9055" y2="-111.33614" gradientTransform="matrix(32.7663, 0, 0, -57.22613, -18897.88508, -6371.28852)" gradientUnits="userSpaceOnUse"><stop offset="0" stop-color="#05a1e6"/><stop offset="0.87363" stop-color="#0495d6"/><stop offset="1" stop-color="#0495d6"/></linearGradient><linearGradient id="linear-gradient-14" x1="588.37974" y1="-110.23969" x2="588.32046" y2="-110.45003" gradientTransform="matrix(60.26913, 0, 0, -96.32308, -35419.07014, -10619.39074)" gradientUnits="userSpaceOnUse"><stop offset="0" stop-color="#38a7e4" stop-opacity="0.32941"/><stop offset="0.96153" stop-color="#0e88d3"/><stop offset="1" stop-color="#0e88d3"/></linearGradient><linearGradient id="linear-gradient-15" x1="590.26204" y1="-110.21708" x2="590.26204" y2="-110.41246" gradientTransform="matrix(70.28156, 0, 0, -98.11046, -41445.66717, -10813.50193)" gradientUnits="userSpaceOnUse"><stop offset="0" stop-color="#168cd4"/><stop offset="0.5" stop-color="#1c87cc"/><stop offset="1" stop-color="#154b8d"/></linearGradient><linearGradient id="linear-gradient-16" x1="580.41706" y1="-72.88596" x2="580.55309" y2="-72.45496" gradientTransform="translate(-18825.59835 309.25476) scale(32.45945 4.24913)" gradientUnits="userSpaceOnUse"><stop offset="0" stop-color="#97d6ee"/><stop offset="0.70329" stop-color="#55c1ea"/><stop offset="1" stop-color="#55c1ea"/></linearGradient><linearGradient id="linear-gradient-17" x1="575.29547" y1="-88.46197" x2="575.42716" y2="-88.67313" gradientTransform="translate(-15212.37557 663.80389) scale(26.47222 7.48404)" gradientUnits="userSpaceOnUse"><stop offset="0" stop-color="#7accec"/><stop offset="1" stop-color="#3fb7ed"/></linearGradient><linearGradient id="linear-gradient-18" x1="586.65435" y1="-110.5789" x2="586.65435" y2="-110.81141" gradientTransform="matrix(52.04489, 0, 0, -80.63554, -30496.08747, -8915.5831)" gradientUnits="userSpaceOnUse"><stop offset="0" stop-color="#1da7e7"/><stop offset="1" stop-color="#37abe7" stop-opacity="0"/></linearGradient></defs><title>Asset 58</title><g id="Layer_2" data-name="Layer 2"><g id="Section_1" data-name="Section 1"><path d="M40.81645,24.4765a.21772.21772,0,0,0-.06883-.17912.42865.42865,0,0,0-.26349-.06329h-.17754v.488h.21427c.19786,0,.29559-.08209.29559-.24555Zm.27682,1.01741h-.244l-.15559-.34332c-.079-.172-.16347-.25806-.25574-.25806h-.13137v.60138h-.201V24.06279h.40276a.59737.59737,0,0,1,.40589.11968.34339.34339,0,0,1,.11729.26982.3519.3519,0,0,1-.09621.25018.48234.48234,0,0,1-.26745.14083v.00619c.07976.01878.15953.10636.23692.26432l.18849.38087Zm.44573-.70149a.95508.95508,0,0,0-.28777-.70772.9998.9998,0,1,0-.70379,1.70556.98413.98413,0,0,0,.99156-.99784Zm.13527-.00619a1.06691,1.06691,0,0,1-.32683.79452,1.17659,1.17659,0,0,1-1.60783.00937,1.14367,1.14367,0,0,1,.0055-1.589,1.17,1.17,0,0,1,1.6-.01489,1.06091,1.06091,0,0,1,.3292.79995Z"/><path d="M11.08835,28.77673h-.6936V24.80731c0-.31355.02065-.69516.05756-1.14559h-.01564a3.7583,3.7583,0,0,1-.17674.57243L8.244,28.77673H7.90612L5.88619,24.267a3.29645,3.29645,0,0,1-.17673-.60527h-.015c.02127.23692.03316.6209.03316,1.15341v3.9616H5.059V22.86565H5.9739l1.81349,4.12188a5.33032,5.33032,0,0,1,.26819.70773h.02878c.11805-.323.21189-.56541.28308-.72494L10.22,22.86565h.868v5.91108Z"/><path d="M13.222,28.77655h-.674V24.55532h.674v4.22123Zm.11655-5.73442a.422.422,0,0,1-.13063.31362.42887.42887,0,0,1-.31436.12824.43575.43575,0,0,1-.31118-.12355.44922.44922,0,0,1,0-.62873.4535.4535,0,0,1,.62554,0,.41741.41741,0,0,1,.13063.31042Z"/><path d="M17.43448,28.58124a2.17013,2.17013,0,0,1-1.15661.29716,1.90336,1.90336,0,0,1-1.46464-.60214,2.1308,2.1308,0,0,1-.54346-1.50845,2.35285,2.35285,0,0,1,.59663-1.6766,2.08019,2.08019,0,0,1,1.60079-.63892,2.15442,2.15442,0,0,1,.97667.21427v.69366a1.713,1.713,0,0,0-1.00564-.33082,1.35245,1.35245,0,0,0-1.051.44968,1.743,1.743,0,0,0-.4254,1.22774,1.67388,1.67388,0,0,0,.39024,1.16674,1.34246,1.34246,0,0,0,1.04394.42854,1.70428,1.70428,0,0,0,1.03849-.36285v.642Z"/><path d="M20.65868,25.24017a.90323.90323,0,0,0-1.20814.23459,1.85078,1.85078,0,0,0-.3175,1.14954v2.15206H18.4574V24.55514H19.133v.87039h.01627a1.48212,1.48212,0,0,1,.4575-.71318,1.0114,1.0114,0,0,1,.64668-.23072,1.096,1.096,0,0,1,.40507.05755v.70068Z"/><path d="M24.42436,26.67359a1.84476,1.84476,0,0,0-.366-1.2363,1.2471,1.2471,0,0,0-.99389-.4082,1.30219,1.30219,0,0,0-1.00884.41289,1.79154,1.79154,0,0,0-.39957,1.24808,1.70637,1.70637,0,0,0,.38242,1.18469,1.30744,1.30744,0,0,0,1.026.427,1.23426,1.23426,0,0,0,1.01734-.43241,1.85183,1.85183,0,0,0,.34252-1.19572m.69285-.02376a2.27658,2.27658,0,0,1-.56849,1.618,1.99911,1.99911,0,0,1-1.53427.61,1.9393,1.9393,0,0,1-1.50769-.61,2.19813,2.19813,0,0,1-.54427-1.553,2.26435,2.26435,0,0,1,.61852-1.70244,2.098,2.098,0,0,1,1.532-.56067,1.89687,1.89687,0,0,1,1.47559.58495,2.32824,2.32824,0,0,1,.52864,1.61322"/><path d="M28.468,27.64722a1.09762,1.09762,0,0,1-.38785.86021,1.70106,1.70106,0,0,1-1.15811.37066,2.07092,2.07092,0,0,1-1.04713-.25413v-.7265a1.69822,1.69822,0,0,0,1.09716.40433q.80235,0,.80309-.58963a.52154.52154,0,0,0-.17747-.40745,2.80962,2.80962,0,0,0-.69286-.38788,2.22308,2.22308,0,0,1-.75385-.47857,1.16464,1.16464,0,0,1,.14858-1.6367A1.60924,1.60924,0,0,1,27.3716,24.452a2.00255,2.00255,0,0,1,.90244.19787v.68034a1.59192,1.59192,0,0,0-.95792-.3011.8292.8292,0,0,0-.53726.16422.52634.52634,0,0,0-.20333.42541.56416.56416,0,0,0,.16973.43636,2.34849,2.34849,0,0,0,.63342.35032,2.43923,2.43923,0,0,1,.77962.46764,1.04109,1.04109,0,0,1,.30966.77418"/><path d="M32.59718,26.67359a1.84079,1.84079,0,0,0-.36673-1.2363,1.24548,1.24548,0,0,0-.99313-.4082A1.30771,1.30771,0,0,0,30.227,25.442a1.7948,1.7948,0,0,0-.39807,1.24808,1.71712,1.71712,0,0,0,.38,1.18469,1.31833,1.31833,0,0,0,1.02838.427,1.23332,1.23332,0,0,0,1.01734-.43241,1.85194,1.85194,0,0,0,.34252-1.19572m.6944-.02376a2.27438,2.27438,0,0,1-.57085,1.618,1.99338,1.99338,0,0,1-1.53272.61,1.93992,1.93992,0,0,1-1.50845-.61,2.19822,2.19822,0,0,1-.54427-1.553,2.27293,2.27293,0,0,1,.61779-1.70244,2.10053,2.10053,0,0,1,1.53347-.56067,1.89235,1.89235,0,0,1,1.47408.58495,2.32548,2.32548,0,0,1,.531,1.61322"/><path d="M36.26887,23.121A.90738.90738,0,0,0,35.82,23.01c-.47313,0-.70774.2979-.70774.8946v.65062h.98926v.57243h-.98926v3.64879h-.67639V25.12763H33.718V24.5552h.71787V23.871a1.3993,1.3993,0,0,1,.43167-1.09173,1.29455,1.29455,0,0,1,.9118-.34172,1.32085,1.32085,0,0,1,.48953.07352V23.121Z"/><path d="M38.9356,28.734a1.27455,1.27455,0,0,1-.635.13688q-1.10495,0-1.10493-1.24576V25.12825h-.72413V24.555h.72413V23.52515c.21584-.06806.44024-.14233.67721-.219V24.555h1.0627v.57324H37.8729v2.382a.96515.96515,0,0,0,.14308.60289.58265.58265,0,0,0,.48252.18067.71587.71587,0,0,0,.4371-.13607v.5763Z"/><path d="M2.41012,45.25142a1.18,1.18,0,0,1-.35659.85864,1.17129,1.17129,0,0,1-.86489.3621,1.12466,1.12466,0,0,1-.843-.3621,1.24709,1.24709,0,0,1,0-1.72352,1.128,1.128,0,0,1,.843-.3566,1.16764,1.16764,0,0,1,.86489.3613,1.18213,1.18213,0,0,1,.35659.86018"/><path d="M17.53839,46.22355H15.33473l-7.999-12.3532a5.66873,5.66873,0,0,1-.48484-.9728H6.78511a16.09362,16.09362,0,0,1,.08609,2.1286v11.1974H5.05458V30.72516H7.41234l7.75974,12.15851c.30892.48246.52.82809.62716,1.03612h.04316a16.32614,16.32614,0,0,1-.10942-2.27874V30.72516h1.80561V46.22355Z"/><path d="M29.18429,46.22355H20.97017V30.72516h7.85752v1.6422H22.78523V37.523h5.5991v1.643h-5.5991v5.41454h6.39906v1.643Z"/><path d="M41.64361,32.36755H37.17924V46.2238h-1.8158V32.36755h-4.473V30.72461H41.64361v1.64294Z"/><path class="cls-1" d="M16.92238,3.956c1.75245,5.359,2.41637,14.919,7.5408,14.919h0a6.31086,6.31086,0,0,0,1.18-.11343h0c-4.65836-1.08617-5.21045-10.54213-8.053-15.439h0c-.22289.20255-.44419.41369-.66783.63348"/><path class="cls-2" d="M17.59021,3.32247c2.84256,4.89687,3.39465,14.35283,8.053,15.439h0a7.4119,7.4119,0,0,0,1.10026-.29716h0C22.56215,16.41548,21.40635,7.23325,18.17827,2.8126h0q-.29327.24408-.58806.50987"/><path class="cls-3" d="M21.68586.41024a6.33031,6.33031,0,0,0-1.18081.11343A9.04108,9.04108,0,0,0,17.35284,1.8413a7.82383,7.82383,0,0,1,.82574.97124A11.322,11.322,0,0,1,21.40046.856,7.18461,7.18461,0,0,1,22.60236.5221a3.7027,3.7027,0,0,0-.9165-.11186"/><path class="cls-4" d="M30.00755,16.57575q.64161-.51019,1.2856-1.12681C29.51254,10.1149,28.87522.41813,23.7148.41813A6.108,6.108,0,0,0,22.602.52134c4.70059,1.16912,5.30273,11.39608,7.40553,16.05441"/><path class="cls-5" d="M22.60218.52171a3.70645,3.70645,0,0,0-.9165-.11178L23.715.41737a6.03757,6.03757,0,0,0-1.11279.104"/><path class="cls-6" d="M29.91742,17.7089a7.63617,7.63617,0,0,1-.5818-.62872,10.67761,10.67761,0,0,1-2.59229,1.38413,3.99246,3.99246,0,0,0,.96655.32926,4.0957,4.0957,0,0,0,.82341.08133,5.39976,5.39976,0,0,0,2.3757-.42541,4.51126,4.51126,0,0,1-.99157-.74059"/><path class="cls-7" d="M21.40009.85686C25.61038,3.059,25.97635,13.031,29.33581,17.08018h0c.22522-.15872.44808-.32687.671-.50443h0C27.904,11.91742,27.30261,1.68964,22.60281.52134h0a7.27774,7.27774,0,0,0-1.20272.33552"/><path class="cls-8" d="M18.17827,2.8126c3.22808,4.42065,4.38388,13.60288,8.56521,15.65171h0a10.67692,10.67692,0,0,0,2.59233-1.38413h0C25.97635,13.031,25.61038,3.059,21.40009.85686h0A11.2992,11.2992,0,0,0,18.17827,2.8126"/><path class="cls-9" d="M14.857,3.82688a48.12889,48.12889,0,0,0-1.64768,4.61066A34.29552,34.29552,0,0,1,16.92229,3.956a13.46276,13.46276,0,0,0-.54817-1.43112A18.50273,18.50273,0,0,0,14.857,3.82688"/><path class="cls-10" d="M16.82278,2.195c-.14859.10635-.29792.21508-.44806.33a13.48271,13.48271,0,0,1,.5474,1.43106c.22359-.219.44567-.43086.66776-.63342a8.86591,8.86591,0,0,0-.7671-1.12764"/><path class="cls-11" d="M17.35284,1.8413c-.17673.11186-.35265.2299-.53019.35345a8.90907,8.90907,0,0,1,.76793,1.12846c.1963-.17754.39255-.34878.58806-.51067a7.82341,7.82341,0,0,0-.8258-.97124"/><path class="cls-12" d="M46.07059.00215c-2.38122,9.183-7.35472,16.55878-11.52433,18.41837h-.0079c-.07584.0344-.15093.0657-.22521.09615a.19657.19657,0,0,1-.0274.01069c-.0219.00883-.04223.01565-.06413.0244a.16667.16667,0,0,1-.02889.01193c-.03517.01254-.0696.02315-.104.03691-.01487.0062-.02891.01007-.04305.015a.52607.52607,0,0,1-.05161.0169c-.01563.00619-.032.01069-.05.0175-.01487.0062-.03052.00883-.04454.015-.03053.00883-.05862.01626-.08915.02689a.17162.17162,0,0,0-.03753.01007c-.01878.00619-.03992.01069-.06025.01626a.18608.18608,0,0,1-.04066.01131c-.02114.0062-.04461.01193-.0657.0169l-.07976.01752a1.69767,1.69767,0,0,0,.59668.10478c3.95377,0,7.94033-7.08564,14.53651-18.86879h-2.59Z"/><path class="cls-13" d="M12.35074.7829l.00713-.00619a.00809.00809,0,0,0,.00945-.0062h.005c.02189-.00743.04223-.01626.06412-.0244a.01159.01159,0,0,0,.01255-.00619c.00557,0,.011-.0062.01645-.007.02347-.00744.04692-.01627.06882-.0244h.00372c.05242-.01563.10088-.035.1517-.05317.00713,0,.0141-.00619.02265-.00619.02114-.00682.04305-.01441.06491-.0194A.1281.1281,0,0,1,12.8069.62034c.02265-.00681.04461-.0144.06569-.01939.00945,0,.018-.0062.025-.00682.07273-.02.14467-.03879.2174-.05631.01022,0,.01877-.00619.02971-.00681a.4157.4157,0,0,1,.06334-.01255A.10991.10991,0,0,1,13.23935.509c.02109-.00619.04141-.00681.06412-.01193h.01487c.0438-.00883.08838-.01626.13217-.02439h.02658a.555.555,0,0,1,.061-.01069c.01162,0,.02346-.0062.03441-.0062A.45091.45091,0,0,0,13.63112.447a.06241.06241,0,0,0,.03209-.00619c.0461-.0062.09383-.00868.14232-.01255-.13685-.01317-.27761-.02191-.42072-.02191-4.45269,0-10.58746,8.26179-13.351,18.96107H.56631c.88444-1.57725,1.679-3.06931,2.40543-4.46989C4.90718,7.31918,8.84923,2.15093,12.351.78168"/><path class="cls-14" d="M14.85709,3.82688a18.49485,18.49485,0,0,1,1.51707-1.302,7.16166,7.16166,0,0,0-.36129-.69836,8.5549,8.5549,0,0,0-1.15578,2.00035"/><path class="cls-14" d="M15.22287.84553a3.79872,3.79872,0,0,1,.78982.98144c.07507-.09228.151-.17754.22991-.2573a4.46413,4.46413,0,0,0-1.076-.753.49034.49034,0,0,0,.04755.02252l.00883.0062"/><path class="cls-15" d="M2.97154,14.89841C7.03167,7.07449,8.95538,2.12287,12.35082.78253h0C8.84981,2.15265,4.907,7.32084,2.97154,14.89841"/><path class="cls-16" d="M16.24234,1.56947c-.07894.08058-.154.165-.2299.25731a7.2654,7.2654,0,0,1,.3621.6983c.15013-.11493.29946-.22366.44805-.33a6.09527,6.09527,0,0,0-.58025-.62561"/><path class="cls-17" d="M4.8147,19.33314h0a.54434.54434,0,0,1-.0735.00883H4.72711c-.02114,0-.043.0062-.06256.0062H4.65436c-.0508.0062-.10088.0062-.14936.01007H4.48936c4.1094-.115,5.98775-2.17246,6.9199-5.15656.70848-2.26229,1.2903-4.168,1.80017-5.76721a81.711,81.711,0,0,0-5.18857,8.54567,4.25565,4.25565,0,0,1-3.20619,2.34994"/><path class="cls-18" d="M4.8147,19.33158h0a4.25379,4.25379,0,0,0,3.20619-2.34994h0A82.06614,82.06614,0,0,1,13.20867,8.436h0a48.01615,48.01615,0,0,1,1.64845-4.61067h0C11.42963,7.08781,7.98883,12.51256,4.8147,19.33"/><path class="cls-19" d="M2.97134,14.89859c-.72644,1.40059-1.52095,2.89265-2.40542,4.4699H2.11508a37.862,37.862,0,0,1,.85626-4.46915"/><path class="cls-20" d="M13.663.44477c-.01254,0-.0219.0062-.03284.0062h0a.26975.26975,0,0,1-.05787.00821h0a.06825.06825,0,0,0-.03441.00619h0a.593.593,0,0,1-.061.01069h0a.04.04,0,0,0-.02658.0062h0c-.04462.00743-.08838.01565-.13217.02314h-.01487A.519.519,0,0,1,13.23915.518h0a.10913.10913,0,0,1-.03209.00867h0a.595.595,0,0,1-.06256.01255h0A.05972.05972,0,0,1,13.11478.546h0c-.07272.01752-.14467.03629-.2174.05631h0c-.00775,0-.01563.00619-.025.00743h0l-.06568.0194h0A.09078.09078,0,0,1,12.777.6378h0c-.02188.0062-.04379.01255-.0649.0194h0c-.00852,0-.01563.00619-.02345.00619h0c-.05006.01876-.09932.03754-.15093.05318h0c-.02189.00682-.04536.01563-.06881.02377h0A.14408.14408,0,0,1,12.44.75226h0c-.0219.00682-.04379.01565-.06413.02378h0a.108.108,0,0,1-.02108.01007h0C8.95931,2.12645,7.03559,7.07807,2.97546,14.902h0a37.69917,37.69917,0,0,0-.85629,4.46909h.2174c.6123,0,.78513-.00619,1.48971-.00619H4.509c.04848-.0062.09853-.0062.14936-.01007h.00939c.02114,0,.04223-.0062.06256-.0062h.01482c.02265,0,.04849-.0062.07351-.00883h0C7.99273,12.52234,11.43352,7.09759,14.861,3.83509h0a8.58412,8.58412,0,0,1,1.155-1.99954h0a3.786,3.786,0,0,0-.789-.98224h0s-.0079,0-.00852-.0062h0C15.202.8403,15.18645.83209,15.17.824h0l-.04768-.0244h0A.51532.51532,0,0,1,15.0754.77705h0a.43685.43685,0,0,1-.05473-.02316h0L14.97762.73513h0c-.03053-.01193-.061-.0244-.08992-.03753h0c-.01332-.0062-.02578-.00945-.03836-.01441h0C14.82826.6756,14.804.66567,14.7821.65628h0a.23088.23088,0,0,0-.036-.01193h0c-.032-.01068-.06334-.02188-.09307-.03191h-.00775c-.036-.01192-.07116-.02063-.10792-.03065h0a.0458.0458,0,0,0-.02421-.00744h0c-.0321-.00883-.06025-.01752-.09072-.02565h0c-.00774,0-.01487-.0062-.02108-.0062h0c-.0735-.01939-.14936-.035-.226-.04941h0c-.00791,0-.01563-.0062-.02346-.0062h0C14.11909.48069,14.087.475,14.05419.47125h0a.02568.02568,0,0,0-.01952-.0062h0c-.0391-.0062-.07743-.01069-.11575-.015H13.8986C13.86732.44383,13.83841.44321,13.80945.44h0c-.0493.0062-.09619.00883-.14233.01317"/><path class="cls-21" d="M36.76948,5.08589c-.78122,2.5024-1.41386,4.56687-1.96437,6.26538h0A68.03283,68.03283,0,0,0,41.0705.4088h0a6.44022,6.44022,0,0,0-4.301,4.67709"/><path class="cls-22" d="M34.87313,18.26412c-.10948.05568-.219.10867-.32687.1564C38.71587,16.56093,43.68937,9.18513,46.07059.00215h-.48253c-5.47085,9.7726-7.23034,16.3148-10.71493,18.262"/><path class="cls-23" d="M32.15044,17.44308c.90711-1.1073,1.64606-2.98954,2.6549-6.09175a30.49316,30.49316,0,0,1-3.50728,4.093c0,.0062,0,.0062-.0062.01007a10.682,10.682,0,0,0,.85631,1.98859"/><path class="cls-6" d="M32.15044,17.44308a3.71685,3.71685,0,0,1-.99941.87666c-.07976.0463-.16027.0899-.24241.12981a3.51354,3.51354,0,0,0,1.27227.40113h0c.06877.00682.13683.01317.208.01814h.01254a.55668.55668,0,0,1,.10011.0062h.33917a.08243.08243,0,0,0,.03815-.0062.31024.31024,0,0,0,.07507-.00619h.037c.02566,0,.0538-.0062.08133-.00883h.0062c.00821,0,.01688-.0062.025-.0062.02878-.0062.05881-.00883.08684-.01317H33.216c.03189-.00619.06488-.01007.09772-.01626h.01564c.0657-.01255.12981-.025.19469-.04128a2.83221,2.83221,0,0,1-1.37631-1.32315"/><path class="cls-24" d="M24.46327,18.875a6.2489,6.2489,0,0,0,1.18006-.11417,7.31277,7.31277,0,0,0,1.10025-.29641,4.00032,4.00032,0,0,0,.96578.32925,4.1037,4.1037,0,0,0,.82424.08133Z"/><path class="cls-24" d="M28.53366,18.875a5.3965,5.3965,0,0,0,2.375-.42541,3.5144,3.5144,0,0,0,1.27227.4012h0c.06883.00681.13689.01316.208.01814h.01254a.55756.55756,0,0,1,.10011.00619H28.5309Z"/><path class="cls-25" d="M32.62088,18.875h.22291a.08117.08117,0,0,0,.03815-.0062.32032.32032,0,0,0,.07589-.00619h.037c.02564,0,.0538-.0062.08057-.00868h.00682c.00821,0,.01626-.00619.02439-.00619.02879-.0062.05883-.00868.08679-.01317a.04392.04392,0,0,0,.02689-.0062c.03191-.00619.06493-.00945.09779-.01563h.01565c.06569-.01255.12981-.025.19468-.0413h0a1.69861,1.69861,0,0,0,.59663.1048l-1.503.00619Z"/><path class="cls-26" d="M31.29437,15.4545v-.0062q-.644.61578-1.28561,1.12683c-.22366.17754-.44649.34565-.6717.50443a7.63217,7.63217,0,0,0,.5818.62872,4.50956,4.50956,0,0,0,.99157.74053c.08133-.04005.16265-.08372.24161-.12982a3.70824,3.70824,0,0,0,1.00021-.87659,10.682,10.682,0,0,1-.85632-1.98865"/><path class="cls-27" d="M44.06.00215H41.63154c-.13137.0062-.2588.01069-.38474.01878h0c-.05942.1275-.12043.255-.1791.38324h0a68.02781,68.02781,0,0,1-6.26533,10.94246h0c-1.008,3.10216-1.74777,4.98446-2.65489,6.09177h0A2.8391,2.8391,0,0,0,33.523,18.76229h0a.24818.24818,0,0,1,.04223-.00945h.00868c.00945,0,.01951-.00619.02972-.00619h0c.02189-.0062.04536-.01007.06725-.01689h0a.35085.35085,0,0,1,.03992-.01131h0c.02032-.00619.04141-.01069.06018-.01564h0a.14292.14292,0,0,1,.03753-.01069h0c.03128-.01007.05943-.01752.08915-.02691h0a.26058.26058,0,0,1,.0446-.015h0c.01721-.0062.03441-.01069.05-.01814h0c.018-.0062.036-.00945.05162-.01627h0c.01409-.0062.0289-.01007.04222-.01564h0c.03515-.01255.06961-.02315.10478-.03692h0c.00946,0,.01878-.00867.029-.01069h0c.02108-.00883.043-.01564.06414-.025h0a.07922.07922,0,0,1,.02732-.01007h0c.07352-.03066.14936-.06193.22522-.09615h.0079c.10791-.04754.2174-.10091.3261-.1564h0C38.356,16.31771,40.11548,9.77551,45.58633.00291h-1.528Z"/><path class="cls-28" d="M13.8055.43157a.03769.03769,0,0,1,.025.0062.20092.20092,0,0,1,.06335.00682H13.915c.03829.00619.07663.00945.11573.015a.02372.02372,0,0,1,.01952.0062c.032.00619.06491.01131.09775.01626.00712,0,.01646.0062.02427.0062.07509.015.15172.03066.22522.05005.007,0,.0141.0062.02034.0062.03128.00743.05942.01688.0907.02563.00945,0,.01639.0062.025.00759.03678.00945.07117.01878.10714.03066.00155,0,.00372,0,.0079.0062.03045.00929.06174.02127.09383.03189a.17781.17781,0,0,0,.036.01193c.0219.00945.04617.01876.06726.02753a.13662.13662,0,0,1,.03827.01316c.02891.01317.05944.025.08915.03754.01565.0062.02891.01317.0438.01876a.38587.38587,0,0,0,.05394.02316l.04766.02251c.01645.00883.032.01564.04773.02439a4.48706,4.48706,0,0,1,1.076.7531,3.49588,3.49588,0,0,1,.38162-.34645A4.20113,4.20113,0,0,0,14.13554.42666c-.10949,0-.219.0062-.33.01441"/><path class="cls-29" d="M16.24235,1.56947a6.09567,6.09567,0,0,1,.58024.62561c.17751-.12356.35347-.24243.5302-.35347a5.59346,5.59346,0,0,0-.72961-.6186,3.41568,3.41568,0,0,0-.38083.34646"/><path class="cls-30" d="M13.80531.43144c.111-.00938.22052-.01329.33-.01329a4.20578,4.20578,0,0,1,2.48832.80468,4.5032,4.5032,0,0,1,2.96768-.8125H13.3846c.1431,0,.28308.0086.42071.02111"/><path class="cls-31" d="M19.59131.41033a4.5032,4.5032,0,0,0-2.96768.8125,5.63712,5.63712,0,0,1,.72882.61856,9.04748,9.04748,0,0,1,3.153-1.31845,6.3981,6.3981,0,0,1,1.18-.11261Z"/><path class="cls-32" d="M34.80511,11.35283c.5513-1.70007,1.18237-3.76372,1.96514-6.26694A6.43714,6.43714,0,0,1,41.06968.4088c.06194-.12594.12044-.25575.18068-.38324-3.82322.22916-5.61008,2.174-6.50938,5.05409-1.5726,5.02823-2.52508,8.2876-3.44235,10.36459a30.57863,30.57863,0,0,0,3.50648-4.09141"/><path d="M40.41406,17.53555h-.43323v1.3466H39.8041v-1.3466h-.43478v-.16027h1.04474v.16027Z"/><path d="M42.188,18.8819h-.17591V17.87c0-.07976.0062-.17748.01441-.29246h0a1.02984,1.02984,0,0,1-.04692.147l-.513,1.15735h-.086L40.866,17.73318a.83339.83339,0,0,1-.04629-.15565h-.0062c.0062.06069.00821.15878.00821.29485V18.8819h-.16891V17.375h.233l.46214,1.05175a1.36753,1.36753,0,0,1,.06806.18067h.00682c.03065-.08289.05567-.1447.07276-.18537l.47151-1.04705h.22209V18.8819Z"/></g></g></svg>