<svg xmlns="http://www.w3.org/2000/svg" xmlns:xlink="http://www.w3.org/1999/xlink" viewBox="0 0 48.32003 55.00083"><defs><style>.cls-1,.cls-6{fill:url(#linear-gradient);}.cls-1{clip-rule:evenodd;}.cls-2{fill:#f2f3f4;}.cls-2,.cls-4,.cls-5,.cls-6{fill-rule:evenodd;}.cls-3,.cls-5{fill:#679e63;}.cls-4{fill:#333;}.cls-7{clip-path:url(#clip-path);}.cls-8{fill:none;}.cls-9{fill:url(#linear-gradient-3);}.cls-10{fill:url(#linear-gradient-4);}.cls-11{fill:url(#linear-gradient-5);}.cls-12{fill:url(#linear-gradient-6);}.cls-13{fill:url(#linear-gradient-7);}.cls-14{fill:url(#linear-gradient-8);}</style><linearGradient id="linear-gradient" x1="20.40952" y1="22.45706" x2="16.91637" y2="29.58309" gradientUnits="userSpaceOnUse"><stop offset="0" stop-color="#3f873f"/><stop offset="0.3296" stop-color="#3f8b3d"/><stop offset="0.63676" stop-color="#3e9637"/><stop offset="0.93418" stop-color="#3da92e"/><stop offset="1" stop-color="#3dae2b"/></linearGradient><clipPath id="clip-path"><path class="cls-1" d="M19.07134,20.79538a.46687.46687,0,0,0-.46685,0l-3.86655,2.23128a.46675.46675,0,0,0-.2336.40448v4.466a.46733.46733,0,0,0,.23344.40448l3.86655,2.23308a.46732.46732,0,0,0,.46717,0l3.86565-2.23308a.46736.46736,0,0,0,.23341-.40448V23.431a.46672.46672,0,0,0-.23357-.40432Z"/></clipPath><linearGradient id="linear-gradient-3" x1="18.24893" y1="26.18642" x2="28.05045" y2="18.94453" gradientUnits="userSpaceOnUse"><stop offset="0.13756" stop-color="#3f873f"/><stop offset="0.39741" stop-color="#529f44"/><stop offset="0.71128" stop-color="#63b649"/><stop offset="0.90808" stop-color="#6abf4b"/></linearGradient><linearGradient id="linear-gradient-4" x1="14.36755" y1="19.9903" x2="23.30735" y2="19.9903" gradientUnits="userSpaceOnUse"><stop offset="0.09192" stop-color="#6abf4b"/><stop offset="0.28872" stop-color="#63b649"/><stop offset="0.60259" stop-color="#529f44"/><stop offset="0.86244" stop-color="#3f873f"/></linearGradient><linearGradient id="linear-gradient-5" x1="14.36755" y1="25.66317" x2="23.30735" y2="25.66317" xlink:href="#linear-gradient-4"/><linearGradient id="linear-gradient-6" x1="14.36755" y1="28.2153" x2="23.30735" y2="28.2153" xlink:href="#linear-gradient-4"/><linearGradient id="linear-gradient-7" x1="14.36755" y1="29.3688" x2="23.30735" y2="29.3688" xlink:href="#linear-gradient-4"/><linearGradient id="linear-gradient-8" x1="24.60977" y1="22.24579" x2="19.09627" y2="33.49333" xlink:href="#linear-gradient"/></defs><title>Asset 60</title><g id="Layer_2" data-name="Layer 2"><g id="Section_1" data-name="Section 1"><path class="cls-2" d="M25.46412.34873a2.60309,2.60309,0,0,0-2.603,0L1.30246,12.78962A2.6025,2.6025,0,0,0,0,15.04486v24.901a2.60558,2.60558,0,0,0,1.3016,2.25523L22.86023,54.652a2.6054,2.6054,0,0,0,2.60475,0L47.01861,42.20105A2.60579,2.60579,0,0,0,48.32,39.94582V15.044a2.60234,2.60234,0,0,0-1.30229-2.25437Z"/><path class="cls-3" d="M23.9198,39.91415a.76843.76843,0,0,1-.38448-.1029L22.31126,39.087c-.18267-.10227-.09345-.1385-.0332-.15951a2.44008,2.44008,0,0,0,.55344-.25175.094.094,0,0,1,.091.007l.94035.5583a.12083.12083,0,0,0,.11356,0l3.66612-2.116a.11562.11562,0,0,0,.056-.09922V32.795a.1183.1183,0,0,0-.05693-.10106L23.977,30.57973a.11477.11477,0,0,0-.11293,0l-3.66369,2.11481a.11781.11781,0,0,0-.05814.10044v4.23084a.11236.11236,0,0,0,.05783.098l1.00429.58025c.54489.27245.87853-.04841.87853-.3708V33.156a.10551.10551,0,0,1,.10655-.10561h.46488a.10581.10581,0,0,1,.10624.10561v4.17725A1.016,1.016,0,0,1,21.675,38.47759a1.56834,1.56834,0,0,1-.84446-.22953l-.96137-.55343a.77434.77434,0,0,1-.38448-.66881V32.795a.77257.77257,0,0,1,.38448-.66819l3.66612-2.11846a.80333.80333,0,0,1,.77049,0l3.66584,2.11846a.77389.77389,0,0,1,.38507.66819v4.23084a.776.776,0,0,1-.38507.66881l-3.66584,2.11662A.769.769,0,0,1,23.9198,39.91415Z"/><path class="cls-3" d="M25.05224,36.99932c-1.60427,0-1.94037-.73639-1.94037-1.354a.10538.10538,0,0,1,.106-.10565h.474a.1062.1062,0,0,1,.10534.08981c.07154.48249.28491.726,1.2551.726.77233,0,1.10111-.17472,1.10111-.58448,0-.23623-.09318-.41158-1.29348-.5291-1.00307-.09922-1.6235-.32086-1.6235-1.1233,0-.73973.62345-1.18085,1.66886-1.18085,1.17443,0,1.75558.40761,1.82924,1.28222a.106.106,0,0,1-.10561.11537H26.153a.10559.10559,0,0,1-.1029-.08279c-.11416-.50777-.39178-.67-1.14491-.67-.84325,0-.94129.29377-.94129.51385,0,.26668.11568.3443,1.25423.495,1.12664.14888,1.66181.35983,1.66181,1.15164C26.88,36.5418,26.21392,36.99932,25.05224,36.99932Z"/><path class="cls-3" d="M30.33859,32.56224a.70656.70656,0,1,1-.70656-.70671A.70847.70847,0,0,1,30.33859,32.56224Zm-1.299-.002a.59255.59255,0,1,0,.59056-.5906A.59276.59276,0,0,0,29.03963,32.56028Zm.32694-.3944h.27307c.09345,0,.27672,0,.27672.20945a.1821.1821,0,0,1-.14979.19436c.10867.00748.116.07856.1309.17946a.78053.78053,0,0,0,.04111.20929h-.16805c-.004-.03728-.03014-.23928-.03014-.25037-.01094-.04492-.02619-.06727-.08217-.06727H29.52v.31764h-.15343Zm.14978.34767h.12329a.10658.10658,0,0,0,.11964-.112c0-.10854-.07491-.10854-.116-.10854h-.12693Z"/><path class="cls-4" d="M12.5671,23.36121a.46879.46879,0,0,0-.23473-.40792L8.44555,20.7164a.4581.4581,0,0,0-.214-.06181H8.19137a.46464.46464,0,0,0-.21462.06181L4.0899,22.95329a.471.471,0,0,0-.235.40792l.00854,6.02324a.23065.23065,0,0,0,.11721.20274.22577.22577,0,0,0,.23317,0l2.31-1.32271a.473.473,0,0,0,.235-.40731v-2.814a.46773.46773,0,0,1,.23439-.4064l.98359-.56653a.46707.46707,0,0,1,.23532-.063.4597.4597,0,0,1,.23348.063l.98328.56653a.468.468,0,0,1,.2347.4064v2.814a.47408.47408,0,0,0,.23532.40731l2.30933,1.32271a.22853.22853,0,0,0,.2347,0,.23456.23456,0,0,0,.11661-.20274Z"/><path class="cls-4" d="M31.26928,15.08127a.23477.23477,0,0,0-.34919.205v5.965a.16422.16422,0,0,1-.24642.14231l-.97352-.56089a.46961.46961,0,0,0-.46912.00015l-3.88838,2.244a.46936.46936,0,0,0-.23485.40655v4.489a.46988.46988,0,0,0,.23473.40671l3.88819,2.2457a.46979.46979,0,0,0,.46971,0l3.88881-2.2457a.4699.4699,0,0,0,.23473-.40671V16.78255a.46954.46954,0,0,0-.24081-.41008Zm-.36076,11.41622a.11708.11708,0,0,1-.05876.10153l-1.335.76956a.11758.11758,0,0,1-.11718,0L28.06249,26.599a.11707.11707,0,0,1-.05873-.10153V24.95591a.11764.11764,0,0,1,.05861-.10169l1.335-.77108a.11738.11738,0,0,1,.11749,0l1.335.77108a.11769.11769,0,0,1,.0586.10169Z"/><path class="cls-4" d="M44.21694,24.91557a.4695.4695,0,0,0,.23363-.406V23.42178a.46957.46957,0,0,0-.23379-.40609L40.3534,20.77258a.4695.4695,0,0,0-.47048-.00063l-3.887,2.244a.46948.46948,0,0,0-.23473.40655v4.48776a.46934.46934,0,0,0,.23716.40793l3.86279,2.2011a.46932.46932,0,0,0,.46042.00258L42.658,29.22325a.23482.23482,0,0,0,.0029-.40883l-3.91163-2.24508a.2347.2347,0,0,1-.118-.20368V24.95924a.23459.23459,0,0,1,.11749-.20333l1.21739-.70186a.23442.23442,0,0,1,.23438,0l1.218.70186a.23457.23457,0,0,1,.11749.20333v1.10657a.23478.23478,0,0,0,.35269.20306Z"/><path class="cls-5" d="M40.06085,24.70537a.08992.08992,0,0,1,.09012,0l.74611.43044a.09017.09017,0,0,1,.045.07808v.86152a.0902.0902,0,0,1-.045.07809l-.74611.43043a.08987.08987,0,0,1-.09012,0l-.74553-.43043a.09021.09021,0,0,1-.045-.07809v-.86152a.09018.09018,0,0,1,.045-.07808Z"/><path class="cls-6" d="M19.07134,20.79538a.46687.46687,0,0,0-.46685,0l-3.86655,2.23128a.46675.46675,0,0,0-.2336.40448v4.466a.46733.46733,0,0,0,.23344.40448l3.86655,2.23308a.46732.46732,0,0,0,.46717,0l3.86565-2.23308a.46736.46736,0,0,0,.23341-.40448V23.431a.46672.46672,0,0,0-.23357-.40432Z"/><g class="cls-7"><path class="cls-8" d="M18.59639,20.79538l-3.87464,2.23128a.48251.48251,0,0,0-.2498.40447v4.466a.45164.45164,0,0,0,.12052.29716l4.35347-7.44722A.47434.47434,0,0,0,18.59639,20.79538Z"/><path class="cls-8" d="M18.96747,30.57988a.46579.46579,0,0,0,.10888-.04519l3.87049-2.23308a.47664.47664,0,0,0,.24311-.40447V23.431a.46144.46144,0,0,0-.14129-.32432Z"/><path class="cls-9" d="M22.94467,23.02666l-3.87738-2.23128a.464.464,0,0,0-.12135-.0483L14.59247,28.1943a.53214.53214,0,0,0,.13033.10731l3.884,2.23308a.47174.47174,0,0,0,.36071.04519l4.08119-7.47322A.50871.50871,0,0,0,22.94467,23.02666Z"/><path class="cls-8" d="M23.19,27.89714V23.431a.478.478,0,0,0-.24528-.40432l-3.87738-2.23128A.465.465,0,0,0,18.925,20.743l4.25047,7.26146A.42908.42908,0,0,0,23.19,27.89714Z"/><path class="cls-8" d="M14.72175,23.02666a.48251.48251,0,0,0-.2498.40447v4.466a.48435.48435,0,0,0,.25085.40447l3.884,2.23308a.471.471,0,0,0,.29883.058l-4.16052-7.57949Z"/><polygon class="cls-10" points="18.476 19.975 18.422 20.006 18.493 20.006 18.476 19.975"/><path class="cls-11" d="M22.94684,28.30161a.48871.48871,0,0,0,.22861-.29716L18.925,20.743a.47341.47341,0,0,0-.32859.05239l-3.85132,2.21784,4.16052,7.57949a.46759.46759,0,0,0,.17076-.058Z"/><polygon class="cls-12" points="23.307 28.23 23.282 28.186 23.282 28.245 23.307 28.23"/><path class="cls-13" d="M22.94684,28.30161l-3.87049,2.23308a.46759.46759,0,0,1-.17076.058l.07709.14044,4.299-2.48853V28.186l-.10627-.18154A.48871.48871,0,0,1,22.94684,28.30161Z"/><path class="cls-14" d="M22.94684,28.30161l-3.87049,2.23308a.46759.46759,0,0,1-.17076.058l.07709.14044,4.299-2.48853V28.186l-.10627-.18154A.48871.48871,0,0,1,22.94684,28.30161Z"/></g></g></g></svg>