<svg xmlns="http://www.w3.org/2000/svg" viewBox="0 0 41.6715 28.69414"><defs><style>.cls-1{fill:#e84449;}</style></defs><title>Asset 70</title><g id="Layer_2" data-name="Layer 2"><g id="Section_1" data-name="Section 1"><path class="cls-1" d="M5.95483,0a5.94479,5.94479,0,0,1,5.95483,6.00551,6.03757,6.03757,0,0,1-5.95483,6.174A6.03757,6.03757,0,0,1,0,6.00551,5.94479,5.94479,0,0,1,5.95483,0Zm0,11.47273A5.29716,5.29716,0,0,0,11.1529,6.00551a5.199,5.199,0,1,0-10.39613,0A5.29715,5.29715,0,0,0,5.95483,11.47273Z"/><path class="cls-1" d="M14.22106,4.57622a.32926.32926,0,0,0-.36983-.37051H13.128v-.639h.82456c.689,0,.97524.28558.97524.92524v.47049a6.8518,6.8518,0,0,1-.03424.69034h.03424A3.62165,3.62165,0,0,1,18.12337,3.3647,2.33654,2.33654,0,0,1,20.782,5.65281h.03287A3.53063,3.53063,0,0,1,24.01177,3.3647c2.16963,0,2.80929,1.27863,2.80929,3.28047V10.968a.32925.32925,0,0,0,.36982.3705h.72321v.639h-.82457c-.689,0-.97523-.28627-.97523-.97593V6.8972c0-1.58134-.31915-2.8764-2.10252-2.8764a3.37737,3.37737,0,0,0-2.96132,2.55657A4.39593,4.39593,0,0,0,20.882,7.87312v4.10435h-.70541V6.8972c0-1.44642-.20271-2.8764-2.0532-2.8764a3.46028,3.46028,0,0,0-3.06131,2.70861,4.16173,4.16173,0,0,0-.13423,1.14371v4.10435h-.70677Z"/><path class="cls-1" d="M29.7906,4.57622a.32925.32925,0,0,0-.36982-.37051h-.72321v-.639h.82456c.689,0,.97524.28558.97524.92524v.47049a6.8518,6.8518,0,0,1-.03424.69034h.03424A3.77177,3.77177,0,0,1,34.02986,3.3647c2.18607,0,2.775,1.29507,2.775,3.28047V10.968a.33023.33023,0,0,0,.3712.3705h.72321v.639h-.82457c-.69034,0-.97524-.28627-.97524-.97593V6.8972c0-1.46354-.18628-2.84285-2.06964-2.84285A3.56549,3.56549,0,0,0,30.6316,6.72941a4.16173,4.16173,0,0,0-.13423,1.14371v4.10435H29.7906Z"/><path class="cls-1" d="M39.87169,4.57622a.32981.32981,0,0,0-.36982-.37051h-.72458v-.639h.82457c.69034,0,.97661.28558.97661.97523v6.426a.32925.32925,0,0,0,.36982.3705h.72321v.639h-.82457c-.69033,0-.97524-.28627-.97524-.97593ZM39.77034.202h.77388V1.43h-.77388Z"/><path class="cls-1" d="M1.81761,17.75971a.329.329,0,0,0-.36982-.36982H.72389v-.639h.82457c.68965,0,.97592.28558.97592.92524,0,.38763-.01712.67253-.01712.67253h.03356A3.07141,3.07141,0,0,1,5.535,16.54889c2.25455,0,3.63386,1.7998,3.63386,4.40774,0,2.67368-1.56422,4.40637-3.73453,4.40637a3.07318,3.07318,0,0,1-2.91-1.81624H2.49083s.03355.3027.03355.73964v4.23927H1.81761Zm3.61673,6.93076c1.64845,0,2.9942-1.3793,2.9942-3.73384,0-2.271-1.21083-3.71809-2.92708-3.71809-1.54778,0-2.9942,1.09371-2.9942,3.73452C2.50726,22.84,3.51674,24.69047,5.43434,24.69047Z"/><path class="cls-1" d="M15.80171,20.0307h.5561v-.1178c0-2.00115-.69033-2.70792-2.43946-2.70792-.43831,0-1.8676.1178-1.8676.82457v.57254h-.70609v-.77458c0-.99235,1.90116-1.27862,2.59013-1.27862,2.57369,0,3.12842,1.39642,3.12842,3.1791v4.42418a.33.33,0,0,0,.3712.36982h.72321v.63966h-.82457c-.69034,0-.97524-.26983-.97524-1.02592,0-.45474.03287-.75745.03287-.75745h-.03287A3.14134,3.14134,0,0,1,13.44717,25.363a2.581,2.581,0,0,1-2.86-2.43809C10.58721,20.06494,14.30461,20.0307,15.80171,20.0307ZM13.48,24.7069c1.834,0,2.87777-1.89979,2.87777-3.56536v-.45475h-.5383c-1.43,0-4.492,0-4.492,2.18744A1.93937,1.93937,0,0,0,13.48,24.7069Z"/><path class="cls-1" d="M20.18068,28.02161c.80814,0,1.31219-.72321,1.64914-1.51353l.60541-1.39711-3.04487-7.317a.58515.58515,0,0,0-.63966-.40407h-.13423v-.639h.1178c.841,0,1.04235.15135,1.3793.97524l2.38878,5.737c.16847.4027.28627.79033.28627.79033h.03287s.1178-.38763.28627-.79033l2.37235-5.737c.33558-.82389.5383-.97524,1.3793-.97524h.1178v.639H26.843a.58514.58514,0,0,0-.63965.40407l-3.88588,9.336a2.30692,2.30692,0,0,1-2.13676,1.56421,2.20063,2.20063,0,0,1-1.682-.79032l.42051-.5383A1.7997,1.7997,0,0,0,20.18068,28.02161Z"/></g></g></svg>