<svg xmlns="http://www.w3.org/2000/svg" xmlns:xlink="http://www.w3.org/1999/xlink" viewBox="0 0 51.04182 36.70586"><defs><style>.cls-1{fill:url(#linear-gradient);}.cls-2{fill:url(#linear-gradient-2);}.cls-3{fill:url(#linear-gradient-3);}</style><linearGradient id="linear-gradient" x1="10.66566" y1="13.27336" x2="51.04171" y2="13.27336" gradientUnits="userSpaceOnUse"><stop offset="0" stop-color="#04b6f0"/><stop offset="1" stop-color="#3ecaf0"/></linearGradient><linearGradient id="linear-gradient-2" x1="11.39202" y1="33.06482" x2="17.15843" y2="33.06482" xlink:href="#linear-gradient"/><linearGradient id="linear-gradient-3" x1="28.04015" y1="227.03178" x2="28.07142" y2="227.03178" gradientTransform="matrix(0, -184.24423, -184.43327, 0, 41902.33254, 5201.42049)" xlink:href="#linear-gradient"/></defs><title>Asset 30</title><g id="Layer_2" data-name="Layer 2"><g id="Section_1" data-name="Section 1"><path class="cls-1" d="M51.04182,11.031c-.019-2.14619-3.989-3.12038-14.26559-3.12038C12.66373,7.91058,6.54623,6.8817,0,0,2.75406,4.13208,4.26085,11.88235,29.74706,11.49669c26.59087-.40922,10.36884,6.84931,5.64881,15.05,8.5122-7.5894,15.62028-12.59186,15.646-15.48469Z"/><path class="cls-2" d="M17.15845,33.06924a3.64484,3.64484,0,0,1-7.28967,0v-.00285a3.66173,3.66173,0,0,1,3.64674-3.64261h.0019A3.642,3.642,0,0,1,17.15845,33.06924Z"/><path class="cls-3" d="M33.7636,33.06924a3.64436,3.64436,0,0,1-7.2887,0v-.00285a3.66151,3.66151,0,0,1,3.64577-3.64261h.0019A3.642,3.642,0,0,1,33.7636,33.06924Z"/></g></g></svg>