<svg xmlns="http://www.w3.org/2000/svg" viewBox="0 0 41.24739 48.85628"><title>Asset 40</title><g id="Layer_2" data-name="Layer 2"><g id="Section_1" data-name="Section 1"><path d="M14.94411,48.7361a16.7012,16.7012,0,0,1-3.94455-.91451C4.95384,45.447,1.16111,41.10677.18871,34.66638A16.39221,16.39221,0,0,1,9.69329,17.31332c.40484-.19115.43306-.34051.25021-.71765A11.50168,11.50168,0,0,1,18.07324.2006,11.1829,11.1829,0,0,1,31.24732,9.424a.57207.57207,0,0,0,.5009.51507,12.3221,12.3221,0,0,1,8.0125,6.32436,11.87968,11.87968,0,0,1,1.41594,7.03488,12.39625,12.39625,0,0,1-8.00293,10.71805.65519.65519,0,0,0-.42357.59867,15.71116,15.71116,0,0,1-9.63273,12.83176,16.42673,16.42673,0,0,1-4.899,1.28932A10.94743,10.94743,0,0,1,14.94411,48.7361ZM19.61959,2.14979c-.4084.02275-.90449.03107-1.40116.10267A9.85106,9.85106,0,0,0,11.0685,16.96611c.30238.52413.30238.52413-.24.75214A14.65327,14.65327,0,0,0,2.16836,34.62246,14.5863,14.5863,0,0,0,20.20168,45.68321c6.042-1.63043,9.6332-5.74885,11.0784-11.78686.26289-1.09833.03294-.88661,1.05218-1.10191A10.85067,10.85067,0,0,0,30.50273,11.3456c-.48063-.021-.66-.18669-.73633-.66856A10.21428,10.21428,0,0,0,19.61959,2.14979Z"/></g></g></svg>