<svg xmlns="http://www.w3.org/2000/svg" viewBox="0 0 48.63122 24.43546"><title>Asset 59</title><g id="Layer_2" data-name="Layer 2"><g id="Section_1" data-name="Section 1"><path d="M3.84832,5.14006h7.21223a5.58077,5.58077,0,0,1,4.60183,1.83,6.13454,6.13454,0,0,1,.94189,4.92477A9.44539,9.44539,0,0,1,15.77,14.69357a8.31927,8.31927,0,0,1-1.72232,2.47584,6.01153,6.01153,0,0,1-2.87951,1.77615,13.25771,13.25771,0,0,1-3.17553.37676H4.7633L3.74067,24.43546H0L3.84832,5.14006h0M6.99694,8.208,5.38226,16.28134a1.98,1.98,0,0,0,.32294.02691H6.082a14.151,14.151,0,0,0,4.30581-.51131q1.72208-.56514,2.31438-3.929.48439-2.82568-.96881-3.25627A12.07572,12.07572,0,0,0,8.15413,8.208q-.32294.02666-.619.02691H6.97L6.99694,8.208"/><path d="M20.8654,0h3.71376L23.52962,5.14006h3.337a6.7003,6.7003,0,0,1,4.09052,1.13027q1.37247,1.0762.80734,4.09052l-1.80306,8.96147H26.19384l1.72232-8.5578a2.42841,2.42841,0,0,0-.16147-1.9107,2.28633,2.28633,0,0,0-1.85688-.56514l-2.98715-.02691L20.70393,19.32232H16.99017L20.8654,0h0"/><path d="M35.75243,5.14006h7.21223a5.58076,5.58076,0,0,1,4.60183,1.83,6.13458,6.13458,0,0,1,.9419,4.92477,9.446,9.446,0,0,1-.83425,2.79877,8.31963,8.31963,0,0,1-1.72232,2.47584,6.01153,6.01153,0,0,1-2.87951,1.77615,13.25771,13.25771,0,0,1-3.17553.37676H36.66742l-1.02263,5.11314H31.90412l3.84831-19.2954h0M38.90106,8.208l-1.61468,8.07339a1.97989,1.97989,0,0,0,.32293.02691h.37676a14.15109,14.15109,0,0,0,4.30581-.51131q1.72206-.56514,2.31437-3.929.48439-2.82568-.96881-3.25627a12.07564,12.07564,0,0,0-3.5792-.40367q-.32293.02666-.619.02691h-.56514l.02691-.02691"/></g></g></svg>