<svg xmlns="http://www.w3.org/2000/svg" viewBox="0 0 48.65961 66.77119"><defs><style>.cls-1{fill:#a5dbe8;}.cls-2{fill:#525353;}.cls-3{fill:#aa9678;}.cls-4{fill:#c4b6a1;}.cls-5{fill:#786453;}.cls-6{fill:#fff;}.cls-7{fill:#bbbcbd;}.cls-8{fill:#676a6a;}.cls-9{fill:#909393;}.cls-10{fill:#e3dddb;}.cls-11{fill:#fcb03f;}.cls-12{fill:#9f2254;}.cls-13{fill:#df0067;}.cls-14{fill:#8b7460;}.cls-15{fill:#211a43;}</style></defs><title>Asset 33</title><g id="Layer_2" data-name="Layer 2"><g id="Section_1" data-name="Section 1"><path class="cls-1" d="M15.77237,37.33409c.38851-.173.78216-.33207,1.17942-.48128.44858-.1686.90077-.32712,1.359-.46512.57042-.17182,1.14559-.32731,1.72856-.45105a21.44127,21.44127,0,0,1,2.38242-.36818q-.674,2.11926-1.48412,4.21362c.023.27029.03535.54229.04257.815a17.25325,17.25325,0,0,1,6.69906,0c.00723-.27276.01958-.54476.04258-.815q-.80743-2.09388-1.48412-4.21362a21.44127,21.44127,0,0,1,2.38242.36818c.58278.12374,1.15795.27923,1.72837.45105.45846.138.91066.29652,1.35924.46512.39745.1494.79129.3085,1.1798.48147A21.11081,21.11081,0,0,1,40.21888,42.746a24.32981,24.32981,0,1,0-31.77815,0,21.11262,21.11262,0,0,1,7.33164-5.41186"/><path class="cls-2" d="M32.88762,37.33428,34.398,42.52774l.42844.02014c.27808,0,.47366.07319.47366.35127,0,.46227.024.98174.06824,1.43527.37635.31951.83463.6799,1.18209,1.03A24.38826,24.38826,0,0,0,40.21888,42.746a21.11081,21.11081,0,0,0-7.33126-5.41167"/><path class="cls-2" d="M29.9344,37.28238l1.77342-.42957c-.44858-.1686-.90078-.32712-1.35924-.46512-.57042-.17182-1.14559-.32731-1.72837-.45105a21.44127,21.44127,0,0,0-2.38242-.36818q.674,2.11926,1.48412,4.21362c-.023.27029-.03535.54229-.04258.815a17.43964,17.43964,0,0,1,3.63446,1.1838L29.9344,37.28238"/><path d="M12.10921,45.36444c.28245.16461.56776.32522.85782.47862.1015-.48755.26382-1.16308.31286-1.6647-.37635.31952-.82322.836-1.17068,1.18608"/><path d="M31.28414,41.73607a17.07338,17.07338,0,0,0-3.60481-1.13894,17.25325,17.25325,0,0,0-6.69906,0,17.97776,17.97776,0,0,0-3.70934,1.12849l-.12146.75669H31.51052l-.22638-.74624"/><path class="cls-2" d="M13.23541,44.32244a12.98583,12.98583,0,0,0,.07661-1.32027.43631.43631,0,0,1,.46872-.456l.456-.016,1.53563-5.19612A21.11262,21.11262,0,0,0,8.44073,42.746a24.38826,24.38826,0,0,0,3.66848,2.61849q.52119-.52518,1.08572-1.00551"/><path d="M35.554,45.24678a2.43462,2.43462,0,0,0,.13856.59628c.29006-.1534.57518-.314.85782-.47862-.34746-.35012-.72058-.6972-1.09712-1.01672l.10074.89906"/><path class="cls-3" d="M31.28414,41.73607l.22638.74624H34.448l-1.56034-5.148c-.38851-.173-.78235-.33207-1.1798-.48147l-1.77342.42957,1.34974,4.45369"/><path class="cls-4" d="M14.26316,43.522l.04619-.0327h-.0441l-.00209.0327"/><path class="cls-3" d="M34.39436,43.48933h-.04429l.04619.0327-.0019-.0327"/><path class="cls-3" d="M34.3438,43.41426l-10.0349.0114.0209,5.234A24.22837,24.22837,0,0,0,34.76368,46.312a15.37663,15.37663,0,0,1-.26079-2.8348c-.0152-.011-.15909-.06291-.15909-.06291"/><path class="cls-4" d="M24.31365,43.44733s-10.09022-.01274-10.10561-.0019c-.03346.95095-.22962,2.07925-.31211,2.86654A24.22832,24.22832,0,0,0,24.3298,48.65961l.00571-5.19536-.02186-.01692"/><path class="cls-5" d="M24.3298,42.98582H24.33v.50351h-.0002Z"/><path class="cls-2" d="M31.29592,39.01056c-.07337-.08439-.149-.17468-.22752-.27751.07869.10283.15415.19312.22752.27751"/><path class="cls-3" d="M31.8557,39.56635l.00513.01577-.00513-.01577a4.7179,4.7179,0,0,1-.55978-.55579,4.7179,4.7179,0,0,0,.55978.55579"/><path class="cls-6" d="M39.29,17.55319v0"/><path class="cls-6" d="M40.26906,24.55809l.00019-.00723-.00019.00723"/><path class="cls-7" d="M40.26925,24.55086l-.00019-.00665.00019.00665"/><path class="cls-8" d="M40.24188,24.17185l.00342.01863.00228.0114v.00152a2.83593,2.83593,0,0,1,.01806.288c.00038.01806.00342.035.00342.05284l.00019.00665-.00019.00723c-.00019.01938-.00342.03744-.00361.05664-.00228.096-.00647.19122-.01768.28245v.00133l-.00266.01388-.004.02129a2.61327,2.61327,0,0,1-.05455.288l-.00038.00134v.00018l.00341-.0038.00134-.00437v.00019l.63675-.6666-.64188-.67192.00018.00133a2.57939,2.57939,0,0,1,.05589.29386"/><path d="M40.24112,24.93368c.00171-.01255.00494-.02376.00665-.0365.01121-.09123.0154-.18646.01768-.28245.00019-.02167.00361-.042.00361-.06387,0-.02033-.003-.03934-.00342-.05949a2.83593,2.83593,0,0,0-.01806-.288l-.0057-.03155A2.57939,2.57939,0,0,0,40.186,23.878c-.00836-.03269-.01995-.06177-.02965-.09332a1.88151,1.88151,0,0,0-.22923-.49839q-.01881-.02793-.03821-.05417c-.02566-.0344-.05132-.06786-.0785-.09789a.98663.98663,0,0,0-.12583-.11689c-.01672-.01274-.0344-.02167-.05151-.0327a.71442.71442,0,0,0-.1169-.06234c-.0171-.00685-.0344-.01369-.05189-.0192a.52085.52085,0,0,0-.3486,0c-.01748.00551-.03478.01235-.05189.01939a.70854.70854,0,0,0-.11709.06215c-.01672.011-.03459.01977-.05113.03251a1.00508,1.00508,0,0,0-.126.11708c-.02718.03-.05284.06349-.07812.09751-.0133.01787-.026.03593-.03858.05474a1.87587,1.87587,0,0,0-.22924.49839l-.00722.0228a2.56145,2.56145,0,0,0-.06177.2739c-.005.0289-.0116.05665-.01559.0863a2.6256,2.6256,0,0,0-.0249.32883c-.00019.01559-.00266.03041-.00266.046h.0038c0,.92681.43851,1.678.97927,1.678a.60839.60839,0,0,0,.268-.066c.01369-.00684.02718-.01388.04068-.02167a.79275.79275,0,0,0,.1034-.06938c.01844-.01482.03574-.03269.05341-.04942a1.11681,1.11681,0,0,0,.12317-.13666c.027-.03555.0536-.07109.07831-.11082.01578-.02528.03023-.05265.04486-.07964a1.76136,1.76136,0,0,0,.0766-.15909c.00875-.02015.01768-.03973.02566-.06045a2.23045,2.23045,0,0,0,.07794-.246,2.61327,2.61327,0,0,0,.05455-.288Zm-.916-.60616c-.20281,0-.36723-.28188-.36723-.62934,0-.34727.16442-.62915.36723-.62915s.367.28188.367.62915c0,.34746-.16423.62934-.367.62934Z"/><path class="cls-6" d="M39.32514,23.069c-.20281,0-.36723.28188-.36723.62915,0,.34746.16442.62934.36723.62934s.367-.28188.367-.62934c0-.34727-.16423-.62915-.367-.62915"/><path class="cls-9" d="M38.4236,23.78486h0a1.87587,1.87587,0,0,1,.22924-.49839c.01254-.019.02528-.03668.03858-.05474.02528-.034.05094-.06748.07812-.09751a.99035.99035,0,0,1,.126-.11708c.01654-.01274.03441-.02148.05113-.03251a.701.701,0,0,1,.11709-.06215c.01711-.007.03441-.01388.05189-.01939a.52085.52085,0,0,1,.3486,0c.01749.00551.03479.01235.05189.0192a.71442.71442,0,0,1,.1169.06234c.01711.011.03479.02.05151.0327a.98489.98489,0,0,1,.12583.11689c.02718.03.05284.06349.0785.09789.01293.01768.02567.03536.03821.05417a1.88151,1.88151,0,0,1,.22923.49839V23.785L39.29,19.81682l-.86656,3.968h.00019"/><path d="M27.808,24.5138a2.36051,2.36051,0,0,0-.01521-.23627l-.00057-.00323c-.00912-.07641-.02186-.15187-.03821-.22581l-.00152-.0057q-.02451-.10977-.05949-.21555l-.0019-.00475a2.174,2.174,0,0,0-.08021-.2068l-.0019-.00418c-.03023-.06748-.06368-.13344-.10017-.1973a2.3066,2.3066,0,0,0-1.12412-.98878l-.00665-.00247a2.273,2.273,0,0,0-.41019-.12374l-.01064-.00152a2.252,2.252,0,0,0-.87169-.00114l-.01483.00228a2.27977,2.27977,0,0,0-.40277.12012l-.01026.004a2.27109,2.27109,0,0,0-.37293.19349l-.00133.00057a2.33437,2.33437,0,0,0-.33188.25927l-.00247.00779-.00855.0019a2.32312,2.32312,0,0,0-.41608.53108l-.00418.007c-.03422.06025-.0652.123-.09371.18685l-.00969.02014c-.026.05912-.04847.12032-.06938.18191-.004.01216-.00932.02357-.01312.03554-.01824.05759-.03307.11671-.04714.17582-.00361.01711-.00912.03345-.01273.05037-.01217.05855-.02053.11842-.02832.17848-.00228.01844-.00627.03612-.00818.05456a2.30694,2.30694,0,0,0-.01273.23911,2.2814,2.2814,0,0,0,.04391.44288l.00133.00912a2.25852,2.25852,0,0,0,.12507.41323l.00209.00551a2.3097,2.3097,0,0,0,.99942,1.12792l.00285.00171c.06159.03459.12526.06576.19008.09466l.016.0076c.06006.02623.12221.04885.18475.06995l.03155.01159c.05779.01844.11747.03327.17715.04695.01616.0038.03175.00912.04809.01255.058.012.11766.02014.17773.02794.01805.00209.03592.00627.05436.00817a2.29007,2.29007,0,0,0,1.13019-.16784,2.26194,2.26194,0,0,0,.38928-.21117,2.28861,2.28861,0,0,0,1.01083-1.90077l-.00076-.01577-.00114-.0173Zm-2.29043-.26858a.86114.86114,0,1,1,.86105-.86124.86116.86116,0,0,1-.86105.86124Z"/><path class="cls-6" d="M25.51759,22.52294a.86114.86114,0,1,0,.86105.861.861.861,0,0,0-.86105-.861"/><path class="cls-7" d="M23.94053,22.886h0l.00855-.0019.00247-.00779L25.53033,18.048v-1.13l-.00019-.01274a13.45517,13.45517,0,0,0-2.70859-.27941c-.30888,0-.61528.01312-.91978.03383-.04429.00305-.08877.00571-.13325.00913a13.56372,13.56372,0,0,0-4.59016,1.19292A14.67644,14.67644,0,0,0,13.753,20.0565v.00019l-.00171.00152c-.27789.23608-.54419.48527-.80421.74073-.04866.04752-.09808.09466-.14617.14294q-.36723.37008-.71032.76392c-.04961.05721-.09846.11556-.1475.17335-.2298.27124-.45333.54761-.66565.8331-.01767.02395-.03421.049-.0517.073-.20243.27542-.39517.55807-.58087.84546-.0363.05607-.07356.11139-.1091.168-.15016.23817-.28987.4828-.42863.728h7.19193L23.94053,22.886"/><path class="cls-10" d="M30.01215,22.34274q.02195-.28254.0363-.56509.01966-.38264.027-.76582c.0038-.19825.00323-.39669.00228-.59494,0-.05722.00133-.11443.00076-.17183-.00532-.51093-.02528-1.02242-.05645-1.53449l-.00437-.00285-.0019-.00361-.01616-.00932-.02281-.01311c-.0939-.054-.32465-.18609-.53183-.30374l-.01331-.00761-.14883-.0842-.00266-.00152-.10321-.05779-.02034-.0114c-.03364-.01863-.05968-.03269-.07508-.04087q-.49581-.25718-1.011-.475a17.92881,17.92881,0,0,0-2.54018-.79433V18.048l1.5649,4.83612.00171.004a2.30725,2.30725,0,0,1,.4119.526v.00019c.03649.06386.06994.12982.10017.1973l.0019.00418a2.174,2.174,0,0,1,.08021.2068l.0019.00475q.03478.10578.05949.21555l.00152.0057c.01635.07394.02909.1494.03821.22581l.00057.00323a2.36051,2.36051,0,0,1,.01521.23627l.00589.01292h1.91616a20.9244,20.9244,0,0,0,.27694-2.12524c.00133-.01958.00361-.03916.00514-.05874"/><path class="cls-11" d="M32.51811,20.63282l-.00342.00665.00342-.00646"/><path class="cls-9" d="M23.95155,22.87629h0a2.33437,2.33437,0,0,1,.33188-.25927l.00133-.00057a2.27109,2.27109,0,0,1,.37293-.19349l.01026-.004a2.27977,2.27977,0,0,1,.40277-.12012l.01483-.00228a2.252,2.252,0,0,1,.87169.00114l.01064.00152a2.273,2.273,0,0,1,.41019.12374l.00665.00247a2.30882,2.30882,0,0,1,.71222.46264l-.00171-.004L25.53033,18.048l-1.57878,4.82833"/><path class="cls-8" d="M23.39558,25.4121a2.25852,2.25852,0,0,1-.12507-.41323l-.00133-.00912a2.2814,2.2814,0,0,1-.04391-.44288,2.30694,2.30694,0,0,1,.01273-.23911c.00191-.01844.0059-.03612.00818-.05456.00779-.06006.01615-.11993.02832-.17848.00361-.01692.00912-.03326.01273-.05037.01407-.05911.0289-.11823.04714-.17582l.01312-.03554c.02091-.06159.04334-.12279.06938-.18191l.00969-.02014c.02851-.06387.05949-.1266.09371-.18685l.00418-.007a2.32312,2.32312,0,0,1,.41608-.53108l-6.64147,1.64074h-.01273L23.8645,26.1323a2.30041,2.30041,0,0,1-.46683-.71469l-.00209-.00551"/><path class="cls-10" d="M38.339,24.16786c.00418-.02965.01045-.0574.01559-.0863a2.56145,2.56145,0,0,1,.06177-.2739c.00285-.00988.004-.02109.007-.03079l.86656-3.968-.00019-2.26248a3.53634,3.53634,0,0,0-2.25564-.90457,3.90038,3.90038,0,0,0-2.623,1.23112,9.83461,9.83461,0,0,0-1.82474,2.62648c-.02186.04353-.04429.08534-.066.12906q.21981.19046.4347.38662c.32389.29633.64075.60045.95342.90876.1456.14369.28854.29043.43186.4366.15206.15491.30431.30945.45409.46683q.28883.30364.57232.61281.11946.13.23779.26116c.2279.25223.45466.5056.67762.7624l.00038.00038c.03745.03915.06368.06729.07375.07869H38.3107c0-.01578.00323-.03022.00342-.046a2.6256,2.6256,0,0,1,.0249-.32883"/><path class="cls-10" d="M32.5202,20.6389l-.00209-.00589-.00342.00646.00856.00836-.003-.00893"/><path class="cls-2" d="M8.92885,27.02376,8.94634,26.98c.12583-.329.26363-.65367.40828-.97528.04049-.08953.08211-.17829.12393-.26725.11861-.25242.24406-.50142.37407-.74814.05284-.10036.10454-.2011.15928-.30051.03023-.05493.06444-.10739.09523-.16214.13876-.24519.27847-.48982.42863-.728.03554-.05683.0728-.112.1091-.168.1857-.28739.37844-.57.58087-.84546.01749-.024.034-.049.0517-.073.21232-.28549.43585-.56186.66565-.8331.049-.05779.0977-.11595.1475-.17335q.34329-.39346.71032-.76392c.04828-.04828.09751-.09542.14617-.14294.26-.25546.52632-.50465.80421-.74073l.00171-.00171a8.6666,8.6666,0,0,1,8.58044-5.91176,8.74458,8.74458,0,0,1,4.53447,1.28948A7.40625,7.40625,0,0,1,29.947,18.57276l.011.02186c.01863.03688.03954.07223.05779.10949l.0019.00361.00437.00285a14.67572,14.67572,0,0,1,1.7641,1.28207q.27969.23607.5497.48545c.05931.05436.12032.10606.17886.16138l.00342-.00665.00209-.00457c.02015-.04124.03992-.08325.06026-.12393.55768-3.51965,2.32958-5.43885,4.16078-5.43885,1.38033,0,2.38375.823,3.14158,3.03857l.00779.02376.00191.00266a8.27542,8.27542,0,0,1,.62478.76943l-.00038-.00019.01216.01577-.00019-.00019.00019.00019c.01084.03213.02015.0652.03061.09732V19.0126l-.02852-.11537A17.06656,17.06656,0,0,0,7.29723,24.36079a16.87614,16.87614,0,0,0,.84812,5.31074l.00228-.0097q.16252-.753.38928-1.49457.17677-.57708.39194-1.1435"/><path class="cls-6" d="M40.78607,24.54934l-.59513.66584V25.215l-.00134.00437a2.20573,2.20573,0,0,1-.081.24824c-.008.02072-.01691.0403-.02566.06045a1.7371,1.7371,0,0,1-.0766.15909c-.01463.027-.02908.05436-.04486.07964-.02471.03954-.05132.07546-.07831.11082a1.11681,1.11681,0,0,1-.12317.13666c-.01767.01654-.03478.0346-.05341.04942a.79275.79275,0,0,1-.1034.06938l-.04068.02167a.60839.60839,0,0,1-.268.066c-.54076,0-.97927-.75119-.97927-1.678H36.35044l.00114.00152q.54743.63182,1.07716,1.27922l.01274.01558q.51578.62954,1.01767,1.26952l.04942.06254q.47672.60786.94354,1.22219c.03022.03935.06063.07888.09086.11861q.4941.65005.97984,1.303l.00684.00913a17.03,17.03,0,0,0,.89488-5.28128l-.55236-.02091-.0861.02756"/><path d="M21.76852,16.66877c.04448-.00342.089-.00608.13325-.00913.3045-.02071.6109-.03383.91978-.03383a13.45517,13.45517,0,0,1,2.70859.27941h.00019a17.92881,17.92881,0,0,1,2.54018.79433q.51463.21726,1.011.475l.07508.04087.02034.0114c.0306.01711.064.03555.10321.05779l.00266.00152c.046.026.09618.05455.14883.0842l.01331.00761c.21022.11917.44287.2528.53183.30374l.02281.01311.01616.00932c-.01825-.03726-.03916-.07261-.05779-.10949l-.011-.02186a8.88379,8.88379,0,0,0-3.26438-3.554A8.7014,8.7014,0,0,0,13.753,20.0565a14.67644,14.67644,0,0,1,3.42537-2.19481,13.56372,13.56372,0,0,1,4.59016-1.19292"/><path class="cls-7" d="M40.52908,18.91547l-.00019-.00019.00019.00019-.01216-.01577.00038.00019a8.27542,8.27542,0,0,0-.62478-.76943l-.00171-.00228.00171.00228L39.887,18.1238c-.09731-.1053-.1952-.20585-.2948-.30127-.03745-.03592-.07622-.06728-.114-.10169-.06254-.05683-.12469-.11557-.18818-.16765v2.26363l.86656,3.96842V23.785c.00951.03079.02091.05968.02928.09161l.60026.67268.00589-.00665h.6282c.00076-.05816.00437-.11557.00437-.17392v-.001a17.0304,17.0304,0,0,0-.86484-5.35522v.00019c-.01046-.03212-.01977-.06519-.03061-.09732"/><path d="M34.41109,17.8729a3.90038,3.90038,0,0,1,2.623-1.23112,3.53634,3.53634,0,0,1,2.25564.90457l.00019.00684v0c.06349.05208.12564.11082.18818.16765.03783.03441.0766.06577.114.10169.0996.09542.19749.196.2948.30127l.00552.00666-.00171-.00228-.0002-.00019-.00779-.02395c-.75783-2.21554-1.9806-3.655-3.36055-3.655-1.83139,0-3.38413,2.53562-3.94181,6.05527l.00589-.00494a9.83461,9.83461,0,0,1,1.82474-2.62648"/><path d="M31.93648,39.50476a4.71379,4.71379,0,0,1-.55959-.5556c-.07337-.08439-.149-.17467-.22771-.27751-.05911-.077-.119-.15928-.17886-.24652q-.05988-.08726-.1188-.181a5.7427,5.7427,0,0,1-.317-.64036,3.70386,3.70386,0,0,1-.19008-.67725,4.783,4.783,0,0,1-.12108-.54419,4.68147,4.68147,0,0,1-.05759-.89868,4.88507,4.88507,0,0,1,.04923-.536,5.26069,5.26069,0,0,1,.10587-.53962,6.47571,6.47571,0,0,1,.74871-1.75992l.09466-.21251c.12165-.20262.14864-.19369.2642-.3889,1.62782-2.74717,2.506-4.82452,2.0764-8.02313-.03079-.22828-.11461-.73978-.16042-.98-.02433.16612-.11614.69549-.1188.70689a1.74467,1.74467,0,0,1-.07717.20186,14.47611,14.47611,0,0,1-3.42176,5.37043c-.21707.2355-.4444.47443-.677.71564-.39156.40581-.80213.82037-1.23645,1.2526q-.26.2586-.52994.52556c-.16517.16347-.37065.513-.61584.77057-.1513.42368-.32332.90153-.46873,1.4041-.06558-.0249-.12811-.04714-.19483-.073A22.773,22.773,0,0,1,20.80959,31.107a22.77545,22.77545,0,0,0,4.30295,4.04578,8.757,8.757,0,0,0,.77152.49952c-.11138,1.76315.66641,3.45578,4.17732,3.96062a7.12778,7.12778,0,0,0,1.81371.01236c-.00609-.01825.03421-.01787.031-.02794-.00342-.01027.03269-.03726.03269-.03726"/><path class="cls-12" d="M30.05852,34.9663a21.70692,21.70692,0,0,0,12.51864-1.82169c.11537-.054.24254.08819.35791.03155A29.75822,29.75822,0,0,1,35.75341,38.409c-.11424.05512-.227.11385-.34233.16632-.37768.17259-.76183.32294-1.14749.46169a10.75025,10.75025,0,0,1-2.28358.57327c-.035.00456-.06995.01122-.10492.015l-.01426-.04315-.00513-.01577a4.7179,4.7179,0,0,1-.55978-.55579c-.07337-.08439-.149-.17468-.22752-.27751-.05911-.077-.119-.15928-.17886-.24653q-.05988-.08724-.119-.18095a5.44731,5.44731,0,0,1-.33739-.61927,4.99765,4.99765,0,0,1-.27124-.72933,4.7017,4.7017,0,0,1-.17886-1.44287,4.88328,4.88328,0,0,1,.04923-.536l.02623-.01178"/><path class="cls-11" d="M27.82455,31.41776c.43452-.43223.84508-.84679,1.23664-1.2526.23247-.24121.46-.48014.67705-.71564a14.96914,14.96914,0,0,0,3.4843-5.45767c.01653-.04961.03326-.115.04942-.18856l.0076-.034c.01654-.07812.0327-.165.04885-.26288.00646-.06747.218-.20357.22391-.26686A8.31068,8.31068,0,0,0,32.5202,20.6389l.003.00893-.00856-.00836c-.05854-.05532-.11955-.107-.17886-.16138q-.27-.24947-.5497-.48545a14.69084,14.69084,0,0,0-1.7641-1.28207c.03117.51207.05113,1.02356.05645,1.53449.00076.0574-.00076.11461-.00076.17183.00095.19825.00152.39669-.00228.59494q-.00741.3829-.027.76582-.01453.28282-.0363.56509c-.00153.01958-.00381.03916-.00514.05874a20.9244,20.9244,0,0,1-.27694,2.12524L29.505,25.591a33.9112,33.9112,0,0,1-2.20983,5.41909c-.20813.47329-.40562.9519-.57878,1.43945l-.049.13761c.24519-.25755.46226-.48032.62725-.64379q.27-.26715.52993-.52556"/><path class="cls-2" d="M17.52468,41.66726a15.641,15.641,0,0,1,3.45559-1.07013c-.00722-.27276-.01957-.54476-.04257-.815q.80715-2.09388,1.48412-4.21362a21.44127,21.44127,0,0,0-2.38242.36818c-.583.12374-1.15814.27923-1.72856.45105-.45828.138-.91047.29652-1.359.46512l1.77361.42957-1.4271,4.47935.22638-.09447"/><path class="cls-13" d="M39.45211,28.39326q-.46731-.61356-.94354-1.22219l-.04942-.06254q-.50267-.63951-1.01767-1.26952l-.01274-.01558q-.53059-.64665-1.07716-1.27922c-.023-.0268-.046-.054-.06938-.08059-.223-.2568-.44972-.51017-.67762-.7624q-.11834-.13086-.23779-.26116-.28339-.30936-.57232-.61281c-.15-.15719-.30184-.31211-.45409-.46683-.14332-.14617-.28626-.29291-.43186-.4366-.31286-.30812-.62953-.61243-.95342-.90876q-.215-.19644-.4349-.38681l-.00209.00457a19.499,19.499,0,0,1,.83634,2.70745q.06872.36066.11443.70271c.42957,3.19842-.59532,5.28679-2.22295,8.034q-.17535.29538-.359.6014a6.4881,6.4881,0,0,0-.74872,1.76011,5.315,5.315,0,0,0-.10587.53962,21.4524,21.4524,0,0,0,12.90278-1.80192s-.96312-1.4155-2.41226-3.36132q-.48612-.65262-.97984-1.303c-.03-.03973-.06064-.07926-.09086-.11861"/><path class="cls-3" d="M17.12875,42.56233l1.59665-5.27995-1.77361-.42957c-.39726.14921-.79091.3083-1.17942.48128l-1.58125,5.22824,1.76524.02756,1.17239-.02756"/><path class="cls-6" d="M18.25115,40.278c.15587.05987.31439.11386.47253.16917a17.05141,17.05141,0,0,0,12.01019-.2758c.10416-.04182.20623-.08782.30925-.13173q.25091-.10691.49781-.22067c.14712-.06843.29424-.13629.43908-.20871-.035.00456-.06995.01122-.10492.015a7.12778,7.12778,0,0,1-1.81371-.01236c-3.51091-.50484-4.2887-2.19747-4.17732-3.96062a8.757,8.757,0,0,1-.77152-.49952A22.77545,22.77545,0,0,1,20.80959,31.107a22.773,22.773,0,0,0,5.19422,2.81123c.06672.02585.12925.04809.19483.073.14541-.50257.31743-.98042.46873-1.4041l.049-.13761c.17316-.48755.37065-.96616.57878-1.43945A33.9112,33.9112,0,0,0,29.505,25.591l.22505-1.06424H27.80992l-.00019.00019.00019.00381-.00076.00038.00076.01577a2.29127,2.29127,0,0,1-1.01083,1.90077,2.28521,2.28521,0,0,1-1.2815.39155,2.288,2.288,0,0,1-.238-.01254c-.01844-.0019-.03612-.00589-.05436-.00817-.06007-.0078-.11975-.016-.17773-.02794-.01634-.00361-.03193-.00875-.04809-.01255-.05968-.01368-.11936-.02851-.17715-.04695l-.03155-.01159c-.06254-.0211-.12469-.04372-.18475-.06995l-.016-.0076c-.06482-.0289-.12849-.06007-.19008-.09466l-.00285-.00171a2.31432,2.31432,0,0,1-.53259-.41323l-6.57817-1.60558h-7.1792c-.03079.05475-.065.10721-.09523.16214-.05474.09941-.10644.20034-.15928.30051-.13.24672-.25546.49572-.37407.74814-.04182.08877-.08344.17772-.12393.26725-.14465.32161-.28245.64626-.40828.97528l-.01749.04372q-.2147.56567-.39194,1.1435-.22667.74045-.38928,1.49457A17.10609,17.10609,0,0,0,14.35135,38.159c.08364.06063.17183.11461.25661.17392a17.06861,17.06861,0,0,0,1.50977.94639,16.88772,16.88772,0,0,0,2.13342.99866"/><path class="cls-14" d="M35.46449,44.35893c-.04409-.45352-.07147-.91084-.07147-1.37311a.50347.50347,0,0,0-.50332-.50351H13.76991a.50363.50363,0,0,0-.50351.50351c0,.46227-.02718.91959-.07147,1.37311a13.93032,13.93032,0,0,1-.2279,1.48413c.30621.16194.61489.31951.9289.46891a14.92765,14.92765,0,0,0,.36723-2.78994l.00209-.0327H34.39436l.0019.0327a14.94278,14.94278,0,0,0,.36742,2.78994c.314-.1494.62269-.307.9289-.46891a13.97922,13.97922,0,0,1-.22809-1.48413"/><path class="cls-15" d="M19.17773,54.09966V66.55753H17.11312V56.164L15.031,57.26754l-.87213-1.51285,3.13215-1.655Z"/><path class="cls-15" d="M22.71819,64.13708A1.31706,1.31706,0,1,1,21.40125,65.454,1.292,1.292,0,0,1,22.71819,64.13708Z"/><path class="cls-15" d="M33.57375,54.09966v1.72625L29.12441,66.55753h-2.3135L31.26,55.91487h-5.4459V54.09966Z"/></g></g></svg>