<svg xmlns="http://www.w3.org/2000/svg" xmlns:xlink="http://www.w3.org/1999/xlink" viewBox="0 0 46.81876 47.33582"><defs><style>.cls-1{fill:url(#linear-gradient);}.cls-2{fill:url(#linear-gradient-2);}</style><linearGradient id="linear-gradient" x1="-451.67537" y1="-1873.30763" x2="-405.76005" y2="-1912.81159" gradientTransform="matrix(0.56254, 0, 0, -0.56797, 252.93734, -1062.63841)" gradientUnits="userSpaceOnUse"><stop offset="0" stop-color="#5a9fd4"/><stop offset="1" stop-color="#306998"/></linearGradient><linearGradient id="linear-gradient-2" x1="-388.00889" y1="-1936.72103" x2="-404.40522" y2="-1913.52305" gradientTransform="matrix(0.56254, 0, 0, -0.56797, 252.93734, -1062.63841)" gradientUnits="userSpaceOnUse"><stop offset="0" stop-color="#ffd43b"/><stop offset="1" stop-color="#ffe873"/></linearGradient></defs><title>Asset 56</title><g id="Layer_2" data-name="Layer 2"><g id="Section_1" data-name="Section 1"><path id="path1948" class="cls-1" d="M23.13061.00039a32.2448,32.2448,0,0,0-5.39635.46066c-4.77878.84425-5.64642,2.61135-5.64643,5.87017v4.30392H23.38068v1.43464H7.84973A7.051,7.051,0,0,0,.795,17.79517a21.10838,21.10838,0,0,0,0,11.47712c.80273,3.34325,2.71978,5.72539,6.00179,5.72539h3.88274V29.83824A7.17643,7.17643,0,0,1,17.73426,22.823H29.01394a5.68947,5.68947,0,0,0,5.64642-5.73855V6.33122c0-3.06042-2.58181-5.3594-5.64642-5.87017A35.22248,35.22248,0,0,0,23.13061.00039ZM17.02352,3.462a2.15221,2.15221,0,1,1-2.11906,2.15854A2.14266,2.14266,0,0,1,17.02352,3.462Z"/><path id="path1950" class="cls-2" d="M36.06868,12.06978v5.01466a7.243,7.243,0,0,1-7.05474,7.16H17.73426A5.76077,5.76077,0,0,0,12.08783,29.983V40.73623c0,3.06043,2.66126,4.86054,5.64643,5.73856a18.89363,18.89363,0,0,0,11.27968,0c2.843-.82315,5.64643-2.47973,5.64642-5.73856V36.43232H23.38068V34.99768H40.30679c3.282,0,4.505-2.28928,5.64642-5.72539,1.179-3.53743,1.12885-6.93925,0-11.47712-.8111-3.26726-2.36023-5.72539-5.64642-5.72539Zm-6.344,27.23182a2.15221,2.15221,0,1,1-2.119,2.14537A2.13127,2.13127,0,0,1,29.72468,39.3016Z"/></g></g></svg>