<?xml version="1.0" encoding="utf-8"?>
<!-- Generator: Adobe Illustrator 24.1.2, SVG Export Plug-In . SVG Version: 6.00 Build 0)  -->
<svg version="1.1" id="Layer_1" xmlns="http://www.w3.org/2000/svg" xmlns:xlink="http://www.w3.org/1999/xlink" x="0px" y="0px"
	 viewBox="0 0 50 47.06245" style="enable-background:new 0 0 50 47.06245;" xml:space="preserve">
<style type="text/css">
	.st0{fill:#D30000;}
</style>
<g id="rEs21w.tif">
	<g>
		<path class="st0" d="M44.20875,9.8114c-1.35265-0.19759-2.58662-0.40792-3.82817-0.55357
			c-3.74706-0.43958-7.50111-0.71061-11.23529,0.07121c-0.8987,0.18816-1.79597,0.50204-2.61891,0.90953
			c-1.97098,0.97595-2.68666,2.66477-2.17601,4.79803c0.54406,2.2728,1.87118,4.00649,3.83297,5.17141
			c1.85313,1.1004,3.79964,2.05467,5.75083,2.97637c3.30801,1.56265,6.42766,3.42225,9.22297,5.77992
			c2.49889,2.10766,2.80231,3.98843,1.18874,6.85056c-3.31307,5.87668-8.39806,9.46683-14.92243,10.73541
			c-9.38566,1.82493-17.1075-1.26614-23.14026-8.64606c-0.14979-0.18324-0.2769-0.38503-0.47006-0.65599
			c1.35834,0.19915,2.60836,0.4157,3.86664,0.56064c3.72697,0.42929,7.46153,0.7068,11.17524-0.07359
			c0.9178-0.19287,1.8347-0.51237,2.67446-0.92969c1.9446-0.96638,2.65388-2.63953,2.15695-4.7517
			c-0.54045-2.29713-1.88135-4.04257-3.86562-5.21681c-1.83764-1.08746-3.76354-2.03705-5.69707-2.94873
			c-3.32764-1.56901-6.46513-3.43739-9.27359-5.81185c-2.46856-2.08708-2.77383-3.97087-1.18007-6.80421
			c3.31866-5.89981,8.41683-9.50006,14.96728-10.76619c9.39012-1.815,17.10435,1.29183,23.13009,8.67417
			C43.90557,9.34953,44.01923,9.53878,44.20875,9.8114z"/>
		<path class="st0" d="M16.1234,36.72774c-3.44074-0.39228-6.91974-0.58829-10.2822-1.5484
			c-1.61378-0.4608-3.08573-1.19781-4.15976-2.56996c-0.71827-0.91764-0.88504-2.02352-1.12087-3.10483
			c-0.87149-3.99599-0.75276-7.95044,0.53869-11.84981c0.04443-0.13415,0.06048-0.2899,0.14108-0.39693
			c0.11267-0.14959,0.27869-0.37109,0.41278-0.36489c0.17898,0.00828,0.45368,0.1695,0.50788,0.32684
			c1.22668,3.56059,4.12549,5.461,7.19334,7.12006c2.3959,1.29567,4.89886,2.39406,7.35955,3.56899
			c1.86418,0.8901,3.71403,1.80658,5.27449,3.18919c0.43404,0.38457,0.83579,0.8342,1.14892,1.32057
			c0.62457,0.97012,0.44433,1.90541-0.45089,2.63729c-0.97158,0.7943-2.14916,1.11847-3.34691,1.32145
			C18.28662,36.55575,17.21332,36.61383,16.1234,36.72774z"/>
		<path class="st0" d="M33.90015,10.42379c3.54257,0.20024,7.03401,0.69744,10.37976,1.94306
			c0.64067,0.23852,1.25866,0.55446,1.85588,0.89023c1.95068,1.09675,2.92229,2.79474,3.35622,4.98864
			c0.7548,3.81627,0.75451,7.55008-0.59039,11.23115c-0.09861,0.26988-0.35514,0.48207-0.53825,0.72108
			c-0.21131-0.23465-0.51511-0.43431-0.61924-0.70951c-0.80054-2.11579-2.31731-3.6243-4.09121-4.91979
			c-2.38237-1.73987-5.0549-2.94838-7.69924-4.21486c-2.11142-1.01124-4.22101-2.03764-6.25874-3.18624
			c-0.91419-0.51529-1.73973-1.26547-2.44798-2.05107c-1.18424-1.31359-0.89882-2.62398,0.65392-3.49561
			c1.50127-0.84273,3.16581-1.06235,4.84576-1.19272C33.12896,10.39849,33.51554,10.42379,33.90015,10.42379z"/>
	</g>
</g>
</svg>
