<svg xmlns="http://www.w3.org/2000/svg" viewBox="0 0 48.45912 63.62402"><defs><style>.cls-1,.cls-2{fill:#189eff;}.cls-2{font-size:18px;font-family:Montserrat-Bold, Montserrat;font-weight:700;}</style></defs><title>Asset 37</title><g id="Layer_2" data-name="Layer 2"><g id="Section_1" data-name="Section 1"><g id="_Gruppe_3" data-name=" Gruppe 3"><path id="_Pfad_2" data-name=" Pfad 2" class="cls-1" d="M38.6389,43.15612c-2.10054-1.58532-5.20953-2.79192-8.49466-4.06458-3.91046-1.51486-8.367-3.2367-11.67412-5.8833A14.00218,14.00218,0,0,1,12.86426,21.631,13.09649,13.09649,0,0,1,18.021,11.00937C21.8037,8.03249,27.53727,6.456,34.59634,6.456a40.82131,40.82131,0,0,1,5.53981.3567.34789.34789,0,0,0,.27743-.6033,24.20187,24.20187,0,1,0-1.77908,37.506.34785.34785,0,0,0,.14092-.27742A.35229.35229,0,0,0,38.6389,43.15612Z"/><path id="_Pfad_3" data-name=" Pfad 3" class="cls-1" d="M48.35339,21.99211a.35234.35234,0,0,0-.1233-.2378c-5.05541-4.19669-9.14642-5.90091-14.11815-5.90091a9.83016,9.83016,0,0,0-6.04183,1.58092,4.47412,4.47412,0,0,0-1.7967,3.65944c0,4.16147,5.08624,6.05945,10.97834,8.25687a66.72953,66.72953,0,0,1,9.05393,3.90165.33031.33031,0,0,0,.16734.044.37894.37894,0,0,0,.1189-.022.34793.34793,0,0,0,.207-.20257,24.18059,24.18059,0,0,0,1.66019-8.85137C48.45467,23.51578,48.42825,22.76275,48.35339,21.99211Z"/></g><text class="cls-2" transform="translate(37.37202 58.83612)">5</text></g></g></svg>