<svg xmlns="http://www.w3.org/2000/svg" viewBox="0 0 46.85731 53.28659"><defs><style>.cls-1{fill:#95bf46;}.cls-2{fill:#5e8e3e;}.cls-3{fill:#fff;}</style></defs><title>Asset 45</title><g id="Layer_2" data-name="Layer 2"><g id="Section_1" data-name="Section 1"><path class="cls-1" d="M41.04032,10.37509a.515.515,0,0,0-.46537-.43235c-.19352-.01614-4.28919-.31972-4.28919-.31972s-2.84448-2.82393-3.15668-3.1365a1.29451,1.29451,0,0,0-1.15929-.14766c-.03485.01027-.62146.19131-1.59182.49159-.95017-2.73423-2.62711-5.24688-5.57724-5.24688-.08145,0-.16528.0033-.2491.00807A3.585,3.585,0,0,0,21.77557,0C14.90329,0,11.62,8.591,10.59062,12.95671c-2.6704.82746-4.56745,1.41573-4.80976,1.49185-1.49057.46757-1.53771.51453-1.73344,1.91907C3.90013,17.431,0,47.5925,0,47.5925l30.39063,5.69409,16.46668-3.56225S41.07682,10.6429,41.0405,10.37509Zm-12.342-3.02516-2.57153.79591c.00091-.18123.00183-.35952.00183-.55451a12.61361,12.61361,0,0,0-.61431-4.15217C27.03438,3.62993,28.04674,5.35951,28.69829,7.34993ZM23.6286,3.77613A12.74768,12.74768,0,0,1,24.326,8.40558c0,.10493-.00092.20086-.00184.2979-1.67235.518-3.48961,1.08041-5.3109,1.64465,1.02263-3.94672,2.93949-5.85295,4.61533-6.572ZM21.58682,1.84331a1.55208,1.55208,0,0,1,.88139.29752C20.26574,3.17722,17.905,5.78746,16.908,11L12.71,12.30021c1.16772-3.97589,3.94048-10.4569,8.87663-10.4569Z"/><path class="cls-2" d="M40.575,9.94274c-.19352-.01614-4.28919-.31972-4.28919-.31972s-2.84448-2.82393-3.15668-3.1365A.77964.77964,0,0,0,32.69,6.28493L30.3921,53.28623l16.46521-3.56188s-5.78067-39.08145-5.817-39.34926a.515.515,0,0,0-.46537-.43235"/><path class="cls-3" d="M24.80073,19.04133,22.77032,25.081a9.34,9.34,0,0,0-3.95956-.94944c-3.19685,0-3.35772,2.00619-3.35772,2.51173,0,2.75845,7.19053,3.81538,7.19053,10.27659,0,5.08345-3.22418,8.35679-7.57152,8.35679a10.53379,10.53379,0,0,1-7.88464-3.24675l1.39684-4.61514s2.7423,2.35435,5.0563,2.35435a2.03981,2.03981,0,0,0,2.12707-2.06031c0-3.5982-5.89917-3.7587-5.89917-9.67126,0-4.97633,3.57179-9.792,10.78176-9.792a8.87028,8.87028,0,0,1,4.15052.79572"/></g></g></svg>