<svg xmlns="http://www.w3.org/2000/svg" viewBox="0 0 49.18708 52.89281"><defs><style>.cls-1{fill:#c2e3f2;}.cls-2{fill:#8dcee1;}</style></defs><title>Asset 50</title><g id="Layer_2" data-name="Layer 2"><g id="Section_1" data-name="Section 1"><polygon class="cls-1" points="49.187 0 49.187 25.294 26.092 0 49.187 0"/><polygon class="cls-1" points="0 27.322 23.348 52.893 0 52.893 0 27.322"/><path class="cls-2" d="M48.63479,46.59715a9.38438,9.38438,0,0,1-2.48538,3.77805,9.2844,9.2844,0,0,1-1.7989,1.30733c-.25311.144-.51006.27237-.77094.38909a10.009,10.009,0,0,1-1.212.43188c-.2723.07782-.54845.14007-.82468.19454-.19552.035-.395.06227-.59059.08562h-.00384a8.46907,8.46907,0,0,1-1.08546.06613c-.16106,0-.31838-.00389-.4756-.01168-.10356-.00777-.20713-.01166-.31069-.01945-.09973-.01166-.2033-.02334-.30686-.035-.10731-.01169-.21472-.02724-.32212-.04282a9.52421,9.52421,0,0,1-1.39232-.32682q-.45439-.14591-.89745-.33851c-.11124-.05058-.21864-.10116-.32989-.15175-.21481-.10506-.42952-.22178-.63665-.3424-.10741-.06224-.211-.12451-.31454-.19065l-.00384-.00389a7.45866,7.45866,0,0,1-.629-.44744c-.11508-.08561-.23017-.17509-.34525-.27626a7.3345,7.3345,0,0,1-.57532-.52526c-.11883-.12064-.23775-.24125-.35283-.36964L2.44031,15.84365A9.54376,9.54376,0,0,1,.16974,7.68059a9.42405,9.42405,0,0,1,2.86893-5.206A9.28247,9.28247,0,0,1,4.83748,1.16726c.2532-.144.51015-.27236.77094-.38908A9.44466,9.44466,0,0,1,7.23081.24123C7.50705.17507,7.787.12449,8.06317.08559A9.1253,9.1253,0,0,1,9.325,0c.16116,0,.31838.00387.47569.01166.31444.01556.629.05058.93967.09727a9.40826,9.40826,0,0,1,1.39224.32685,8.27117,8.27117,0,0,1,.89369.3385h.00384c.1457.06224.2915.13228.43336.20231.1458.07393.28766.14786.42962.22957a9.42664,9.42664,0,0,1,2.32048,1.87541L46.74768,37.00615a9.421,9.421,0,0,1,1.88711,3.17105A9.60459,9.60459,0,0,1,48.63479,46.59715Z"/></g></g></svg>