<svg xmlns="http://www.w3.org/2000/svg" viewBox="0 0 46.62497 35.5476"><defs><style>.cls-1{fill:#ed2c00;}</style></defs><title>Asset 44</title><g id="Layer_2" data-name="Layer 2"><g id="Section_1" data-name="Section 1"><path class="cls-1" d="M.39386,34.07051l.64006-6.05585A18.41987,18.41987,0,0,0,9.10846,29.984c3.64336,0,6.2528-1.52626,6.2528-4.28339,0-2.60944-1.42778-3.988-6.6467-5.90817C2.60944,17.5768,0,14.81967,0,9.94543,0,3.84032,4.97272,0,12.30871,0a25.60149,25.60149,0,0,1,8.3207,1.23088l-.5416,5.61278a18.20133,18.20133,0,0,0-6.99134-1.47709C9.4531,5.36657,7.139,6.89283,7.139,9.25615c0,2.11711,1.1324,3.44641,6.20359,5.26814,6.40054,2.2648,9.10846,5.21888,9.10846,10.29007,0,6.59745-5.02193,10.73324-12.94878,10.73324A27.39614,27.39614,0,0,1,.39386,34.07051Z"/><path class="cls-1" d="M27.42339.59076H46.625V6.35123H34.36547v8.66539H45.98494v5.61279H34.36547V34.95675H27.42339Z"/></g></g></svg>