<svg xmlns="http://www.w3.org/2000/svg" viewBox="0 0 49.18708 49.18708"><defs><style>.cls-1{fill:#4479bc;}.cls-2{fill:#fff;}</style></defs><title>Asset 39</title><g id="Layer_2" data-name="Layer 2"><g id="Section_1" data-name="Section 1"><circle class="cls-1" cx="24.59354" cy="24.59354" r="24.59354"/><g id="_6dZhlH.tif" data-name="6dZhlH.tif"><path class="cls-2" d="M39.93418,8.41723c-.40181.451-.71346.8107-1.03566,1.16071a10.63642,10.63642,0,0,0-2.72385,6.82016c-.22744,3.59438-.49873,7.18887-1.03895,10.75493a12.78284,12.78284,0,0,1-.91076,3.23978.948.948,0,0,0,.07939,1.01793,3.244,3.244,0,0,1,.00586,3.52781,1.32911,1.32911,0,0,1-2.39391.03069c-.53529-.83173-.5379-.83569-1.3776-.28283-.93966.61868-1.86153,1.26545-2.81574,1.86056a1.09609,1.09609,0,0,0-.57228,1.25633,3.53081,3.53081,0,0,1-.64446,2.74084c-.84185,1.14044-2.20926,1.134-2.73726-.16739-.4515-1.11281-1.00493-1.1372-2.0267-.9904a29.25112,29.25112,0,0,1-7.21273-.01359.74288.74288,0,0,0-.89985.49652,1.37426,1.37426,0,0,1-2.51674.16674,2.91867,2.91867,0,0,1-.47374-1.28057,4.12634,4.12634,0,0,0-.1476-1.01888c-.43029-1.03105.00514-1.64608.81927-2.26526a22.07979,22.07979,0,0,1,4.69723-2.71377A11.46746,11.46746,0,0,0,18.371,31.4923a5.02533,5.02533,0,0,0,.70633-.64907c.1504-.16488.33068-.37457.2334-.61208-.11078-.27049-.39561-.17658-.61269-.17395a21.64659,21.64659,0,0,1-4.25487-.23966A3.7515,3.7515,0,0,1,11.44389,27.482,24.32035,24.32035,0,0,1,9.3873,19.66405a3.47371,3.47371,0,0,1,1.09694-2.78083A15.43179,15.43179,0,0,1,16.237,13.45906a27.89556,27.89556,0,0,1,4.0149-1.22722,1.11882,1.11882,0,0,0,.91609-.80691,5.04237,5.04237,0,0,1,1.41944-2.24472,3.048,3.048,0,0,1,2.06521-.81853q7.40523-.00549,14.81046-.00308C39.57451,8.35862,39.6859,8.38539,39.93418,8.41723ZM21.40061,18.3151c-.30042-.21144-.26581-.46109-.306-.67859-.15851-.85764-.33342-1.71323-.45638-2.57611-.07958-.5584-.35229-.68506-.85229-.53778-.81423.23984-1.64682.425-2.44641.70526a9.21425,9.21425,0,0,0-4.24314,2.70639c-.50813.615-.45345.82358.31275,1.02442a13.72882,13.72882,0,0,0,4.711.3303A56.66731,56.66731,0,0,0,33.21,15.41565a.74785.74785,0,0,0,.558-.63323,11.70253,11.70253,0,0,1,1.07513-3.39978c.294-.686.25775-.74234-.47968-.74331q-4.68371-.00618-9.36742.00024a2.63131,2.63131,0,0,0-.41223.0208c-.43935.07019-.95961.70307-.86423,1.09317.12044.49262.55494.31727.86321.31962q3.13379.02384,6.26782.00343a2.12132,2.12132,0,0,1,1.93829,1.08894c.14215.22881.37092.47733.20733.752-.14708.247-.45981.151-.70209.15173-2.31888.00675-4.63809-.01879-6.95661.011-2.4857.032-1.82327-.411-2.87335,1.86577C22.10463,16.72549,21.76059,17.512,21.40061,18.3151Zm-3.2634,18.61895a12.968,12.968,0,0,0,3.49128-.25852,20.06808,20.06808,0,0,0,8.63374-5.30189,3.62019,3.62019,0,0,0,.9134-2.33075c.03494-.40483-.09466-.62874-.55579-.4842a32.05815,32.05815,0,0,1-7.6557,1.23382c-.40272.0251-.53079.25067-.63162.59416a10.89567,10.89567,0,0,0-.74829,3.17637,1.1438,1.1438,0,0,1-.88216,1.18227c-.60988.15558-.93908-.2436-1.20342-.69861a.48215.48215,0,0,0-.685-.24761,32.51649,32.51649,0,0,0-4.22634,1.99706c-.20577.12587-.51719.23346-.47064.5302.05241.33411.404.33931.66119.39138A17.49188,17.49188,0,0,0,18.13721,36.93405Z"/></g></g></g></svg>