<svg xmlns="http://www.w3.org/2000/svg" viewBox="0 0 47.41501 28.224"><defs><style>.cls-1{fill:#9b5c8f;}.cls-2{fill:#fff;}</style></defs><title>Asset 31</title><g id="Layer_2" data-name="Layer 2"><g id="Section_1" data-name="Section 1"><path class="cls-1" d="M4.40048,0H42.99523A4.41769,4.41769,0,0,1,47.415,4.41979V19.152a4.4177,4.4177,0,0,1-4.41978,4.41979H29.15466L31.05441,28.224l-8.35486-4.65223H4.41974A4.41766,4.41766,0,0,1,.00014,19.152V4.41979A4.401,4.401,0,0,1,4.40048,0Z"/><path class="cls-2" d="M2.7,4.02843a1.55077,1.55077,0,0,1,1.21427-.59751A1.40781,1.40781,0,0,1,5.59123,4.81856q.89625,6.04263,1.94661,10.23479l4.221-8.0374a1.82984,1.82984,0,0,1,1.44579-1.15649c.8481-.05778,1.36837.48175,1.58044,1.619a36.01812,36.01812,0,0,0,1.831,6.5918q.75178-7.3434,2.5443-10.60078a1.48059,1.48059,0,0,1,1.27205-.84829,1.67534,1.67534,0,0,1,1.21427.38562,1.50965,1.50965,0,0,1,.5975,1.0987,1.67354,1.67354,0,0,1-.19262.92515,23.32984,23.32984,0,0,0-1.86975,6.958,35.91049,35.91049,0,0,0-.53971,7.34378,2.28771,2.28771,0,0,1-.23115,1.27206,1.24244,1.24244,0,0,1-1.02165.69381,1.93759,1.93759,0,0,1-1.52265-.71308,19.08309,19.08309,0,0,1-4.25958-8.211q-1.87947,3.70059-2.77563,5.5509C8.69432,20.10325,7.73065,21.2212,6.92107,21.279c-.52045.03853-.96367-.40488-1.34911-1.32984Q4.09757,16.16159,2.39182,5.31975A1.64089,1.64089,0,0,1,2.7,4.02843Zm41.42076,3.026A4.43937,4.43937,0,0,0,41.037,4.81855,5.06354,5.06354,0,0,0,39.996,4.703a5.19722,5.19722,0,0,0-4.52943,2.89121,10.21144,10.21144,0,0,0-1.50339,5.43532,7.46338,7.46338,0,0,0,.92514,3.81636,4.43861,4.43861,0,0,0,3.08383,2.23573,5.04994,5.04994,0,0,0,1.04091.11576,5.15376,5.15376,0,0,0,4.52944-2.89121,10.32916,10.32916,0,0,0,1.50339-5.45458,7.11281,7.11281,0,0,0-.92515-3.7971Zm-2.42854,5.339a5.0981,5.0981,0,0,1-1.465,2.8525,1.85251,1.85251,0,0,1-1.561.61677c-.46267-.09632-.84829-.501-1.13722-1.2528a4.88692,4.88692,0,0,1-.34691-1.754,6.70587,6.70587,0,0,1,.13483-1.40689,6.23474,6.23474,0,0,1,1.02147-2.2937c.63621-.9446,1.31076-1.32985,2.00458-1.195.46266.09631.84828.50119,1.13722,1.25279a4.891,4.891,0,0,1,.34691,1.754,6.76465,6.76465,0,0,1-.13484,1.42616Zm-9.6373-5.339a4.4793,4.4793,0,0,0-3.08383-2.23591,5.06153,5.06153,0,0,0-1.0409-.11558,5.19726,5.19726,0,0,0-4.52944,2.89121,10.21314,10.21314,0,0,0-1.50339,5.43532,7.46325,7.46325,0,0,0,.92515,3.81636,4.43859,4.43859,0,0,0,3.08383,2.23573,5.05127,5.05127,0,0,0,1.04091.11576,5.15373,5.15373,0,0,0,4.52943-2.89121,10.32735,10.32735,0,0,0,1.50339-5.45458,7.29284,7.29284,0,0,0-.92514-3.7971Zm-2.4478,5.339a5.09913,5.09913,0,0,1-1.46486,2.8525,1.85319,1.85319,0,0,1-1.56137.61677c-.46248-.09632-.84791-.501-1.13722-1.2528a4.89449,4.89449,0,0,1-.34672-1.754,6.7052,6.7052,0,0,1,.13484-1.40689,6.23192,6.23192,0,0,1,1.02165-2.2937c.636-.9446,1.31058-1.32985,2.00439-1.195.46267.09631.84829.50119,1.13722,1.25279a4.887,4.887,0,0,1,.34691,1.754,5.6864,5.6864,0,0,1-.13483,1.42616Z"/></g></g></svg>