<svg xmlns="http://www.w3.org/2000/svg" viewBox="0 0 47.82308 47.82308"><defs><style>.cls-1{fill:#f29221;}.cls-2{fill:#fff;}.cls-3{fill:#b14c26;}</style></defs><title>Asset 41</title><g id="Layer_2" data-name="Layer 2"><g id="Section_1" data-name="Section 1"><path class="cls-1" d="M6.40928,0H41.4138a6.44392,6.44392,0,0,1,6.40928,6.40928V41.4138a6.44393,6.44393,0,0,1-6.40928,6.40928H6.40928A6.44393,6.44393,0,0,1,0,41.4138V6.40928A6.52539,6.52539,0,0,1,6.40928,0Z"/><path class="cls-2" d="M37.518,23.819l-3.33219,3.33219,3.20878,3.20877a1.838,1.838,0,0,1,.49366,1.11073v5.80047c0,.61708-.12342.74049-.74049.74049H34.43261V33.56871a1.431,1.431,0,0,0-.49365-1.23414l-2.962-2.96195a1.76811,1.76811,0,0,0-1.23414-.49366H19.99313a1.431,1.431,0,0,0-1.23414.49366L15.797,32.33457a1.431,1.431,0,0,0-.49366,1.23414v3.579c0,.61707-.12341.8639-.8639.8639H11.72437v-6.541a1.838,1.838,0,0,1,.49365-1.11073l3.33219-3.33219L12.34144,23.819a1.838,1.838,0,0,1-.49366-1.11073V10.98388h3.579V20.6102a1.431,1.431,0,0,0,.49366,1.23414l2.96194,2.962A1.76812,1.76812,0,0,0,20.11655,25.3h9.74973a1.431,1.431,0,0,0,1.23415-.49366l2.96194-2.962A1.431,1.431,0,0,0,34.556,20.6102V10.98388h3.579V22.70825A2.38644,2.38644,0,0,1,37.518,23.819Z"/><polygon class="cls-2" points="19.006 17.772 21.598 17.772 21.598 20.363 19.006 20.363 19.006 17.772"/><polygon class="cls-2" points="28.632 17.772 31.224 17.772 31.224 20.363 28.632 20.363 28.632 17.772"/><polygon class="cls-2" points="19.006 12.959 21.598 12.959 21.598 15.55 19.006 15.55 19.006 12.959"/><polygon class="cls-2" points="28.632 12.959 31.224 12.959 31.224 15.55 28.632 15.55 28.632 12.959"/><polygon class="cls-2" points="23.819 17.772 26.411 17.772 26.411 20.363 23.819 20.363 23.819 17.772"/><polygon class="cls-2" points="23.819 12.959 26.411 12.959 26.411 15.55 23.819 15.55 23.819 12.959"/><path class="cls-3" d="M15.4268,40.60333a2.51586,2.51586,0,0,1-2.34488-1.85121h1.97463a1.06176,1.06176,0,0,0,.98732-.98732V35.79017a2.37821,2.37821,0,0,1,1.85122,2.34488A2.47554,2.47554,0,0,1,15.4268,40.60333Z"/><path class="cls-3" d="M38.13505,40.60333a2.3782,2.3782,0,0,1-2.34488-1.85121H37.7648a1.06176,1.06176,0,0,0,.98732-.98732V35.79017a2.3782,2.3782,0,0,1,1.85121,2.34488A2.47554,2.47554,0,0,1,38.13505,40.60333Z"/></g></g></svg>