<svg xmlns="http://www.w3.org/2000/svg" xmlns:xlink="http://www.w3.org/1999/xlink" viewBox="0 0 49.43142 49.43142"><defs><style>.cls-1{fill:url(#radial-gradient);}</style><radialGradient id="radial-gradient" cx="-80.2162" cy="-3698.55436" r="43.0611" gradientTransform="matrix(0.9982, -0.0596, -0.0425, -0.7123, -49.89172, -2624.39384)" gradientUnits="userSpaceOnUse"><stop offset="0" stop-color="#fffe00"/><stop offset="0.2728" stop-color="#ffb800"/><stop offset="1" stop-color="red"/></radialGradient></defs><title>Asset 42</title><g id="Layer_2" data-name="Layer 2"><g id="Section_1" data-name="Section 1"><polygon class="cls-1" points="41.322 49.431 0 41.322 8.11 0 49.431 8.11 41.322 49.431"/><path d="M3.661,3.661v42.1094h42.1094V3.661ZM9.5001,29.30356a1.96,1.96,0,0,1-3.12036-.98862,6.64664,6.64664,0,0,1,.27805-5.57649,14.40279,14.40279,0,0,1,5.68462-5.85453,18.82924,18.82924,0,0,1,9.60823-3.04312,11.05733,11.05733,0,0,1,5.97811,1.39026c.41708.2626.94229.587,1.01952,1.18944-.10813.448-.89594.5561-1.37481.587a20.00878,20.00878,0,0,0-11.77085,5.09761,24.10461,24.10461,0,0,0-4.74233,5.65372A5.50239,5.50239,0,0,1,9.5001,29.30356ZM20.15875,43.85494a1.19985,1.19985,0,0,1-2.06994.75692,10.083,10.083,0,0,1-2.53336-2.84231,15.70792,15.70792,0,0,1,.8805-17.28555,10.45037,10.45037,0,0,1,8.14073-4.51062c.55611-.04634,1.39026-.09268,1.71466.55611.15447.30894-.448.88049-.75692,1.05041-3.64557,1.91547-5.25209,5.26754-6.30251,8.97489-1.06586,3.76915-.24715,7.44561.80326,11.09118A4.67643,4.67643,0,0,1,20.15875,43.85494Zm21.101-8.01716a7.09046,7.09046,0,0,1-5.23664,4.51062c-.8805.16992-1.77644.309-2.65694.46342-5.31388-.09269-9.26839-3.32118-10.16434-8.37245a6.24458,6.24458,0,0,1,2.51792-6.20982c1.32847-.75692,2.22441-.40163,2.53335,1.09675.15448.74148.09269,1.52929.23171,2.28621.60245,3.59922,2.70328,5.46835,6.39519,5.39111a40.50548,40.50548,0,0,0,5.02038-.83416c.46342-.06179,1.20489-.06179,1.40571.21627A1.77348,1.77348,0,0,1,41.25979,35.83778Zm-12.29607-13.64a3.55355,3.55355,0,0,1,3.55289-3.50654,3.57722,3.57722,0,0,1-.0618,7.1521A3.54266,3.54266,0,0,1,28.96372,22.1978Zm11.53915,5.60737c-.309.35529-.49431.78782-1.35936.66424-.57156-.18537-.50977-1.08131-.43253-1.57563a11.82845,11.82845,0,0,0-1.23578-7.909,15.73133,15.73133,0,0,0-3.67646-4.09354c-2.33255-1.85367-4.88136-3.46019-7.36838-5.1285a2.543,2.543,0,0,1-1.26668-2.73418A2.153,2.153,0,0,1,27.66615,5.4529a14.98636,14.98636,0,0,1,6.41064,2.348c5.05127,2.81141,8.37244,8.38789,8.37244,15.12292A7.84261,7.84261,0,0,1,40.50287,27.80517Z"/></g></g></svg>