<svg xmlns="http://www.w3.org/2000/svg" viewBox="0 0 50 50"><defs><style>.cls-1{fill:#2196b0;}</style></defs><g id="Layer_2" data-name="Layer 2"><g id="Section_1" data-name="Section 1"><path class="cls-1" d="M34.6441,22.84546c-1.76263,0-2.82409,1.15918-2.93841,3.13452h5.73059C37.322,24.03723,36.34229,22.84546,34.6441,22.84546Z"/><path class="cls-1" d="M47.5625,0H2.43756A2.43758,2.43758,0,0,0,0,2.43762V47.5625A2.43756,2.43756,0,0,0,2.43756,50H47.5625A2.43751,2.43751,0,0,0,50,47.5625V2.43762A2.43753,2.43753,0,0,0,47.5625,0ZM13.32611,30.45312H5v-.7185l7.10181-9.30518H5.14691v-.751h7.918v.71777L5.96307,29.702h7.363Zm2.92712,0H15.437V22.29053h.81622Zm-.40814-9.74645a.68561.68561,0,1,1,.686-.68531A.65068.65068,0,0,1,15.84509,20.70667Zm6.07563,9.69714a2.57589,2.57589,0,0,1-1.07807.21277c-1.15918,0-1.7301-.63672-1.7301-2.057V18.53516h.81616v9.94262c0,.99561.29382,1.3711,1.02826,1.3711a2.32009,2.32009,0,0,0,1.07806-.22864Zm4.45843.04931H25.563l-3.41168-8.16259h.91394l2.92242,7.32971,2.93842-7.32971h.86541Zm11.79157-3.73876h-6.465c.11432,1.99194,1.22424,3.18371,3.0368,3.18371A2.689,2.689,0,0,0,37.40308,28.396l.68591.35888a3.50329,3.50329,0,0,1-3.3465,1.8617c-2.416,0-3.853-1.59973-3.853-4.24512,0-2.64465,1.37121-4.24451,3.75463-4.24451,2.26978,0,3.55921,1.66565,3.55921,4.04908A4.45287,4.45287,0,0,1,38.17072,26.71436Zm6.61663-3.54248a1.596,1.596,0,0,0-1.04486-.29383,2.74541,2.74541,0,0,0-2.38342,3.00427v4.5708h-.81622V22.29053h.68591l.09772,1.68152a2.68822,2.68822,0,0,1,2.64465-1.8451A1.7488,1.7488,0,0,1,45,22.40479Z"/></g></g></svg>