<svg xmlns="http://www.w3.org/2000/svg" viewBox="0 0 269.46 40.5"><defs><style>.cls-1{fill:#232323;}.cls-2{fill:none;stroke:#232323;stroke-miterlimit:10;stroke-width:0.84px;}.cls-3{fill:#00abee;}</style></defs><title>MSP-Docs_logo</title><g id="Layer_2" data-name="Layer 2"><g id="Menu"><path class="cls-1" d="M225.93,12.65c5.13,0,7,3.32,7,8s-1.79,8-7,8H221v-16ZM222.75,27h3.12c3.69,0,5.27-2.33,5.27-6.39s-1.5-6.41-5.27-6.41h-3.12Z"/><path class="cls-1" d="M246,22v1.1c0,3.43-1.67,5.79-5.18,5.79s-5.19-2.33-5.19-5.79V22c0-3.32,1.68-5.78,5.19-5.78S246,18.53,246,22Zm-8.66.2v.71c0,2.49.93,4.44,3.48,4.44s3.45-1.94,3.45-4.44v-.71c0-2.44-.9-4.47-3.45-4.47S237.29,19.7,237.29,22.15Z"/><path class="cls-1" d="M248.46,21.74c0-3.21,1.79-5.57,5-5.57,3,0,4.57,1.89,4.6,3.68h-1.72a2.74,2.74,0,0,0-2.86-2.17c-2.26,0-3.32,1.83-3.32,4.14v1.43c0,2.27,1.22,4,3.33,4,1.79,0,2.68-.88,2.93-1.86h1.72c-.09,1.64-1.71,3.48-4.68,3.48-3.26,0-5-2.35-5-5.6Z"/><path class="cls-1" d="M264.88,16.17c2.89,0,4.28,1.7,4.28,3.62h-1.63c-.06-1-.68-2.2-2.73-2.2-1.53,0-2.66.72-2.66,2,0,1.51,1.56,1.75,3,2.05,2.3.42,4.28,1,4.28,3.41s-2,3.75-4.76,3.75-4.5-1.35-4.5-3.46h1.69c.17,1.13,1.07,2,2.88,2,2,0,3-.91,3-2.11,0-1.47-1.39-1.76-3.15-2.11-2.31-.49-4.16-1-4.16-3.38S262.55,16.17,264.88,16.17Z"/><line class="cls-2" x1="206.5" x2="206.5" y2="40.5"/><path class="cls-3" d="M13.51,22.09l2.35-10.47c.72-3,.84-3.6,1.37-6.3l.23-.22c3.22,0,4.17,0,7.85-.12l.27.23c0,3.15.07,4,.26,8.12l.22,5.88c.34,7.09.42,8.76.65,12.44l-.19.23c-2.81,0-3.68,0-6,.11l-.23-.23c0-4.74,0-5.35-.15-10.62L20.11,11l-2.89,12.4c-.94,4.21-1.36,6.11-1.78,8.27l-.27.23c-1.93,0-2.58,0-4.59.11l-.23-.23c-.53-2.42-1.17-5.35-1.77-8L5.77,11.28,5.54,20c-.19,7.89-.19,8.73-.19,11.65l-.19.23c-2.05,0-2.73,0-5,.11L0,31.76c.34-6.22.38-6.9.61-11L1,12.41c.12-3.56.16-5.35.2-7.09l.22-.23c3.34,0,4.37,0,8.05-.11l.22.23c.42,2,.46,2.13,1.37,6.11Z"/><path class="cls-3" d="M39.57,29.72a7,7,0,0,1-5.24,2.54c-4.1,0-4.47-3.68-4.59-4.59-.11-1.14-.11-2.39-.11-4.63V21c0-5.46,0-6.37-.11-9l.19-.23a43.84,43.84,0,0,0,5.54-.22l.22.23c0,1.32-.07,7.81-.07,9.25,0,.91,0,4,.11,4.71a1.78,1.78,0,0,0,1.82,1.78,2.85,2.85,0,0,0,2.16-1.1V23.39c0-.72-.11-8.16-.22-11.31l.22-.22c2.51,0,3.15-.08,5.58-.23l.23.23c0,2.35-.08,3.68-.08,7.28,0,.8,0,5.69,0,7.89s.07,3.45.11,4.63l-.19.23c-2.7,0-3.15,0-5.5.07l-.19-.15Z"/><path class="cls-3" d="M54.66,31.89c-2.5,0-3.22,0-5.87.11l-.2-.22c.08-2.36.16-4.9.16-10.29,0-3.45,0-7,0-10.43-.07-3.79-.18-5.08-.3-6.9l.19-.23c2.54-.41,3.46-.57,5.81-1.06l.23.23c0,2.2,0,3.6,0,6.75,0,1.25,0,9.79.08,14.79.07,3.34.14,5.2.22,7Z"/><path class="cls-3" d="M66.88,16c-1.67,0-1.7,0-2.62,0v4.78c0,1,0,2.39,0,3.41,0,1.94,0,3.8,1.75,3.8a2.22,2.22,0,0,0,1.25-.38l.23.19c-.12,1.67-.15,1.93-.19,3.71l-.23.31a11.12,11.12,0,0,1-3.11.38c-.84,0-3.23,0-4.51-1.71-.95-1.29-.95-3-.91-5.66V22.56c0-.95,0-5.58,0-6.64-.69,0-1.07,0-1.86.08l-.19-.23c.07-1.71.07-1.71.15-3.72l.23-.22a16.24,16.24,0,0,0,1.71,0c0-.69,0-1.07,0-4.64l.19-.26c2.5-.61,3.23-.84,5.43-1.52l.26.19c-.08,1.67-.11,2.13-.15,6.34,1.36,0,1.67,0,2.77-.11l.22.22c-.11,1.75-.11,2-.19,3.72Z"/><path class="cls-3" d="M75.3,31.9c-2.43,0-3.34,0-6,.11l-.23-.23c.11-2.43.19-4.82.19-9.1,0-6-.19-8.08-.34-10.09l.19-.23c2.66-.38,3.34-.5,6-1.06l.23.22c0,.53,0,1.07,0,1.56,0,2.28-.08,4.51-.08,6.79,0,3.95.07,7.86.34,11.8ZM74.74,8.26c-2.28.27-3,.34-5.27.76l-.23-.23c0-2,0-2.5-.08-4.59L69.39,4c2.62-.26,3.07-.34,5.39-.68l.23.23C74.93,5.68,75,6.25,75,8Z"/><path d="M91.69,10.77A6,6,0,0,0,87.45,9c-1.94,0-3.19,1.14-3.19,2.77a3.56,3.56,0,0,0,1.82,3c.38.34,2.43,1.71,2.88,2,2.39,1.67,4.32,3.42,4.32,7.21a8.58,8.58,0,0,1-2,5.69c-2,2.24-4.67,2.73-7.25,2.73a13.23,13.23,0,0,1-5.69-1.21l-.23-.38c0-.8.12-1.63.16-2.47s.07-1.44.07-2.16l.31-.11a6.82,6.82,0,0,0,4.7,1.86A3.25,3.25,0,0,0,87,24.61C87,23,85.92,22,84.1,20.78l-1.59-1.1c-2-1.4-4.44-3.15-4.44-7.32A7.67,7.67,0,0,1,80.2,6.71a8.65,8.65,0,0,1,6.3-2.12A12.69,12.69,0,0,1,92.15,5.8l.15.31c-.08.79-.15,1.59-.19,2.38L92,10.66Z"/><path d="M104.47,30.31A6.25,6.25,0,0,1,100,32.24c-2.85,0-5.09-2.2-5.09-6.26,0-5.72,5-7,9.49-7.85,0-1.29,0-2.73-2.69-2.73a8.43,8.43,0,0,0-4.86,1.52l-.26-.15c.11-1.75.15-2.24.19-3.84l.23-.3a17.67,17.67,0,0,1,6.45-1.25c1.47,0,4.47.23,5.87,2.66.84,1.48.84,3.22.76,6.34l0,3a66.26,66.26,0,0,0,.3,8.31l-.26.23c-2.54,0-3.11,0-5.31.07l-.27-.19Zm-.07-8.69c-1.59.23-4.1.65-4.1,3.72,0,1.59.83,2.62,2,2.62a2.71,2.71,0,0,0,2.05-1Z"/><path d="M122.27,16.05c-1.1,0-1.71,0-2.39,0,0,9,.15,12.52.26,15.71l-.23.19c-2.73,0-3.3,0-5.8.11l-.19-.23c0-.45,0-.95,0-1.4.07-2.66.07-11,.07-14.42-.83,0-1.06,0-1.89.08l-.19-.23c.08-1.4.11-1.93.19-3.75l.23-.23a13,13,0,0,0,1.67.07C114,9,114,6.53,115.18,5c1.51-2,4.32-2,5.19-2a13.34,13.34,0,0,1,2.66.27l.15.23C123,5.17,123,5.58,123,7.44l-.26.23a1.73,1.73,0,0,0-2.39.53c-.46.68-.46,1.4-.46,3.75,1.18,0,1.56,0,2.66-.07l.22.23c-.15,1.67-.15,2.05-.22,3.72Z"/><path d="M129.55,23.07c.07,3.34,1.9,5.05,4.74,5.05a6.41,6.41,0,0,0,4.13-1.37l.27.16c-.12,1.63-.15,2.35-.2,3.94l-.15.31c-.79.68-3.18,1.21-5.38,1.21-6.53,0-9.14-4.14-9.14-10.52a17.14,17.14,0,0,1,.45-4.13c1.15-4.63,4.33-6.33,7.67-6.33a8,8,0,0,1,3.22.64c3.57,1.6,4.18,5.16,4.18,8.85,0,.72,0,1.44,0,2l-.27.22Zm4.21-3.6a12,12,0,0,0-.11-1.94c-.19-1.25-.8-2.27-1.9-2.27-.53,0-2.12.22-2.24,4.21Z"/><path d="M147.68,11.55c0,.87,0,1,0,1.89a6.4,6.4,0,0,1,4.41-2,5.26,5.26,0,0,1,4.51,2.66,12.9,12.9,0,0,1,1.59,6.71c0,2.7-.38,8.54-5.69,10.63a11.53,11.53,0,0,1-4.67.56c0,2.77.15,6.19.23,7.7l-.23.23c-.76,0-1.52-.08-2.24-.08-1.18,0-2.16.08-3.53.16l-.23-.23c.12-3,.16-6.07.16-9.07,0-6,0-12.1-.53-18.09l.19-.23c2.77-.38,3.49-.53,5.81-1Zm.23,16.38a2.37,2.37,0,0,0,.53,0h.3c3.34-.34,3.41-4.85,3.42-6.71a10.54,10.54,0,0,0-.65-4,2.09,2.09,0,0,0-1.82-1.37,2.72,2.72,0,0,0-1.86,1c0,4,0,5.81.08,11"/><path d="M169.26,30.33a6.23,6.23,0,0,1-4.51,1.93c-2.85,0-5.08-2.2-5.09-6.26,0-5.73,5-7,9.49-7.85,0-1.29,0-2.73-2.69-2.73a8.39,8.39,0,0,0-4.85,1.52l-.27-.16c.11-1.74.15-2.23.19-3.83l.23-.3a17.49,17.49,0,0,1,6.45-1.25c1.48,0,4.47.23,5.88,2.66.83,1.48.83,3.22.75,6.33l0,3a68,68,0,0,0,.3,8.3l-.26.24c-2.54,0-3.11,0-5.31.07l-.27-.19Zm-.07-8.69c-1.59.23-4.1.65-4.1,3.72,0,1.59.84,2.62,2,2.62a2.71,2.71,0,0,0,2.05-1Z"/><path d="M180.3,39.74a75.15,75.15,0,0,0,2.58-7.13c-1.71-6-4.77-15.74-6.48-20.45l.19-.23c2.77,0,3.3-.07,6-.26l.31.23c.41,2,.53,2.58,1.55,6.71l1.44,5.73,1.56-6.11c.72-2.73.76-3,1.48-6.18l.23-.22c2.12,0,2.65,0,4.7-.08L194,12c-1,3-1.21,3.83-3.45,11.15l-1.9,6.22c-1.52,5.27-2.17,7.58-2.77,10.32l-.27.22c-2.46,0-3,0-5.12.08Z"/></g></g></svg>