<svg xmlns="http://www.w3.org/2000/svg" viewBox="0 0 48.08 48"><defs><style>.cls-1{fill:#0cf;}</style></defs><title>CS-Cart</title><g id="Layer_2" data-name="Layer 2"><g id="Section_1" data-name="Section 1"><path class="cls-1" d="M16.19,23.39c0-2.23,0-4.46,0-6.68,0-.47.15-.62.62-.62,4.47,0,8.94,0,13.41,0,.59,0,.62.64.62.64V30.11c0,.6,0,.63-.63.63H16.83c-.62,0-.64,0-.64-.67Z"/><path class="cls-1" d="M33.43,23.4c0-2.23,0-4.46,0-6.69,0-.45.13-.62.6-.62q6.74,0,13.47,0c.44,0,.58.16.58.59q0,6.74,0,13.47c0,.43-.12.6-.58.6q-6.73,0-13.46,0c-.47,0-.62-.16-.61-.62C33.44,27.89,33.43,25.64,33.43,23.4Z"/><path class="cls-1" d="M7.3,14.57H.62c-.45,0-.62-.13-.62-.6Q0,7.29,0,.61C0,.14.16,0,.62,0,5.09,0,9.56,0,14,0c.5,0,.62.18.62.65q0,6.63,0,13.27c0,.63,0,.65-.66.65Z"/><path class="cls-1" d="M23.48,48c-2.23,0-4.45,0-6.68,0-.46,0-.62-.14-.62-.61q0-6.68,0-13.36c0-.47.17-.6.62-.6H30.22c.46,0,.62.14.61.61q0,6.68,0,13.36c0,.47-.17.6-.62.6C28,48,25.72,48,23.48,48Z"/><path class="cls-1" d="M40.77,48H34.08c-.63,0-.65,0-.65-.65V34.07c0-.61,0-.63.63-.63H47.47c.47,0,.61.16.61.61q0,6.69,0,13.37c0,.43-.13.59-.58.59C45.25,48,43,48,40.77,48Z"/></g></g></svg>