<svg xmlns="http://www.w3.org/2000/svg" viewBox="0 0 46.82 53.55"><defs><style>.cls-1{fill:#2fa8e0;}</style></defs><title>Drupal_7</title><g id="Layer_2" data-name="Layer 2"><g id="Section_1" data-name="Section 1"><path class="cls-1" d="M18.87,43.59l-6.3,7.5A7,7,0,0,1,11,50.31c-9.91-6-13.29-17.53-9.54-26.83,2.57-6.36,7.14-8.66,11.2-10.73,0,.2-.25,1.35-.3,1.62-.29,1.8-.26,1.86,1.25,2.1,3.54.59,7.08,1.15,10.63,1.72s7,1.11,10.49,1.69c2.16.36,2.06.44,1.38,2.51A6.26,6.26,0,0,1,35,24.51Z"/><path class="cls-1" d="M35.38,15.18c-7-1.16-13.93-2.25-20.9-3.37,4-2.15,7-4.68,6.34-11.81a85.32,85.32,0,0,0,10,9.68l6.68,6.13A8.67,8.67,0,0,0,35.38,15.18Z"/><path class="cls-1" d="M45.36,39.28A24.1,24.1,0,0,1,30.23,52.84a29.59,29.59,0,0,1-12.7,0q11.07-13.1,22.11-26.2a7.05,7.05,0,0,0,1.42-7.42C46,24.89,48.67,31.14,45.36,39.28Z"/></g></g></svg>