<svg xmlns="http://www.w3.org/2000/svg" xmlns:xlink="http://www.w3.org/1999/xlink" viewBox="0 0 51.04 36.71"><defs><style>.cls-1{fill:url(#linear-gradient);}.cls-2{fill:url(#linear-gradient-2);}.cls-3{fill:url(#linear-gradient-3);}</style><linearGradient id="linear-gradient" x1="10.67" y1="13.27" x2="51.04" y2="13.27" gradientUnits="userSpaceOnUse"><stop offset="0" stop-color="#04b6f0"/><stop offset="1" stop-color="#3ecaf0"/></linearGradient><linearGradient id="linear-gradient-2" x1="11.39" y1="33.06" x2="17.16" y2="33.06" xlink:href="#linear-gradient"/><linearGradient id="linear-gradient-3" x1="28.04" y1="227.03" x2="28.07" y2="227.03" gradientTransform="matrix(0, -184.24, -184.43, 0, 41902.33, 5201.42)" xlink:href="#linear-gradient"/></defs><title>OpenCart</title><g id="Layer_2" data-name="Layer 2"><g id="Section_1" data-name="Section 1"><path class="cls-1" d="M51,11c0-2.15-4-3.12-14.26-3.12C12.66,7.91,6.55,6.88,0,0,2.75,4.13,4.26,11.88,29.75,11.5c26.59-.41,10.37,6.85,5.65,15.05C43.91,19,51,14,51,11.06Z"/><path class="cls-2" d="M17.16,33.07a3.65,3.65,0,0,1-7.29,0h0a3.66,3.66,0,0,1,3.65-3.65h0A3.64,3.64,0,0,1,17.16,33.07Z"/><path class="cls-3" d="M33.76,33.07a3.65,3.65,0,0,1-7.29,0h0a3.67,3.67,0,0,1,3.65-3.65h0A3.64,3.64,0,0,1,33.76,33.07Z"/></g></g></svg>