<svg xmlns="http://www.w3.org/2000/svg" viewBox="0 0 41.25 48.86"><title>OsCommerce</title><g id="Layer_2" data-name="Layer 2"><g id="Section_1" data-name="Section 1"><path d="M14.94,48.74A16.72,16.72,0,0,1,11,47.82C5,45.45,1.16,41.11.19,34.67a16.39,16.39,0,0,1,9.5-17.36c.41-.19.44-.34.25-.71A11.51,11.51,0,0,1,18.07.2,11.19,11.19,0,0,1,31.25,9.42a.57.57,0,0,0,.5.52,12.3,12.3,0,0,1,8,6.32,11.89,11.89,0,0,1,1.42,7,12.41,12.41,0,0,1-8,10.72.65.65,0,0,0-.42.6,15.71,15.71,0,0,1-9.63,12.83,16.66,16.66,0,0,1-4.9,1.29A11,11,0,0,1,14.94,48.74ZM19.62,2.15c-.41,0-.9,0-1.4.1A9.85,9.85,0,0,0,11.07,17c.3.52.3.52-.24.75a14.65,14.65,0,0,0-8.66,16.9,14.58,14.58,0,0,0,18,11.06c6-1.63,9.63-5.75,11.08-11.78.26-1.1,0-.89,1-1.11A10.84,10.84,0,0,0,30.5,11.35c-.48,0-.66-.19-.73-.67A10.21,10.21,0,0,0,19.62,2.15Z"/></g></g></svg>