<svg xmlns="http://www.w3.org/2000/svg" viewBox="0 0 48.66 48.66"><defs><style>.cls-1{fill:#a5dbe8;}.cls-2{fill:#525353;}.cls-3{fill:#aa9678;}.cls-4{fill:#c4b6a1;}.cls-5{fill:#786453;}.cls-6{fill:#fff;}.cls-7{fill:#bbbcbd;}.cls-8{fill:#676a6a;}.cls-9{fill:#909393;}.cls-10{fill:#e3dddb;}.cls-11{fill:#fcb03f;}.cls-12{fill:#9f2254;}.cls-13{fill:#df0067;}.cls-14{fill:#8b7460;}</style></defs><title>PrestaShop</title><g id="Layer_2" data-name="Layer 2"><g id="Section_1" data-name="Section 1"><path class="cls-1" d="M15.77,37.33c.39-.17.78-.33,1.18-.48s.9-.32,1.36-.46,1.15-.33,1.73-.45a21.39,21.39,0,0,1,2.38-.37c-.45,1.41-.94,2.82-1.48,4.21,0,.27,0,.54,0,.82a17.17,17.17,0,0,1,6.7,0c0-.28,0-.55,0-.82-.54-1.39-1-2.8-1.48-4.21a21.39,21.39,0,0,1,2.38.37c.58.12,1.16.28,1.73.45s.91.29,1.36.46.79.31,1.18.48a21.12,21.12,0,0,1,7.33,5.42,24.33,24.33,0,1,0-31.78,0,21.12,21.12,0,0,1,7.33-5.42"/><path class="cls-2" d="M32.89,37.33l1.51,5.2.43,0c.27,0,.47.07.47.35a13.56,13.56,0,0,0,.07,1.43c.37.32.83.68,1.18,1a24.39,24.39,0,0,0,3.67-2.61,21.12,21.12,0,0,0-7.33-5.42"/><path class="cls-2" d="M29.93,37.28l1.78-.43c-.45-.17-.9-.32-1.36-.46s-1.15-.33-1.73-.45a21.39,21.39,0,0,0-2.38-.37c.45,1.41.94,2.82,1.48,4.21,0,.27,0,.54,0,.82a17.13,17.13,0,0,1,3.63,1.18l-1.38-4.5"/><path d="M12.11,45.36c.28.17.57.33.86.48.1-.48.26-1.16.31-1.66-.38.32-.82.83-1.17,1.18"/><path d="M31.28,41.74a16.24,16.24,0,0,0-3.6-1.14,17.17,17.17,0,0,0-6.7,0,17.15,17.15,0,0,0-3.71,1.13l-.12.75H31.51l-.23-.74"/><path class="cls-2" d="M13.24,44.32c0-.45.07-.86.07-1.32a.43.43,0,0,1,.47-.45l.46,0,1.53-5.2a21.12,21.12,0,0,0-7.33,5.42,24.39,24.39,0,0,0,3.67,2.61c.35-.35.71-.68,1.08-1"/><path d="M35.55,45.25c.1.49.12.59.14.59.29-.15.58-.31.86-.48-.35-.35-.72-.69-1.1-1l.1.9"/><path class="cls-3" d="M31.28,41.74l.23.74h2.94l-1.56-5.15c-.39-.17-.78-.33-1.18-.48l-1.78.43,1.35,4.46"/><path class="cls-4" d="M14.26,43.52l.05,0h0v0"/><path class="cls-3" d="M34.39,43.49h0l0,0v0"/><path class="cls-3" d="M34.34,43.41l-10,0,0,5.23a24.13,24.13,0,0,0,10.43-2.35,16.55,16.55,0,0,1-.26-2.83l-.16-.07"/><path class="cls-4" d="M24.31,43.45s-10.09,0-10.1,0c0,.95-.23,2.07-.31,2.86a24.13,24.13,0,0,0,10.43,2.35v-5.2h0"/><path class="cls-5" d="M24.33,43h0v.5h0Z"/><path class="cls-2" d="M31.3,39a2.3,2.3,0,0,1-.23-.28,2.3,2.3,0,0,0,.23.28"/><path class="cls-3" d="M31.86,39.57h0A4.73,4.73,0,0,1,31.3,39a4.73,4.73,0,0,0,.56.56"/><path class="cls-6" d="M39.29,17.55h0"/><path class="cls-6" d="M40.27,24.56h0"/><path class="cls-7" d="M40.27,24.55h0"/><path class="cls-8" d="M40.24,24.17v0h0c0,.1,0,.19,0,.29v.05h0v.05c0,.1,0,.2,0,.29h0v0a2.5,2.5,0,0,1-.05.29h0l.64-.67-.64-.67h0a2.5,2.5,0,0,1,.05.29"/><path d="M40.24,24.93s0,0,0,0,0-.19,0-.29v-.12c0-.1,0-.19,0-.29v0a2.5,2.5,0,0,0-.05-.29l0-.1a2,2,0,0,0-.23-.49.21.21,0,0,1,0-.06l-.08-.1a.69.69,0,0,0-.13-.11s0,0,0,0l-.11-.06-.06,0a.5.5,0,0,0-.34,0l-.06,0L39,23s0,0-.05,0a.69.69,0,0,0-.13.11l-.08.1a.21.21,0,0,1,0,.06,2,2,0,0,0-.23.49v0a2.68,2.68,0,0,0-.07.27s0,.06,0,.09a3.11,3.11,0,0,0,0,.33v0h0c0,.93.43,1.68,1,1.68a.5.5,0,0,0,.27-.07l0,0,.11-.07,0,0,.12-.13a.76.76,0,0,0,.08-.11.56.56,0,0,1,0-.08l.07-.16,0-.06c0-.08,0-.16.08-.25a2.5,2.5,0,0,0,.05-.29Zm-.91-.6c-.21,0-.37-.28-.37-.63s.16-.63.37-.63.36.28.36.63-.16.63-.36.63Z"/><path class="cls-6" d="M39.33,23.07c-.21,0-.37.28-.37.63s.16.63.37.63.36-.28.36-.63-.16-.63-.36-.63"/><path class="cls-9" d="M38.42,23.78h0a2,2,0,0,1,.23-.49.21.21,0,0,0,0-.06l.08-.1A.69.69,0,0,1,38.9,23s0,0,.05,0l.11-.06.06,0a.5.5,0,0,1,.34,0l.06,0,.11.06s0,0,0,0a.69.69,0,0,1,.13.11l.08.1a.21.21,0,0,0,0,.06,2,2,0,0,1,.23.49h0l-.87-4-.87,4h0"/><path d="M27.81,24.51a1.79,1.79,0,0,0,0-.23h0a1.7,1.7,0,0,0,0-.22h0a.83.83,0,0,0-.06-.21h0a1.19,1.19,0,0,0-.08-.2h0l-.1-.2a2.29,2.29,0,0,0-.41-.52,2.11,2.11,0,0,0-.72-.46h0A2.77,2.77,0,0,0,26,22.3h0a2.2,2.2,0,0,0-.44-.05,2,2,0,0,0-.43.05h0a2.64,2.64,0,0,0-.4.12h0a2.75,2.75,0,0,0-.38.2h0a2,2,0,0,0-.33.26h0a2.45,2.45,0,0,0-.42.53h0l-.09.19v0a1.34,1.34,0,0,0-.07.18s0,0,0,0,0,.12,0,.17,0,0,0,.05a1.1,1.1,0,0,0,0,.18.13.13,0,0,0,0,.06,1.93,1.93,0,0,0,0,.24,2.12,2.12,0,0,0,0,.44h0a2,2,0,0,0,.13.41h0a2.41,2.41,0,0,0,.46.71,2.79,2.79,0,0,0,.54.42h0l.19.09h0l.18.07h0l.18.05h.05l.18,0h.29a2.31,2.31,0,0,0,1.28-.39,2.61,2.61,0,0,0,.62-.62,2.42,2.42,0,0,0,.21-.39,2.25,2.25,0,0,0,.18-.89v0Zm-2.29-.26a.87.87,0,1,1,.86-.87.86.86,0,0,1-.86.87Z"/><path class="cls-6" d="M25.52,22.52a.87.87,0,1,0,.86.86.86.86,0,0,0-.86-.86"/><path class="cls-7" d="M23.94,22.89h0l1.58-4.83V16.92h0a12.78,12.78,0,0,0-2.71-.28c-.31,0-.61,0-.92,0h-.13a13.48,13.48,0,0,0-4.59,1.19,14.74,14.74,0,0,0-3.43,2.2h0c-.28.23-.54.48-.8.74l-.15.14c-.24.25-.48.5-.71.77l-.15.17c-.23.27-.45.55-.66.83a.35.35,0,0,0,0,.08c-.21.27-.4.55-.59.84l-.1.17c-.15.24-.29.48-.43.73H17.3l6.64-1.64"/><path class="cls-10" d="M30,22.34c0-.19,0-.37,0-.56l0-.77v-.76c0-.52,0-1-.06-1.54h0l-.54-.3h0l-.15-.08h0l-.1-.05h0l-.08,0c-.33-.17-.67-.33-1-.47a16.65,16.65,0,0,0-2.54-.79v1.14l1.57,4.83h0a2.29,2.29,0,0,1,.41.52h0l.1.2h0a1.19,1.19,0,0,1,.08.2h0a.83.83,0,0,1,.06.21h0a1.7,1.7,0,0,1,0,.22h0a1.79,1.79,0,0,1,0,.23v0h1.92A21.38,21.38,0,0,0,30,22.4v-.06"/><path class="cls-11" d="M32.52,20.63h0"/><path class="cls-9" d="M24,22.88h0a2,2,0,0,1,.33-.26h0a2.75,2.75,0,0,1,.38-.2h0a2.64,2.64,0,0,1,.4-.12h0a2,2,0,0,1,.43-.05,2.2,2.2,0,0,1,.44.05h0a2.77,2.77,0,0,1,.41.12h0a2.11,2.11,0,0,1,.72.46h0l-1.57-4.83L24,22.88"/><path class="cls-8" d="M23.4,25.41a2,2,0,0,1-.13-.41h0a2.12,2.12,0,0,1,0-.44,1.93,1.93,0,0,1,0-.24.13.13,0,0,1,0-.06,1.1,1.1,0,0,1,0-.18s0,0,0-.05,0-.11,0-.17l0,0a1.34,1.34,0,0,1,.07-.18v0l.09-.19h0a2.45,2.45,0,0,1,.42-.53L17.3,24.53h0l6.57,1.6a2.41,2.41,0,0,1-.46-.71h0"/><path class="cls-10" d="M38.34,24.17s0-.06,0-.09a2.68,2.68,0,0,1,.07-.27v0l.87-4V17.55A3.53,3.53,0,0,0,37,16.64a3.92,3.92,0,0,0-2.62,1.23,9.75,9.75,0,0,0-1.82,2.63.54.54,0,0,0-.07.13L33,21c.32.29.64.6.95.9l.43.44.45.47c.2.2.39.4.58.61s.16.17.23.26l.68.76h0l.08.08h2v0a3.11,3.11,0,0,1,0-.33"/><path class="cls-10" d="M32.52,20.64h0"/><path class="cls-2" d="M8.93,27l0,0c.12-.33.26-.65.4-1a2.1,2.1,0,0,0,.13-.26c.12-.25.24-.5.37-.75.06-.1.11-.2.16-.3s.07-.11.1-.16c.14-.25.28-.49.43-.73l.1-.17c.19-.29.38-.57.59-.84a.35.35,0,0,1,0-.08c.21-.28.43-.56.66-.83l.15-.17c.23-.27.47-.52.71-.77L13,20.8c.26-.26.52-.51.8-.74h0a8.68,8.68,0,0,1,8.58-5.92,8.76,8.76,0,0,1,4.54,1.29A7.52,7.52,0,0,1,30,18.57v0l.06.11h0A14.73,14.73,0,0,1,31.79,20l.55.49a1.29,1.29,0,0,1,.17.16h0l.06-.13c.56-3.52,2.33-5.43,4.16-5.43,1.38,0,2.38.82,3.14,3v0h0a7,7,0,0,1,.63.77h0v0h0l0,.09h0l0-.11A17.06,17.06,0,0,0,7.3,24.36a16.6,16.6,0,0,0,.85,5.31h0c.11-.5.24-1,.39-1.49s.25-.77.39-1.15"/><path class="cls-6" d="M40.79,24.55l-.6.67h0a1.83,1.83,0,0,1-.08.25l0,.06-.07.16a.56.56,0,0,0,0,.08.76.76,0,0,1-.08.11l-.12.13,0,0-.11.07,0,0a.5.5,0,0,1-.27.07c-.54,0-1-.75-1-1.68h-2c.37.43.73.85,1.08,1.28v0c.35.42.68.84,1,1.27l0,.06.94,1.22.09.12,1,1.3h0a17,17,0,0,0,.89-5.28l-.55,0-.08,0"/><path d="M21.77,16.67h.13c.31,0,.61,0,.92,0a12.78,12.78,0,0,1,2.71.28h0a16.65,16.65,0,0,1,2.54.79c.34.14.68.3,1,.47l.08,0h0l.1.05h0l.15.08h0l.54.3h0L30,18.59v0A8.87,8.87,0,0,0,26.68,15a8.7,8.7,0,0,0-12.93,5,14.74,14.74,0,0,1,3.43-2.2,13.48,13.48,0,0,1,4.59-1.19"/><path class="cls-7" d="M40.53,18.92h0v0h0a7,7,0,0,0-.63-.77h0l-.3-.3-.11-.1-.19-.17v2.27l.87,4h0a.94.94,0,0,1,0,.09l.6.67h.63v-.17h0A17,17,0,0,0,40.56,19h0l0-.09"/><path d="M34.41,17.87A3.92,3.92,0,0,1,37,16.64a3.53,3.53,0,0,1,2.26.91h0l.19.17.11.1.3.3h0v0c-.76-2.21-2-3.65-3.36-3.65-1.83,0-3.38,2.53-3.94,6.05h0a9.75,9.75,0,0,1,1.82-2.63"/><path d="M31.94,39.5a4.13,4.13,0,0,1-.56-.55l-.23-.28L31,38.43l-.12-.19a5.45,5.45,0,0,1-.32-.64,3.79,3.79,0,0,1-.19-.67,4.88,4.88,0,0,1-.12-.55,5.2,5.2,0,0,1,0-.9,4.91,4.91,0,0,1,0-.53,5.17,5.17,0,0,1,.11-.54,6.64,6.64,0,0,1,.75-1.76l.09-.21c.13-.21.15-.2.27-.39,1.63-2.75,2.5-4.83,2.07-8,0-.22-.11-.74-.16-1,0,.17-.11.7-.11.71a2.07,2.07,0,0,1-.08.2,14.48,14.48,0,0,1-3.42,5.37l-.68.72c-.39.4-.8.82-1.24,1.25l-.53.53c-.16.16-.37.51-.61.77-.15.42-.33.9-.47,1.4l-.2-.07a23,23,0,0,1-5.19-2.81,22.83,22.83,0,0,0,4.3,4,7.7,7.7,0,0,0,.77.5c-.11,1.77.67,3.46,4.18,4a7.37,7.37,0,0,0,1.82,0s0,0,0,0,0,0,0,0"/><path class="cls-12" d="M30.06,35a21.68,21.68,0,0,0,12.52-1.83c.11,0,.24.09.36,0a29.9,29.9,0,0,1-7.19,5.23l-.34.17c-.38.17-.76.32-1.15.46a10.43,10.43,0,0,1-2.28.57l-.1,0,0-.05h0A4.73,4.73,0,0,1,31.3,39a2.3,2.3,0,0,1-.23-.28l-.18-.24-.12-.18c-.12-.19-.23-.4-.34-.62a6.93,6.93,0,0,1-.27-.73,4.88,4.88,0,0,1-.12-.55,4.35,4.35,0,0,1-.06-.9c0-.17,0-.35.05-.53h0"/><path class="cls-11" d="M27.82,31.42c.44-.43.85-.85,1.24-1.25l.68-.72A14.93,14.93,0,0,0,33.22,24a.74.74,0,0,0,.05-.19v0c0-.08,0-.17,0-.26s.22-.21.22-.27a8.27,8.27,0,0,0-1-2.6h0a1.29,1.29,0,0,0-.17-.16L31.79,20A14.73,14.73,0,0,0,30,18.71c0,.51.05,1,.06,1.54V21l0,.77c0,.19,0,.37,0,.56v.06a21.38,21.38,0,0,1-.28,2.13l-.22,1.06A35,35,0,0,1,27.3,31c-.21.47-.41.95-.58,1.44l0,.14.62-.65.53-.52"/><path class="cls-2" d="M17.52,41.67A15.11,15.11,0,0,1,21,40.6c0-.28,0-.55,0-.82.54-1.39,1-2.8,1.48-4.21a21.39,21.39,0,0,0-2.38.37c-.58.12-1.16.28-1.73.45s-.91.29-1.36.46l1.78.43L17.3,41.76l.22-.09"/><path class="cls-13" d="M39.45,28.39l-.94-1.22,0-.06c-.34-.43-.67-.85-1-1.27v0c-.35-.43-.71-.85-1.08-1.28l-.07-.08-.68-.76c-.07-.09-.15-.17-.23-.26s-.38-.41-.58-.61l-.45-.47-.43-.44c-.31-.3-.63-.61-.95-.9l-.44-.39h0a18.8,18.8,0,0,1,.83,2.71c0,.24.09.47.12.7.43,3.2-.6,5.29-2.22,8l-.36.6a6.32,6.32,0,0,0-.75,1.76A5.17,5.17,0,0,0,30,35a21.54,21.54,0,0,0,12.91-1.8s-1-1.42-2.42-3.37l-1-1.3-.09-.12"/><path class="cls-3" d="M17.13,42.56l1.6-5.28L17,36.85c-.4.15-.79.31-1.18.48l-1.58,5.23,1.77,0,1.17,0"/><path class="cls-6" d="M18.25,40.28l.47.17a17,17,0,0,0,12-.28L31,40l.5-.22.44-.21-.1,0a7.37,7.37,0,0,1-1.82,0c-3.51-.5-4.29-2.19-4.18-4a7.7,7.7,0,0,1-.77-.5,22.83,22.83,0,0,1-4.3-4A23,23,0,0,0,26,33.92l.2.07c.14-.5.32-1,.47-1.4l0-.14c.17-.49.37-1,.58-1.44a35,35,0,0,0,2.21-5.42l.22-1.06H27.81v0a2.25,2.25,0,0,1-.18.89,2.42,2.42,0,0,1-.21.39,2.61,2.61,0,0,1-.62.62,2.31,2.31,0,0,1-1.28.39h-.29l-.18,0H25l-.18-.05h0l-.18-.07h0l-.19-.09h0a2.79,2.79,0,0,1-.54-.42l-6.57-1.6H10.11s-.07.1-.1.16-.1.2-.16.3c-.13.25-.25.5-.37.75a2.1,2.1,0,0,1-.13.26c-.14.33-.28.65-.4,1l0,0c-.14.38-.28.76-.39,1.15s-.28,1-.39,1.49a17.13,17.13,0,0,0,6.2,8.5l.26.17a16.69,16.69,0,0,0,1.51,1,17.27,17.27,0,0,0,2.13,1"/><path class="cls-14" d="M35.46,44.36c0-.45-.07-.91-.07-1.37a.5.5,0,0,0-.5-.51H13.77a.5.5,0,0,0-.5.51,12.44,12.44,0,0,1-.08,1.37A12,12,0,0,1,13,45.84c.3.16.61.32.93.47a15.22,15.22,0,0,0,.36-2.79v0H34.39v0a15.22,15.22,0,0,0,.36,2.79c.32-.15.63-.31.93-.47a14.26,14.26,0,0,1-.23-1.48"/></g></g></svg>