<svg xmlns="http://www.w3.org/2000/svg" viewBox="0 0 48.46 59.05"><defs><style>.cls-1{fill:#189eff;}</style></defs><title>Shopware_5</title><g id="Layer_2" data-name="Layer 2"><g id="Section_1" data-name="Section 1"><g id="_Gruppe_3" data-name=" Gruppe 3"><path id="_Pfad_2" data-name=" Pfad 2" class="cls-1" d="M38.64,43.16c-2.1-1.59-5.21-2.8-8.5-4.07-3.91-1.51-8.36-3.24-11.67-5.88a14,14,0,0,1-5.61-11.58A13.1,13.1,0,0,1,18,11C21.8,8,27.54,6.46,34.6,6.46a41.11,41.11,0,0,1,5.54.35.35.35,0,0,0,.39-.3.35.35,0,0,0-.12-.3,24.2,24.2,0,1,0-1.78,37.51.39.39,0,0,0,.15-.28A.34.34,0,0,0,38.64,43.16Z"/><path id="_Pfad_3" data-name=" Pfad 3" class="cls-1" d="M48.35,22a.33.33,0,0,0-.12-.24c-5.06-4.19-9.15-5.9-14.12-5.9a9.89,9.89,0,0,0-6,1.58,4.5,4.5,0,0,0-1.8,3.66c0,4.17,5.09,6.06,11,8.26a66.14,66.14,0,0,1,9.06,3.9.3.3,0,0,0,.16,0l.12,0a.32.32,0,0,0,.21-.2,24.34,24.34,0,0,0,1.66-8.85C48.45,23.52,48.43,22.76,48.35,22Z"/></g><path class="cls-1" d="M47.6,54.88c0,2.23-1.64,4.17-5.24,4.17a8.68,8.68,0,0,1-4.81-1.35l1.15-2.23a6.09,6.09,0,0,0,3.59,1.13c1.46,0,2.36-.61,2.36-1.64s-.65-1.63-2.94-1.63H38.49l.65-7.1h7.68v2.34H41.57l-.2,2.4h1C46.12,51,47.6,52.64,47.6,54.88Z"/></g></g></svg>