<svg xmlns="http://www.w3.org/2000/svg" viewBox="0 0 49.19 49.19"><defs><style>.cls-1{fill:#4479bc;}.cls-2{fill:#fff;}</style></defs><title>VirtueMart</title><g id="Layer_2" data-name="Layer 2"><g id="Section_1" data-name="Section 1"><circle class="cls-1" cx="24.59" cy="24.59" r="24.59"/><g id="_6dZhlH.tif" data-name="6dZhlH.tif"><path class="cls-2" d="M39.93,8.42c-.4.45-.71.81-1,1.16a10.64,10.64,0,0,0-2.73,6.82c-.22,3.59-.49,7.19-1,10.75a12.51,12.51,0,0,1-.92,3.24,1,1,0,0,0,.08,1,3.25,3.25,0,0,1,0,3.53,1.33,1.33,0,0,1-2.39,0c-.54-.83-.54-.84-1.38-.28S28.68,36,27.72,36.55a1.1,1.1,0,0,0-.57,1.25,3.53,3.53,0,0,1-.64,2.74c-.85,1.14-2.21,1.14-2.74-.16-.45-1.12-1-1.14-2-1a29.48,29.48,0,0,1-7.21,0,.74.74,0,0,0-.9.5,1.38,1.38,0,0,1-2.52.17,3,3,0,0,1-.47-1.28,4.11,4.11,0,0,0-.15-1c-.43-1,0-1.65.82-2.27A22,22,0,0,1,16,32.76a11.67,11.67,0,0,0,2.36-1.27,4.85,4.85,0,0,0,.71-.65c.15-.16.33-.37.23-.61s-.39-.18-.61-.17a22.51,22.51,0,0,1-4.26-.24,3.76,3.76,0,0,1-3-2.34,24.38,24.38,0,0,1-2-7.82,3.5,3.5,0,0,1,1.09-2.78,15.43,15.43,0,0,1,5.76-3.42,27.74,27.74,0,0,1,4-1.23,1.13,1.13,0,0,0,.92-.81,4.94,4.94,0,0,1,1.42-2.24,3,3,0,0,1,2.06-.82H39.46C39.57,8.36,39.69,8.39,39.93,8.42ZM21.4,18.32a.83.83,0,0,1-.31-.68c-.15-.86-.33-1.72-.45-2.58-.08-.56-.35-.68-.85-.54-.82.24-1.65.43-2.45.71a9.26,9.26,0,0,0-4.24,2.7c-.51.62-.46.83.31,1a13.81,13.81,0,0,0,4.71.33,56.61,56.61,0,0,0,15.09-3.87.77.77,0,0,0,.56-.64,11.61,11.61,0,0,1,1.07-3.4c.3-.68.26-.74-.48-.74H25a3,3,0,0,0-.42,0c-.44.07-1,.7-.86,1.09s.55.32.86.32q3.14,0,6.27,0a2.12,2.12,0,0,1,1.94,1.09c.14.22.37.47.21.75s-.46.15-.71.15c-2.31,0-4.63,0-6.95,0-2.49,0-1.83-.41-2.88,1.87C22.1,16.73,21.76,17.51,21.4,18.32ZM18.14,36.93a13.14,13.14,0,0,0,3.49-.25,20,20,0,0,0,8.63-5.31A3.61,3.61,0,0,0,31.18,29c0-.4-.1-.63-.56-.48A32,32,0,0,1,23,29.79c-.4,0-.53.25-.63.6a11,11,0,0,0-.75,3.17,1.15,1.15,0,0,1-.88,1.19c-.61.15-.94-.25-1.2-.7a.49.49,0,0,0-.69-.25,31.3,31.3,0,0,0-4.22,2c-.21.12-.52.23-.47.53s.4.34.66.39A17.15,17.15,0,0,0,18.14,36.93Z"/></g></g></g></svg>