<svg xmlns="http://www.w3.org/2000/svg" xmlns:xlink="http://www.w3.org/1999/xlink" viewBox="0 0 56.09701 53.73422"><defs><style>.cls-1{fill:none;}.cls-2{fill:#1dcf65;}.cls-3{fill:url(#linear-gradient);}.cls-4{fill:#fff;}</style><linearGradient id="linear-gradient" x1="1664.70466" y1="684.1789" x2="1664.54748" y2="684.34731" gradientTransform="matrix(231.15736, 0, 0, -209.998, -384763.8489, 143722.36049)" gradientUnits="userSpaceOnUse"><stop offset="0" stop-color="#52d67a"/><stop offset="1" stop-color="#5aee87"/></linearGradient></defs><g id="Layer_2" data-name="Layer 2"><g id="Layer_14" data-name="Layer 14"><rect id="backgroundrect" class="cls-1" width="56.05882" height="53.73422"/><g id="svg_1" data-name="svg 1"><path id="svg_2" data-name="svg 2" class="cls-2" d="M52.35676,41.40563a.97064.97064,0,0,1-.96708,1.0542H4.58639a.97061.97061,0,0,1-.96732-1.0508L6.97314.89063A.97079.97079,0,0,1,7.9407,0H47.89584a.97056.97056,0,0,1,.96707.88723Z"/><path id="svg_3" data-name="svg 3" class="cls-3" d="M56.0928,51.977a1.21331,1.21331,0,0,1-1.209,1.31338H1.2134A1.21313,1.21313,0,0,1,.00389,51.98109L3.8569,3.44555A1.21313,1.21313,0,0,1,5.06641,2.32826h45.8037a1.21325,1.21325,0,0,1,1.20927,1.11341Z"/></g><g id="svg_17" data-name="svg 17"><g id="svg_18" data-name="svg 18"><path id="svg_19" data-name="svg 19" class="cls-4" d="M26.99172,37.89892c-6.98575,0-12.66881-6.82389-12.66881-15.2116a.79114.79114,0,0,1,1.58227,0c0,7.51528,4.97346,13.62933,11.08678,13.62933S38.07875,30.2026,38.07875,22.68732a.79113.79113,0,0,1,1.58226,0C39.66077,31.075,33.97747,37.89892,26.99172,37.89892Z"/></g><g id="svg_20" data-name="svg 20"><path id="svg_21" data-name="svg 21" class="cls-4" d="M34.79,22.47522a.79114.79114,0,0,1-.55937-1.35051l4.09982-4.09981a.79111.79111,0,0,1,.55937-.23176h0a.79008.79008,0,0,1,.55937.23176l4.05978,4.06a.79108.79108,0,1,1-1.11875,1.11875l-3.50064-3.5004-3.5402,3.5402A.78846.78846,0,0,1,34.79,22.47522Z"/></g></g></g></g></svg>