<svg xmlns="http://www.w3.org/2000/svg" viewBox="0 0 47.42 28.22"><defs><style>.cls-1{fill:#9b5c8f;}.cls-2{fill:#fff;}</style></defs><title>WooCommerce</title><g id="Layer_2" data-name="Layer 2"><g id="Section_1" data-name="Section 1"><path class="cls-1" d="M4.4,0H43a4.42,4.42,0,0,1,4.42,4.42V19.15A4.42,4.42,0,0,1,43,23.57H29.15l1.9,4.65L22.7,23.57H4.42A4.42,4.42,0,0,1,0,19.15V4.42A4.4,4.4,0,0,1,4.4,0Z"/><path class="cls-2" d="M2.7,4a1.54,1.54,0,0,1,1.21-.6A1.41,1.41,0,0,1,5.59,4.82q.9,6,2,10.23l4.22-8A1.82,1.82,0,0,1,13.2,5.86c.85-.06,1.37.48,1.59,1.62a35.32,35.32,0,0,0,1.83,6.59c.5-4.9,1.35-8.42,2.54-10.6a1.48,1.48,0,0,1,1.27-.85A1.68,1.68,0,0,1,21.65,3a1.49,1.49,0,0,1,.59,1.1,1.61,1.61,0,0,1-.19.92,23.37,23.37,0,0,0-1.87,7,36.43,36.43,0,0,0-.54,7.34,2.28,2.28,0,0,1-.23,1.27,1.24,1.24,0,0,1-1,.7,1.93,1.93,0,0,1-1.52-.71,19,19,0,0,1-4.26-8.22c-1.26,2.47-2.18,4.32-2.78,5.56-1.14,2.17-2.1,3.29-2.91,3.35-.52,0-1-.41-1.35-1.33Q4.1,16.16,2.39,5.32A1.63,1.63,0,0,1,2.7,4Zm41.42,3A4.43,4.43,0,0,0,41,4.82a5,5,0,0,0-1-.12,5.21,5.21,0,0,0-4.53,2.89A10.16,10.16,0,0,0,34,13a7.46,7.46,0,0,0,.93,3.82A4.43,4.43,0,0,0,38,19.08a5,5,0,0,0,1,.12,5.16,5.16,0,0,0,4.53-2.89,10.37,10.37,0,0,0,1.51-5.46,7.12,7.12,0,0,0-.93-3.8Zm-2.43,5.34a5.13,5.13,0,0,1-1.46,2.86,1.84,1.84,0,0,1-1.56.61c-.47-.09-.85-.5-1.14-1.25a5,5,0,0,1-.35-1.75,6.42,6.42,0,0,1,.14-1.41,6.15,6.15,0,0,1,1-2.29c.63-.95,1.31-1.33,2-1.2.47.1.85.5,1.14,1.25A5,5,0,0,1,41.83,11a6.45,6.45,0,0,1-.14,1.42ZM32.05,7.05A4.47,4.47,0,0,0,29,4.82a4.89,4.89,0,0,0-1-.12A5.22,5.22,0,0,0,23.4,7.59,10.24,10.24,0,0,0,21.9,13a7.55,7.55,0,0,0,.92,3.82,4.47,4.47,0,0,0,3.09,2.23,4.82,4.82,0,0,0,1,.12,5.17,5.17,0,0,0,4.53-2.89A10.36,10.36,0,0,0,33,10.85a7.31,7.31,0,0,0-.93-3.8Zm-2.44,5.34a5.07,5.07,0,0,1-1.47,2.86,1.84,1.84,0,0,1-1.56.61c-.46-.09-.85-.5-1.14-1.25a4.93,4.93,0,0,1-.34-1.75,7.11,7.11,0,0,1,.13-1.41,6.31,6.31,0,0,1,1-2.29c.64-.95,1.31-1.33,2-1.2.46.1.85.5,1.14,1.25A4.94,4.94,0,0,1,29.74,11a5.91,5.91,0,0,1-.13,1.42Z"/></g></g></svg>