<svg xmlns="http://www.w3.org/2000/svg" viewBox="0 0 47.82 47.82"><defs><style>.cls-1{fill:#f29221;}.cls-2{fill:#fff;}.cls-3{fill:#b14c26;}</style></defs><title>X-Cart</title><g id="Layer_2" data-name="Layer 2"><g id="Section_1" data-name="Section 1"><path class="cls-1" d="M6.41,0h35a6.44,6.44,0,0,1,6.41,6.41v35a6.44,6.44,0,0,1-6.41,6.41h-35A6.44,6.44,0,0,1,0,41.41v-35A6.52,6.52,0,0,1,6.41,0Z"/><path class="cls-2" d="M37.52,23.82l-3.33,3.33,3.2,3.21a1.83,1.83,0,0,1,.5,1.11v5.8c0,.62-.13.74-.74.74H34.43V33.57a1.44,1.44,0,0,0-.49-1.24l-3-3a1.78,1.78,0,0,0-1.24-.49H20a1.43,1.43,0,0,0-1.23.49l-3,3a1.44,1.44,0,0,0-.5,1.24v3.58c0,.61-.12.86-.86.86H11.72V31.47a1.83,1.83,0,0,1,.5-1.11L15.55,27l-3.21-3.21a1.82,1.82,0,0,1-.49-1.11V11h3.58v9.63a1.42,1.42,0,0,0,.49,1.23l3,3a1.78,1.78,0,0,0,1.24.49h9.75a1.43,1.43,0,0,0,1.23-.49l3-3a1.42,1.42,0,0,0,.5-1.23V11h3.58V22.71A2.55,2.55,0,0,1,37.52,23.82Z"/><polygon class="cls-2" points="19.01 17.77 21.6 17.77 21.6 20.36 19.01 20.36 19.01 17.77"/><polygon class="cls-2" points="28.63 17.77 31.22 17.77 31.22 20.36 28.63 20.36 28.63 17.77"/><polygon class="cls-2" points="19.01 12.96 21.6 12.96 21.6 15.55 19.01 15.55 19.01 12.96"/><polygon class="cls-2" points="28.63 12.96 31.22 12.96 31.22 15.55 28.63 15.55 28.63 12.96"/><polygon class="cls-2" points="23.82 17.77 26.41 17.77 26.41 20.36 23.82 20.36 23.82 17.77"/><polygon class="cls-2" points="23.82 12.96 26.41 12.96 26.41 15.55 23.82 15.55 23.82 12.96"/><path class="cls-3" d="M15.43,40.6a2.52,2.52,0,0,1-2.35-1.85h2a1.06,1.06,0,0,0,1-1v-2a2.39,2.39,0,0,1,1.86,2.35A2.48,2.48,0,0,1,15.43,40.6Z"/><path class="cls-3" d="M38.14,40.6a2.38,2.38,0,0,1-2.35-1.85h2a1.06,1.06,0,0,0,1-1v-2a2.38,2.38,0,0,1,1.85,2.35A2.47,2.47,0,0,1,38.14,40.6Z"/></g></g></svg>