<svg xmlns="http://www.w3.org/2000/svg" xmlns:xlink="http://www.w3.org/1999/xlink" viewBox="0 0 49.43 49.43"><defs><style>.cls-1{fill:url(#radial-gradient);}</style><radialGradient id="radial-gradient" cx="-80.22" cy="-3698.55" r="43.06" gradientTransform="matrix(1, -0.06, -0.04, -0.71, -49.89, -2624.39)" gradientUnits="userSpaceOnUse"><stop offset="0" stop-color="#fffe00"/><stop offset="0.27" stop-color="#ffb800"/><stop offset="1" stop-color="red"/></radialGradient></defs><title>Zen_Cart</title><g id="Layer_2" data-name="Layer 2"><g id="Section_1" data-name="Section 1"><polygon class="cls-1" points="41.32 49.43 0 41.32 8.11 0 49.43 8.11 41.32 49.43"/><path d="M3.66,3.66V45.77H45.77V3.66ZM9.5,29.3a2,2,0,0,1-3.12-1,6.62,6.62,0,0,1,.28-5.57,14.43,14.43,0,0,1,5.68-5.86,18.85,18.85,0,0,1,9.61-3,11.13,11.13,0,0,1,6,1.39,1.8,1.8,0,0,1,1,1.19c-.11.45-.9.56-1.38.59a20,20,0,0,0-11.77,5.1,24,24,0,0,0-4.74,5.65A5.45,5.45,0,0,1,9.5,29.3ZM20.16,43.85a1.2,1.2,0,0,1-2.07.76,9.92,9.92,0,0,1-2.53-2.84,15.7,15.7,0,0,1,.88-17.29A10.44,10.44,0,0,1,24.58,20c.55,0,1.39-.09,1.71.56.16.31-.45.88-.76,1-3.64,1.92-5.25,5.27-6.3,9S19,38,20,41.65A4.71,4.71,0,0,1,20.16,43.85Zm21.1-8A7.12,7.12,0,0,1,36,40.35c-.88.17-1.77.31-2.65.46-5.32-.09-9.27-3.32-10.17-8.37a6.26,6.26,0,0,1,2.52-6.21c1.33-.76,2.22-.4,2.53,1.1.16.74.1,1.53.23,2.28.61,3.6,2.71,5.47,6.4,5.39a39.8,39.8,0,0,0,5-.83c.46-.06,1.21-.06,1.41.22A1.8,1.8,0,0,1,41.26,35.84ZM29,22.2a3.56,3.56,0,0,1,3.56-3.51,3.58,3.58,0,0,1-.07,7.15A3.54,3.54,0,0,1,29,22.2ZM40.5,27.81c-.31.35-.49.78-1.36.66-.57-.19-.51-1.08-.43-1.58A11.85,11.85,0,0,0,37.48,19a15.92,15.92,0,0,0-3.68-4.09c-2.33-1.85-4.88-3.46-7.37-5.13A2.55,2.55,0,0,1,25.16,7a2.16,2.16,0,0,1,2.51-1.58A15,15,0,0,1,34.08,7.8c5.05,2.81,8.37,8.39,8.37,15.12A7.88,7.88,0,0,1,40.5,27.81Z"/></g></g></svg>